####
#
# OBJ File Generated by Meshlab
#
####
# Object r_littlebase.obj
#
# Vertices: 108
# Faces: 416
#
####
vn 0.000000 0.000000 -12.566358
v 0.000000 0.000000 -0.006000
vn 0.000000 0.000000 12.566360
v 0.000000 0.000000 0.004000
vn 0.000000 0.000000 0.000000
v 0.003000 0.000000 -0.006000
vn 0.000000 0.000000 0.000000
v 0.003000 0.000000 0.004000
vn 3.135650 -0.193149 -3.018553
v 0.003000 0.000000 -0.006000
vn 3.135649 -0.193149 3.018553
v 0.003000 0.000000 0.004000
vn 6.223721 -0.770573 -6.036524
v 0.002977 -0.000369 -0.006000
vn 6.223720 -0.770573 6.036524
v 0.002977 -0.000369 0.004000
vn 6.081728 -1.530114 -6.036683
v 0.002909 -0.000732 -0.006000
vn 6.081731 -1.530115 6.036683
v 0.002909 -0.000732 0.004000
vn 5.847728 -2.265664 -6.037053
v 0.002797 -0.001084 -0.006000
vn 5.847726 -2.265663 6.037053
v 0.002797 -0.001084 0.004000
vn 5.524974 -2.967019 -6.036568
v 0.002643 -0.001419 -0.006000
vn 5.524976 -2.967020 6.036568
v 0.002643 -0.001419 0.004000
vn 5.118480 -3.623562 -6.036962
v 0.002448 -0.001733 -0.006000
vn 5.118478 -3.623560 6.036962
v 0.002448 -0.001733 0.004000
vn 4.634270 -4.225165 -6.036527
v 0.002217 -0.002021 -0.006000
vn 4.634270 -4.225165 6.036527
v 0.002217 -0.002021 0.004000
vn 4.080158 -4.762522 -6.037208
v 0.001952 -0.002278 -0.006000
vn 4.080159 -4.762524 6.037208
v 0.001952 -0.002278 0.004000
vn 3.464393 -5.227495 -6.036704
v 0.001657 -0.002501 -0.006000
vn 3.464390 -5.227491 6.036704
v 0.001657 -0.002501 0.004000
vn 2.795593 -5.613679 -6.036766
v 0.001337 -0.002685 -0.006000
vn 2.795596 -5.613684 6.036766
v 0.001337 -0.002685 0.004000
vn 2.083994 -5.914843 -6.036437
v 0.000997 -0.002829 -0.006000
vn 2.083992 -5.914838 6.036437
v 0.000997 -0.002829 0.004000
vn 1.341443 -6.126156 -6.037197
v 0.000642 -0.002930 -0.006000
vn 1.341444 -6.126158 6.037197
v 0.000642 -0.002930 0.004000
vn 0.578439 -6.244494 -6.036376
v 0.000277 -0.002987 -0.006000
vn 0.578439 -6.244494 6.036376
v 0.000277 -0.002987 0.004000
vn -0.193151 -6.268343 -6.037306
v -0.000092 -0.002998 -0.006000
vn -0.193151 -6.268344 6.037306
v -0.000092 -0.002998 0.004000
vn -0.961700 -6.197059 -6.036447
v -0.000460 -0.002964 -0.006000
vn -0.961700 -6.197057 6.036447
v -0.000460 -0.002964 0.004000
vn -1.716337 -6.031840 -6.036880
v -0.000821 -0.002885 -0.006000
vn -1.716338 -6.031841 6.036880
v -0.000821 -0.002885 0.004000
vn -2.444409 -5.775266 -6.036801
v -0.001169 -0.002763 -0.006000
vn -2.444408 -5.775263 6.036801
v -0.001169 -0.002763 0.004000
vn -3.135564 -5.431115 -6.036791
v -0.001500 -0.002598 -0.006000
vn -3.135566 -5.431118 6.036791
v -0.001500 -0.002598 0.004000
vn -3.779577 -5.004322 -6.036481
v -0.001808 -0.002394 -0.006000
vn -3.779577 -5.004322 6.036481
v -0.001808 -0.002394 0.004000
vn -4.365547 -4.502402 -6.037464
v -0.002088 -0.002154 -0.006000
vn -4.365546 -4.502401 6.037464
v -0.002088 -0.002154 0.004000
vn -4.885752 -3.931571 -6.035993
v -0.002337 -0.001881 -0.006000
vn -4.885752 -3.931572 6.035993
v -0.002337 -0.001881 0.004000
vn -5.332171 -3.301124 -6.037342
v -0.002551 -0.001579 -0.006000
vn -5.332170 -3.301123 6.037342
v -0.002551 -0.001579 0.004000
vn -5.696994 -2.621655 -6.036816
v -0.002725 -0.001254 -0.006000
vn -5.696995 -2.621655 6.036816
v -0.002725 -0.001254 0.004000
vn -5.975984 -1.901673 -6.036746
v -0.002859 -0.000909 -0.006000
vn -5.975986 -1.901676 6.036747
v -0.002859 -0.000909 0.004000
vn -6.164463 -1.152315 -6.036462
v -0.002949 -0.000551 -0.006000
vn -6.164461 -1.152316 6.036460
v -0.002949 -0.000551 0.004000
vn -6.259407 -0.385802 -6.036955
v -0.002994 -0.000185 -0.006000
vn -6.259407 -0.385800 6.036955
v -0.002994 -0.000185 0.004000
vn -6.259406 0.385801 -6.036955
v -0.002994 0.000185 -0.006000
vn -6.259407 0.385802 6.036955
v -0.002994 0.000185 0.004000
vn -6.164462 1.152315 -6.036462
v -0.002949 0.000551 -0.006000
vn -6.164463 1.152315 6.036462
v -0.002949 0.000551 0.004000
vn -5.975986 1.901674 -6.036746
v -0.002859 0.000909 -0.006000
vn -5.975984 1.901673 6.036746
v -0.002859 0.000909 0.004000
vn -5.696995 2.621655 -6.036816
v -0.002725 0.001254 -0.006000
vn -5.696994 2.621655 6.036816
v -0.002725 0.001254 0.004000
vn -5.332170 3.301123 -6.037342
v -0.002551 0.001579 -0.006000
vn -5.332171 3.301124 6.037342
v -0.002551 0.001579 0.004000
vn -4.885752 3.931571 -6.035993
v -0.002337 0.001881 -0.006000
vn -4.885752 3.931571 6.035993
v -0.002337 0.001881 0.004000
vn -4.365546 4.502401 -6.037464
v -0.002088 0.002154 -0.006000
vn -4.365547 4.502402 6.037464
v -0.002088 0.002154 0.004000
vn -3.779577 5.004322 -6.036481
v -0.001808 0.002394 -0.006000
vn -3.779577 5.004322 6.036481
v -0.001808 0.002394 0.004000
vn -3.135566 5.431118 -6.036791
v -0.001500 0.002598 -0.006000
vn -3.135564 5.431115 6.036791
v -0.001500 0.002598 0.004000
vn -2.444408 5.775263 -6.036801
v -0.001169 0.002763 -0.006000
vn -2.444409 5.775266 6.036801
v -0.001169 0.002763 0.004000
vn -1.716337 6.031841 -6.036880
v -0.000821 0.002885 -0.006000
vn -1.716337 6.031840 6.036880
v -0.000821 0.002885 0.004000
vn -0.961700 6.197057 -6.036447
v -0.000460 0.002964 -0.006000
vn -0.961700 6.197059 6.036447
v -0.000460 0.002964 0.004000
vn -0.193151 6.268344 -6.037306
v -0.000092 0.002998 -0.006000
vn -0.193151 6.268343 6.037306
v -0.000092 0.002998 0.004000
vn 0.578439 6.244494 -6.036376
v 0.000277 0.002987 -0.006000
vn 0.578439 6.244494 6.036376
v 0.000277 0.002987 0.004000
vn 1.341444 6.126158 -6.037197
v 0.000642 0.002930 -0.006000
vn 1.341443 6.126156 6.037197
v 0.000642 0.002930 0.004000
vn 2.083992 5.914838 -6.036437
v 0.000997 0.002829 -0.006000
vn 2.083994 5.914843 6.036437
v 0.000997 0.002829 0.004000
vn 2.795596 5.613684 -6.036766
v 0.001337 0.002685 -0.006000
vn 2.795593 5.613679 6.036766
v 0.001337 0.002685 0.004000
vn 3.464390 5.227490 -6.036704
v 0.001657 0.002501 -0.006000
vn 3.464393 5.227495 6.036704
v 0.001657 0.002501 0.004000
vn 4.080159 4.762524 -6.037208
v 0.001952 0.002278 -0.006000
vn 4.080158 4.762522 6.037208
v 0.001952 0.002278 0.004000
vn 4.634270 4.225165 -6.036527
v 0.002217 0.002021 -0.006000
vn 4.634270 4.225165 6.036527
v 0.002217 0.002021 0.004000
vn 5.118478 3.623560 -6.036962
v 0.002448 0.001733 -0.006000
vn 5.118480 3.623562 6.036962
v 0.002448 0.001733 0.004000
vn 5.524976 2.967020 -6.036568
v 0.002643 0.001419 -0.006000
vn 5.524974 2.967019 6.036568
v 0.002643 0.001419 0.004000
vn 5.847726 2.265663 -6.037053
v 0.002797 0.001084 -0.006000
vn 5.847728 2.265664 6.037053
v 0.002797 0.001084 0.004000
vn 6.081731 1.530115 -6.036683
v 0.002909 0.000732 -0.006000
vn 6.081728 1.530114 6.036683
v 0.002909 0.000732 0.004000
vn 6.223720 0.770573 -6.036524
v 0.002977 0.000369 -0.006000
vn 6.223721 0.770573 6.036524
v 0.002977 0.000369 0.004000
vn 3.135649 0.193149 -3.018553
v 0.003000 0.000000 -0.006000
vn 3.135650 0.193149 3.018553
v 0.003000 0.000000 0.004000
# 108 vertices, 0 vertices normals

f 1//1 3//3 5//5
f 2//2 6//6 4//4
f 3//3 4//4 5//5
f 5//5 4//4 6//6
f 1//1 5//5 7//7
f 2//2 8//8 6//6
f 5//5 6//6 7//7
f 7//7 6//6 8//8
f 1//1 7//7 9//9
f 2//2 10//10 8//8
f 7//7 8//8 9//9
f 9//9 8//8 10//10
f 1//1 9//9 11//11
f 2//2 12//12 10//10
f 9//9 10//10 11//11
f 11//11 10//10 12//12
f 1//1 11//11 13//13
f 2//2 14//14 12//12
f 11//11 12//12 13//13
f 13//13 12//12 14//14
f 1//1 13//13 15//15
f 2//2 16//16 14//14
f 13//13 14//14 15//15
f 15//15 14//14 16//16
f 1//1 15//15 17//17
f 2//2 18//18 16//16
f 15//15 16//16 17//17
f 17//17 16//16 18//18
f 1//1 17//17 19//19
f 2//2 20//20 18//18
f 17//17 18//18 19//19
f 19//19 18//18 20//20
f 1//1 19//19 21//21
f 2//2 22//22 20//20
f 19//19 20//20 21//21
f 21//21 20//20 22//22
f 1//1 21//21 23//23
f 2//2 24//24 22//22
f 21//21 22//22 23//23
f 23//23 22//22 24//24
f 1//1 23//23 25//25
f 2//2 26//26 24//24
f 23//23 24//24 25//25
f 25//25 24//24 26//26
f 1//1 25//25 27//27
f 2//2 28//28 26//26
f 25//25 26//26 27//27
f 27//27 26//26 28//28
f 1//1 27//27 29//29
f 2//2 30//30 28//28
f 27//27 28//28 29//29
f 29//29 28//28 30//30
f 1//1 29//29 31//31
f 2//2 32//32 30//30
f 29//29 30//30 31//31
f 31//31 30//30 32//32
f 1//1 31//31 33//33
f 2//2 34//34 32//32
f 31//31 32//32 33//33
f 33//33 32//32 34//34
f 1//1 33//33 35//35
f 2//2 36//36 34//34
f 33//33 34//34 35//35
f 35//35 34//34 36//36
f 1//1 35//35 37//37
f 2//2 38//38 36//36
f 35//35 36//36 37//37
f 37//37 36//36 38//38
f 1//1 37//37 39//39
f 2//2 40//40 38//38
f 37//37 38//38 39//39
f 39//39 38//38 40//40
f 1//1 39//39 41//41
f 2//2 42//42 40//40
f 39//39 40//40 41//41
f 41//41 40//40 42//42
f 1//1 41//41 43//43
f 2//2 44//44 42//42
f 41//41 42//42 43//43
f 43//43 42//42 44//44
f 1//1 43//43 45//45
f 2//2 46//46 44//44
f 43//43 44//44 45//45
f 45//45 44//44 46//46
f 1//1 45//45 47//47
f 2//2 48//48 46//46
f 45//45 46//46 47//47
f 47//47 46//46 48//48
f 1//1 47//47 49//49
f 2//2 50//50 48//48
f 47//47 48//48 49//49
f 49//49 48//48 50//50
f 1//1 49//49 51//51
f 2//2 52//52 50//50
f 49//49 50//50 51//51
f 51//51 50//50 52//52
f 1//1 51//51 53//53
f 2//2 54//54 52//52
f 51//51 52//52 53//53
f 53//53 52//52 54//54
f 1//1 53//53 55//55
f 2//2 56//56 54//54
f 53//53 54//54 55//55
f 55//55 54//54 56//56
f 1//1 55//55 57//57
f 2//2 58//58 56//56
f 55//55 56//56 57//57
f 57//57 56//56 58//58
f 1//1 57//57 59//59
f 2//2 60//60 58//58
f 57//57 58//58 59//59
f 59//59 58//58 60//60
f 1//1 59//59 61//61
f 2//2 62//62 60//60
f 59//59 60//60 61//61
f 61//61 60//60 62//62
f 1//1 61//61 63//63
f 2//2 64//64 62//62
f 61//61 62//62 63//63
f 63//63 62//62 64//64
f 1//1 63//63 65//65
f 2//2 66//66 64//64
f 63//63 64//64 65//65
f 65//65 64//64 66//66
f 1//1 65//65 67//67
f 2//2 68//68 66//66
f 65//65 66//66 67//67
f 67//67 66//66 68//68
f 1//1 67//67 69//69
f 2//2 70//70 68//68
f 67//67 68//68 69//69
f 69//69 68//68 70//70
f 1//1 69//69 71//71
f 2//2 72//72 70//70
f 69//69 70//70 71//71
f 71//71 70//70 72//72
f 1//1 71//71 73//73
f 2//2 74//74 72//72
f 71//71 72//72 73//73
f 73//73 72//72 74//74
f 1//1 73//73 75//75
f 2//2 76//76 74//74
f 73//73 74//74 75//75
f 75//75 74//74 76//76
f 1//1 75//75 77//77
f 2//2 78//78 76//76
f 75//75 76//76 77//77
f 77//77 76//76 78//78
f 1//1 77//77 79//79
f 2//2 80//80 78//78
f 77//77 78//78 79//79
f 79//79 78//78 80//80
f 1//1 79//79 81//81
f 2//2 82//82 80//80
f 79//79 80//80 81//81
f 81//81 80//80 82//82
f 1//1 81//81 83//83
f 2//2 84//84 82//82
f 81//81 82//82 83//83
f 83//83 82//82 84//84
f 1//1 83//83 85//85
f 2//2 86//86 84//84
f 83//83 84//84 85//85
f 85//85 84//84 86//86
f 1//1 85//85 87//87
f 2//2 88//88 86//86
f 85//85 86//86 87//87
f 87//87 86//86 88//88
f 1//1 87//87 89//89
f 2//2 90//90 88//88
f 87//87 88//88 89//89
f 89//89 88//88 90//90
f 1//1 89//89 91//91
f 2//2 92//92 90//90
f 89//89 90//90 91//91
f 91//91 90//90 92//92
f 1//1 91//91 93//93
f 2//2 94//94 92//92
f 91//91 92//92 93//93
f 93//93 92//92 94//94
f 1//1 93//93 95//95
f 2//2 96//96 94//94
f 93//93 94//94 95//95
f 95//95 94//94 96//96
f 1//1 95//95 97//97
f 2//2 98//98 96//96
f 95//95 96//96 97//97
f 97//97 96//96 98//98
f 1//1 97//97 99//99
f 2//2 100//100 98//98
f 97//97 98//98 99//99
f 99//99 98//98 100//100
f 1//1 99//99 101//101
f 2//2 102//102 100//100
f 99//99 100//100 101//101
f 101//101 100//100 102//102
f 1//1 101//101 103//103
f 2//2 104//104 102//102
f 101//101 102//102 103//103
f 103//103 102//102 104//104
f 1//1 103//103 105//105
f 2//2 106//106 104//104
f 103//103 104//104 105//105
f 105//105 104//104 106//106
f 1//1 105//105 107//107
f 2//2 108//108 106//106
f 105//105 106//106 107//107
f 107//107 106//106 108//108
f 1//1 3//3 5//5
f 2//2 6//6 4//4
f 3//3 4//4 5//5
f 5//5 4//4 6//6
f 1//1 5//5 7//7
f 2//2 8//8 6//6
f 5//5 6//6 7//7
f 7//7 6//6 8//8
f 1//1 7//7 9//9
f 2//2 10//10 8//8
f 7//7 8//8 9//9
f 9//9 8//8 10//10
f 1//1 9//9 11//11
f 2//2 12//12 10//10
f 9//9 10//10 11//11
f 11//11 10//10 12//12
f 1//1 11//11 13//13
f 2//2 14//14 12//12
f 11//11 12//12 13//13
f 13//13 12//12 14//14
f 1//1 13//13 15//15
f 2//2 16//16 14//14
f 13//13 14//14 15//15
f 15//15 14//14 16//16
f 1//1 15//15 17//17
f 2//2 18//18 16//16
f 15//15 16//16 17//17
f 17//17 16//16 18//18
f 1//1 17//17 19//19
f 2//2 20//20 18//18
f 17//17 18//18 19//19
f 19//19 18//18 20//20
f 1//1 19//19 21//21
f 2//2 22//22 20//20
f 19//19 20//20 21//21
f 21//21 20//20 22//22
f 1//1 21//21 23//23
f 2//2 24//24 22//22
f 21//21 22//22 23//23
f 23//23 22//22 24//24
f 1//1 23//23 25//25
f 2//2 26//26 24//24
f 23//23 24//24 25//25
f 25//25 24//24 26//26
f 1//1 25//25 27//27
f 2//2 28//28 26//26
f 25//25 26//26 27//27
f 27//27 26//26 28//28
f 1//1 27//27 29//29
f 2//2 30//30 28//28
f 27//27 28//28 29//29
f 29//29 28//28 30//30
f 1//1 29//29 31//31
f 2//2 32//32 30//30
f 29//29 30//30 31//31
f 31//31 30//30 32//32
f 1//1 31//31 33//33
f 2//2 34//34 32//32
f 31//31 32//32 33//33
f 33//33 32//32 34//34
f 1//1 33//33 35//35
f 2//2 36//36 34//34
f 33//33 34//34 35//35
f 35//35 34//34 36//36
f 1//1 35//35 37//37
f 2//2 38//38 36//36
f 35//35 36//36 37//37
f 37//37 36//36 38//38
f 1//1 37//37 39//39
f 2//2 40//40 38//38
f 37//37 38//38 39//39
f 39//39 38//38 40//40
f 1//1 39//39 41//41
f 2//2 42//42 40//40
f 39//39 40//40 41//41
f 41//41 40//40 42//42
f 1//1 41//41 43//43
f 2//2 44//44 42//42
f 41//41 42//42 43//43
f 43//43 42//42 44//44
f 1//1 43//43 45//45
f 2//2 46//46 44//44
f 43//43 44//44 45//45
f 45//45 44//44 46//46
f 1//1 45//45 47//47
f 2//2 48//48 46//46
f 45//45 46//46 47//47
f 47//47 46//46 48//48
f 1//1 47//47 49//49
f 2//2 50//50 48//48
f 47//47 48//48 49//49
f 49//49 48//48 50//50
f 1//1 49//49 51//51
f 2//2 52//52 50//50
f 49//49 50//50 51//51
f 51//51 50//50 52//52
f 1//1 51//51 53//53
f 2//2 54//54 52//52
f 51//51 52//52 53//53
f 53//53 52//52 54//54
f 1//1 53//53 55//55
f 2//2 56//56 54//54
f 53//53 54//54 55//55
f 55//55 54//54 56//56
f 1//1 55//55 57//57
f 2//2 58//58 56//56
f 55//55 56//56 57//57
f 57//57 56//56 58//58
f 1//1 57//57 59//59
f 2//2 60//60 58//58
f 57//57 58//58 59//59
f 59//59 58//58 60//60
f 1//1 59//59 61//61
f 2//2 62//62 60//60
f 59//59 60//60 61//61
f 61//61 60//60 62//62
f 1//1 61//61 63//63
f 2//2 64//64 62//62
f 61//61 62//62 63//63
f 63//63 62//62 64//64
f 1//1 63//63 65//65
f 2//2 66//66 64//64
f 63//63 64//64 65//65
f 65//65 64//64 66//66
f 1//1 65//65 67//67
f 2//2 68//68 66//66
f 65//65 66//66 67//67
f 67//67 66//66 68//68
f 1//1 67//67 69//69
f 2//2 70//70 68//68
f 67//67 68//68 69//69
f 69//69 68//68 70//70
f 1//1 69//69 71//71
f 2//2 72//72 70//70
f 69//69 70//70 71//71
f 71//71 70//70 72//72
f 1//1 71//71 73//73
f 2//2 74//74 72//72
f 71//71 72//72 73//73
f 73//73 72//72 74//74
f 1//1 73//73 75//75
f 2//2 76//76 74//74
f 73//73 74//74 75//75
f 75//75 74//74 76//76
f 1//1 75//75 77//77
f 2//2 78//78 76//76
f 75//75 76//76 77//77
f 77//77 76//76 78//78
f 1//1 77//77 79//79
f 2//2 80//80 78//78
f 77//77 78//78 79//79
f 79//79 78//78 80//80
f 1//1 79//79 81//81
f 2//2 82//82 80//80
f 79//79 80//80 81//81
f 81//81 80//80 82//82
f 1//1 81//81 83//83
f 2//2 84//84 82//82
f 81//81 82//82 83//83
f 83//83 82//82 84//84
f 1//1 83//83 85//85
f 2//2 86//86 84//84
f 83//83 84//84 85//85
f 85//85 84//84 86//86
f 1//1 85//85 87//87
f 2//2 88//88 86//86
f 85//85 86//86 87//87
f 87//87 86//86 88//88
f 1//1 87//87 89//89
f 2//2 90//90 88//88
f 87//87 88//88 89//89
f 89//89 88//88 90//90
f 1//1 89//89 91//91
f 2//2 92//92 90//90
f 89//89 90//90 91//91
f 91//91 90//90 92//92
f 1//1 91//91 93//93
f 2//2 94//94 92//92
f 91//91 92//92 93//93
f 93//93 92//92 94//94
f 1//1 93//93 95//95
f 2//2 96//96 94//94
f 93//93 94//94 95//95
f 95//95 94//94 96//96
f 1//1 95//95 97//97
f 2//2 98//98 96//96
f 95//95 96//96 97//97
f 97//97 96//96 98//98
f 1//1 97//97 99//99
f 2//2 100//100 98//98
f 97//97 98//98 99//99
f 99//99 98//98 100//100
f 1//1 99//99 101//101
f 2//2 102//102 100//100
f 99//99 100//100 101//101
f 101//101 100//100 102//102
f 1//1 101//101 103//103
f 2//2 104//104 102//102
f 101//101 102//102 103//103
f 103//103 102//102 104//104
f 1//1 103//103 105//105
f 2//2 106//106 104//104
f 103//103 104//104 105//105
f 105//105 104//104 106//106
f 1//1 105//105 107//107
f 2//2 108//108 106//106
f 105//105 106//106 107//107
f 107//107 106//106 108//108
# 416 faces, 0 coords texture

# End of File
