<?xml version="1.0" encoding="UTF-8" standalone="no"?>
<!DOCTYPE svg PUBLIC "-//W3C//DTD SVG 1.1//EN"
 "http://www.w3.org/Graphics/SVG/1.1/DTD/svg11.dtd">
<!-- Generated by graphviz version 2.40.1 (20161225.0304)
 -->
<!-- Title: /Users/Claudio/GitHub/visual&#45;tracking&#45;control/src/hand&#45;tracking/include/BrownianMotionPose.h Pages: 1 -->
<svg width="285pt" height="112pt"
 viewBox="0.00 0.00 284.76 112.00" xmlns="http://www.w3.org/2000/svg" xmlns:xlink="http://www.w3.org/1999/xlink">
<g id="graph0" class="graph" transform="scale(1 1) rotate(0) translate(4 108)">
<title>/Users/Claudio/GitHub/visual&#45;tracking&#45;control/src/hand&#45;tracking/include/BrownianMotionPose.h</title>
<polygon fill="#ffffff" stroke="transparent" points="-4,4 -4,-108 280.7632,-108 280.7632,4 -4,4"/>
<!-- Node0 -->
<g id="node1" class="node">
<title>Node0</title>
<polygon fill="#bfbfbf" stroke="#000000" points="36.4312,-55.5 36.4312,-103.5 166.3765,-103.5 166.3765,-55.5 36.4312,-55.5"/>
<text text-anchor="start" x="44.4312" y="-91.5" font-family="Helvetica,sans-Serif" font-size="10.00" fill="#000000">/Users/Claudio/GitHub</text>
<text text-anchor="start" x="44.4312" y="-81.5" font-family="Helvetica,sans-Serif" font-size="10.00" fill="#000000">/visual&#45;tracking&#45;control</text>
<text text-anchor="start" x="44.4312" y="-71.5" font-family="Helvetica,sans-Serif" font-size="10.00" fill="#000000">/src/hand&#45;tracking/include</text>
<text text-anchor="middle" x="101.4038" y="-61.5" font-family="Helvetica,sans-Serif" font-size="10.00" fill="#000000">/BrownianMotionPose.h</text>
</g>
<!-- Node1 -->
<g id="node2" class="node">
<title>Node1</title>
<polygon fill="#ffffff" stroke="#bfbfbf" points="0,-.5 0,-18.5 58.8076,-18.5 58.8076,-.5 0,-.5"/>
<text text-anchor="middle" x="29.4038" y="-6.5" font-family="Helvetica,sans-Serif" font-size="10.00" fill="#000000">functional</text>
</g>
<!-- Node0&#45;&gt;Node1 -->
<g id="edge1" class="edge">
<title>Node0&#45;&gt;Node1</title>
<path fill="none" stroke="#191970" d="M76.6255,-55.41C66.5577,-45.6219 55.189,-34.5689 46.1296,-25.7612"/>
<polygon fill="#191970" stroke="#191970" points="48.4633,-23.1486 38.8535,-18.6872 43.5837,-28.1675 48.4633,-23.1486"/>
</g>
<!-- Node2 -->
<g id="node3" class="node">
<title>Node2</title>
<polygon fill="#ffffff" stroke="#bfbfbf" points="76.4507,-.5 76.4507,-18.5 126.3569,-18.5 126.3569,-.5 76.4507,-.5"/>
<text text-anchor="middle" x="101.4038" y="-6.5" font-family="Helvetica,sans-Serif" font-size="10.00" fill="#000000">random</text>
</g>
<!-- Node0&#45;&gt;Node2 -->
<g id="edge2" class="edge">
<title>Node0&#45;&gt;Node2</title>
<path fill="none" stroke="#191970" d="M101.4038,-55.41C101.4038,-46.7094 101.4038,-37.0095 101.4038,-28.7754"/>
<polygon fill="#191970" stroke="#191970" points="104.9039,-28.6872 101.4038,-18.6872 97.9039,-28.6873 104.9039,-28.6872"/>
</g>
<!-- Node3 -->
<g id="node4" class="node">
<title>Node3</title>
<polygon fill="#ffffff" stroke="#bfbfbf" points="144.0444,-.5 144.0444,-18.5 276.7632,-18.5 276.7632,-.5 144.0444,-.5"/>
<text text-anchor="middle" x="210.4038" y="-6.5" font-family="Helvetica,sans-Serif" font-size="10.00" fill="#000000">BayesFilters/StateModel.h</text>
</g>
<!-- Node0&#45;&gt;Node3 -->
<g id="edge3" class="edge">
<title>Node0&#45;&gt;Node3</title>
<path fill="none" stroke="#191970" d="M138.9154,-55.41C155.1816,-44.9638 173.6912,-33.0769 187.8001,-24.0161"/>
<polygon fill="#191970" stroke="#191970" points="189.8454,-26.8623 196.3684,-18.5136 186.0628,-20.9723 189.8454,-26.8623"/>
</g>
</g>
</svg>
