<?xml version="1.0" encoding="UTF-8" standalone="no"?>
<!DOCTYPE svg PUBLIC "-//W3C//DTD SVG 1.1//EN"
 "http://www.w3.org/Graphics/SVG/1.1/DTD/svg11.dtd">
<!-- Generated by graphviz version 2.40.1 (20161225.0304)
 -->
<!-- Title: /Users/Claudio/GitHub/visual&#45;tracking&#45;control/src/hand&#45;tracking/src/BrownianMotionPose.cpp Pages: 1 -->
<svg width="360pt" height="167pt"
 viewBox="0.00 0.00 359.80 167.00" xmlns="http://www.w3.org/2000/svg" xmlns:xlink="http://www.w3.org/1999/xlink">
<g id="graph0" class="graph" transform="scale(1 1) rotate(0) translate(4 163)">
<title>/Users/Claudio/GitHub/visual&#45;tracking&#45;control/src/hand&#45;tracking/src/BrownianMotionPose.cpp</title>
<polygon fill="#ffffff" stroke="transparent" points="-4,4 -4,-163 355.7954,-163 355.7954,4 -4,4"/>
<!-- Node0 -->
<g id="node1" class="node">
<title>Node0</title>
<polygon fill="#bfbfbf" stroke="#000000" points="155.377,-110.5 155.377,-158.5 311.4307,-158.5 311.4307,-110.5 155.377,-110.5"/>
<text text-anchor="start" x="163.377" y="-146.5" font-family="Helvetica,sans-Serif" font-size="10.00" fill="#000000">/Users/Claudio/GitHub</text>
<text text-anchor="start" x="163.377" y="-136.5" font-family="Helvetica,sans-Serif" font-size="10.00" fill="#000000">/visual&#45;tracking&#45;control</text>
<text text-anchor="start" x="163.377" y="-126.5" font-family="Helvetica,sans-Serif" font-size="10.00" fill="#000000">/src/hand&#45;tracking/src/Brownian</text>
<text text-anchor="middle" x="233.4038" y="-116.5" font-family="Helvetica,sans-Serif" font-size="10.00" fill="#000000">MotionPose.cpp</text>
</g>
<!-- Node1 -->
<g id="node2" class="node">
<title>Node1</title>
<g id="a_node2"><a xlink:href="BrownianMotionPose_8h.html" target="_top" xlink:title="BrownianMotionPose.h">
<polygon fill="#ffffff" stroke="#000000" points="41.9854,-55.5 41.9854,-73.5 160.8223,-73.5 160.8223,-55.5 41.9854,-55.5"/>
<text text-anchor="middle" x="101.4038" y="-61.5" font-family="Helvetica,sans-Serif" font-size="10.00" fill="#000000">BrownianMotionPose.h</text>
</a>
</g>
</g>
<!-- Node0&#45;&gt;Node1 -->
<g id="edge1" class="edge">
<title>Node0&#45;&gt;Node1</title>
<path fill="none" stroke="#191970" d="M187.9769,-110.41C167.7155,-99.6653 144.58,-87.3965 127.3258,-78.2465"/>
<polygon fill="#191970" stroke="#191970" points="128.8752,-75.1065 118.4008,-73.5136 125.5956,-81.2908 128.8752,-75.1065"/>
</g>
<!-- Node5 -->
<g id="node6" class="node">
<title>Node5</title>
<polygon fill="#ffffff" stroke="#bfbfbf" points="178.7881,-55.5 178.7881,-73.5 222.0195,-73.5 222.0195,-55.5 178.7881,-55.5"/>
<text text-anchor="middle" x="200.4038" y="-61.5" font-family="Helvetica,sans-Serif" font-size="10.00" fill="#000000">cmath</text>
</g>
<!-- Node0&#45;&gt;Node5 -->
<g id="edge5" class="edge">
<title>Node0&#45;&gt;Node5</title>
<path fill="none" stroke="#191970" d="M222.0471,-110.41C217.8056,-101.4128 213.0602,-91.347 209.0963,-82.9385"/>
<polygon fill="#191970" stroke="#191970" points="212.165,-81.24 204.7349,-73.6872 205.8333,-84.225 212.165,-81.24"/>
</g>
<!-- Node6 -->
<g id="node7" class="node">
<title>Node6</title>
<polygon fill="#ffffff" stroke="#bfbfbf" points="240.2314,-55.5 240.2314,-73.5 294.5762,-73.5 294.5762,-55.5 240.2314,-55.5"/>
<text text-anchor="middle" x="267.4038" y="-61.5" font-family="Helvetica,sans-Serif" font-size="10.00" fill="#000000">iostream</text>
</g>
<!-- Node0&#45;&gt;Node6 -->
<g id="edge6" class="edge">
<title>Node0&#45;&gt;Node6</title>
<path fill="none" stroke="#191970" d="M245.1047,-110.41C249.4747,-101.4128 254.3638,-91.347 258.448,-82.9385"/>
<polygon fill="#191970" stroke="#191970" points="261.7206,-84.2115 262.9414,-73.6872 255.4241,-81.1531 261.7206,-84.2115"/>
</g>
<!-- Node7 -->
<g id="node8" class="node">
<title>Node7</title>
<polygon fill="#ffffff" stroke="#bfbfbf" points="313.0122,-55.5 313.0122,-73.5 351.7954,-73.5 351.7954,-55.5 313.0122,-55.5"/>
<text text-anchor="middle" x="332.4038" y="-61.5" font-family="Helvetica,sans-Serif" font-size="10.00" fill="#000000">utility</text>
</g>
<!-- Node0&#45;&gt;Node7 -->
<g id="edge7" class="edge">
<title>Node0&#45;&gt;Node7</title>
<path fill="none" stroke="#191970" d="M267.474,-110.41C281.8765,-100.2264 298.2153,-88.6737 310.8999,-79.7048"/>
<polygon fill="#191970" stroke="#191970" points="313.266,-82.3184 319.4104,-73.6872 309.2246,-76.6028 313.266,-82.3184"/>
</g>
<!-- Node2 -->
<g id="node3" class="node">
<title>Node2</title>
<polygon fill="#ffffff" stroke="#bfbfbf" points="0,-.5 0,-18.5 58.8076,-18.5 58.8076,-.5 0,-.5"/>
<text text-anchor="middle" x="29.4038" y="-6.5" font-family="Helvetica,sans-Serif" font-size="10.00" fill="#000000">functional</text>
</g>
<!-- Node1&#45;&gt;Node2 -->
<g id="edge2" class="edge">
<title>Node1&#45;&gt;Node2</title>
<path fill="none" stroke="#191970" d="M89.5145,-55.4179C78.7403,-47.1876 62.6336,-34.8839 49.8041,-25.0836"/>
<polygon fill="#191970" stroke="#191970" points="51.6228,-22.0685 41.5515,-18.7795 47.3735,-27.6313 51.6228,-22.0685"/>
</g>
<!-- Node3 -->
<g id="node4" class="node">
<title>Node3</title>
<polygon fill="#ffffff" stroke="#bfbfbf" points="76.4507,-.5 76.4507,-18.5 126.3569,-18.5 126.3569,-.5 76.4507,-.5"/>
<text text-anchor="middle" x="101.4038" y="-6.5" font-family="Helvetica,sans-Serif" font-size="10.00" fill="#000000">random</text>
</g>
<!-- Node1&#45;&gt;Node3 -->
<g id="edge3" class="edge">
<title>Node1&#45;&gt;Node3</title>
<path fill="none" stroke="#191970" d="M101.4038,-55.4179C101.4038,-48.2164 101.4038,-37.8962 101.4038,-28.8632"/>
<polygon fill="#191970" stroke="#191970" points="104.9039,-28.7794 101.4038,-18.7795 97.9039,-28.7795 104.9039,-28.7794"/>
</g>
<!-- Node4 -->
<g id="node5" class="node">
<title>Node4</title>
<polygon fill="#ffffff" stroke="#bfbfbf" points="144.0444,-.5 144.0444,-18.5 276.7632,-18.5 276.7632,-.5 144.0444,-.5"/>
<text text-anchor="middle" x="210.4038" y="-6.5" font-family="Helvetica,sans-Serif" font-size="10.00" fill="#000000">BayesFilters/StateModel.h</text>
</g>
<!-- Node1&#45;&gt;Node4 -->
<g id="edge4" class="edge">
<title>Node1&#45;&gt;Node4</title>
<path fill="none" stroke="#191970" d="M119.4029,-55.4179C136.7588,-46.6603 163.2549,-33.2907 183.1884,-23.2326"/>
<polygon fill="#191970" stroke="#191970" points="185.0268,-26.2253 192.3779,-18.5956 181.8734,-19.9758 185.0268,-26.2253"/>
</g>
</g>
</svg>
