<?xml version="1.0" encoding="UTF-8" standalone="no"?>
<!DOCTYPE svg PUBLIC "-//W3C//DTD SVG 1.1//EN"
 "http://www.w3.org/Graphics/SVG/1.1/DTD/svg11.dtd">
<!-- Generated by graphviz version 2.40.1 (20161225.0304)
 -->
<!-- Title: VisualSIS Pages: 1 -->
<svg width="272pt" height="137pt"
 viewBox="0.00 0.00 271.53 137.00" xmlns="http://www.w3.org/2000/svg" xmlns:xlink="http://www.w3.org/1999/xlink">
<g id="graph0" class="graph" transform="scale(1 1) rotate(0) translate(4 133)">
<title>VisualSIS</title>
<polygon fill="#ffffff" stroke="transparent" points="-4,4 -4,-133 267.5259,-133 267.5259,4 -4,4"/>
<!-- Node0 -->
<g id="node1" class="node">
<title>Node0</title>
<polygon fill="#bfbfbf" stroke="#000000" points="97.7832,-.5 97.7832,-18.5 156.9619,-18.5 156.9619,-.5 97.7832,-.5"/>
<text text-anchor="middle" x="127.3726" y="-6.5" font-family="Helvetica,sans-Serif" font-size="10.00" fill="#000000">VisualSIS</text>
</g>
<!-- Node1 -->
<g id="node2" class="node">
<title>Node1</title>
<polygon fill="#ffffff" stroke="#bfbfbf" points="0,-55.5 0,-73.5 114.7451,-73.5 114.7451,-55.5 0,-55.5"/>
<text text-anchor="middle" x="57.3726" y="-61.5" font-family="Helvetica,sans-Serif" font-size="10.00" fill="#000000">bfl::VisualParticleFilter</text>
</g>
<!-- Node1&#45;&gt;Node0 -->
<g id="edge1" class="edge">
<title>Node1&#45;&gt;Node0</title>
<path fill="none" stroke="#191970" d="M76.9089,-49.15C89.3308,-39.3899 105.0054,-27.0742 115.5623,-18.7795"/>
<polygon fill="#191970" stroke="#191970" points="74.6325,-46.4875 68.9316,-55.4179 78.9572,-51.9917 74.6325,-46.4875"/>
</g>
<!-- Node2 -->
<g id="node3" class="node">
<title>Node2</title>
<g id="a_node3"><a xlink:href="classVisualSISParticleFilterIDL.html" target="_top" xlink:title="VisualSISParticleFilterIDL IDL Interface to VisualSIRParticleFilter options. ">
<polygon fill="#ffffff" stroke="#000000" points="133.2192,-55.5 133.2192,-73.5 263.5259,-73.5 263.5259,-55.5 133.2192,-55.5"/>
<text text-anchor="middle" x="198.3726" y="-61.5" font-family="Helvetica,sans-Serif" font-size="10.00" fill="#000000">VisualSISParticleFilterIDL</text>
</a>
</g>
</g>
<!-- Node2&#45;&gt;Node0 -->
<g id="edge2" class="edge">
<title>Node2&#45;&gt;Node0</title>
<path fill="none" stroke="#191970" d="M178.5571,-49.15C165.9578,-39.3899 150.0592,-27.0742 139.3515,-18.7795"/>
<polygon fill="#191970" stroke="#191970" points="176.5994,-52.0608 186.6484,-55.4179 180.8862,-46.5269 176.5994,-52.0608"/>
</g>
<!-- Node3 -->
<g id="node4" class="node">
<title>Node3</title>
<polygon fill="#ffffff" stroke="#bfbfbf" points="180.0967,-110.5 180.0967,-128.5 216.6484,-128.5 216.6484,-110.5 180.0967,-110.5"/>
<text text-anchor="middle" x="198.3726" y="-116.5" font-family="Helvetica,sans-Serif" font-size="10.00" fill="#000000">Wire</text>
</g>
<!-- Node3&#45;&gt;Node2 -->
<g id="edge3" class="edge">
<title>Node3&#45;&gt;Node2</title>
<path fill="none" stroke="#191970" d="M198.3726,-100.383C198.3726,-91.3738 198.3726,-81.0373 198.3726,-73.7795"/>
<polygon fill="#191970" stroke="#191970" points="194.8727,-100.4178 198.3726,-110.4179 201.8727,-100.4179 194.8727,-100.4178"/>
</g>
</g>
</svg>
