<?xml version="1.0" encoding="UTF-8" standalone="no"?>
<!DOCTYPE svg PUBLIC "-//W3C//DTD SVG 1.1//EN"
 "http://www.w3.org/Graphics/SVG/1.1/DTD/svg11.dtd">
<!-- Generated by graphviz version 2.40.1 (20161225.0304)
 -->
<!-- Title: iCubGatePose::readPose Pages: 1 -->
<svg width="492pt" height="27pt"
 viewBox="0.00 0.00 492.10 27.00" xmlns="http://www.w3.org/2000/svg" xmlns:xlink="http://www.w3.org/1999/xlink">
<g id="graph0" class="graph" transform="scale(1 1) rotate(0) translate(4 23)">
<title>iCubGatePose::readPose</title>
<polygon fill="#ffffff" stroke="transparent" points="-4,4 -4,-23 488.1016,-23 488.1016,4 -4,4"/>
<!-- Node10 -->
<g id="node1" class="node">
<title>Node10</title>
<polygon fill="#bfbfbf" stroke="#000000" points="0,-.5 0,-18.5 129.4033,-18.5 129.4033,-.5 0,-.5"/>
<text text-anchor="middle" x="64.7017" y="-6.5" font-family="Helvetica,sans-Serif" font-size="10.00" fill="#000000">iCubGatePose::readPose</text>
</g>
<!-- Node11 -->
<g id="node2" class="node">
<title>Node11</title>
<g id="a_node2"><a xlink:href="classiCubGatePose.html#a78b89d0b90d60b37a5f613718d384590" target="_top" xlink:title="iCubGatePose::readRootToEE">
<polygon fill="#ffffff" stroke="#000000" points="165.4033,-.5 165.4033,-18.5 317.0381,-18.5 317.0381,-.5 165.4033,-.5"/>
<text text-anchor="middle" x="241.2207" y="-6.5" font-family="Helvetica,sans-Serif" font-size="10.00" fill="#000000">iCubGatePose::readRootToEE</text>
</a>
</g>
</g>
<!-- Node10&#45;&gt;Node11 -->
<g id="edge1" class="edge">
<title>Node10&#45;&gt;Node11</title>
<path fill="none" stroke="#191970" d="M129.4285,-9.5C137.7737,-9.5 146.4216,-9.5 155.0431,-9.5"/>
<polygon fill="#191970" stroke="#191970" points="155.1321,-13.0001 165.132,-9.5 155.132,-6.0001 155.1321,-13.0001"/>
</g>
<!-- Node12 -->
<g id="node3" class="node">
<title>Node12</title>
<g id="a_node3"><a xlink:href="classiCubGatePose.html#ab03607afcf2246d5d1d18835c623fc34" target="_top" xlink:title="iCubGatePose::readTorso">
<polygon fill="#ffffff" stroke="#000000" points="353.0381,-.5 353.0381,-18.5 484.1016,-18.5 484.1016,-.5 353.0381,-.5"/>
<text text-anchor="middle" x="418.5698" y="-6.5" font-family="Helvetica,sans-Serif" font-size="10.00" fill="#000000">iCubGatePose::readTorso</text>
</a>
</g>
</g>
<!-- Node11&#45;&gt;Node12 -->
<g id="edge2" class="edge">
<title>Node11&#45;&gt;Node12</title>
<path fill="none" stroke="#191970" d="M317.2045,-9.5C325.6261,-9.5 334.2037,-9.5 342.6249,-9.5"/>
<polygon fill="#191970" stroke="#191970" points="342.7984,-13.0001 352.7983,-9.5 342.7983,-6.0001 342.7984,-13.0001"/>
</g>
</g>
</svg>
