<?xml version="1.0" encoding="UTF-8" standalone="no"?>
<!DOCTYPE svg PUBLIC "-//W3C//DTD SVG 1.1//EN"
 "http://www.w3.org/Graphics/SVG/1.1/DTD/svg11.dtd">
<!-- Generated by graphviz version 2.40.1 (20161225.0304)
 -->
<!-- Title: BrownianMotionPose::motion Pages: 1 -->
<svg width="289pt" height="131pt"
 viewBox="0.00 0.00 289.46 131.00" xmlns="http://www.w3.org/2000/svg" xmlns:xlink="http://www.w3.org/1999/xlink">
<g id="graph0" class="graph" transform="scale(1 1) rotate(0) translate(4 127)">
<title>BrownianMotionPose::motion</title>
<polygon fill="#ffffff" stroke="transparent" points="-4,4 -4,-127 285.457,-127 285.457,4 -4,4"/>
<!-- Node9 -->
<g id="node1" class="node">
<title>Node9</title>
<polygon fill="#bfbfbf" stroke="#000000" points="0,-47.5 0,-75.5 110.4971,-75.5 110.4971,-47.5 0,-47.5"/>
<text text-anchor="start" x="8" y="-63.5" font-family="Helvetica,sans-Serif" font-size="10.00" fill="#000000">BrownianMotionPose</text>
<text text-anchor="middle" x="55.2485" y="-53.5" font-family="Helvetica,sans-Serif" font-size="10.00" fill="#000000">::motion</text>
</g>
<!-- Node10 -->
<g id="node2" class="node">
<title>Node10</title>
<g id="a_node2"><a xlink:href="classBrownianMotionPose.html#ad5da23c2e31dd9522115ae925a35e66e" target="_top" xlink:title="BrownianMotionPose\l::addAxisangleDisturbance">
<polygon fill="#ffffff" stroke="#000000" points="146.4971,-94.5 146.4971,-122.5 281.457,-122.5 281.457,-94.5 146.4971,-94.5"/>
<text text-anchor="start" x="154.4971" y="-110.5" font-family="Helvetica,sans-Serif" font-size="10.00" fill="#000000">BrownianMotionPose</text>
<text text-anchor="middle" x="213.9771" y="-100.5" font-family="Helvetica,sans-Serif" font-size="10.00" fill="#000000">::addAxisangleDisturbance</text>
</a>
</g>
</g>
<!-- Node9&#45;&gt;Node10 -->
<g id="edge1" class="edge">
<title>Node9&#45;&gt;Node10</title>
<path fill="none" stroke="#191970" d="M102.8723,-75.6015C119.9002,-80.6435 139.2619,-86.3766 156.9989,-91.6286"/>
<polygon fill="#191970" stroke="#191970" points="156.0783,-95.0062 166.6606,-94.4894 158.0658,-88.2942 156.0783,-95.0062"/>
</g>
<!-- Node11 -->
<g id="node3" class="node">
<title>Node11</title>
<g id="a_node3"><a xlink:href="classBrownianMotionPose.html#a51407ee62d9e384af89c88c5b21c82df" target="_top" xlink:title="BrownianMotionPose\l::getNoiseSample">
<polygon fill="#ffffff" stroke="#000000" points="158.7285,-47.5 158.7285,-75.5 269.2256,-75.5 269.2256,-47.5 158.7285,-47.5"/>
<text text-anchor="start" x="166.7285" y="-63.5" font-family="Helvetica,sans-Serif" font-size="10.00" fill="#000000">BrownianMotionPose</text>
<text text-anchor="middle" x="213.9771" y="-53.5" font-family="Helvetica,sans-Serif" font-size="10.00" fill="#000000">::getNoiseSample</text>
</a>
</g>
</g>
<!-- Node9&#45;&gt;Node11 -->
<g id="edge2" class="edge">
<title>Node9&#45;&gt;Node11</title>
<path fill="none" stroke="#191970" d="M110.7641,-61.5C122.847,-61.5 135.743,-61.5 148.1808,-61.5"/>
<polygon fill="#191970" stroke="#191970" points="148.4929,-65.0001 158.4929,-61.5 148.4928,-58.0001 148.4929,-65.0001"/>
</g>
<!-- Node12 -->
<g id="node4" class="node">
<title>Node12</title>
<g id="a_node4"><a xlink:href="classBrownianMotionPose.html#ac598d506c496740d111ff9ceb4a97459" target="_top" xlink:title="BrownianMotionPose\l::propagate">
<polygon fill="#ffffff" stroke="#000000" points="158.7285,-.5 158.7285,-28.5 269.2256,-28.5 269.2256,-.5 158.7285,-.5"/>
<text text-anchor="start" x="166.7285" y="-16.5" font-family="Helvetica,sans-Serif" font-size="10.00" fill="#000000">BrownianMotionPose</text>
<text text-anchor="middle" x="213.9771" y="-6.5" font-family="Helvetica,sans-Serif" font-size="10.00" fill="#000000">::propagate</text>
</a>
</g>
</g>
<!-- Node9&#45;&gt;Node12 -->
<g id="edge3" class="edge">
<title>Node9&#45;&gt;Node12</title>
<path fill="none" stroke="#191970" d="M102.8723,-47.3985C119.9002,-42.3565 139.2619,-36.6234 156.9989,-31.3714"/>
<polygon fill="#191970" stroke="#191970" points="158.0658,-34.7058 166.6606,-28.5106 156.0783,-27.9938 158.0658,-34.7058"/>
</g>
</g>
</svg>
