<?xml version="1.0" encoding="UTF-8" standalone="no"?>
<!DOCTYPE svg PUBLIC "-//W3C//DTD SVG 1.1//EN"
 "http://www.w3.org/Graphics/SVG/1.1/DTD/svg11.dtd">
<!-- Generated by graphviz version 2.40.1 (20161225.0304)
 -->
<!-- Title: VisualServoingClient::stopFacilities Pages: 1 -->
<svg width="260pt" height="37pt"
 viewBox="0.00 0.00 260.19 37.00" xmlns="http://www.w3.org/2000/svg" xmlns:xlink="http://www.w3.org/1999/xlink">
<g id="graph0" class="graph" transform="scale(1 1) rotate(0) translate(4 33)">
<title>VisualServoingClient::stopFacilities</title>
<polygon fill="#ffffff" stroke="transparent" points="-4,4 -4,-33 256.1895,-33 256.1895,4 -4,4"/>
<!-- Node24 -->
<g id="node1" class="node">
<title>Node24</title>
<polygon fill="#bfbfbf" stroke="#000000" points="0,-.5 0,-28.5 108.0947,-28.5 108.0947,-.5 0,-.5"/>
<text text-anchor="start" x="8" y="-16.5" font-family="Helvetica,sans-Serif" font-size="10.00" fill="#000000">VisualServoingClient</text>
<text text-anchor="middle" x="54.0474" y="-6.5" font-family="Helvetica,sans-Serif" font-size="10.00" fill="#000000">::stopFacilities</text>
</g>
<!-- Node25 -->
<g id="node2" class="node">
<title>Node25</title>
<g id="a_node2"><a xlink:href="classVisualServoingClient.html#aa83b1b0be446896611b7c7675d716905" target="_top" xlink:title="VisualServoingClient\l::goToGoal">
<polygon fill="#ffffff" stroke="#000000" points="144.0947,-.5 144.0947,-28.5 252.1895,-28.5 252.1895,-.5 144.0947,-.5"/>
<text text-anchor="start" x="152.0947" y="-16.5" font-family="Helvetica,sans-Serif" font-size="10.00" fill="#000000">VisualServoingClient</text>
<text text-anchor="middle" x="198.1421" y="-6.5" font-family="Helvetica,sans-Serif" font-size="10.00" fill="#000000">::goToGoal</text>
</a>
</g>
</g>
<!-- Node24&#45;&gt;Node25 -->
<g id="edge1" class="edge">
<title>Node24&#45;&gt;Node25</title>
<path fill="none" stroke="#191970" d="M108.1129,-14.5C116.4019,-14.5 125.0302,-14.5 133.5195,-14.5"/>
<polygon fill="#191970" stroke="#191970" points="133.7736,-18.0001 143.7735,-14.5 133.7735,-11.0001 133.7736,-18.0001"/>
</g>
</g>
</svg>
