<?xml version="1.0" encoding="UTF-8" standalone="no"?>
<!DOCTYPE svg PUBLIC "-//W3C//DTD SVG 1.1//EN"
 "http://www.w3.org/Graphics/SVG/1.1/DTD/svg11.dtd">
<!-- Generated by graphviz version 2.40.1 (20161225.0304)
 -->
<!-- Title: iCubGatePose Pages: 1 -->
<svg width="170pt" height="137pt"
 viewBox="0.00 0.00 169.99 137.00" xmlns="http://www.w3.org/2000/svg" xmlns:xlink="http://www.w3.org/1999/xlink">
<g id="graph0" class="graph" transform="scale(1 1) rotate(0) translate(4 133)">
<title>iCubGatePose</title>
<polygon fill="#ffffff" stroke="transparent" points="-4,4 -4,-133 165.9912,-133 165.9912,4 -4,4"/>
<!-- Node0 -->
<g id="node1" class="node">
<title>Node0</title>
<polygon fill="#bfbfbf" stroke="#000000" points="40.4761,-.5 40.4761,-18.5 121.5151,-18.5 121.5151,-.5 40.4761,-.5"/>
<text text-anchor="middle" x="80.9956" y="-6.5" font-family="Helvetica,sans-Serif" font-size="10.00" fill="#000000">iCubGatePose</text>
</g>
<!-- Node1 -->
<g id="node2" class="node">
<title>Node1</title>
<g id="a_node2"><a xlink:href="classGatePose.html" target="_top" xlink:title="GatePose">
<polygon fill="#ffffff" stroke="#000000" points="50.7593,-55.5 50.7593,-73.5 111.2319,-73.5 111.2319,-55.5 50.7593,-55.5"/>
<text text-anchor="middle" x="80.9956" y="-61.5" font-family="Helvetica,sans-Serif" font-size="10.00" fill="#000000">GatePose</text>
</a>
</g>
</g>
<!-- Node1&#45;&gt;Node0 -->
<g id="edge1" class="edge">
<title>Node1&#45;&gt;Node0</title>
<path fill="none" stroke="#191970" d="M80.9956,-45.383C80.9956,-36.3738 80.9956,-26.0373 80.9956,-18.7795"/>
<polygon fill="#191970" stroke="#191970" points="77.4957,-45.4178 80.9956,-55.4179 84.4957,-45.4179 77.4957,-45.4178"/>
</g>
<!-- Node2 -->
<g id="node3" class="node">
<title>Node2</title>
<polygon fill="#ffffff" stroke="#bfbfbf" points="0,-110.5 0,-128.5 161.9912,-128.5 161.9912,-110.5 0,-110.5"/>
<text text-anchor="middle" x="80.9956" y="-116.5" font-family="Helvetica,sans-Serif" font-size="10.00" fill="#000000">bfl::PFVisualCorrectionDecorator</text>
</g>
<!-- Node2&#45;&gt;Node1 -->
<g id="edge2" class="edge">
<title>Node2&#45;&gt;Node1</title>
<path fill="none" stroke="#191970" d="M80.9956,-100.383C80.9956,-91.3738 80.9956,-81.0373 80.9956,-73.7795"/>
<polygon fill="#191970" stroke="#191970" points="77.4957,-100.4178 80.9956,-110.4179 84.4957,-100.4179 77.4957,-100.4178"/>
</g>
</g>
</svg>
