<?xml version="1.0" encoding="UTF-8" standalone="no"?>
<!DOCTYPE svg PUBLIC "-//W3C//DTD SVG 1.1//EN"
 "http://www.w3.org/Graphics/SVG/1.1/DTD/svg11.dtd">
<!-- Generated by graphviz version 2.40.1 (20161225.0304)
 -->
<!-- Title: VisualServoingClient Pages: 1 -->
<svg width="278pt" height="82pt"
 viewBox="0.00 0.00 277.96 82.00" xmlns="http://www.w3.org/2000/svg" xmlns:xlink="http://www.w3.org/1999/xlink">
<g id="graph0" class="graph" transform="scale(1 1) rotate(0) translate(4 78)">
<title>VisualServoingClient</title>
<polygon fill="#ffffff" stroke="transparent" points="-4,4 -4,-78 273.9585,-78 273.9585,4 -4,4"/>
<!-- Node0 -->
<g id="node1" class="node">
<title>Node0</title>
<polygon fill="#bfbfbf" stroke="#000000" points="77.9131,-.5 77.9131,-18.5 186.0078,-18.5 186.0078,-.5 77.9131,-.5"/>
<text text-anchor="middle" x="131.9604" y="-6.5" font-family="Helvetica,sans-Serif" font-size="10.00" fill="#000000">VisualServoingClient</text>
</g>
<!-- Node1 -->
<g id="node2" class="node">
<title>Node1</title>
<polygon fill="#ffffff" stroke="#bfbfbf" points="0,-55.5 0,-73.5 119.9209,-73.5 119.9209,-55.5 0,-55.5"/>
<text text-anchor="middle" x="59.9604" y="-61.5" font-family="Helvetica,sans-Serif" font-size="10.00" fill="#000000">yarp::dev::DeviceDriver</text>
</g>
<!-- Node1&#45;&gt;Node0 -->
<g id="edge1" class="edge">
<title>Node1&#45;&gt;Node0</title>
<path fill="none" stroke="#191970" d="M80.055,-49.15C92.8318,-39.3899 108.9542,-27.0742 119.8128,-18.7795"/>
<polygon fill="#191970" stroke="#191970" points="77.6719,-46.5661 71.8498,-55.4179 81.9212,-52.1288 77.6719,-46.5661"/>
</g>
<!-- Node2 -->
<g id="node3" class="node">
<title>Node2</title>
<polygon fill="#ffffff" stroke="#bfbfbf" points="137.9624,-55.5 137.9624,-73.5 269.9585,-73.5 269.9585,-55.5 137.9624,-55.5"/>
<text text-anchor="middle" x="203.9604" y="-61.5" font-family="Helvetica,sans-Serif" font-size="10.00" fill="#000000">yarp::dev::IVisualServoing</text>
</g>
<!-- Node2&#45;&gt;Node0 -->
<g id="edge2" class="edge">
<title>Node2&#45;&gt;Node0</title>
<path fill="none" stroke="#191970" d="M183.8659,-49.15C171.0891,-39.3899 154.9667,-27.0742 144.1081,-18.7795"/>
<polygon fill="#191970" stroke="#191970" points="181.9997,-52.1288 192.0711,-55.4179 186.249,-46.5661 181.9997,-52.1288"/>
</g>
</g>
</svg>
