<?xml version="1.0" encoding="UTF-8" standalone="no"?>
<!DOCTYPE svg PUBLIC "-//W3C//DTD SVG 1.1//EN"
 "http://www.w3.org/Graphics/SVG/1.1/DTD/svg11.dtd">
<!-- Generated by graphviz version 2.40.1 (20161225.0304)
 -->
<!-- Title: VisualSIS::VisualSIS Pages: 1 -->
<svg width="422pt" height="27pt"
 viewBox="0.00 0.00 422.43 27.00" xmlns="http://www.w3.org/2000/svg" xmlns:xlink="http://www.w3.org/1999/xlink">
<g id="graph0" class="graph" transform="scale(1 1) rotate(0) translate(4 23)">
<title>VisualSIS::VisualSIS</title>
<polygon fill="#ffffff" stroke="transparent" points="-4,4 -4,-23 418.4336,-23 418.4336,4 -4,4"/>
<!-- Node0 -->
<g id="node1" class="node">
<title>Node0</title>
<polygon fill="#bfbfbf" stroke="#000000" points="0,-.5 0,-18.5 107.9141,-18.5 107.9141,-.5 0,-.5"/>
<text text-anchor="middle" x="53.957" y="-6.5" font-family="Helvetica,sans-Serif" font-size="10.00" fill="#000000">VisualSIS::VisualSIS</text>
</g>
<!-- Node1 -->
<g id="node2" class="node">
<title>Node1</title>
<g id="a_node2"><a xlink:href="classVisualSIS.html#aac85d36ec741ed93d1659ddf910f7a03" target="_top" xlink:title="VisualSIS::setCommandPort">
<polygon fill="#ffffff" stroke="#000000" points="143.9141,-.5 143.9141,-18.5 286.457,-18.5 286.457,-.5 143.9141,-.5"/>
<text text-anchor="middle" x="215.1855" y="-6.5" font-family="Helvetica,sans-Serif" font-size="10.00" fill="#000000">VisualSIS::setCommandPort</text>
</a>
</g>
</g>
<!-- Node0&#45;&gt;Node1 -->
<g id="edge1" class="edge">
<title>Node0&#45;&gt;Node1</title>
<path fill="none" stroke="#191970" d="M108.0923,-9.5C116.3114,-9.5 124.9435,-9.5 133.5907,-9.5"/>
<polygon fill="#191970" stroke="#191970" points="133.7249,-13.0001 143.7248,-9.5 133.7248,-6.0001 133.7249,-13.0001"/>
</g>
<!-- Node2 -->
<g id="node3" class="node">
<title>Node2</title>
<g id="a_node3"><a xlink:href="classVisualSIS.html#a2a331e2d6285cb48541df86dcc27b2c1" target="_top" xlink:title="VisualSIS::attach">
<polygon fill="#ffffff" stroke="#000000" points="322.457,-.5 322.457,-18.5 414.4336,-18.5 414.4336,-.5 322.457,-.5"/>
<text text-anchor="middle" x="368.4453" y="-6.5" font-family="Helvetica,sans-Serif" font-size="10.00" fill="#000000">VisualSIS::attach</text>
</a>
</g>
</g>
<!-- Node1&#45;&gt;Node2 -->
<g id="edge2" class="edge">
<title>Node1&#45;&gt;Node2</title>
<path fill="none" stroke="#191970" d="M286.8794,-9.5C295.3151,-9.5 303.8309,-9.5 312.0156,-9.5"/>
<polygon fill="#191970" stroke="#191970" points="312.1749,-13.0001 322.1749,-9.5 312.1748,-6.0001 312.1749,-13.0001"/>
</g>
</g>
</svg>
