<?xml version="1.0" encoding="UTF-8" standalone="no"?>
<!DOCTYPE svg PUBLIC "-//W3C//DTD SVG 1.1//EN"
 "http://www.w3.org/Graphics/SVG/1.1/DTD/svg11.dtd">
<!-- Generated by graphviz version 2.40.1 (20161225.0304)
 -->
<!-- Title: iCubFwdKinModel::readPose Pages: 1 -->
<svg width="540pt" height="27pt"
 viewBox="0.00 0.00 540.43 27.00" xmlns="http://www.w3.org/2000/svg" xmlns:xlink="http://www.w3.org/1999/xlink">
<g id="graph0" class="graph" transform="scale(1 1) rotate(0) translate(4 23)">
<title>iCubFwdKinModel::readPose</title>
<polygon fill="#ffffff" stroke="transparent" points="-4,4 -4,-23 536.4268,-23 536.4268,4 -4,4"/>
<!-- Node4 -->
<g id="node1" class="node">
<title>Node4</title>
<polygon fill="#bfbfbf" stroke="#000000" points="0,-.5 0,-18.5 145.5117,-18.5 145.5117,-.5 0,-.5"/>
<text text-anchor="middle" x="72.7559" y="-6.5" font-family="Helvetica,sans-Serif" font-size="10.00" fill="#000000">iCubFwdKinModel::readPose</text>
</g>
<!-- Node5 -->
<g id="node2" class="node">
<title>Node5</title>
<g id="a_node2"><a xlink:href="classiCubFwdKinModel.html#a638ea7ef68d98f306346684c93934a93" target="_top" xlink:title="iCubFwdKinModel::readRootToEE">
<polygon fill="#ffffff" stroke="#000000" points="181.5117,-.5 181.5117,-18.5 349.2549,-18.5 349.2549,-.5 181.5117,-.5"/>
<text text-anchor="middle" x="265.3833" y="-6.5" font-family="Helvetica,sans-Serif" font-size="10.00" fill="#000000">iCubFwdKinModel::readRootToEE</text>
</a>
</g>
</g>
<!-- Node4&#45;&gt;Node5 -->
<g id="edge1" class="edge">
<title>Node4&#45;&gt;Node5</title>
<path fill="none" stroke="#191970" d="M145.58,-9.5C154.0034,-9.5 162.682,-9.5 171.3363,-9.5"/>
<polygon fill="#191970" stroke="#191970" points="171.4676,-13.0001 181.4676,-9.5 171.4676,-6.0001 171.4676,-13.0001"/>
</g>
<!-- Node6 -->
<g id="node3" class="node">
<title>Node6</title>
<g id="a_node3"><a xlink:href="classiCubFwdKinModel.html#a4ed6df084a996223a740a7065e16b799" target="_top" xlink:title="iCubFwdKinModel::readTorso">
<polygon fill="#ffffff" stroke="#000000" points="385.2549,-.5 385.2549,-18.5 532.4268,-18.5 532.4268,-.5 385.2549,-.5"/>
<text text-anchor="middle" x="458.8408" y="-6.5" font-family="Helvetica,sans-Serif" font-size="10.00" fill="#000000">iCubFwdKinModel::readTorso</text>
</a>
</g>
</g>
<!-- Node5&#45;&gt;Node6 -->
<g id="edge2" class="edge">
<title>Node5&#45;&gt;Node6</title>
<path fill="none" stroke="#191970" d="M349.3926,-9.5C357.8744,-9.5 366.489,-9.5 374.9694,-9.5"/>
<polygon fill="#191970" stroke="#191970" points="375.2292,-13.0001 385.2291,-9.5 375.2291,-6.0001 375.2292,-13.0001"/>
</g>
</g>
</svg>
