<?xml version="1.0" encoding="UTF-8" standalone="no"?>
<!DOCTYPE svg PUBLIC "-//W3C//DTD SVG 1.1//EN"
 "http://www.w3.org/Graphics/SVG/1.1/DTD/svg11.dtd">
<!-- Generated by graphviz version 2.40.1 (20161225.0304)
 -->
<!-- Title: VisualServoingServer::averagePose Pages: 1 -->
<svg width="299pt" height="37pt"
 viewBox="0.00 0.00 298.54 37.00" xmlns="http://www.w3.org/2000/svg" xmlns:xlink="http://www.w3.org/1999/xlink">
<g id="graph0" class="graph" transform="scale(1 1) rotate(0) translate(4 33)">
<title>VisualServoingServer::averagePose</title>
<polygon fill="#ffffff" stroke="transparent" points="-4,4 -4,-33 294.5391,-33 294.5391,4 -4,4"/>
<!-- Node3 -->
<g id="node1" class="node">
<title>Node3</title>
<polygon fill="#bfbfbf" stroke="#000000" points="0,-.5 0,-28.5 111.9814,-28.5 111.9814,-.5 0,-.5"/>
<text text-anchor="start" x="8" y="-16.5" font-family="Helvetica,sans-Serif" font-size="10.00" fill="#000000">VisualServoingServer</text>
<text text-anchor="middle" x="55.9907" y="-6.5" font-family="Helvetica,sans-Serif" font-size="10.00" fill="#000000">::averagePose</text>
</g>
<!-- Node4 -->
<g id="node2" class="node">
<title>Node4</title>
<g id="a_node2"><a xlink:href="classVisualServoingServer.html#a6201a672d3efe497dd0114df50aee4d7" target="_top" xlink:title="VisualServoingServer\l::checkVisualServoingStatus">
<polygon fill="#ffffff" stroke="#000000" points="147.9814,-.5 147.9814,-28.5 290.5391,-28.5 290.5391,-.5 147.9814,-.5"/>
<text text-anchor="start" x="155.9814" y="-16.5" font-family="Helvetica,sans-Serif" font-size="10.00" fill="#000000">VisualServoingServer</text>
<text text-anchor="middle" x="219.2603" y="-6.5" font-family="Helvetica,sans-Serif" font-size="10.00" fill="#000000">::checkVisualServoingStatus</text>
</a>
</g>
</g>
<!-- Node3&#45;&gt;Node4 -->
<g id="edge1" class="edge">
<title>Node3&#45;&gt;Node4</title>
<path fill="none" stroke="#191970" d="M112.1788,-14.5C120.4662,-14.5 129.1424,-14.5 137.8157,-14.5"/>
<polygon fill="#191970" stroke="#191970" points="137.9726,-18.0001 147.9726,-14.5 137.9725,-11.0001 137.9726,-18.0001"/>
</g>
</g>
</svg>
