<?xml version="1.0" encoding="UTF-8" standalone="no"?>
<!DOCTYPE svg PUBLIC "-//W3C//DTD SVG 1.1//EN"
 "http://www.w3.org/Graphics/SVG/1.1/DTD/svg11.dtd">
<!-- Generated by graphviz version 2.40.1 (20161225.0304)
 -->
<!-- Title: FwdKinModel Pages: 1 -->
<svg width="220pt" height="137pt"
 viewBox="0.00 0.00 219.59 137.00" xmlns="http://www.w3.org/2000/svg" xmlns:xlink="http://www.w3.org/1999/xlink">
<g id="graph0" class="graph" transform="scale(1 1) rotate(0) translate(4 133)">
<title>FwdKinModel</title>
<polygon fill="#ffffff" stroke="transparent" points="-4,4 -4,-133 215.5908,-133 215.5908,4 -4,4"/>
<!-- Node0 -->
<g id="node1" class="node">
<title>Node0</title>
<polygon fill="#bfbfbf" stroke="#000000" points="67.2832,-55.5 67.2832,-73.5 143.8643,-73.5 143.8643,-55.5 67.2832,-55.5"/>
<text text-anchor="middle" x="105.5737" y="-61.5" font-family="Helvetica,sans-Serif" font-size="10.00" fill="#000000">FwdKinModel</text>
</g>
<!-- Node2 -->
<g id="node3" class="node">
<title>Node2</title>
<g id="a_node3"><a xlink:href="classiCubFwdKinModel.html" target="_top" xlink:title="iCubFwdKinModel">
<polygon fill="#ffffff" stroke="#000000" points="0,-.5 0,-18.5 97.1475,-18.5 97.1475,-.5 0,-.5"/>
<text text-anchor="middle" x="48.5737" y="-6.5" font-family="Helvetica,sans-Serif" font-size="10.00" fill="#000000">iCubFwdKinModel</text>
</a>
</g>
</g>
<!-- Node0&#45;&gt;Node2 -->
<g id="edge2" class="edge">
<title>Node0&#45;&gt;Node2</title>
<path fill="none" stroke="#191970" d="M88.7838,-48.2992C78.8177,-38.6828 66.539,-26.8349 58.1906,-18.7795"/>
<polygon fill="#191970" stroke="#191970" points="86.5348,-50.9928 96.1613,-55.4179 91.3954,-45.9555 86.5348,-50.9928"/>
</g>
<!-- Node3 -->
<g id="node4" class="node">
<title>Node3</title>
<g id="a_node4"><a xlink:href="classPlayFwdKinModel.html" target="_top" xlink:title="PlayFwdKinModel">
<polygon fill="#ffffff" stroke="#000000" points="115.5566,-.5 115.5566,-18.5 211.5908,-18.5 211.5908,-.5 115.5566,-.5"/>
<text text-anchor="middle" x="163.5737" y="-6.5" font-family="Helvetica,sans-Serif" font-size="10.00" fill="#000000">PlayFwdKinModel</text>
</a>
</g>
</g>
<!-- Node0&#45;&gt;Node3 -->
<g id="edge3" class="edge">
<title>Node0&#45;&gt;Node3</title>
<path fill="none" stroke="#191970" d="M122.6582,-48.2992C132.7992,-38.6828 145.2933,-26.8349 153.7881,-18.7795"/>
<polygon fill="#191970" stroke="#191970" points="119.9992,-45.9972 115.1513,-55.4179 124.8158,-51.0766 119.9992,-45.9972"/>
</g>
<!-- Node1 -->
<g id="node2" class="node">
<title>Node1</title>
<polygon fill="#ffffff" stroke="#bfbfbf" points="50.877,-110.5 50.877,-128.5 160.2705,-128.5 160.2705,-110.5 50.877,-110.5"/>
<text text-anchor="middle" x="105.5737" y="-116.5" font-family="Helvetica,sans-Serif" font-size="10.00" fill="#000000">bfl::ExogenousModel</text>
</g>
<!-- Node1&#45;&gt;Node0 -->
<g id="edge1" class="edge">
<title>Node1&#45;&gt;Node0</title>
<path fill="none" stroke="#191970" d="M105.5737,-100.383C105.5737,-91.3738 105.5737,-81.0373 105.5737,-73.7795"/>
<polygon fill="#191970" stroke="#191970" points="102.0738,-100.4178 105.5737,-110.4179 109.0738,-100.4179 102.0738,-100.4178"/>
</g>
</g>
</svg>
