<?xml version="1.0" encoding="UTF-8" standalone="no"?>
<!DOCTYPE svg PUBLIC "-//W3C//DTD SVG 1.1//EN"
 "http://www.w3.org/Graphics/SVG/1.1/DTD/svg11.dtd">
<!-- Generated by graphviz version 2.40.1 (20161225.0304)
 -->
<!-- Title: VisualSISParticleFilterIDL Pages: 1 -->
<svg width="138pt" height="137pt"
 viewBox="0.00 0.00 138.31 137.00" xmlns="http://www.w3.org/2000/svg" xmlns:xlink="http://www.w3.org/1999/xlink">
<g id="graph0" class="graph" transform="scale(1 1) rotate(0) translate(4 133)">
<title>VisualSISParticleFilterIDL</title>
<polygon fill="#ffffff" stroke="transparent" points="-4,4 -4,-133 134.3066,-133 134.3066,4 -4,4"/>
<!-- Node0 -->
<g id="node1" class="node">
<title>Node0</title>
<polygon fill="#bfbfbf" stroke="#000000" points="0,-55.5 0,-73.5 130.3066,-73.5 130.3066,-55.5 0,-55.5"/>
<text text-anchor="middle" x="65.1533" y="-61.5" font-family="Helvetica,sans-Serif" font-size="10.00" fill="#000000">VisualSISParticleFilterIDL</text>
</g>
<!-- Node2 -->
<g id="node3" class="node">
<title>Node2</title>
<g id="a_node3"><a xlink:href="classVisualSIS.html" target="_top" xlink:title="VisualSIS">
<polygon fill="#ffffff" stroke="#000000" points="35.564,-.5 35.564,-18.5 94.7427,-18.5 94.7427,-.5 35.564,-.5"/>
<text text-anchor="middle" x="65.1533" y="-6.5" font-family="Helvetica,sans-Serif" font-size="10.00" fill="#000000">VisualSIS</text>
</a>
</g>
</g>
<!-- Node0&#45;&gt;Node2 -->
<g id="edge2" class="edge">
<title>Node0&#45;&gt;Node2</title>
<path fill="none" stroke="#191970" d="M65.1533,-45.383C65.1533,-36.3738 65.1533,-26.0373 65.1533,-18.7795"/>
<polygon fill="#191970" stroke="#191970" points="61.6534,-45.4178 65.1533,-55.4179 68.6534,-45.4179 61.6534,-45.4178"/>
</g>
<!-- Node1 -->
<g id="node2" class="node">
<title>Node1</title>
<polygon fill="#ffffff" stroke="#bfbfbf" points="46.8774,-110.5 46.8774,-128.5 83.4292,-128.5 83.4292,-110.5 46.8774,-110.5"/>
<text text-anchor="middle" x="65.1533" y="-116.5" font-family="Helvetica,sans-Serif" font-size="10.00" fill="#000000">Wire</text>
</g>
<!-- Node1&#45;&gt;Node0 -->
<g id="edge1" class="edge">
<title>Node1&#45;&gt;Node0</title>
<path fill="none" stroke="#191970" d="M65.1533,-100.383C65.1533,-91.3738 65.1533,-81.0373 65.1533,-73.7795"/>
<polygon fill="#191970" stroke="#191970" points="61.6534,-100.4178 65.1533,-110.4179 68.6534,-100.4179 61.6534,-100.4178"/>
</g>
</g>
</svg>
