<?xml version="1.0" encoding="UTF-8" standalone="no"?>
<!DOCTYPE svg PUBLIC "-//W3C//DTD SVG 1.1//EN"
 "http://www.w3.org/Graphics/SVG/1.1/DTD/svg11.dtd">
<!-- Generated by graphviz version 2.40.1 (20161225.0304)
 -->
<!-- Title: iCubFwdKinModel Pages: 1 -->
<svg width="117pt" height="137pt"
 viewBox="0.00 0.00 117.39 137.00" xmlns="http://www.w3.org/2000/svg" xmlns:xlink="http://www.w3.org/1999/xlink">
<g id="graph0" class="graph" transform="scale(1 1) rotate(0) translate(4 133)">
<title>iCubFwdKinModel</title>
<polygon fill="#ffffff" stroke="transparent" points="-4,4 -4,-133 113.3936,-133 113.3936,4 -4,4"/>
<!-- Node0 -->
<g id="node1" class="node">
<title>Node0</title>
<polygon fill="#bfbfbf" stroke="#000000" points="6.123,-.5 6.123,-18.5 103.2705,-18.5 103.2705,-.5 6.123,-.5"/>
<text text-anchor="middle" x="54.6968" y="-6.5" font-family="Helvetica,sans-Serif" font-size="10.00" fill="#000000">iCubFwdKinModel</text>
</g>
<!-- Node1 -->
<g id="node2" class="node">
<title>Node1</title>
<g id="a_node2"><a xlink:href="classFwdKinModel.html" target="_top" xlink:title="FwdKinModel">
<polygon fill="#ffffff" stroke="#000000" points="16.4063,-55.5 16.4063,-73.5 92.9873,-73.5 92.9873,-55.5 16.4063,-55.5"/>
<text text-anchor="middle" x="54.6968" y="-61.5" font-family="Helvetica,sans-Serif" font-size="10.00" fill="#000000">FwdKinModel</text>
</a>
</g>
</g>
<!-- Node1&#45;&gt;Node0 -->
<g id="edge1" class="edge">
<title>Node1&#45;&gt;Node0</title>
<path fill="none" stroke="#191970" d="M54.6968,-45.383C54.6968,-36.3738 54.6968,-26.0373 54.6968,-18.7795"/>
<polygon fill="#191970" stroke="#191970" points="51.1969,-45.4178 54.6968,-55.4179 58.1969,-45.4179 51.1969,-45.4178"/>
</g>
<!-- Node2 -->
<g id="node3" class="node">
<title>Node2</title>
<polygon fill="#ffffff" stroke="#bfbfbf" points="0,-110.5 0,-128.5 109.3936,-128.5 109.3936,-110.5 0,-110.5"/>
<text text-anchor="middle" x="54.6968" y="-116.5" font-family="Helvetica,sans-Serif" font-size="10.00" fill="#000000">bfl::ExogenousModel</text>
</g>
<!-- Node2&#45;&gt;Node1 -->
<g id="edge2" class="edge">
<title>Node2&#45;&gt;Node1</title>
<path fill="none" stroke="#191970" d="M54.6968,-100.383C54.6968,-91.3738 54.6968,-81.0373 54.6968,-73.7795"/>
<polygon fill="#191970" stroke="#191970" points="51.1969,-100.4178 54.6968,-110.4179 58.1969,-100.4179 51.1969,-100.4178"/>
</g>
</g>
</svg>
