<?xml version="1.0" encoding="UTF-8" standalone="no"?>
<!DOCTYPE svg PUBLIC "-//W3C//DTD SVG 1.1//EN"
 "http://www.w3.org/Graphics/SVG/1.1/DTD/svg11.dtd">
<!-- Generated by graphviz version 2.40.1 (20161225.0304)
 -->
<!-- Title: VisualServoingServer Pages: 1 -->
<svg width="407pt" height="137pt"
 viewBox="0.00 0.00 406.66 137.00" xmlns="http://www.w3.org/2000/svg" xmlns:xlink="http://www.w3.org/1999/xlink">
<g id="graph0" class="graph" transform="scale(1 1) rotate(0) translate(4 133)">
<title>VisualServoingServer</title>
<polygon fill="#ffffff" stroke="transparent" points="-4,4 -4,-133 402.6606,-133 402.6606,4 -4,4"/>
<!-- Node0 -->
<g id="node1" class="node">
<title>Node0</title>
<polygon fill="#bfbfbf" stroke="#000000" points="129.625,-.5 129.625,-18.5 241.6064,-18.5 241.6064,-.5 129.625,-.5"/>
<text text-anchor="middle" x="185.6157" y="-6.5" font-family="Helvetica,sans-Serif" font-size="10.00" fill="#000000">VisualServoingServer</text>
</g>
<!-- Node1 -->
<g id="node2" class="node">
<title>Node1</title>
<polygon fill="#ffffff" stroke="#bfbfbf" points="0,-55.5 0,-73.5 73.2314,-73.5 73.2314,-55.5 0,-55.5"/>
<text text-anchor="middle" x="36.6157" y="-61.5" font-family="Helvetica,sans-Serif" font-size="10.00" fill="#000000">DeviceDriver</text>
</g>
<!-- Node1&#45;&gt;Node0 -->
<g id="edge1" class="edge">
<title>Node1&#45;&gt;Node0</title>
<path fill="none" stroke="#191970" d="M70.8416,-51.8663C98.365,-41.7066 136.3738,-27.6765 160.9749,-18.5956"/>
<polygon fill="#191970" stroke="#191970" points="69.3893,-48.6715 61.22,-55.4179 71.8134,-55.2384 69.3893,-48.6715"/>
</g>
<!-- Node2 -->
<g id="node3" class="node">
<title>Node2</title>
<polygon fill="#ffffff" stroke="#bfbfbf" points="90.9624,-55.5 90.9624,-73.5 176.269,-73.5 176.269,-55.5 90.9624,-55.5"/>
<text text-anchor="middle" x="133.6157" y="-61.5" font-family="Helvetica,sans-Serif" font-size="10.00" fill="#000000">IVisualServoing</text>
</g>
<!-- Node2&#45;&gt;Node0 -->
<g id="edge2" class="edge">
<title>Node2&#45;&gt;Node0</title>
<path fill="none" stroke="#191970" d="M149.2035,-48.0129C158.2462,-38.4485 169.3018,-26.7552 176.8424,-18.7795"/>
<polygon fill="#191970" stroke="#191970" points="146.5293,-45.7468 142.2025,-55.4179 151.6159,-50.5559 146.5293,-45.7468"/>
</g>
<!-- Node3 -->
<g id="node4" class="node">
<title>Node3</title>
<polygon fill="#ffffff" stroke="#bfbfbf" points="194.2095,-55.5 194.2095,-73.5 283.022,-73.5 283.022,-55.5 194.2095,-55.5"/>
<text text-anchor="middle" x="238.6157" y="-61.5" font-family="Helvetica,sans-Serif" font-size="10.00" fill="#000000">yarp::os::Thread</text>
</g>
<!-- Node3&#45;&gt;Node0 -->
<g id="edge3" class="edge">
<title>Node3&#45;&gt;Node0</title>
<path fill="none" stroke="#006400" d="M222.7281,-48.0129C213.5116,-38.4485 202.2434,-26.7552 194.5577,-18.7795"/>
<polygon fill="#006400" stroke="#006400" points="220.4046,-50.6457 229.8639,-55.4179 225.4452,-45.7884 220.4046,-50.6457"/>
</g>
<!-- Node4 -->
<g id="node5" class="node">
<title>Node4</title>
<g id="a_node5"><a xlink:href="classVisualServoingIDL.html" target="_top" xlink:title="VisualServoingIDL IDL Interface to ServerVisualServoing functionalities. ">
<polygon fill="#ffffff" stroke="#000000" points="300.5708,-55.5 300.5708,-73.5 398.6606,-73.5 398.6606,-55.5 300.5708,-55.5"/>
<text text-anchor="middle" x="349.6157" y="-61.5" font-family="Helvetica,sans-Serif" font-size="10.00" fill="#000000">VisualServoingIDL</text>
</a>
</g>
</g>
<!-- Node4&#45;&gt;Node0 -->
<g id="edge4" class="edge">
<title>Node4&#45;&gt;Node0</title>
<path fill="none" stroke="#191970" d="M312.708,-52.1224C282.2553,-41.9096 239.7609,-27.6584 212.4646,-18.5042"/>
<polygon fill="#191970" stroke="#191970" points="311.9405,-55.5566 322.5345,-55.4179 314.1663,-48.9198 311.9405,-55.5566"/>
</g>
<!-- Node5 -->
<g id="node6" class="node">
<title>Node5</title>
<polygon fill="#ffffff" stroke="#bfbfbf" points="310.7759,-110.5 310.7759,-128.5 388.4556,-128.5 388.4556,-110.5 310.7759,-110.5"/>
<text text-anchor="middle" x="349.6157" y="-116.5" font-family="Helvetica,sans-Serif" font-size="10.00" fill="#000000">yarp::os::Wire</text>
</g>
<!-- Node5&#45;&gt;Node4 -->
<g id="edge5" class="edge">
<title>Node5&#45;&gt;Node4</title>
<path fill="none" stroke="#191970" d="M349.6157,-100.383C349.6157,-91.3738 349.6157,-81.0373 349.6157,-73.7795"/>
<polygon fill="#191970" stroke="#191970" points="346.1158,-100.4178 349.6157,-110.4179 353.1158,-100.4179 346.1158,-100.4178"/>
</g>
</g>
</svg>
