<?xml version="1.0" encoding="UTF-8" standalone="no"?>
<!DOCTYPE svg PUBLIC "-//W3C//DTD SVG 1.1//EN"
 "http://www.w3.org/Graphics/SVG/1.1/DTD/svg11.dtd">
<!-- Generated by graphviz version 2.40.1 (20161225.0304)
 -->
<!-- Title: VisualProprioception::setProperty Pages: 1 -->
<!--zoomable 178 -->
<svg id="main" version="1.1" xmlns="http://www.w3.org/2000/svg" xmlns:xlink="http://www.w3.org/1999/xlink" xml:space="preserve" onload="init(evt)">
<style type="text/css"><![CDATA[
.edge:hover path { stroke: red; }
.edge:hover polygon { stroke: red; fill: red; }
]]></style>
<script type="text/javascript"><![CDATA[
var edges = document.getElementsByTagName('g');
if (edges && edges.length) {
  for (var i=0;i<edges.length;i++) {
    if (edges[i].id.substr(0,4)=='edge') {
      edges[i].setAttribute('class','edge');
    }
  }
}
]]></script>
        <defs>
                <circle id="rim" cx="0" cy="0" r="7"/>
                <circle id="rim2" cx="0" cy="0" r="3.5"/>
                <g id="zoomPlus">
                        <use xlink:href="#rim" fill="#404040">
                                <set attributeName="fill" to="#808080" begin="zoomplus.mouseover" end="zoomplus.mouseout"/>
                        </use>
                        <path d="M-4,0h8M0,-4v8" fill="none" stroke="white" stroke-width="1.5" pointer-events="none"/>
                </g>
                <g id="zoomMin">
                        <use xlink:href="#rim" fill="#404040">
                                <set attributeName="fill" to="#808080" begin="zoomminus.mouseover" end="zoomminus.mouseout"/>
                        </use>
                        <path d="M-4,0h8" fill="none" stroke="white" stroke-width="1.5" pointer-events="none"/>
                </g>
                <g id="dirArrow">
                        <path fill="none" stroke="white" stroke-width="1.5" d="M0,-3.0v7 M-2.5,-0.5L0,-3.0L2.5,-0.5"/>
                </g>
               <g id="resetDef">
                       <use xlink:href="#rim2" fill="#404040">
                               <set attributeName="fill" to="#808080" begin="reset.mouseover" end="reset.mouseout"/>
                       </use>
               </g>
        </defs>

<script type="text/javascript">
var viewWidth = 546;
var viewHeight = 178;
var sectionId = 'dynsection-6';
</script>
<script xlink:href="svgpan.js"/>
<svg id="graph" class="graph">
<g id="viewport">
<title>VisualProprioception::setProperty</title>
<polygon fill="#ffffff" stroke="transparent" points="-4,4 -4,-174 542.1719,-174 542.1719,4 -4,4"/>
<!-- Node38 -->
<g id="node1" class="node">
<title>Node38</title>
<polygon fill="#bfbfbf" stroke="#000000" points="0,-94.5 0,-122.5 107.543,-122.5 107.543,-94.5 0,-94.5"/>
<text text-anchor="start" x="8" y="-110.5" font-family="Helvetica,sans-Serif" font-size="10.00" fill="#000000">VisualProprioception</text>
<text text-anchor="middle" x="53.7715" y="-100.5" font-family="Helvetica,sans-Serif" font-size="10.00" fill="#000000">::setProperty</text>
</g>
<!-- Node39 -->
<g id="node2" class="node">
<title>Node39</title>
<g id="a_node2"><a xlink:href="classVisualProprioception.html#a0d7954358702576e252efd76694d9a18" target="_top" xlink:title="VisualProprioception\l::closeAnalogs">
<polygon fill="#ffffff" stroke="#000000" points="143.543,-141.5 143.543,-169.5 251.0859,-169.5 251.0859,-141.5 143.543,-141.5"/>
<text text-anchor="start" x="151.543" y="-157.5" font-family="Helvetica,sans-Serif" font-size="10.00" fill="#000000">VisualProprioception</text>
<text text-anchor="middle" x="197.3145" y="-147.5" font-family="Helvetica,sans-Serif" font-size="10.00" fill="#000000">::closeAnalogs</text>
</a>
</g>
</g>
<!-- Node38&#45;&gt;Node39 -->
<g id="edge1" class="edge">
<title>Node38&#45;&gt;Node39</title>
<path fill="none" stroke="#191970" d="M96.8391,-122.6015C111.8843,-127.5278 128.9444,-133.1137 144.6803,-138.2661"/>
<polygon fill="#191970" stroke="#191970" points="143.6846,-141.6228 154.2772,-141.4084 145.8628,-134.9704 143.6846,-141.6228"/>
</g>
<!-- Node40 -->
<g id="node3" class="node">
<title>Node40</title>
<g id="a_node3"><a xlink:href="classVisualProprioception.html#aade0b47250e8315166b36f7b731d360d" target="_top" xlink:title="VisualProprioception\l::openAnalogs">
<polygon fill="#ffffff" stroke="#000000" points="143.543,-94.5 143.543,-122.5 251.0859,-122.5 251.0859,-94.5 143.543,-94.5"/>
<text text-anchor="start" x="151.543" y="-110.5" font-family="Helvetica,sans-Serif" font-size="10.00" fill="#000000">VisualProprioception</text>
<text text-anchor="middle" x="197.3145" y="-100.5" font-family="Helvetica,sans-Serif" font-size="10.00" fill="#000000">::openAnalogs</text>
</a>
</g>
</g>
<!-- Node38&#45;&gt;Node40 -->
<g id="edge2" class="edge">
<title>Node38&#45;&gt;Node40</title>
<path fill="none" stroke="#191970" d="M107.63,-108.5C115.8873,-108.5 124.4825,-108.5 132.9393,-108.5"/>
<polygon fill="#191970" stroke="#191970" points="133.1541,-112.0001 143.1541,-108.5 133.1541,-105.0001 133.1541,-112.0001"/>
</g>
<!-- Node41 -->
<g id="node4" class="node">
<title>Node41</title>
<g id="a_node4"><a xlink:href="classVisualProprioception.html#a23b9c75f9a3c44442a371676a0379a19" target="_top" xlink:title="VisualProprioception\l::setiCubParams">
<polygon fill="#ffffff" stroke="#000000" points="143.543,-47.5 143.543,-75.5 251.0859,-75.5 251.0859,-47.5 143.543,-47.5"/>
<text text-anchor="start" x="151.543" y="-63.5" font-family="Helvetica,sans-Serif" font-size="10.00" fill="#000000">VisualProprioception</text>
<text text-anchor="middle" x="197.3145" y="-53.5" font-family="Helvetica,sans-Serif" font-size="10.00" fill="#000000">::setiCubParams</text>
</a>
</g>
</g>
<!-- Node38&#45;&gt;Node41 -->
<g id="edge3" class="edge">
<title>Node38&#45;&gt;Node41</title>
<path fill="none" stroke="#191970" d="M96.8391,-94.3985C111.8843,-89.4722 128.9444,-83.8863 144.6803,-78.7339"/>
<polygon fill="#191970" stroke="#191970" points="145.8628,-82.0296 154.2772,-75.5916 143.6846,-75.3772 145.8628,-82.0296"/>
</g>
<!-- Node42 -->
<g id="node5" class="node">
<title>Node42</title>
<g id="a_node5"><a xlink:href="classVisualProprioception.html#aa0ce08aa7f8fa882ade6997a1c9297ad" target="_top" xlink:title="VisualProprioception\l::readRootToEye">
<polygon fill="#ffffff" stroke="#000000" points="287.0859,-94.5 287.0859,-122.5 394.6289,-122.5 394.6289,-94.5 287.0859,-94.5"/>
<text text-anchor="start" x="295.0859" y="-110.5" font-family="Helvetica,sans-Serif" font-size="10.00" fill="#000000">VisualProprioception</text>
<text text-anchor="middle" x="340.8574" y="-100.5" font-family="Helvetica,sans-Serif" font-size="10.00" fill="#000000">::readRootToEye</text>
</a>
</g>
</g>
<!-- Node41&#45;&gt;Node42 -->
<g id="edge4" class="edge">
<title>Node41&#45;&gt;Node42</title>
<path fill="none" stroke="#191970" d="M240.3821,-75.6015C255.4273,-80.5278 272.4873,-86.1137 288.2233,-91.2661"/>
<polygon fill="#191970" stroke="#191970" points="287.2275,-94.6228 297.8202,-94.4084 289.4058,-87.9704 287.2275,-94.6228"/>
</g>
<!-- Node44 -->
<g id="node7" class="node">
<title>Node44</title>
<g id="a_node7"><a xlink:href="classVisualProprioception.html#af3370849532d77174f5848f415c08e9e" target="_top" xlink:title="VisualProprioception\l::readRootToFingers">
<polygon fill="#ffffff" stroke="#000000" points="287.0859,-47.5 287.0859,-75.5 394.6289,-75.5 394.6289,-47.5 287.0859,-47.5"/>
<text text-anchor="start" x="295.0859" y="-63.5" font-family="Helvetica,sans-Serif" font-size="10.00" fill="#000000">VisualProprioception</text>
<text text-anchor="middle" x="340.8574" y="-53.5" font-family="Helvetica,sans-Serif" font-size="10.00" fill="#000000">::readRootToFingers</text>
</a>
</g>
</g>
<!-- Node41&#45;&gt;Node44 -->
<g id="edge6" class="edge">
<title>Node41&#45;&gt;Node44</title>
<path fill="none" stroke="#191970" d="M251.1729,-61.5C259.4303,-61.5 268.0255,-61.5 276.4823,-61.5"/>
<polygon fill="#191970" stroke="#191970" points="276.6971,-65.0001 286.6971,-61.5 276.697,-58.0001 276.6971,-65.0001"/>
</g>
<!-- Node45 -->
<g id="node8" class="node">
<title>Node45</title>
<g id="a_node8"><a xlink:href="classVisualProprioception.html#afe0bc2a5d6fea18d75764ed12755f3ee" target="_top" xlink:title="VisualProprioception\l::setArmJoints">
<polygon fill="#ffffff" stroke="#000000" points="287.0859,-.5 287.0859,-28.5 394.6289,-28.5 394.6289,-.5 287.0859,-.5"/>
<text text-anchor="start" x="295.0859" y="-16.5" font-family="Helvetica,sans-Serif" font-size="10.00" fill="#000000">VisualProprioception</text>
<text text-anchor="middle" x="340.8574" y="-6.5" font-family="Helvetica,sans-Serif" font-size="10.00" fill="#000000">::setArmJoints</text>
</a>
</g>
</g>
<!-- Node41&#45;&gt;Node45 -->
<g id="edge8" class="edge">
<title>Node41&#45;&gt;Node45</title>
<path fill="none" stroke="#191970" d="M240.3821,-47.3985C255.4273,-42.4722 272.4873,-36.8863 288.2233,-31.7339"/>
<polygon fill="#191970" stroke="#191970" points="289.4058,-35.0296 297.8202,-28.5916 287.2275,-28.3772 289.4058,-35.0296"/>
</g>
<!-- Node43 -->
<g id="node6" class="node">
<title>Node43</title>
<g id="a_node6"><a xlink:href="classVisualProprioception.html#a3bf5b9321ccf560bb3955cbe17fc5cab" target="_top" xlink:title="VisualProprioception\l::readTorso">
<polygon fill="#ffffff" stroke="#000000" points="430.6289,-70.5 430.6289,-98.5 538.1719,-98.5 538.1719,-70.5 430.6289,-70.5"/>
<text text-anchor="start" x="438.6289" y="-86.5" font-family="Helvetica,sans-Serif" font-size="10.00" fill="#000000">VisualProprioception</text>
<text text-anchor="middle" x="484.4004" y="-76.5" font-family="Helvetica,sans-Serif" font-size="10.00" fill="#000000">::readTorso</text>
</a>
</g>
</g>
<!-- Node42&#45;&gt;Node43 -->
<g id="edge5" class="edge">
<title>Node42&#45;&gt;Node43</title>
<path fill="none" stroke="#191970" d="M394.7159,-99.495C403.064,-98.0992 411.7574,-96.6457 420.304,-95.2167"/>
<polygon fill="#191970" stroke="#191970" points="420.9541,-98.6567 430.24,-93.5555 419.7997,-91.7526 420.9541,-98.6567"/>
</g>
<!-- Node44&#45;&gt;Node43 -->
<g id="edge7" class="edge">
<title>Node44&#45;&gt;Node43</title>
<path fill="none" stroke="#191970" d="M394.7159,-70.1298C403.064,-71.4674 411.7574,-72.8604 420.304,-74.2298"/>
<polygon fill="#191970" stroke="#191970" points="419.8122,-77.6956 430.24,-75.8218 420.9198,-70.7837 419.8122,-77.6956"/>
</g>
</g>
</svg>
        <g id="navigator" transform="translate(0 0)" fill="#404254">
                <rect fill="#f2f5e9" fill-opacity="0.5" stroke="#606060" stroke-width=".5" x="0" y="0" width="60" height="60"/>
                <use id="zoomplus" xlink:href="#zoomPlus" x="17" y="9" onmousedown="handleZoom(evt,'in')"/>
                <use id="zoomminus" xlink:href="#zoomMin" x="42" y="9" onmousedown="handleZoom(evt,'out')"/>
                <use id="reset" xlink:href="#resetDef" x="30" y="36" onmousedown="handleReset()"/>
                <g id="arrowUp" xlink:href="#dirArrow" transform="translate(30 24)" onmousedown="handlePan(0,-1)">
                  <use xlink:href="#rim" fill="#404040">
                        <set attributeName="fill" to="#808080" begin="arrowUp.mouseover" end="arrowUp.mouseout"/>
                  </use>
                  <path fill="none" stroke="white" stroke-width="1.5" d="M0,-3.0v7 M-2.5,-0.5L0,-3.0L2.5,-0.5"/>
                </g>
                <g id="arrowRight" xlink:href="#dirArrow" transform="rotate(90) translate(36 -43)" onmousedown="handlePan(1,0)">
                  <use xlink:href="#rim" fill="#404040">
                        <set attributeName="fill" to="#808080" begin="arrowRight.mouseover" end="arrowRight.mouseout"/>
                  </use>
                  <path fill="none" stroke="white" stroke-width="1.5" d="M0,-3.0v7 M-2.5,-0.5L0,-3.0L2.5,-0.5"/>
                </g>
                <g id="arrowDown" xlink:href="#dirArrow" transform="rotate(180) translate(-30 -48)" onmousedown="handlePan(0,1)">
                  <use xlink:href="#rim" fill="#404040">
                        <set attributeName="fill" to="#808080" begin="arrowDown.mouseover" end="arrowDown.mouseout"/>
                  </use>
                  <path fill="none" stroke="white" stroke-width="1.5" d="M0,-3.0v7 M-2.5,-0.5L0,-3.0L2.5,-0.5"/>
                </g>
                <g id="arrowLeft" xlink:href="#dirArrow" transform="rotate(270) translate(-36 17)" onmousedown="handlePan(-1,0)">
                  <use xlink:href="#rim" fill="#404040">
                        <set attributeName="fill" to="#808080" begin="arrowLeft.mouseover" end="arrowLeft.mouseout"/>
                  </use>
                  <path fill="none" stroke="white" stroke-width="1.5" d="M0,-3.0v7 M-2.5,-0.5L0,-3.0L2.5,-0.5"/>
                </g>
        </g>
        <svg viewBox="0 0 15 15" width="100%" height="30px" preserveAspectRatio="xMaxYMin meet">
         <g id="arrow_out" transform="scale(0.3 0.3)">
          <a xlink:href="classVisualProprioception_a59835a3e089f463855de8e228fc4fd91_cgraph_org.svg" target="_base">
           <rect id="button" ry="5" rx="5" y="6" x="6" height="38" width="38"
                fill="#f2f5e9" fill-opacity="0.5" stroke="#606060" stroke-width="1.0"/>
           <path id="arrow"
             d="M 11.500037,31.436501 C 11.940474,20.09759 22.043105,11.32322 32.158766,21.979434 L 37.068811,17.246167 C 37.068811,17.246167 37.088388,32 37.088388,32 L 22.160133,31.978069 C 22.160133,31.978069 26.997745,27.140456 26.997745,27.140456 C 18.528582,18.264221 13.291696,25.230495 11.500037,31.436501 z"
             style="fill:#404040;"/>
          </a>
         </g>
        </svg>
</svg>
