<?xml version="1.0" encoding="UTF-8" standalone="no"?>
<!DOCTYPE svg PUBLIC "-//W3C//DTD SVG 1.1//EN"
 "http://www.w3.org/Graphics/SVG/1.1/DTD/svg11.dtd">
<!-- Generated by graphviz version 2.40.1 (20161225.0304)
 -->
<!-- Title: VisualServoingIDL Pages: 1 -->
<svg width="120pt" height="137pt"
 viewBox="0.00 0.00 119.98 137.00" xmlns="http://www.w3.org/2000/svg" xmlns:xlink="http://www.w3.org/1999/xlink">
<g id="graph0" class="graph" transform="scale(1 1) rotate(0) translate(4 133)">
<title>VisualServoingIDL</title>
<polygon fill="#ffffff" stroke="transparent" points="-4,4 -4,-133 115.9814,-133 115.9814,4 -4,4"/>
<!-- Node0 -->
<g id="node1" class="node">
<title>Node0</title>
<polygon fill="#bfbfbf" stroke="#000000" points="6.9458,-55.5 6.9458,-73.5 105.0356,-73.5 105.0356,-55.5 6.9458,-55.5"/>
<text text-anchor="middle" x="55.9907" y="-61.5" font-family="Helvetica,sans-Serif" font-size="10.00" fill="#000000">VisualServoingIDL</text>
</g>
<!-- Node2 -->
<g id="node3" class="node">
<title>Node2</title>
<g id="a_node3"><a xlink:href="classVisualServoingServer.html" target="_top" xlink:title="VisualServoingServer">
<polygon fill="#ffffff" stroke="#000000" points="0,-.5 0,-18.5 111.9814,-18.5 111.9814,-.5 0,-.5"/>
<text text-anchor="middle" x="55.9907" y="-6.5" font-family="Helvetica,sans-Serif" font-size="10.00" fill="#000000">VisualServoingServer</text>
</a>
</g>
</g>
<!-- Node0&#45;&gt;Node2 -->
<g id="edge2" class="edge">
<title>Node0&#45;&gt;Node2</title>
<path fill="none" stroke="#191970" d="M55.9907,-45.383C55.9907,-36.3738 55.9907,-26.0373 55.9907,-18.7795"/>
<polygon fill="#191970" stroke="#191970" points="52.4908,-45.4178 55.9907,-55.4179 59.4908,-45.4179 52.4908,-45.4178"/>
</g>
<!-- Node1 -->
<g id="node2" class="node">
<title>Node1</title>
<polygon fill="#ffffff" stroke="#bfbfbf" points="17.1509,-110.5 17.1509,-128.5 94.8306,-128.5 94.8306,-110.5 17.1509,-110.5"/>
<text text-anchor="middle" x="55.9907" y="-116.5" font-family="Helvetica,sans-Serif" font-size="10.00" fill="#000000">yarp::os::Wire</text>
</g>
<!-- Node1&#45;&gt;Node0 -->
<g id="edge1" class="edge">
<title>Node1&#45;&gt;Node0</title>
<path fill="none" stroke="#191970" d="M55.9907,-100.383C55.9907,-91.3738 55.9907,-81.0373 55.9907,-73.7795"/>
<polygon fill="#191970" stroke="#191970" points="52.4908,-100.4178 55.9907,-110.4179 59.4908,-100.4179 52.4908,-100.4178"/>
</g>
</g>
</svg>
