<?xml version="1.0" encoding="UTF-8" standalone="no"?>
<!DOCTYPE svg PUBLIC "-//W3C//DTD SVG 1.1//EN"
 "http://www.w3.org/Graphics/SVG/1.1/DTD/svg11.dtd">
<!-- Generated by graphviz version 2.40.1 (20161225.0304)
 -->
<!-- Title: VisualServoingServer::threadInit Pages: 1 -->
<svg width="322pt" height="47pt"
 viewBox="0.00 0.00 322.45 47.00" xmlns="http://www.w3.org/2000/svg" xmlns:xlink="http://www.w3.org/1999/xlink">
<g id="graph0" class="graph" transform="scale(1 1) rotate(0) translate(4 43)">
<title>VisualServoingServer::threadInit</title>
<polygon fill="#ffffff" stroke="transparent" points="-4,4 -4,-43 318.4502,-43 318.4502,4 -4,4"/>
<!-- Node83 -->
<g id="node1" class="node">
<title>Node83</title>
<polygon fill="#bfbfbf" stroke="#000000" points="0,-5.5 0,-33.5 111.9814,-33.5 111.9814,-5.5 0,-5.5"/>
<text text-anchor="start" x="8" y="-21.5" font-family="Helvetica,sans-Serif" font-size="10.00" fill="#000000">VisualServoingServer</text>
<text text-anchor="middle" x="55.9907" y="-11.5" font-family="Helvetica,sans-Serif" font-size="10.00" fill="#000000">::threadInit</text>
</g>
<!-- Node84 -->
<g id="node2" class="node">
<title>Node84</title>
<g id="a_node2"><a xlink:href="classVisualServoingServer.html#abe1d3c25e81378f9a1a834d64cf0c496" target="_top" xlink:title="VisualServoingServer\l::backproc_UpdateVisualServoing\lParamters">
<polygon fill="#ffffff" stroke="#000000" points="147.9814,-.5 147.9814,-38.5 314.4502,-38.5 314.4502,-.5 147.9814,-.5"/>
<text text-anchor="start" x="155.9814" y="-26.5" font-family="Helvetica,sans-Serif" font-size="10.00" fill="#000000">VisualServoingServer</text>
<text text-anchor="start" x="155.9814" y="-16.5" font-family="Helvetica,sans-Serif" font-size="10.00" fill="#000000">::backproc_UpdateVisualServoing</text>
<text text-anchor="middle" x="231.2158" y="-6.5" font-family="Helvetica,sans-Serif" font-size="10.00" fill="#000000">Paramters</text>
</a>
</g>
</g>
<!-- Node83&#45;&gt;Node84 -->
<g id="edge1" class="edge">
<title>Node83&#45;&gt;Node84</title>
<path fill="none" stroke="#191970" d="M112.3976,-19.5C120.5232,-19.5 129.0608,-19.5 137.6752,-19.5"/>
<polygon fill="#191970" stroke="#191970" points="137.803,-23.0001 147.8029,-19.5 137.8029,-16.0001 137.803,-23.0001"/>
</g>
</g>
</svg>
