<?xml version="1.0" encoding="UTF-8" standalone="no"?>
<!DOCTYPE svg PUBLIC "-//W3C//DTD SVG 1.1//EN"
 "http://www.w3.org/Graphics/SVG/1.1/DTD/svg11.dtd">
<!-- Generated by graphviz version 2.40.1 (20161225.0304)
 -->
<!-- Title: VisualProprioception::getModelPose Pages: 1 -->
<svg width="259pt" height="37pt"
 viewBox="0.00 0.00 259.09 37.00" xmlns="http://www.w3.org/2000/svg" xmlns:xlink="http://www.w3.org/1999/xlink">
<g id="graph0" class="graph" transform="scale(1 1) rotate(0) translate(4 33)">
<title>VisualProprioception::getModelPose</title>
<polygon fill="#ffffff" stroke="transparent" points="-4,4 -4,-33 255.0859,-33 255.0859,4 -4,4"/>
<!-- Node13 -->
<g id="node1" class="node">
<title>Node13</title>
<polygon fill="#bfbfbf" stroke="#000000" points="0,-.5 0,-28.5 107.543,-28.5 107.543,-.5 0,-.5"/>
<text text-anchor="start" x="8" y="-16.5" font-family="Helvetica,sans-Serif" font-size="10.00" fill="#000000">VisualProprioception</text>
<text text-anchor="middle" x="53.7715" y="-6.5" font-family="Helvetica,sans-Serif" font-size="10.00" fill="#000000">::getModelPose</text>
</g>
<!-- Node14 -->
<g id="node2" class="node">
<title>Node14</title>
<g id="a_node2"><a xlink:href="classVisualProprioception.html#a30b0283a5c8b29bdf828c291e7868e51" target="_top" xlink:title="VisualProprioception\l::getInvertedH">
<polygon fill="#ffffff" stroke="#000000" points="143.543,-.5 143.543,-28.5 251.0859,-28.5 251.0859,-.5 143.543,-.5"/>
<text text-anchor="start" x="151.543" y="-16.5" font-family="Helvetica,sans-Serif" font-size="10.00" fill="#000000">VisualProprioception</text>
<text text-anchor="middle" x="197.3145" y="-6.5" font-family="Helvetica,sans-Serif" font-size="10.00" fill="#000000">::getInvertedH</text>
</a>
</g>
</g>
<!-- Node13&#45;&gt;Node14 -->
<g id="edge1" class="edge">
<title>Node13&#45;&gt;Node14</title>
<path fill="none" stroke="#191970" d="M107.63,-14.5C115.8873,-14.5 124.4825,-14.5 132.9393,-14.5"/>
<polygon fill="#191970" stroke="#191970" points="133.1541,-18.0001 143.1541,-14.5 133.1541,-11.0001 133.1541,-18.0001"/>
</g>
</g>
</svg>
