<?xml version="1.0" encoding="UTF-8" standalone="no"?>
<!DOCTYPE svg PUBLIC "-//W3C//DTD SVG 1.1//EN"
 "http://www.w3.org/Graphics/SVG/1.1/DTD/svg11.dtd">
<!-- Generated by graphviz version 2.40.1 (20161225.0304)
 -->
<!-- Title: VisualServoingServer::yErrorVerbose Pages: 1 -->
<svg width="302pt" height="37pt"
 viewBox="0.00 0.00 302.06 37.00" xmlns="http://www.w3.org/2000/svg" xmlns:xlink="http://www.w3.org/1999/xlink">
<g id="graph0" class="graph" transform="scale(1 1) rotate(0) translate(4 33)">
<title>VisualServoingServer::yErrorVerbose</title>
<polygon fill="#ffffff" stroke="transparent" points="-4,4 -4,-33 298.0596,-33 298.0596,4 -4,4"/>
<!-- Node89 -->
<g id="node1" class="node">
<title>Node89</title>
<polygon fill="#bfbfbf" stroke="#000000" points="0,-.5 0,-28.5 111.9814,-28.5 111.9814,-.5 0,-.5"/>
<text text-anchor="start" x="8" y="-16.5" font-family="Helvetica,sans-Serif" font-size="10.00" fill="#000000">VisualServoingServer</text>
<text text-anchor="middle" x="55.9907" y="-6.5" font-family="Helvetica,sans-Serif" font-size="10.00" fill="#000000">::yErrorVerbose</text>
</g>
<!-- Node90 -->
<g id="node2" class="node">
<title>Node90</title>
<g id="a_node2"><a xlink:href="classVisualServoingServer.html#adcc6db0a6cf857c4bd44d495ec445954" target="_top" xlink:title="VisualServoingServer\l::stdVectorOfVectorsToVector">
<polygon fill="#ffffff" stroke="#000000" points="147.9814,-.5 147.9814,-28.5 294.0596,-28.5 294.0596,-.5 147.9814,-.5"/>
<text text-anchor="start" x="155.9814" y="-16.5" font-family="Helvetica,sans-Serif" font-size="10.00" fill="#000000">VisualServoingServer</text>
<text text-anchor="middle" x="221.0205" y="-6.5" font-family="Helvetica,sans-Serif" font-size="10.00" fill="#000000">::stdVectorOfVectorsToVector</text>
</a>
</g>
</g>
<!-- Node89&#45;&gt;Node90 -->
<g id="edge1" class="edge">
<title>Node89&#45;&gt;Node90</title>
<path fill="none" stroke="#191970" d="M112.323,-14.5C120.5108,-14.5 129.0823,-14.5 137.666,-14.5"/>
<polygon fill="#191970" stroke="#191970" points="137.7257,-18.0001 147.7257,-14.5 137.7257,-11.0001 137.7257,-18.0001"/>
</g>
</g>
</svg>
