<?xml version="1.0" encoding="UTF-8" standalone="no"?>
<!DOCTYPE svg PUBLIC "-//W3C//DTD SVG 1.1//EN"
 "http://www.w3.org/Graphics/SVG/1.1/DTD/svg11.dtd">
<!-- Generated by graphviz version 2.40.1 (20161225.0304)
 -->
<!-- Title: GatePose Pages: 1 -->
<svg width="186pt" height="137pt"
 viewBox="0.00 0.00 186.48 137.00" xmlns="http://www.w3.org/2000/svg" xmlns:xlink="http://www.w3.org/1999/xlink">
<g id="graph0" class="graph" transform="scale(1 1) rotate(0) translate(4 133)">
<title>GatePose</title>
<polygon fill="#ffffff" stroke="transparent" points="-4,4 -4,-133 182.4824,-133 182.4824,4 -4,4"/>
<!-- Node0 -->
<g id="node1" class="node">
<title>Node0</title>
<polygon fill="#bfbfbf" stroke="#000000" points="59.2832,-55.5 59.2832,-73.5 119.7559,-73.5 119.7559,-55.5 59.2832,-55.5"/>
<text text-anchor="middle" x="89.5195" y="-61.5" font-family="Helvetica,sans-Serif" font-size="10.00" fill="#000000">GatePose</text>
</g>
<!-- Node2 -->
<g id="node3" class="node">
<title>Node2</title>
<g id="a_node3"><a xlink:href="classiCubGatePose.html" target="_top" xlink:title="iCubGatePose">
<polygon fill="#ffffff" stroke="#000000" points="0,-.5 0,-18.5 81.0391,-18.5 81.0391,-.5 0,-.5"/>
<text text-anchor="middle" x="40.5195" y="-6.5" font-family="Helvetica,sans-Serif" font-size="10.00" fill="#000000">iCubGatePose</text>
</a>
</g>
</g>
<!-- Node0&#45;&gt;Node2 -->
<g id="edge2" class="edge">
<title>Node0&#45;&gt;Node2</title>
<path fill="none" stroke="#191970" d="M74.5748,-47.7253C66.102,-38.215 55.8213,-26.6754 48.7867,-18.7795"/>
<polygon fill="#191970" stroke="#191970" points="72.1628,-50.2795 81.4282,-55.4179 77.3894,-45.623 72.1628,-50.2795"/>
</g>
<!-- Node3 -->
<g id="node4" class="node">
<title>Node3</title>
<g id="a_node4"><a xlink:href="classPlayGatePose.html" target="_top" xlink:title="PlayGatePose">
<polygon fill="#ffffff" stroke="#000000" points="98.5566,-.5 98.5566,-18.5 178.4824,-18.5 178.4824,-.5 98.5566,-.5"/>
<text text-anchor="middle" x="138.5195" y="-6.5" font-family="Helvetica,sans-Serif" font-size="10.00" fill="#000000">PlayGatePose</text>
</a>
</g>
</g>
<!-- Node0&#45;&gt;Node3 -->
<g id="edge3" class="edge">
<title>Node0&#45;&gt;Node3</title>
<path fill="none" stroke="#191970" d="M104.4642,-47.7253C112.9371,-38.215 123.2178,-26.6754 130.2524,-18.7795"/>
<polygon fill="#191970" stroke="#191970" points="101.6497,-45.623 97.6109,-55.4179 106.8763,-50.2795 101.6497,-45.623"/>
</g>
<!-- Node1 -->
<g id="node2" class="node">
<title>Node1</title>
<polygon fill="#ffffff" stroke="#bfbfbf" points="8.5239,-110.5 8.5239,-128.5 170.5151,-128.5 170.5151,-110.5 8.5239,-110.5"/>
<text text-anchor="middle" x="89.5195" y="-116.5" font-family="Helvetica,sans-Serif" font-size="10.00" fill="#000000">bfl::PFVisualCorrectionDecorator</text>
</g>
<!-- Node1&#45;&gt;Node0 -->
<g id="edge1" class="edge">
<title>Node1&#45;&gt;Node0</title>
<path fill="none" stroke="#191970" d="M89.5195,-100.383C89.5195,-91.3738 89.5195,-81.0373 89.5195,-73.7795"/>
<polygon fill="#191970" stroke="#191970" points="86.0196,-100.4178 89.5195,-110.4179 93.0196,-100.4179 86.0196,-100.4178"/>
</g>
</g>
</svg>
