<?xml version="1.0" encoding="UTF-8" standalone="no"?>
<!DOCTYPE svg PUBLIC "-//W3C//DTD SVG 1.1//EN"
 "http://www.w3.org/Graphics/SVG/1.1/DTD/svg11.dtd">
<!-- Generated by graphviz version 2.40.1 (20161225.0304)
 -->
<!-- Title: VisualProprioception::setiCubParams Pages: 1 -->
<svg width="403pt" height="131pt"
 viewBox="0.00 0.00 402.63 131.00" xmlns="http://www.w3.org/2000/svg" xmlns:xlink="http://www.w3.org/1999/xlink">
<g id="graph0" class="graph" transform="scale(1 1) rotate(0) translate(4 127)">
<title>VisualProprioception::setiCubParams</title>
<polygon fill="#ffffff" stroke="transparent" points="-4,4 -4,-127 398.6289,-127 398.6289,4 -4,4"/>
<!-- Node33 -->
<g id="node1" class="node">
<title>Node33</title>
<polygon fill="#bfbfbf" stroke="#000000" points="0,-47.5 0,-75.5 107.543,-75.5 107.543,-47.5 0,-47.5"/>
<text text-anchor="start" x="8" y="-63.5" font-family="Helvetica,sans-Serif" font-size="10.00" fill="#000000">VisualProprioception</text>
<text text-anchor="middle" x="53.7715" y="-53.5" font-family="Helvetica,sans-Serif" font-size="10.00" fill="#000000">::setiCubParams</text>
</g>
<!-- Node34 -->
<g id="node2" class="node">
<title>Node34</title>
<g id="a_node2"><a xlink:href="classVisualProprioception.html#aa0ce08aa7f8fa882ade6997a1c9297ad" target="_top" xlink:title="VisualProprioception\l::readRootToEye">
<polygon fill="#ffffff" stroke="#000000" points="143.543,-94.5 143.543,-122.5 251.0859,-122.5 251.0859,-94.5 143.543,-94.5"/>
<text text-anchor="start" x="151.543" y="-110.5" font-family="Helvetica,sans-Serif" font-size="10.00" fill="#000000">VisualProprioception</text>
<text text-anchor="middle" x="197.3145" y="-100.5" font-family="Helvetica,sans-Serif" font-size="10.00" fill="#000000">::readRootToEye</text>
</a>
</g>
</g>
<!-- Node33&#45;&gt;Node34 -->
<g id="edge1" class="edge">
<title>Node33&#45;&gt;Node34</title>
<path fill="none" stroke="#191970" d="M96.8391,-75.6015C111.8843,-80.5278 128.9444,-86.1137 144.6803,-91.2661"/>
<polygon fill="#191970" stroke="#191970" points="143.6846,-94.6228 154.2772,-94.4084 145.8628,-87.9704 143.6846,-94.6228"/>
</g>
<!-- Node36 -->
<g id="node4" class="node">
<title>Node36</title>
<g id="a_node4"><a xlink:href="classVisualProprioception.html#af3370849532d77174f5848f415c08e9e" target="_top" xlink:title="VisualProprioception\l::readRootToFingers">
<polygon fill="#ffffff" stroke="#000000" points="143.543,-47.5 143.543,-75.5 251.0859,-75.5 251.0859,-47.5 143.543,-47.5"/>
<text text-anchor="start" x="151.543" y="-63.5" font-family="Helvetica,sans-Serif" font-size="10.00" fill="#000000">VisualProprioception</text>
<text text-anchor="middle" x="197.3145" y="-53.5" font-family="Helvetica,sans-Serif" font-size="10.00" fill="#000000">::readRootToFingers</text>
</a>
</g>
</g>
<!-- Node33&#45;&gt;Node36 -->
<g id="edge3" class="edge">
<title>Node33&#45;&gt;Node36</title>
<path fill="none" stroke="#191970" d="M107.63,-61.5C115.8873,-61.5 124.4825,-61.5 132.9393,-61.5"/>
<polygon fill="#191970" stroke="#191970" points="133.1541,-65.0001 143.1541,-61.5 133.1541,-58.0001 133.1541,-65.0001"/>
</g>
<!-- Node37 -->
<g id="node5" class="node">
<title>Node37</title>
<g id="a_node5"><a xlink:href="classVisualProprioception.html#afe0bc2a5d6fea18d75764ed12755f3ee" target="_top" xlink:title="VisualProprioception\l::setArmJoints">
<polygon fill="#ffffff" stroke="#000000" points="143.543,-.5 143.543,-28.5 251.0859,-28.5 251.0859,-.5 143.543,-.5"/>
<text text-anchor="start" x="151.543" y="-16.5" font-family="Helvetica,sans-Serif" font-size="10.00" fill="#000000">VisualProprioception</text>
<text text-anchor="middle" x="197.3145" y="-6.5" font-family="Helvetica,sans-Serif" font-size="10.00" fill="#000000">::setArmJoints</text>
</a>
</g>
</g>
<!-- Node33&#45;&gt;Node37 -->
<g id="edge5" class="edge">
<title>Node33&#45;&gt;Node37</title>
<path fill="none" stroke="#191970" d="M96.8391,-47.3985C111.8843,-42.4722 128.9444,-36.8863 144.6803,-31.7339"/>
<polygon fill="#191970" stroke="#191970" points="145.8628,-35.0296 154.2772,-28.5916 143.6846,-28.3772 145.8628,-35.0296"/>
</g>
<!-- Node35 -->
<g id="node3" class="node">
<title>Node35</title>
<g id="a_node3"><a xlink:href="classVisualProprioception.html#a3bf5b9321ccf560bb3955cbe17fc5cab" target="_top" xlink:title="VisualProprioception\l::readTorso">
<polygon fill="#ffffff" stroke="#000000" points="287.0859,-70.5 287.0859,-98.5 394.6289,-98.5 394.6289,-70.5 287.0859,-70.5"/>
<text text-anchor="start" x="295.0859" y="-86.5" font-family="Helvetica,sans-Serif" font-size="10.00" fill="#000000">VisualProprioception</text>
<text text-anchor="middle" x="340.8574" y="-76.5" font-family="Helvetica,sans-Serif" font-size="10.00" fill="#000000">::readTorso</text>
</a>
</g>
</g>
<!-- Node34&#45;&gt;Node35 -->
<g id="edge2" class="edge">
<title>Node34&#45;&gt;Node35</title>
<path fill="none" stroke="#191970" d="M251.1729,-99.495C259.521,-98.0992 268.2144,-96.6457 276.761,-95.2167"/>
<polygon fill="#191970" stroke="#191970" points="277.4112,-98.6567 286.6971,-93.5555 276.2568,-91.7526 277.4112,-98.6567"/>
</g>
<!-- Node36&#45;&gt;Node35 -->
<g id="edge4" class="edge">
<title>Node36&#45;&gt;Node35</title>
<path fill="none" stroke="#191970" d="M251.1729,-70.1298C259.521,-71.4674 268.2144,-72.8604 276.761,-74.2298"/>
<polygon fill="#191970" stroke="#191970" points="276.2692,-77.6956 286.6971,-75.8218 277.3768,-70.7837 276.2692,-77.6956"/>
</g>
</g>
</svg>
