<?xml version="1.0" encoding="UTF-8" standalone="no"?>
<!DOCTYPE svg PUBLIC "-//W3C//DTD SVG 1.1//EN"
 "http://www.w3.org/Graphics/SVG/1.1/DTD/svg11.dtd">
<!-- Generated by graphviz version 2.40.1 (20161225.0304)
 -->
<!-- Title: VisualServoingServer::stopFacilities Pages: 1 -->
<svg width="268pt" height="37pt"
 viewBox="0.00 0.00 267.96 37.00" xmlns="http://www.w3.org/2000/svg" xmlns:xlink="http://www.w3.org/1999/xlink">
<g id="graph0" class="graph" transform="scale(1 1) rotate(0) translate(4 33)">
<title>VisualServoingServer::stopFacilities</title>
<polygon fill="#ffffff" stroke="transparent" points="-4,4 -4,-33 263.9629,-33 263.9629,4 -4,4"/>
<!-- Node77 -->
<g id="node1" class="node">
<title>Node77</title>
<polygon fill="#bfbfbf" stroke="#000000" points="0,-.5 0,-28.5 111.9814,-28.5 111.9814,-.5 0,-.5"/>
<text text-anchor="start" x="8" y="-16.5" font-family="Helvetica,sans-Serif" font-size="10.00" fill="#000000">VisualServoingServer</text>
<text text-anchor="middle" x="55.9907" y="-6.5" font-family="Helvetica,sans-Serif" font-size="10.00" fill="#000000">::stopFacilities</text>
</g>
<!-- Node78 -->
<g id="node2" class="node">
<title>Node78</title>
<g id="a_node2"><a xlink:href="classVisualServoingServer.html#a085bb298e50f295d670bff6e4cb808d8" target="_top" xlink:title="VisualServoingServer\l::goToGoal">
<polygon fill="#ffffff" stroke="#000000" points="147.9814,-.5 147.9814,-28.5 259.9629,-28.5 259.9629,-.5 147.9814,-.5"/>
<text text-anchor="start" x="155.9814" y="-16.5" font-family="Helvetica,sans-Serif" font-size="10.00" fill="#000000">VisualServoingServer</text>
<text text-anchor="middle" x="203.9722" y="-6.5" font-family="Helvetica,sans-Serif" font-size="10.00" fill="#000000">::goToGoal</text>
</a>
</g>
</g>
<!-- Node77&#45;&gt;Node78 -->
<g id="edge1" class="edge">
<title>Node77&#45;&gt;Node78</title>
<path fill="none" stroke="#191970" d="M112.3583,-14.5C120.604,-14.5 129.1598,-14.5 137.5828,-14.5"/>
<polygon fill="#191970" stroke="#191970" points="137.7613,-18.0001 147.7613,-14.5 137.7613,-11.0001 137.7613,-18.0001"/>
</g>
</g>
</svg>
