<?xml version="1.0" encoding="UTF-8" standalone="no"?>
<!DOCTYPE svg PUBLIC "-//W3C//DTD SVG 1.1//EN"
 "http://www.w3.org/Graphics/SVG/1.1/DTD/svg11.dtd">
<!-- Generated by graphviz version 2.40.1 (20161225.0304)
 -->
<!-- Title: /Users/Claudio/GitHub/visual&#45;tracking&#45;control/src/visualservoing/visualservoingserver/src Pages: 1 -->
<svg width="131pt" height="150pt"
 viewBox="0.00 0.00 131.00 150.00" xmlns="http://www.w3.org/2000/svg" xmlns:xlink="http://www.w3.org/1999/xlink">
<g id="graph0" class="graph" transform="scale(1 1) rotate(0) translate(4 146)">
<title>/Users/Claudio/GitHub/visual&#45;tracking&#45;control/src/visualservoing/visualservoingserver/src</title>
<polygon fill="#ffffff" stroke="transparent" points="-4,4 -4,-146 127,-146 127,4 -4,4"/>
<g id="clust1" class="cluster">
<title>clusterdir_b8985986bdc6d5f22fae1a7c7324253d</title>
<g id="a_clust1"><a xlink:href="dir_b8985986bdc6d5f22fae1a7c7324253d.html" target="_top" xlink:title="visualservoingserver">
<polygon fill="#ddddee" stroke="#000000" points="8,-64 8,-134 115,-134 115,-64 8,-64"/>
<text text-anchor="middle" x="61.5" y="-122" font-family="Helvetica,sans-Serif" font-size="10.00" fill="#000000">visualservoingserver</text>
</a>
</g>
</g>
<!-- dir_b461a2f4941953a7cf04b83ffbc571eb -->
<g id="node1" class="node">
<title>dir_b461a2f4941953a7cf04b83ffbc571eb</title>
<g id="a_node1"><a xlink:href="dir_b461a2f4941953a7cf04b83ffbc571eb.html" target="_top" xlink:title="src">
<polygon fill="#eeeeff" stroke="#000000" points="88,-108 34,-108 34,-72 88,-72 88,-108"/>
<text text-anchor="middle" x="61" y="-87" font-family="Helvetica,sans-Serif" font-size="10.00" fill="#000000">src</text>
</a>
</g>
</g>
<!-- dir_587e1ae29cfeec868418f7b13cf4ca49 -->
<g id="node2" class="node">
<title>dir_587e1ae29cfeec868418f7b13cf4ca49</title>
<g id="a_node2"><a xlink:href="dir_587e1ae29cfeec868418f7b13cf4ca49.html" target="_top" xlink:title="include">
<polygon fill="none" stroke="#000000" points="88,-36 34,-36 34,0 88,0 88,-36"/>
<text text-anchor="middle" x="61" y="-15" font-family="Helvetica,sans-Serif" font-size="10.00" fill="#000000">include</text>
</a>
</g>
</g>
<!-- dir_b461a2f4941953a7cf04b83ffbc571eb&#45;&gt;dir_587e1ae29cfeec868418f7b13cf4ca49 -->
<g id="edge1" class="edge">
<title>dir_b461a2f4941953a7cf04b83ffbc571eb&#45;&gt;dir_587e1ae29cfeec868418f7b13cf4ca49</title>
<path fill="none" stroke="#000000" d="M61,-71.8314C61,-64.131 61,-54.9743 61,-46.4166"/>
<polygon fill="#000000" stroke="#000000" points="64.5001,-46.4132 61,-36.4133 57.5001,-46.4133 64.5001,-46.4132"/>
<g id="a_edge1&#45;headlabel"><a xlink:href="dir_000018_000017.html" target="_top" xlink:title="1">
<text text-anchor="middle" x="67.3393" y="-47.0079" font-family="Helvetica,sans-Serif" font-size="10.00" fill="#000000">1</text>
</a>
</g>
</g>
</g>
</svg>
