<?xml version="1.0" encoding="UTF-8" standalone="no"?>
<!DOCTYPE svg PUBLIC "-//W3C//DTD SVG 1.1//EN"
 "http://www.w3.org/Graphics/SVG/1.1/DTD/svg11.dtd">
<!-- Generated by graphviz version 2.40.1 (20161225.0304)
 -->
<!-- Title: /Users/Claudio/GitHub/visual&#45;tracking&#45;control/src/hand&#45;tracking Pages: 1 -->
<svg width="204pt" height="182pt"
 viewBox="0.00 0.00 204.00 182.00" xmlns="http://www.w3.org/2000/svg" xmlns:xlink="http://www.w3.org/1999/xlink">
<g id="graph0" class="graph" transform="scale(1 1) rotate(0) translate(4 178)">
<title>/Users/Claudio/GitHub/visual&#45;tracking&#45;control/src/hand&#45;tracking</title>
<polygon fill="#ffffff" stroke="transparent" points="-4,4 -4,-178 200,-178 200,4 -4,4"/>
<g id="clust1" class="cluster">
<title>clusterdir_68267d1309a1af8e8297ef4c3efbcdba</title>
<g id="a_clust1"><a xlink:href="dir_68267d1309a1af8e8297ef4c3efbcdba.html" target="_top" xlink:title="src">
<polygon fill="#ddddee" stroke="#000000" points="8,-8 8,-166 188,-166 188,-8 8,-8"/>
<text text-anchor="middle" x="98" y="-154" font-family="Helvetica,sans-Serif" font-size="10.00" fill="#000000">src</text>
</a>
</g>
</g>
<g id="clust2" class="cluster">
<title>clusterdir_e46790e267cd04597cab63a770d5702a</title>
<g id="a_clust2"><a xlink:href="dir_e46790e267cd04597cab63a770d5702a.html" target="_top">
<polygon fill="#eeeeff" stroke="#000000" points="16,-16 16,-140 180,-140 180,-16 16,-16"/>
</a>
</g>
</g>
<!-- dir_e46790e267cd04597cab63a770d5702a -->
<g id="node1" class="node">
<title>dir_e46790e267cd04597cab63a770d5702a</title>
<text text-anchor="middle" x="134" y="-111" font-family="Helvetica,sans-Serif" font-size="10.00" fill="#000000">hand&#45;tracking</text>
</g>
<!-- dir_73be5a2edcf34671e57e7c7ad7165b39 -->
<g id="node2" class="node">
<title>dir_73be5a2edcf34671e57e7c7ad7165b39</title>
<g id="a_node2"><a xlink:href="dir_73be5a2edcf34671e57e7c7ad7165b39.html" target="_top" xlink:title="include">
<polygon fill="#ffffff" stroke="#000000" points="78,-60 24,-60 24,-24 78,-24 78,-60"/>
<text text-anchor="middle" x="51" y="-39" font-family="Helvetica,sans-Serif" font-size="10.00" fill="#000000">include</text>
</a>
</g>
</g>
<!-- dir_a803343ae6e63005aac001ca37bf40f5 -->
<g id="node3" class="node">
<title>dir_a803343ae6e63005aac001ca37bf40f5</title>
<g id="a_node3"><a xlink:href="dir_a803343ae6e63005aac001ca37bf40f5.html" target="_top" xlink:title="src">
<polygon fill="#ffffff" stroke="#000000" points="78,-132 24,-132 24,-96 78,-96 78,-132"/>
<text text-anchor="middle" x="51" y="-111" font-family="Helvetica,sans-Serif" font-size="10.00" fill="#000000">src</text>
</a>
</g>
</g>
<!-- dir_a803343ae6e63005aac001ca37bf40f5&#45;&gt;dir_73be5a2edcf34671e57e7c7ad7165b39 -->
<g id="edge1" class="edge">
<title>dir_a803343ae6e63005aac001ca37bf40f5&#45;&gt;dir_73be5a2edcf34671e57e7c7ad7165b39</title>
<path fill="none" stroke="#000000" d="M51,-95.8314C51,-88.131 51,-78.9743 51,-70.4166"/>
<polygon fill="#000000" stroke="#000000" points="54.5001,-70.4132 51,-60.4133 47.5001,-70.4133 54.5001,-70.4132"/>
<g id="a_edge1&#45;headlabel"><a xlink:href="dir_000004_000003.html" target="_top" xlink:title="22">
<text text-anchor="middle" x="57.3393" y="-71.0079" font-family="Helvetica,sans-Serif" font-size="10.00" fill="#000000">22</text>
</a>
</g>
</g>
</g>
</svg>
