<?xml version="1.0" encoding="UTF-8" standalone="no"?>
<!DOCTYPE svg PUBLIC "-//W3C//DTD SVG 1.1//EN"
 "http://www.w3.org/Graphics/SVG/1.1/DTD/svg11.dtd">
<!-- Generated by graphviz version 2.40.1 (20161225.0304)
 -->
<!-- Title: /Users/Claudio/GitHub/visual&#45;tracking&#45;control/src/visualservoing/visualservoingclient/src Pages: 1 -->
<svg width="126pt" height="150pt"
 viewBox="0.00 0.00 126.00 150.00" xmlns="http://www.w3.org/2000/svg" xmlns:xlink="http://www.w3.org/1999/xlink">
<g id="graph0" class="graph" transform="scale(1 1) rotate(0) translate(4 146)">
<title>/Users/Claudio/GitHub/visual&#45;tracking&#45;control/src/visualservoing/visualservoingclient/src</title>
<polygon fill="#ffffff" stroke="transparent" points="-4,4 -4,-146 122,-146 122,4 -4,4"/>
<g id="clust1" class="cluster">
<title>clusterdir_1c7b85fc9d5953dc2b376b119831ec76</title>
<g id="a_clust1"><a xlink:href="dir_1c7b85fc9d5953dc2b376b119831ec76.html" target="_top" xlink:title="visualservoingclient">
<polygon fill="#ddddee" stroke="#000000" points="8,-64 8,-134 110,-134 110,-64 8,-64"/>
<text text-anchor="middle" x="59" y="-122" font-family="Helvetica,sans-Serif" font-size="10.00" fill="#000000">visualservoingclient</text>
</a>
</g>
</g>
<!-- dir_1f226f3bf2143bd88ace0dd41a066fe0 -->
<g id="node1" class="node">
<title>dir_1f226f3bf2143bd88ace0dd41a066fe0</title>
<g id="a_node1"><a xlink:href="dir_1f226f3bf2143bd88ace0dd41a066fe0.html" target="_top" xlink:title="src">
<polygon fill="#eeeeff" stroke="#000000" points="86,-108 32,-108 32,-72 86,-72 86,-108"/>
<text text-anchor="middle" x="59" y="-87" font-family="Helvetica,sans-Serif" font-size="10.00" fill="#000000">src</text>
</a>
</g>
</g>
<!-- dir_41b6b106383f1095fff0fd28d1cf702f -->
<g id="node2" class="node">
<title>dir_41b6b106383f1095fff0fd28d1cf702f</title>
<g id="a_node2"><a xlink:href="dir_41b6b106383f1095fff0fd28d1cf702f.html" target="_top" xlink:title="include">
<polygon fill="none" stroke="#000000" points="86,-36 32,-36 32,0 86,0 86,-36"/>
<text text-anchor="middle" x="59" y="-15" font-family="Helvetica,sans-Serif" font-size="10.00" fill="#000000">include</text>
</a>
</g>
</g>
<!-- dir_1f226f3bf2143bd88ace0dd41a066fe0&#45;&gt;dir_41b6b106383f1095fff0fd28d1cf702f -->
<g id="edge1" class="edge">
<title>dir_1f226f3bf2143bd88ace0dd41a066fe0&#45;&gt;dir_41b6b106383f1095fff0fd28d1cf702f</title>
<path fill="none" stroke="#000000" d="M59,-71.8314C59,-64.131 59,-54.9743 59,-46.4166"/>
<polygon fill="#000000" stroke="#000000" points="62.5001,-46.4132 59,-36.4133 55.5001,-46.4133 62.5001,-46.4132"/>
<g id="a_edge1&#45;headlabel"><a xlink:href="dir_000013_000012.html" target="_top" xlink:title="1">
<text text-anchor="middle" x="65.3393" y="-47.0079" font-family="Helvetica,sans-Serif" font-size="10.00" fill="#000000">1</text>
</a>
</g>
</g>
</g>
</svg>
