<?xml version="1.0" encoding="UTF-8" standalone="no"?>
<!DOCTYPE svg PUBLIC "-//W3C//DTD SVG 1.1//EN"
 "http://www.w3.org/Graphics/SVG/1.1/DTD/svg11.dtd">
<!-- Generated by graphviz version 2.40.1 (20161225.0304)
 -->
<!-- Title: /Users/Claudio/GitHub/visual&#45;tracking&#45;control/src/hand&#45;tracking/src Pages: 1 -->
<svg width="100pt" height="150pt"
 viewBox="0.00 0.00 100.00 150.00" xmlns="http://www.w3.org/2000/svg" xmlns:xlink="http://www.w3.org/1999/xlink">
<g id="graph0" class="graph" transform="scale(1 1) rotate(0) translate(4 146)">
<title>/Users/Claudio/GitHub/visual&#45;tracking&#45;control/src/hand&#45;tracking/src</title>
<polygon fill="#ffffff" stroke="transparent" points="-4,4 -4,-146 96,-146 96,4 -4,4"/>
<g id="clust1" class="cluster">
<title>clusterdir_e46790e267cd04597cab63a770d5702a</title>
<g id="a_clust1"><a xlink:href="dir_e46790e267cd04597cab63a770d5702a.html" target="_top" xlink:title="hand&#45;tracking">
<polygon fill="#ddddee" stroke="#000000" points="8,-64 8,-134 84,-134 84,-64 8,-64"/>
<text text-anchor="middle" x="46" y="-122" font-family="Helvetica,sans-Serif" font-size="10.00" fill="#000000">hand&#45;tracking</text>
</a>
</g>
</g>
<!-- dir_a803343ae6e63005aac001ca37bf40f5 -->
<g id="node1" class="node">
<title>dir_a803343ae6e63005aac001ca37bf40f5</title>
<g id="a_node1"><a xlink:href="dir_a803343ae6e63005aac001ca37bf40f5.html" target="_top" xlink:title="src">
<polygon fill="#eeeeff" stroke="#000000" points="73,-108 19,-108 19,-72 73,-72 73,-108"/>
<text text-anchor="middle" x="46" y="-87" font-family="Helvetica,sans-Serif" font-size="10.00" fill="#000000">src</text>
</a>
</g>
</g>
<!-- dir_73be5a2edcf34671e57e7c7ad7165b39 -->
<g id="node2" class="node">
<title>dir_73be5a2edcf34671e57e7c7ad7165b39</title>
<g id="a_node2"><a xlink:href="dir_73be5a2edcf34671e57e7c7ad7165b39.html" target="_top" xlink:title="include">
<polygon fill="none" stroke="#000000" points="73,-36 19,-36 19,0 73,0 73,-36"/>
<text text-anchor="middle" x="46" y="-15" font-family="Helvetica,sans-Serif" font-size="10.00" fill="#000000">include</text>
</a>
</g>
</g>
<!-- dir_a803343ae6e63005aac001ca37bf40f5&#45;&gt;dir_73be5a2edcf34671e57e7c7ad7165b39 -->
<g id="edge1" class="edge">
<title>dir_a803343ae6e63005aac001ca37bf40f5&#45;&gt;dir_73be5a2edcf34671e57e7c7ad7165b39</title>
<path fill="none" stroke="#000000" d="M46,-71.8314C46,-64.131 46,-54.9743 46,-46.4166"/>
<polygon fill="#000000" stroke="#000000" points="49.5001,-46.4132 46,-36.4133 42.5001,-46.4133 49.5001,-46.4132"/>
<g id="a_edge1&#45;headlabel"><a xlink:href="dir_000004_000003.html" target="_top" xlink:title="22">
<text text-anchor="middle" x="52.3393" y="-47.0079" font-family="Helvetica,sans-Serif" font-size="10.00" fill="#000000">22</text>
</a>
</g>
</g>
</g>
</svg>
