<?xml version="1.0" encoding="UTF-8" standalone="no"?>
<!DOCTYPE svg PUBLIC "-//W3C//DTD SVG 1.1//EN"
 "http://www.w3.org/Graphics/SVG/1.1/DTD/svg11.dtd">
<!-- Generated by graphviz version 2.40.1 (20161225.0304)
 -->
<!-- Title: /Users/Claudio/GitHub/visual&#45;tracking&#45;control/src/hand&#45;tracking/include/DrawFwdKinPoses.h Pages: 1 -->
<svg width="436pt" height="112pt"
 viewBox="0.00 0.00 436.42 112.00" xmlns="http://www.w3.org/2000/svg" xmlns:xlink="http://www.w3.org/1999/xlink">
<g id="graph0" class="graph" transform="scale(1 1) rotate(0) translate(4 108)">
<title>/Users/Claudio/GitHub/visual&#45;tracking&#45;control/src/hand&#45;tracking/include/DrawFwdKinPoses.h</title>
<polygon fill="#ffffff" stroke="transparent" points="-4,4 -4,-108 432.416,-108 432.416,4 -4,4"/>
<!-- Node0 -->
<g id="node1" class="node">
<title>Node0</title>
<polygon fill="#bfbfbf" stroke="#000000" points="86.084,-55.5 86.084,-103.5 216.0293,-103.5 216.0293,-55.5 86.084,-55.5"/>
<text text-anchor="start" x="94.084" y="-91.5" font-family="Helvetica,sans-Serif" font-size="10.00" fill="#000000">/Users/Claudio/GitHub</text>
<text text-anchor="start" x="94.084" y="-81.5" font-family="Helvetica,sans-Serif" font-size="10.00" fill="#000000">/visual&#45;tracking&#45;control</text>
<text text-anchor="start" x="94.084" y="-71.5" font-family="Helvetica,sans-Serif" font-size="10.00" fill="#000000">/src/hand&#45;tracking/include</text>
<text text-anchor="middle" x="151.0566" y="-61.5" font-family="Helvetica,sans-Serif" font-size="10.00" fill="#000000">/DrawFwdKinPoses.h</text>
</g>
<!-- Node1 -->
<g id="node2" class="node">
<title>Node1</title>
<polygon fill="#ffffff" stroke="#bfbfbf" points="0,-.5 0,-18.5 52.1133,-18.5 52.1133,-.5 0,-.5"/>
<text text-anchor="middle" x="26.0566" y="-6.5" font-family="Helvetica,sans-Serif" font-size="10.00" fill="#000000">memory</text>
</g>
<!-- Node0&#45;&gt;Node1 -->
<g id="edge1" class="edge">
<title>Node0&#45;&gt;Node1</title>
<path fill="none" stroke="#191970" d="M108.0387,-55.41C89.0295,-44.7648 67.3487,-32.6235 51.0593,-23.5015"/>
<polygon fill="#191970" stroke="#191970" points="52.5875,-20.3459 42.1523,-18.5136 49.1672,-26.4534 52.5875,-20.3459"/>
</g>
<!-- Node2 -->
<g id="node3" class="node">
<title>Node2</title>
<polygon fill="#ffffff" stroke="#bfbfbf" points="70.1035,-.5 70.1035,-18.5 120.0098,-18.5 120.0098,-.5 70.1035,-.5"/>
<text text-anchor="middle" x="95.0566" y="-6.5" font-family="Helvetica,sans-Serif" font-size="10.00" fill="#000000">random</text>
</g>
<!-- Node0&#45;&gt;Node2 -->
<g id="edge2" class="edge">
<title>Node0&#45;&gt;Node2</title>
<path fill="none" stroke="#191970" d="M131.7846,-55.41C124.1914,-45.9185 115.6467,-35.2376 108.711,-26.568"/>
<polygon fill="#191970" stroke="#191970" points="111.3865,-24.3095 102.4064,-18.6872 105.9204,-28.6824 111.3865,-24.3095"/>
</g>
<!-- Node3 -->
<g id="node4" class="node">
<title>Node3</title>
<polygon fill="#ffffff" stroke="#bfbfbf" points="138.3672,-.5 138.3672,-18.5 277.7461,-18.5 277.7461,-.5 138.3672,-.5"/>
<text text-anchor="middle" x="208.0566" y="-6.5" font-family="Helvetica,sans-Serif" font-size="10.00" fill="#000000">BayesFilters/PFPrediction.h</text>
</g>
<!-- Node0&#45;&gt;Node3 -->
<g id="edge3" class="edge">
<title>Node0&#45;&gt;Node3</title>
<path fill="none" stroke="#191970" d="M170.6728,-55.41C178.4016,-45.9185 187.0989,-35.2376 194.1584,-26.568"/>
<polygon fill="#191970" stroke="#191970" points="196.9753,-28.6516 200.5756,-18.6872 191.5473,-24.2316 196.9753,-28.6516"/>
</g>
<!-- Node4 -->
<g id="node5" class="node">
<title>Node4</title>
<polygon fill="#ffffff" stroke="#bfbfbf" points="295.6973,-.5 295.6973,-18.5 428.416,-18.5 428.416,-.5 295.6973,-.5"/>
<text text-anchor="middle" x="362.0566" y="-6.5" font-family="Helvetica,sans-Serif" font-size="10.00" fill="#000000">BayesFilters/StateModel.h</text>
</g>
<!-- Node0&#45;&gt;Node4 -->
<g id="edge4" class="edge">
<title>Node0&#45;&gt;Node4</title>
<path fill="none" stroke="#191970" d="M216.0853,-57.9265C251.8771,-46.0525 294.9939,-31.7483 325.0488,-21.7775"/>
<polygon fill="#191970" stroke="#191970" points="326.3219,-25.0428 334.7112,-18.572 324.1177,-18.3988 326.3219,-25.0428"/>
</g>
</g>
</svg>
