<?xml version="1.0" encoding="UTF-8" standalone="no"?>
<!DOCTYPE svg PUBLIC "-//W3C//DTD SVG 1.1//EN"
 "http://www.w3.org/Graphics/SVG/1.1/DTD/svg11.dtd">
<!-- Generated by graphviz version 2.40.1 (20161225.0304)
 -->
<!-- Title: /Users/Claudio/GitHub/visual&#45;tracking&#45;control/src/hand&#45;tracking/src/DrawFwdKinPoses.cpp Pages: 1 -->
<svg width="436pt" height="167pt"
 viewBox="0.00 0.00 436.42 167.00" xmlns="http://www.w3.org/2000/svg" xmlns:xlink="http://www.w3.org/1999/xlink">
<g id="graph0" class="graph" transform="scale(1 1) rotate(0) translate(4 163)">
<title>/Users/Claudio/GitHub/visual&#45;tracking&#45;control/src/hand&#45;tracking/src/DrawFwdKinPoses.cpp</title>
<polygon fill="#ffffff" stroke="transparent" points="-4,4 -4,-163 432.416,-163 432.416,4 -4,4"/>
<!-- Node0 -->
<g id="node1" class="node">
<title>Node0</title>
<polygon fill="#bfbfbf" stroke="#000000" points="111.5347,-110.5 111.5347,-158.5 282.5786,-158.5 282.5786,-110.5 111.5347,-110.5"/>
<text text-anchor="start" x="119.5347" y="-146.5" font-family="Helvetica,sans-Serif" font-size="10.00" fill="#000000">/Users/Claudio/GitHub</text>
<text text-anchor="start" x="119.5347" y="-136.5" font-family="Helvetica,sans-Serif" font-size="10.00" fill="#000000">/visual&#45;tracking&#45;control</text>
<text text-anchor="start" x="119.5347" y="-126.5" font-family="Helvetica,sans-Serif" font-size="10.00" fill="#000000">/src/hand&#45;tracking/src/DrawFwdKin</text>
<text text-anchor="middle" x="197.0566" y="-116.5" font-family="Helvetica,sans-Serif" font-size="10.00" fill="#000000">Poses.cpp</text>
</g>
<!-- Node1 -->
<g id="node2" class="node">
<title>Node1</title>
<g id="a_node2"><a xlink:href="DrawFwdKinPoses_8h.html" target="_top" xlink:title="DrawFwdKinPoses.h">
<polygon fill="#ffffff" stroke="#000000" points="96.6504,-55.5 96.6504,-73.5 205.4629,-73.5 205.4629,-55.5 96.6504,-55.5"/>
<text text-anchor="middle" x="151.0566" y="-61.5" font-family="Helvetica,sans-Serif" font-size="10.00" fill="#000000">DrawFwdKinPoses.h</text>
</a>
</g>
</g>
<!-- Node0&#45;&gt;Node1 -->
<g id="edge1" class="edge">
<title>Node0&#45;&gt;Node1</title>
<path fill="none" stroke="#191970" d="M181.2261,-110.41C175.1187,-101.1162 168.2621,-90.6821 162.6305,-82.1124"/>
<polygon fill="#191970" stroke="#191970" points="165.5108,-80.1222 157.094,-73.6872 159.6608,-83.9665 165.5108,-80.1222"/>
</g>
<!-- Node6 -->
<g id="node7" class="node">
<title>Node6</title>
<polygon fill="#ffffff" stroke="#bfbfbf" points="223.665,-55.5 223.665,-73.5 262.4482,-73.5 262.4482,-55.5 223.665,-55.5"/>
<text text-anchor="middle" x="243.0566" y="-61.5" font-family="Helvetica,sans-Serif" font-size="10.00" fill="#000000">utility</text>
</g>
<!-- Node0&#45;&gt;Node6 -->
<g id="edge6" class="edge">
<title>Node0&#45;&gt;Node6</title>
<path fill="none" stroke="#191970" d="M212.8872,-110.41C218.9946,-101.1162 225.8512,-90.6821 231.4828,-82.1124"/>
<polygon fill="#191970" stroke="#191970" points="234.4525,-83.9665 237.0193,-73.6872 228.6025,-80.1222 234.4525,-83.9665"/>
</g>
<!-- Node2 -->
<g id="node3" class="node">
<title>Node2</title>
<polygon fill="#ffffff" stroke="#bfbfbf" points="0,-.5 0,-18.5 52.1133,-18.5 52.1133,-.5 0,-.5"/>
<text text-anchor="middle" x="26.0566" y="-6.5" font-family="Helvetica,sans-Serif" font-size="10.00" fill="#000000">memory</text>
</g>
<!-- Node1&#45;&gt;Node2 -->
<g id="edge2" class="edge">
<title>Node1&#45;&gt;Node2</title>
<path fill="none" stroke="#191970" d="M130.4154,-55.4179C110.15,-46.5011 79.0181,-32.803 56.0277,-22.6873"/>
<polygon fill="#191970" stroke="#191970" points="57.2913,-19.4195 46.7285,-18.5956 54.4721,-25.8267 57.2913,-19.4195"/>
</g>
<!-- Node3 -->
<g id="node4" class="node">
<title>Node3</title>
<polygon fill="#ffffff" stroke="#bfbfbf" points="70.1035,-.5 70.1035,-18.5 120.0098,-18.5 120.0098,-.5 70.1035,-.5"/>
<text text-anchor="middle" x="95.0566" y="-6.5" font-family="Helvetica,sans-Serif" font-size="10.00" fill="#000000">random</text>
</g>
<!-- Node1&#45;&gt;Node3 -->
<g id="edge3" class="edge">
<title>Node1&#45;&gt;Node3</title>
<path fill="none" stroke="#191970" d="M141.8094,-55.4179C133.6712,-47.425 121.6213,-35.5903 111.7933,-25.9377"/>
<polygon fill="#191970" stroke="#191970" points="114.0918,-23.2895 104.5048,-18.7795 109.1868,-28.2836 114.0918,-23.2895"/>
</g>
<!-- Node4 -->
<g id="node5" class="node">
<title>Node4</title>
<polygon fill="#ffffff" stroke="#bfbfbf" points="138.3672,-.5 138.3672,-18.5 277.7461,-18.5 277.7461,-.5 138.3672,-.5"/>
<text text-anchor="middle" x="208.0566" y="-6.5" font-family="Helvetica,sans-Serif" font-size="10.00" fill="#000000">BayesFilters/PFPrediction.h</text>
</g>
<!-- Node1&#45;&gt;Node4 -->
<g id="edge4" class="edge">
<title>Node1&#45;&gt;Node4</title>
<path fill="none" stroke="#191970" d="M160.469,-55.4179C168.7526,-47.425 181.0176,-35.5903 191.0212,-25.9377"/>
<polygon fill="#191970" stroke="#191970" points="193.6738,-28.2419 198.4397,-18.7795 188.8132,-23.2045 193.6738,-28.2419"/>
</g>
<!-- Node5 -->
<g id="node6" class="node">
<title>Node5</title>
<polygon fill="#ffffff" stroke="#bfbfbf" points="295.6973,-.5 295.6973,-18.5 428.416,-18.5 428.416,-.5 295.6973,-.5"/>
<text text-anchor="middle" x="362.0566" y="-6.5" font-family="Helvetica,sans-Serif" font-size="10.00" fill="#000000">BayesFilters/StateModel.h</text>
</g>
<!-- Node1&#45;&gt;Node5 -->
<g id="edge5" class="edge">
<title>Node1&#45;&gt;Node5</title>
<path fill="none" stroke="#191970" d="M185.899,-55.4179C221.9709,-46.0152 278.4388,-31.2961 317.6815,-21.067"/>
<polygon fill="#191970" stroke="#191970" points="318.7194,-24.4135 327.5132,-18.5042 316.9537,-17.6398 318.7194,-24.4135"/>
</g>
</g>
</svg>
