<?xml version="1.0" encoding="UTF-8" standalone="no"?>
<!DOCTYPE svg PUBLIC "-//W3C//DTD SVG 1.1//EN"
 "http://www.w3.org/Graphics/SVG/1.1/DTD/svg11.dtd">
<!-- Generated by graphviz version 2.40.1 (20161225.0304)
 -->
<!-- Title: /Users/Claudio/GitHub/visual&#45;tracking&#45;control/src/hand&#45;tracking/include/FwdKinModel.h Pages: 1 -->
<svg width="784pt" height="112pt"
 viewBox="0.00 0.00 783.67 112.00" xmlns="http://www.w3.org/2000/svg" xmlns:xlink="http://www.w3.org/1999/xlink">
<g id="graph0" class="graph" transform="scale(1 1) rotate(0) translate(4 108)">
<title>/Users/Claudio/GitHub/visual&#45;tracking&#45;control/src/hand&#45;tracking/include/FwdKinModel.h</title>
<polygon fill="#ffffff" stroke="transparent" points="-4,4 -4,-108 779.6743,-108 779.6743,4 -4,4"/>
<!-- Node0 -->
<g id="node1" class="node">
<title>Node0</title>
<polygon fill="#bfbfbf" stroke="#000000" points="352.7314,-55.5 352.7314,-103.5 482.6768,-103.5 482.6768,-55.5 352.7314,-55.5"/>
<text text-anchor="start" x="360.7314" y="-91.5" font-family="Helvetica,sans-Serif" font-size="10.00" fill="#000000">/Users/Claudio/GitHub</text>
<text text-anchor="start" x="360.7314" y="-81.5" font-family="Helvetica,sans-Serif" font-size="10.00" fill="#000000">/visual&#45;tracking&#45;control</text>
<text text-anchor="start" x="360.7314" y="-71.5" font-family="Helvetica,sans-Serif" font-size="10.00" fill="#000000">/src/hand&#45;tracking/include</text>
<text text-anchor="middle" x="417.7041" y="-61.5" font-family="Helvetica,sans-Serif" font-size="10.00" fill="#000000">/FwdKinModel.h</text>
</g>
<!-- Node1 -->
<g id="node2" class="node">
<title>Node1</title>
<polygon fill="#ffffff" stroke="#bfbfbf" points="0,-.5 0,-18.5 159.4082,-18.5 159.4082,-.5 0,-.5"/>
<text text-anchor="middle" x="79.7041" y="-6.5" font-family="Helvetica,sans-Serif" font-size="10.00" fill="#000000">BayesFilters/ExogenousModel.h</text>
</g>
<!-- Node0&#45;&gt;Node1 -->
<g id="edge1" class="edge">
<title>Node0&#45;&gt;Node1</title>
<path fill="none" stroke="#191970" d="M352.5343,-66.0033C288.7016,-52.7835 192.6028,-32.8814 133.1388,-20.5664"/>
<polygon fill="#191970" stroke="#191970" points="133.7018,-17.1087 123.1997,-18.508 132.2821,-23.9633 133.7018,-17.1087"/>
</g>
<!-- Node2 -->
<g id="node3" class="node">
<title>Node2</title>
<polygon fill="#ffffff" stroke="#bfbfbf" points="177.3521,-.5 177.3521,-18.5 280.0562,-18.5 280.0562,-.5 177.3521,-.5"/>
<text text-anchor="middle" x="228.7041" y="-6.5" font-family="Helvetica,sans-Serif" font-size="10.00" fill="#000000">iCub/iKin/iKinFwd.h</text>
</g>
<!-- Node0&#45;&gt;Node2 -->
<g id="edge2" class="edge">
<title>Node0&#45;&gt;Node2</title>
<path fill="none" stroke="#191970" d="M352.661,-55.41C322.3074,-44.1679 287.4486,-31.2572 262.4438,-21.9962"/>
<polygon fill="#191970" stroke="#191970" points="263.6338,-18.7046 253.0407,-18.5136 261.2026,-25.2689 263.6338,-18.7046"/>
</g>
<!-- Node3 -->
<g id="node4" class="node">
<title>Node3</title>
<polygon fill="#ffffff" stroke="#bfbfbf" points="298.1821,-.5 298.1821,-18.5 409.2261,-18.5 409.2261,-.5 298.1821,-.5"/>
<text text-anchor="middle" x="353.7041" y="-6.5" font-family="Helvetica,sans-Serif" font-size="10.00" fill="#000000">yarp/dev/PolyDriver.h</text>
</g>
<!-- Node0&#45;&gt;Node3 -->
<g id="edge3" class="edge">
<title>Node0&#45;&gt;Node3</title>
<path fill="none" stroke="#191970" d="M395.6789,-55.41C386.9106,-45.8196 377.0321,-35.015 369.062,-26.2977"/>
<polygon fill="#191970" stroke="#191970" points="371.4347,-23.7059 362.1039,-18.6872 366.2685,-28.4293 371.4347,-23.7059"/>
</g>
<!-- Node4 -->
<g id="node5" class="node">
<title>Node4</title>
<polygon fill="#ffffff" stroke="#bfbfbf" points="427.4556,-.5 427.4556,-18.5 537.9526,-18.5 537.9526,-.5 427.4556,-.5"/>
<text text-anchor="middle" x="482.7041" y="-6.5" font-family="Helvetica,sans-Serif" font-size="10.00" fill="#000000">yarp/dev/IEncoders.h</text>
</g>
<!-- Node0&#45;&gt;Node4 -->
<g id="edge4" class="edge">
<title>Node0&#45;&gt;Node4</title>
<path fill="none" stroke="#191970" d="M440.0734,-55.41C449.0706,-45.7207 459.2186,-34.7921 467.356,-26.0288"/>
<polygon fill="#191970" stroke="#191970" points="469.9333,-28.3968 474.1731,-18.6872 464.8038,-23.6336 469.9333,-28.3968"/>
</g>
<!-- Node5 -->
<g id="node6" class="node">
<title>Node5</title>
<polygon fill="#ffffff" stroke="#bfbfbf" points="555.6255,-.5 555.6255,-18.5 667.7827,-18.5 667.7827,-.5 555.6255,-.5"/>
<text text-anchor="middle" x="611.7041" y="-6.5" font-family="Helvetica,sans-Serif" font-size="10.00" fill="#000000">yarp/os/ConstString.h</text>
</g>
<!-- Node0&#45;&gt;Node5 -->
<g id="edge5" class="edge">
<title>Node0&#45;&gt;Node5</title>
<path fill="none" stroke="#191970" d="M482.843,-55.9963C514.2723,-44.6558 550.722,-31.5039 576.8185,-22.0876"/>
<polygon fill="#191970" stroke="#191970" points="578.0628,-25.3596 586.2813,-18.6732 575.6869,-18.7751 578.0628,-25.3596"/>
</g>
<!-- Node6 -->
<g id="node7" class="node">
<title>Node6</title>
<polygon fill="#ffffff" stroke="#bfbfbf" points="685.7339,-.5 685.7339,-18.5 775.6743,-18.5 775.6743,-.5 685.7339,-.5"/>
<text text-anchor="middle" x="730.7041" y="-6.5" font-family="Helvetica,sans-Serif" font-size="10.00" fill="#000000">yarp/sig/Vector.h</text>
</g>
<!-- Node0&#45;&gt;Node6 -->
<g id="edge6" class="edge">
<title>Node0&#45;&gt;Node6</title>
<path fill="none" stroke="#191970" d="M482.9382,-64.9109C541.6801,-51.7737 626.7911,-32.7393 680.4108,-20.7477"/>
<polygon fill="#191970" stroke="#191970" points="681.375,-24.1186 690.3701,-18.5204 679.8472,-17.2874 681.375,-24.1186"/>
</g>
</g>
</svg>
