<?xml version="1.0" encoding="UTF-8" standalone="no"?>
<!DOCTYPE svg PUBLIC "-//W3C//DTD SVG 1.1//EN"
 "http://www.w3.org/Graphics/SVG/1.1/DTD/svg11.dtd">
<!-- Generated by graphviz version 2.40.1 (20161225.0304)
 -->
<!-- Title: /Users/Claudio/GitHub/visual&#45;tracking&#45;control/src/hand&#45;tracking/src/FwdKinModel.cpp Pages: 1 -->
<!--zoomable 157 -->
<svg id="main" version="1.1" xmlns="http://www.w3.org/2000/svg" xmlns:xlink="http://www.w3.org/1999/xlink" xml:space="preserve" onload="init(evt)">
<style type="text/css"><![CDATA[
.edge:hover path { stroke: red; }
.edge:hover polygon { stroke: red; fill: red; }
]]></style>
<script type="text/javascript"><![CDATA[
var edges = document.getElementsByTagName('g');
if (edges && edges.length) {
  for (var i=0;i<edges.length;i++) {
    if (edges[i].id.substr(0,4)=='edge') {
      edges[i].setAttribute('class','edge');
    }
  }
}
]]></script>
        <defs>
                <circle id="rim" cx="0" cy="0" r="7"/>
                <circle id="rim2" cx="0" cy="0" r="3.5"/>
                <g id="zoomPlus">
                        <use xlink:href="#rim" fill="#404040">
                                <set attributeName="fill" to="#808080" begin="zoomplus.mouseover" end="zoomplus.mouseout"/>
                        </use>
                        <path d="M-4,0h8M0,-4v8" fill="none" stroke="white" stroke-width="1.5" pointer-events="none"/>
                </g>
                <g id="zoomMin">
                        <use xlink:href="#rim" fill="#404040">
                                <set attributeName="fill" to="#808080" begin="zoomminus.mouseover" end="zoomminus.mouseout"/>
                        </use>
                        <path d="M-4,0h8" fill="none" stroke="white" stroke-width="1.5" pointer-events="none"/>
                </g>
                <g id="dirArrow">
                        <path fill="none" stroke="white" stroke-width="1.5" d="M0,-3.0v7 M-2.5,-0.5L0,-3.0L2.5,-0.5"/>
                </g>
               <g id="resetDef">
                       <use xlink:href="#rim2" fill="#404040">
                               <set attributeName="fill" to="#808080" begin="reset.mouseover" end="reset.mouseout"/>
                       </use>
               </g>
        </defs>

<script type="text/javascript">
var viewWidth = 1256;
var viewHeight = 157;
var sectionId = 'dynsection-0';
</script>
<script xlink:href="svgpan.js"/>
<svg id="graph" class="graph">
<g id="viewport">
<title>/Users/Claudio/GitHub/visual&#45;tracking&#45;control/src/hand&#45;tracking/src/FwdKinModel.cpp</title>
<polygon fill="#ffffff" stroke="transparent" points="-4,4 -4,-153 1252.1177,-153 1252.1177,4 -4,4"/>
<!-- Node0 -->
<g id="node1" class="node">
<title>Node0</title>
<polygon fill="#bfbfbf" stroke="#000000" points="650.7808,-110.5 650.7808,-148.5 844.6274,-148.5 844.6274,-110.5 650.7808,-110.5"/>
<text text-anchor="start" x="658.7808" y="-136.5" font-family="Helvetica,sans-Serif" font-size="10.00" fill="#000000">/Users/Claudio/GitHub</text>
<text text-anchor="start" x="658.7808" y="-126.5" font-family="Helvetica,sans-Serif" font-size="10.00" fill="#000000">/visual&#45;tracking&#45;control</text>
<text text-anchor="middle" x="747.7041" y="-116.5" font-family="Helvetica,sans-Serif" font-size="10.00" fill="#000000">/src/hand&#45;tracking/src/FwdKinModel.cpp</text>
</g>
<!-- Node1 -->
<g id="node2" class="node">
<title>Node1</title>
<g id="a_node2"><a xlink:href="FwdKinModel_8h.html" target="_top" xlink:title="FwdKinModel.h">
<polygon fill="#ffffff" stroke="#000000" points="375.2437,-55.5 375.2437,-73.5 460.1646,-73.5 460.1646,-55.5 375.2437,-55.5"/>
<text text-anchor="middle" x="417.7041" y="-61.5" font-family="Helvetica,sans-Serif" font-size="10.00" fill="#000000">FwdKinModel.h</text>
</a>
</g>
</g>
<!-- Node0&#45;&gt;Node1 -->
<g id="edge1" class="edge">
<title>Node0&#45;&gt;Node1</title>
<path fill="none" stroke="#191970" d="M650.923,-110.437C591.9753,-98.8261 518.9283,-84.4381 470.4561,-74.8906"/>
<polygon fill="#191970" stroke="#191970" points="470.9875,-71.428 460.4996,-72.9294 469.6347,-78.2961 470.9875,-71.428"/>
</g>
<!-- Node8 -->
<g id="node9" class="node">
<title>Node8</title>
<polygon fill="#ffffff" stroke="#bfbfbf" points="478.3003,-55.5 478.3003,-73.5 537.1079,-73.5 537.1079,-55.5 478.3003,-55.5"/>
<text text-anchor="middle" x="507.7041" y="-61.5" font-family="Helvetica,sans-Serif" font-size="10.00" fill="#000000">exception</text>
</g>
<!-- Node0&#45;&gt;Node8 -->
<g id="edge8" class="edge">
<title>Node0&#45;&gt;Node8</title>
<path fill="none" stroke="#191970" d="M677.3178,-110.437C634.8936,-98.9472 582.428,-84.7377 547.1773,-75.1906"/>
<polygon fill="#191970" stroke="#191970" points="547.8349,-71.7427 537.2676,-72.5068 546.0049,-78.4993 547.8349,-71.7427"/>
</g>
<!-- Node9 -->
<g id="node10" class="node">
<title>Node9</title>
<polygon fill="#ffffff" stroke="#bfbfbf" points="555.5317,-55.5 555.5317,-73.5 609.8765,-73.5 609.8765,-55.5 555.5317,-55.5"/>
<text text-anchor="middle" x="582.7041" y="-61.5" font-family="Helvetica,sans-Serif" font-size="10.00" fill="#000000">iostream</text>
</g>
<!-- Node0&#45;&gt;Node9 -->
<g id="edge9" class="edge">
<title>Node0&#45;&gt;Node9</title>
<path fill="none" stroke="#191970" d="M699.0911,-110.3494C672.0212,-99.6855 639.0598,-86.7007 615.1343,-77.2755"/>
<polygon fill="#191970" stroke="#191970" points="616.3856,-74.0067 605.7986,-73.5978 613.8199,-80.5196 616.3856,-74.0067"/>
</g>
<!-- Node10 -->
<g id="node11" class="node">
<title>Node10</title>
<polygon fill="#ffffff" stroke="#bfbfbf" points="628.3003,-55.5 628.3003,-73.5 687.1079,-73.5 687.1079,-55.5 628.3003,-55.5"/>
<text text-anchor="middle" x="657.7041" y="-61.5" font-family="Helvetica,sans-Serif" font-size="10.00" fill="#000000">functional</text>
</g>
<!-- Node0&#45;&gt;Node10 -->
<g id="edge10" class="edge">
<title>Node0&#45;&gt;Node10</title>
<path fill="none" stroke="#191970" d="M721.1879,-110.3494C707.5381,-100.4912 691.142,-88.6496 678.4322,-79.4703"/>
<polygon fill="#191970" stroke="#191970" points="680.4572,-76.6154 670.3011,-73.5978 676.3587,-82.2902 680.4572,-76.6154"/>
</g>
<!-- Node11 -->
<g id="node12" class="node">
<title>Node11</title>
<polygon fill="#ffffff" stroke="#bfbfbf" points="704.6919,-55.5 704.6919,-73.5 790.7163,-73.5 790.7163,-55.5 704.6919,-55.5"/>
<text text-anchor="middle" x="747.7041" y="-61.5" font-family="Helvetica,sans-Serif" font-size="10.00" fill="#000000">iCub/ctrl/math.h</text>
</g>
<!-- Node0&#45;&gt;Node11 -->
<g id="edge11" class="edge">
<title>Node0&#45;&gt;Node11</title>
<path fill="none" stroke="#191970" d="M747.7041,-110.3494C747.7041,-102.0079 747.7041,-92.2463 747.7041,-83.879"/>
<polygon fill="#191970" stroke="#191970" points="751.2042,-83.5978 747.7041,-73.5978 744.2042,-83.5979 751.2042,-83.5978"/>
</g>
<!-- Node12 -->
<g id="node13" class="node">
<title>Node12</title>
<polygon fill="#ffffff" stroke="#bfbfbf" points="808.7979,-55.5 808.7979,-73.5 902.6104,-73.5 902.6104,-55.5 808.7979,-55.5"/>
<text text-anchor="middle" x="855.7041" y="-61.5" font-family="Helvetica,sans-Serif" font-size="10.00" fill="#000000">yarp/math/Math.h</text>
</g>
<!-- Node0&#45;&gt;Node12 -->
<g id="edge12" class="edge">
<title>Node0&#45;&gt;Node12</title>
<path fill="none" stroke="#191970" d="M779.5235,-110.3494C796.2183,-100.3016 816.3365,-88.1934 831.7053,-78.9437"/>
<polygon fill="#191970" stroke="#191970" points="833.8246,-81.7533 840.5877,-73.5978 830.2149,-75.7557 833.8246,-81.7533"/>
</g>
<!-- Node13 -->
<g id="node14" class="node">
<title>Node13</title>
<polygon fill="#ffffff" stroke="#bfbfbf" points="920.9629,-55.5 920.9629,-73.5 1006.4453,-73.5 1006.4453,-55.5 920.9629,-55.5"/>
<text text-anchor="middle" x="963.7041" y="-61.5" font-family="Helvetica,sans-Serif" font-size="10.00" fill="#000000">yarp/os/Bottle.h</text>
</g>
<!-- Node0&#45;&gt;Node13 -->
<g id="edge13" class="edge">
<title>Node0&#45;&gt;Node13</title>
<path fill="none" stroke="#191970" d="M811.0518,-110.437C847.5579,-99.4514 892.3255,-85.9797 923.9138,-76.4739"/>
<polygon fill="#191970" stroke="#191970" points="925.1123,-79.7684 933.6795,-73.5352 923.0951,-73.0653 925.1123,-79.7684"/>
</g>
<!-- Node14 -->
<g id="node15" class="node">
<title>Node14</title>
<polygon fill="#ffffff" stroke="#bfbfbf" points="1024.2207,-55.5 1024.2207,-73.5 1121.1875,-73.5 1121.1875,-55.5 1024.2207,-55.5"/>
<text text-anchor="middle" x="1072.7041" y="-61.5" font-family="Helvetica,sans-Serif" font-size="10.00" fill="#000000">yarp/os/Property.h</text>
</g>
<!-- Node0&#45;&gt;Node14 -->
<g id="edge14" class="edge">
<title>Node0&#45;&gt;Node14</title>
<path fill="none" stroke="#191970" d="M843.0189,-110.437C899.8494,-99.0709 969.9861,-85.0436 1017.6999,-75.5008"/>
<polygon fill="#191970" stroke="#191970" points="1018.4089,-78.9284 1027.5283,-73.5352 1017.036,-72.0644 1018.4089,-78.9284"/>
</g>
<!-- Node15 -->
<g id="node16" class="node">
<title>Node15</title>
<polygon fill="#ffffff" stroke="#bfbfbf" points="1139.2905,-55.5 1139.2905,-73.5 1248.1177,-73.5 1248.1177,-55.5 1139.2905,-55.5"/>
<text text-anchor="middle" x="1193.7041" y="-61.5" font-family="Helvetica,sans-Serif" font-size="10.00" fill="#000000">yarp/os/LogStream.h</text>
</g>
<!-- Node0&#45;&gt;Node15 -->
<g id="edge15" class="edge">
<title>Node0&#45;&gt;Node15</title>
<path fill="none" stroke="#191970" d="M844.6648,-115.497C919.4727,-104.6735 1025.8386,-89.2417 1129.2421,-74.0642"/>
<polygon fill="#191970" stroke="#191970" points="1129.8531,-77.5121 1139.2385,-72.5964 1128.8361,-70.5864 1129.8531,-77.5121"/>
</g>
<!-- Node2 -->
<g id="node3" class="node">
<title>Node2</title>
<polygon fill="#ffffff" stroke="#bfbfbf" points="0,-.5 0,-18.5 159.4082,-18.5 159.4082,-.5 0,-.5"/>
<text text-anchor="middle" x="79.7041" y="-6.5" font-family="Helvetica,sans-Serif" font-size="10.00" fill="#000000">BayesFilters/ExogenousModel.h</text>
</g>
<!-- Node1&#45;&gt;Node2 -->
<g id="edge2" class="edge">
<title>Node1&#45;&gt;Node2</title>
<path fill="none" stroke="#191970" d="M375.2384,-57.5899C317.3925,-48.1771 213.2686,-31.2339 145.332,-20.1791"/>
<polygon fill="#191970" stroke="#191970" points="145.5991,-16.6766 135.1668,-18.525 144.4748,-23.5857 145.5991,-16.6766"/>
</g>
<!-- Node3 -->
<g id="node4" class="node">
<title>Node3</title>
<polygon fill="#ffffff" stroke="#bfbfbf" points="177.3521,-.5 177.3521,-18.5 280.0562,-18.5 280.0562,-.5 177.3521,-.5"/>
<text text-anchor="middle" x="228.7041" y="-6.5" font-family="Helvetica,sans-Serif" font-size="10.00" fill="#000000">iCub/iKin/iKinFwd.h</text>
</g>
<!-- Node1&#45;&gt;Node3 -->
<g id="edge3" class="edge">
<title>Node1&#45;&gt;Node3</title>
<path fill="none" stroke="#191970" d="M386.4946,-55.4179C354.5267,-46.115 304.6753,-31.608 269.5771,-21.3943"/>
<polygon fill="#191970" stroke="#191970" points="270.2255,-17.9378 259.6458,-18.5042 268.2696,-24.659 270.2255,-17.9378"/>
</g>
<!-- Node4 -->
<g id="node5" class="node">
<title>Node4</title>
<polygon fill="#ffffff" stroke="#bfbfbf" points="298.1821,-.5 298.1821,-18.5 409.2261,-18.5 409.2261,-.5 298.1821,-.5"/>
<text text-anchor="middle" x="353.7041" y="-6.5" font-family="Helvetica,sans-Serif" font-size="10.00" fill="#000000">yarp/dev/PolyDriver.h</text>
</g>
<!-- Node1&#45;&gt;Node4 -->
<g id="edge4" class="edge">
<title>Node1&#45;&gt;Node4</title>
<path fill="none" stroke="#191970" d="M407.1358,-55.4179C397.6508,-47.2667 383.5166,-35.1201 372.1675,-25.3669"/>
<polygon fill="#191970" stroke="#191970" points="374.3674,-22.6427 364.502,-18.7795 369.805,-27.9516 374.3674,-22.6427"/>
</g>
<!-- Node5 -->
<g id="node6" class="node">
<title>Node5</title>
<polygon fill="#ffffff" stroke="#bfbfbf" points="427.4556,-.5 427.4556,-18.5 537.9526,-18.5 537.9526,-.5 427.4556,-.5"/>
<text text-anchor="middle" x="482.7041" y="-6.5" font-family="Helvetica,sans-Serif" font-size="10.00" fill="#000000">yarp/dev/IEncoders.h</text>
</g>
<!-- Node1&#45;&gt;Node5 -->
<g id="edge5" class="edge">
<title>Node1&#45;&gt;Node5</title>
<path fill="none" stroke="#191970" d="M428.4375,-55.4179C438.0707,-47.2667 452.4258,-35.1201 463.9523,-25.3669"/>
<polygon fill="#191970" stroke="#191970" points="466.3644,-27.9108 471.7375,-18.7795 461.8428,-22.5671 466.3644,-27.9108"/>
</g>
<!-- Node6 -->
<g id="node7" class="node">
<title>Node6</title>
<polygon fill="#ffffff" stroke="#bfbfbf" points="555.6255,-.5 555.6255,-18.5 667.7827,-18.5 667.7827,-.5 555.6255,-.5"/>
<text text-anchor="middle" x="611.7041" y="-6.5" font-family="Helvetica,sans-Serif" font-size="10.00" fill="#000000">yarp/os/ConstString.h</text>
</g>
<!-- Node1&#45;&gt;Node6 -->
<g id="edge6" class="edge">
<title>Node1&#45;&gt;Node6</title>
<path fill="none" stroke="#191970" d="M449.7393,-55.4179C482.6937,-46.0751 534.1626,-31.4834 570.2128,-21.263"/>
<polygon fill="#191970" stroke="#191970" points="571.2776,-24.5991 579.9438,-18.5042 569.3683,-17.8645 571.2776,-24.5991"/>
</g>
<!-- Node7 -->
<g id="node8" class="node">
<title>Node7</title>
<polygon fill="#ffffff" stroke="#bfbfbf" points="685.7339,-.5 685.7339,-18.5 775.6743,-18.5 775.6743,-.5 685.7339,-.5"/>
<text text-anchor="middle" x="730.7041" y="-6.5" font-family="Helvetica,sans-Serif" font-size="10.00" fill="#000000">yarp/sig/Vector.h</text>
</g>
<!-- Node1&#45;&gt;Node7 -->
<g id="edge7" class="edge">
<title>Node1&#45;&gt;Node7</title>
<path fill="none" stroke="#191970" d="M460.2659,-56.6938C463.4592,-56.1175 466.6323,-55.5477 469.7041,-55 558.493,-39.169 583.0613,-35.3454 675.5443,-19.1991"/>
<polygon fill="#191970" stroke="#191970" points="676.3759,-22.6069 685.624,-17.4375 675.1708,-15.7114 676.3759,-22.6069"/>
</g>
</g>
</svg>
        <g id="navigator" transform="translate(0 0)" fill="#404254">
                <rect fill="#f2f5e9" fill-opacity="0.5" stroke="#606060" stroke-width=".5" x="0" y="0" width="60" height="60"/>
                <use id="zoomplus" xlink:href="#zoomPlus" x="17" y="9" onmousedown="handleZoom(evt,'in')"/>
                <use id="zoomminus" xlink:href="#zoomMin" x="42" y="9" onmousedown="handleZoom(evt,'out')"/>
                <use id="reset" xlink:href="#resetDef" x="30" y="36" onmousedown="handleReset()"/>
                <g id="arrowUp" xlink:href="#dirArrow" transform="translate(30 24)" onmousedown="handlePan(0,-1)">
                  <use xlink:href="#rim" fill="#404040">
                        <set attributeName="fill" to="#808080" begin="arrowUp.mouseover" end="arrowUp.mouseout"/>
                  </use>
                  <path fill="none" stroke="white" stroke-width="1.5" d="M0,-3.0v7 M-2.5,-0.5L0,-3.0L2.5,-0.5"/>
                </g>
                <g id="arrowRight" xlink:href="#dirArrow" transform="rotate(90) translate(36 -43)" onmousedown="handlePan(1,0)">
                  <use xlink:href="#rim" fill="#404040">
                        <set attributeName="fill" to="#808080" begin="arrowRight.mouseover" end="arrowRight.mouseout"/>
                  </use>
                  <path fill="none" stroke="white" stroke-width="1.5" d="M0,-3.0v7 M-2.5,-0.5L0,-3.0L2.5,-0.5"/>
                </g>
                <g id="arrowDown" xlink:href="#dirArrow" transform="rotate(180) translate(-30 -48)" onmousedown="handlePan(0,1)">
                  <use xlink:href="#rim" fill="#404040">
                        <set attributeName="fill" to="#808080" begin="arrowDown.mouseover" end="arrowDown.mouseout"/>
                  </use>
                  <path fill="none" stroke="white" stroke-width="1.5" d="M0,-3.0v7 M-2.5,-0.5L0,-3.0L2.5,-0.5"/>
                </g>
                <g id="arrowLeft" xlink:href="#dirArrow" transform="rotate(270) translate(-36 17)" onmousedown="handlePan(-1,0)">
                  <use xlink:href="#rim" fill="#404040">
                        <set attributeName="fill" to="#808080" begin="arrowLeft.mouseover" end="arrowLeft.mouseout"/>
                  </use>
                  <path fill="none" stroke="white" stroke-width="1.5" d="M0,-3.0v7 M-2.5,-0.5L0,-3.0L2.5,-0.5"/>
                </g>
        </g>
        <svg viewBox="0 0 15 15" width="100%" height="30px" preserveAspectRatio="xMaxYMin meet">
         <g id="arrow_out" transform="scale(0.3 0.3)">
          <a xlink:href="FwdKinModel_8cpp__incl_org.svg" target="_base">
           <rect id="button" ry="5" rx="5" y="6" x="6" height="38" width="38"
                fill="#f2f5e9" fill-opacity="0.5" stroke="#606060" stroke-width="1.0"/>
           <path id="arrow"
             d="M 11.500037,31.436501 C 11.940474,20.09759 22.043105,11.32322 32.158766,21.979434 L 37.068811,17.246167 C 37.068811,17.246167 37.088388,32 37.088388,32 L 22.160133,31.978069 C 22.160133,31.978069 26.997745,27.140456 26.997745,27.140456 C 18.528582,18.264221 13.291696,25.230495 11.500037,31.436501 z"
             style="fill:#404040;"/>
          </a>
         </g>
        </svg>
</svg>
