<?xml version="1.0" encoding="UTF-8" standalone="no"?>
<!DOCTYPE svg PUBLIC "-//W3C//DTD SVG 1.1//EN"
 "http://www.w3.org/Graphics/SVG/1.1/DTD/svg11.dtd">
<!-- Generated by graphviz version 2.40.1 (20161225.0304)
 -->
<!-- Title: /Users/Claudio/GitHub/visual&#45;tracking&#45;control/src/hand&#45;tracking/include/FwdKinModel.h Pages: 1 -->
<svg width="623pt" height="227pt"
 viewBox="0.00 0.00 623.06 227.00" xmlns="http://www.w3.org/2000/svg" xmlns:xlink="http://www.w3.org/1999/xlink">
<g id="graph0" class="graph" transform="scale(1 1) rotate(0) translate(4 223)">
<title>/Users/Claudio/GitHub/visual&#45;tracking&#45;control/src/hand&#45;tracking/include/FwdKinModel.h</title>
<polygon fill="#ffffff" stroke="transparent" points="-4,4 -4,-223 619.061,-223 619.061,4 -4,4"/>
<!-- Node7 -->
<g id="node1" class="node">
<title>Node7</title>
<polygon fill="#bfbfbf" stroke="#000000" points="273.165,-170.5 273.165,-218.5 403.1104,-218.5 403.1104,-170.5 273.165,-170.5"/>
<text text-anchor="start" x="281.165" y="-206.5" font-family="Helvetica,sans-Serif" font-size="10.00" fill="#000000">/Users/Claudio/GitHub</text>
<text text-anchor="start" x="281.165" y="-196.5" font-family="Helvetica,sans-Serif" font-size="10.00" fill="#000000">/visual&#45;tracking&#45;control</text>
<text text-anchor="start" x="281.165" y="-186.5" font-family="Helvetica,sans-Serif" font-size="10.00" fill="#000000">/src/hand&#45;tracking/include</text>
<text text-anchor="middle" x="338.1377" y="-176.5" font-family="Helvetica,sans-Serif" font-size="10.00" fill="#000000">/FwdKinModel.h</text>
</g>
<!-- Node8 -->
<g id="node2" class="node">
<title>Node8</title>
<g id="a_node2"><a xlink:href="iCubFwdKinModel_8h.html" target="_top" xlink:title="/Users/Claudio/GitHub\l/visual&#45;tracking&#45;control\l/src/hand&#45;tracking/include\l/iCubFwdKinModel.h">
<polygon fill="#ffffff" stroke="#000000" points="125.165,-85.5 125.165,-133.5 255.1104,-133.5 255.1104,-85.5 125.165,-85.5"/>
<text text-anchor="start" x="133.165" y="-121.5" font-family="Helvetica,sans-Serif" font-size="10.00" fill="#000000">/Users/Claudio/GitHub</text>
<text text-anchor="start" x="133.165" y="-111.5" font-family="Helvetica,sans-Serif" font-size="10.00" fill="#000000">/visual&#45;tracking&#45;control</text>
<text text-anchor="start" x="133.165" y="-101.5" font-family="Helvetica,sans-Serif" font-size="10.00" fill="#000000">/src/hand&#45;tracking/include</text>
<text text-anchor="middle" x="190.1377" y="-91.5" font-family="Helvetica,sans-Serif" font-size="10.00" fill="#000000">/iCubFwdKinModel.h</text>
</a>
</g>
</g>
<!-- Node7&#45;&gt;Node8 -->
<g id="edge1" class="edge">
<title>Node7&#45;&gt;Node8</title>
<path fill="none" stroke="#191970" d="M287.441,-165.3837C269.3741,-155.0074 249.2434,-143.4458 232.0014,-133.5433"/>
<polygon fill="#191970" stroke="#191970" points="285.708,-168.4245 296.1227,-170.3698 289.1942,-162.3544 285.708,-168.4245"/>
</g>
<!-- Node11 -->
<g id="node5" class="node">
<title>Node11</title>
<g id="a_node5"><a xlink:href="PlayFwdKinModel_8h.html" target="_top" xlink:title="/Users/Claudio/GitHub\l/visual&#45;tracking&#45;control\l/src/hand&#45;tracking/include\l/PlayFwdKinModel.h">
<polygon fill="#ffffff" stroke="#000000" points="273.165,-85.5 273.165,-133.5 403.1104,-133.5 403.1104,-85.5 273.165,-85.5"/>
<text text-anchor="start" x="281.165" y="-121.5" font-family="Helvetica,sans-Serif" font-size="10.00" fill="#000000">/Users/Claudio/GitHub</text>
<text text-anchor="start" x="281.165" y="-111.5" font-family="Helvetica,sans-Serif" font-size="10.00" fill="#000000">/visual&#45;tracking&#45;control</text>
<text text-anchor="start" x="281.165" y="-101.5" font-family="Helvetica,sans-Serif" font-size="10.00" fill="#000000">/src/hand&#45;tracking/include</text>
<text text-anchor="middle" x="338.1377" y="-91.5" font-family="Helvetica,sans-Serif" font-size="10.00" fill="#000000">/PlayFwdKinModel.h</text>
</a>
</g>
</g>
<!-- Node7&#45;&gt;Node11 -->
<g id="edge4" class="edge">
<title>Node7&#45;&gt;Node11</title>
<path fill="none" stroke="#191970" d="M338.1377,-160.2518C338.1377,-151.3524 338.1377,-141.951 338.1377,-133.6906"/>
<polygon fill="#191970" stroke="#191970" points="334.6378,-160.3697 338.1377,-170.3698 341.6378,-160.3698 334.6378,-160.3697"/>
</g>
<!-- Node13 -->
<g id="node7" class="node">
<title>Node13</title>
<g id="a_node7"><a xlink:href="FwdKinModel_8cpp.html" target="_top" xlink:title="/Users/Claudio/GitHub\l/visual&#45;tracking&#45;control\l/src/hand&#45;tracking/src/FwdKinModel.cpp">
<polygon fill="#ffffff" stroke="#000000" points="421.2144,-90.5 421.2144,-128.5 615.061,-128.5 615.061,-90.5 421.2144,-90.5"/>
<text text-anchor="start" x="429.2144" y="-116.5" font-family="Helvetica,sans-Serif" font-size="10.00" fill="#000000">/Users/Claudio/GitHub</text>
<text text-anchor="start" x="429.2144" y="-106.5" font-family="Helvetica,sans-Serif" font-size="10.00" fill="#000000">/visual&#45;tracking&#45;control</text>
<text text-anchor="middle" x="518.1377" y="-96.5" font-family="Helvetica,sans-Serif" font-size="10.00" fill="#000000">/src/hand&#45;tracking/src/FwdKinModel.cpp</text>
</a>
</g>
</g>
<!-- Node7&#45;&gt;Node13 -->
<g id="edge7" class="edge">
<title>Node7&#45;&gt;Node13</title>
<path fill="none" stroke="#191970" d="M398.308,-166.0863C424.447,-153.7428 454.3712,-139.612 477.7772,-128.5591"/>
<polygon fill="#191970" stroke="#191970" points="396.7849,-162.9348 389.237,-170.3698 399.774,-169.2645 396.7849,-162.9348"/>
</g>
<!-- Node9 -->
<g id="node3" class="node">
<title>Node9</title>
<g id="a_node3"><a xlink:href="iCubFwdKinModel_8cpp.html" target="_top" xlink:title="/Users/Claudio/GitHub\l/visual&#45;tracking&#45;control\l/src/hand&#45;tracking/src/iCubFwdKin\lModel.cpp">
<polygon fill="#ffffff" stroke="#000000" points="0,-.5 0,-48.5 168.2754,-48.5 168.2754,-.5 0,-.5"/>
<text text-anchor="start" x="8" y="-36.5" font-family="Helvetica,sans-Serif" font-size="10.00" fill="#000000">/Users/Claudio/GitHub</text>
<text text-anchor="start" x="8" y="-26.5" font-family="Helvetica,sans-Serif" font-size="10.00" fill="#000000">/visual&#45;tracking&#45;control</text>
<text text-anchor="start" x="8" y="-16.5" font-family="Helvetica,sans-Serif" font-size="10.00" fill="#000000">/src/hand&#45;tracking/src/iCubFwdKin</text>
<text text-anchor="middle" x="84.1377" y="-6.5" font-family="Helvetica,sans-Serif" font-size="10.00" fill="#000000">Model.cpp</text>
</a>
</g>
</g>
<!-- Node8&#45;&gt;Node9 -->
<g id="edge2" class="edge">
<title>Node8&#45;&gt;Node9</title>
<path fill="none" stroke="#191970" d="M152.0894,-78.9896C139.6718,-69.0321 126.0616,-58.1183 114.3047,-48.6906"/>
<polygon fill="#191970" stroke="#191970" points="150.0548,-81.8443 160.0459,-85.3698 154.4339,-76.3833 150.0548,-81.8443"/>
</g>
<!-- Node10 -->
<g id="node4" class="node">
<title>Node10</title>
<g id="a_node4"><a xlink:href="hand-tracking_2src_2main_8cpp.html" target="_top" xlink:title="/Users/Claudio/GitHub\l/visual&#45;tracking&#45;control\l/src/hand&#45;tracking/src/main.cpp">
<polygon fill="#ffffff" stroke="#000000" points="186.6675,-5.5 186.6675,-43.5 341.6079,-43.5 341.6079,-5.5 186.6675,-5.5"/>
<text text-anchor="start" x="194.6675" y="-31.5" font-family="Helvetica,sans-Serif" font-size="10.00" fill="#000000">/Users/Claudio/GitHub</text>
<text text-anchor="start" x="194.6675" y="-21.5" font-family="Helvetica,sans-Serif" font-size="10.00" fill="#000000">/visual&#45;tracking&#45;control</text>
<text text-anchor="middle" x="264.1377" y="-11.5" font-family="Helvetica,sans-Serif" font-size="10.00" fill="#000000">/src/hand&#45;tracking/src/main.cpp</text>
</a>
</g>
</g>
<!-- Node8&#45;&gt;Node10 -->
<g id="edge3" class="edge">
<title>Node8&#45;&gt;Node10</title>
<path fill="none" stroke="#191970" d="M217.8667,-77.6491C227.8542,-66.177 238.805,-53.5984 247.5451,-43.5591"/>
<polygon fill="#191970" stroke="#191970" points="215.0716,-75.5293 211.1452,-85.3698 220.3512,-80.1257 215.0716,-75.5293"/>
</g>
<!-- Node11&#45;&gt;Node10 -->
<g id="edge5" class="edge">
<title>Node11&#45;&gt;Node10</title>
<path fill="none" stroke="#191970" d="M310.4087,-77.6491C300.4212,-66.177 289.4704,-53.5984 280.7303,-43.5591"/>
<polygon fill="#191970" stroke="#191970" points="307.9242,-80.1257 317.1302,-85.3698 313.2038,-75.5293 307.9242,-80.1257"/>
</g>
<!-- Node12 -->
<g id="node6" class="node">
<title>Node12</title>
<g id="a_node6"><a xlink:href="PlayFwdKinModel_8cpp.html" target="_top" xlink:title="/Users/Claudio/GitHub\l/visual&#45;tracking&#45;control\l/src/hand&#45;tracking/src/PlayFwdKin\lModel.cpp">
<polygon fill="#ffffff" stroke="#000000" points="359.5566,-.5 359.5566,-48.5 526.7188,-48.5 526.7188,-.5 359.5566,-.5"/>
<text text-anchor="start" x="367.5566" y="-36.5" font-family="Helvetica,sans-Serif" font-size="10.00" fill="#000000">/Users/Claudio/GitHub</text>
<text text-anchor="start" x="367.5566" y="-26.5" font-family="Helvetica,sans-Serif" font-size="10.00" fill="#000000">/visual&#45;tracking&#45;control</text>
<text text-anchor="start" x="367.5566" y="-16.5" font-family="Helvetica,sans-Serif" font-size="10.00" fill="#000000">/src/hand&#45;tracking/src/PlayFwdKin</text>
<text text-anchor="middle" x="443.1377" y="-6.5" font-family="Helvetica,sans-Serif" font-size="10.00" fill="#000000">Model.cpp</text>
</a>
</g>
</g>
<!-- Node11&#45;&gt;Node12 -->
<g id="edge6" class="edge">
<title>Node11&#45;&gt;Node12</title>
<path fill="none" stroke="#191970" d="M375.827,-78.9896C388.1275,-69.0321 401.6093,-58.1183 413.2552,-48.6906"/>
<polygon fill="#191970" stroke="#191970" points="373.5159,-76.3574 367.9456,-85.3698 377.9203,-81.7981 373.5159,-76.3574"/>
</g>
</g>
</svg>
