<?xml version="1.0" encoding="UTF-8" standalone="no"?>
<!DOCTYPE svg PUBLIC "-//W3C//DTD SVG 1.1//EN"
 "http://www.w3.org/Graphics/SVG/1.1/DTD/svg11.dtd">
<!-- Generated by graphviz version 2.40.1 (20161225.0304)
 -->
<!-- Title: /Users/Claudio/GitHub/visual&#45;tracking&#45;control/src/hand&#45;tracking/include/GatePose.h Pages: 1 -->
<svg width="595pt" height="227pt"
 viewBox="0.00 0.00 595.17 227.00" xmlns="http://www.w3.org/2000/svg" xmlns:xlink="http://www.w3.org/1999/xlink">
<g id="graph0" class="graph" transform="scale(1 1) rotate(0) translate(4 223)">
<title>/Users/Claudio/GitHub/visual&#45;tracking&#45;control/src/hand&#45;tracking/include/GatePose.h</title>
<polygon fill="#ffffff" stroke="transparent" points="-4,4 -4,-223 591.1743,-223 591.1743,4 -4,4"/>
<!-- Node4 -->
<g id="node1" class="node">
<title>Node4</title>
<polygon fill="#bfbfbf" stroke="#000000" points="261.3325,-170.5 261.3325,-218.5 391.2778,-218.5 391.2778,-170.5 261.3325,-170.5"/>
<text text-anchor="start" x="269.3325" y="-206.5" font-family="Helvetica,sans-Serif" font-size="10.00" fill="#000000">/Users/Claudio/GitHub</text>
<text text-anchor="start" x="269.3325" y="-196.5" font-family="Helvetica,sans-Serif" font-size="10.00" fill="#000000">/visual&#45;tracking&#45;control</text>
<text text-anchor="start" x="269.3325" y="-186.5" font-family="Helvetica,sans-Serif" font-size="10.00" fill="#000000">/src/hand&#45;tracking/include</text>
<text text-anchor="middle" x="326.3052" y="-176.5" font-family="Helvetica,sans-Serif" font-size="10.00" fill="#000000">/GatePose.h</text>
</g>
<!-- Node5 -->
<g id="node2" class="node">
<title>Node5</title>
<g id="a_node2"><a xlink:href="iCubGatePose_8h.html" target="_top" xlink:title="/Users/Claudio/GitHub\l/visual&#45;tracking&#45;control\l/src/hand&#45;tracking/include\l/iCubGatePose.h">
<polygon fill="#ffffff" stroke="#000000" points="113.3325,-85.5 113.3325,-133.5 243.2778,-133.5 243.2778,-85.5 113.3325,-85.5"/>
<text text-anchor="start" x="121.3325" y="-121.5" font-family="Helvetica,sans-Serif" font-size="10.00" fill="#000000">/Users/Claudio/GitHub</text>
<text text-anchor="start" x="121.3325" y="-111.5" font-family="Helvetica,sans-Serif" font-size="10.00" fill="#000000">/visual&#45;tracking&#45;control</text>
<text text-anchor="start" x="121.3325" y="-101.5" font-family="Helvetica,sans-Serif" font-size="10.00" fill="#000000">/src/hand&#45;tracking/include</text>
<text text-anchor="middle" x="178.3052" y="-91.5" font-family="Helvetica,sans-Serif" font-size="10.00" fill="#000000">/iCubGatePose.h</text>
</a>
</g>
</g>
<!-- Node4&#45;&gt;Node5 -->
<g id="edge1" class="edge">
<title>Node4&#45;&gt;Node5</title>
<path fill="none" stroke="#191970" d="M275.6085,-165.3837C257.5416,-155.0074 237.4108,-143.4458 220.1689,-133.5433"/>
<polygon fill="#191970" stroke="#191970" points="273.8755,-168.4245 284.2902,-170.3698 277.3617,-162.3544 273.8755,-168.4245"/>
</g>
<!-- Node8 -->
<g id="node5" class="node">
<title>Node8</title>
<g id="a_node5"><a xlink:href="PlayGatePose_8h.html" target="_top" xlink:title="/Users/Claudio/GitHub\l/visual&#45;tracking&#45;control\l/src/hand&#45;tracking/include\l/PlayGatePose.h">
<polygon fill="#ffffff" stroke="#000000" points="261.3325,-85.5 261.3325,-133.5 391.2778,-133.5 391.2778,-85.5 261.3325,-85.5"/>
<text text-anchor="start" x="269.3325" y="-121.5" font-family="Helvetica,sans-Serif" font-size="10.00" fill="#000000">/Users/Claudio/GitHub</text>
<text text-anchor="start" x="269.3325" y="-111.5" font-family="Helvetica,sans-Serif" font-size="10.00" fill="#000000">/visual&#45;tracking&#45;control</text>
<text text-anchor="start" x="269.3325" y="-101.5" font-family="Helvetica,sans-Serif" font-size="10.00" fill="#000000">/src/hand&#45;tracking/include</text>
<text text-anchor="middle" x="326.3052" y="-91.5" font-family="Helvetica,sans-Serif" font-size="10.00" fill="#000000">/PlayGatePose.h</text>
</a>
</g>
</g>
<!-- Node4&#45;&gt;Node8 -->
<g id="edge4" class="edge">
<title>Node4&#45;&gt;Node8</title>
<path fill="none" stroke="#191970" d="M326.3052,-160.2518C326.3052,-151.3524 326.3052,-141.951 326.3052,-133.6906"/>
<polygon fill="#191970" stroke="#191970" points="322.8053,-160.3697 326.3052,-170.3698 329.8053,-160.3698 322.8053,-160.3697"/>
</g>
<!-- Node10 -->
<g id="node7" class="node">
<title>Node10</title>
<g id="a_node7"><a xlink:href="GatePose_8cpp.html" target="_top" xlink:title="/Users/Claudio/GitHub\l/visual&#45;tracking&#45;control\l/src/hand&#45;tracking/src/GatePose.cpp">
<polygon fill="#ffffff" stroke="#000000" points="409.436,-90.5 409.436,-128.5 587.1743,-128.5 587.1743,-90.5 409.436,-90.5"/>
<text text-anchor="start" x="417.436" y="-116.5" font-family="Helvetica,sans-Serif" font-size="10.00" fill="#000000">/Users/Claudio/GitHub</text>
<text text-anchor="start" x="417.436" y="-106.5" font-family="Helvetica,sans-Serif" font-size="10.00" fill="#000000">/visual&#45;tracking&#45;control</text>
<text text-anchor="middle" x="498.3052" y="-96.5" font-family="Helvetica,sans-Serif" font-size="10.00" fill="#000000">/src/hand&#45;tracking/src/GatePose.cpp</text>
</a>
</g>
</g>
<!-- Node4&#45;&gt;Node10 -->
<g id="edge7" class="edge">
<title>Node4&#45;&gt;Node10</title>
<path fill="none" stroke="#191970" d="M384.1286,-165.9245C409.0281,-153.6195 437.4704,-139.5637 459.7385,-128.5591"/>
<polygon fill="#191970" stroke="#191970" points="382.5478,-162.8016 375.1334,-170.3698 385.6491,-169.0771 382.5478,-162.8016"/>
</g>
<!-- Node6 -->
<g id="node3" class="node">
<title>Node6</title>
<g id="a_node3"><a xlink:href="iCubGatePose_8cpp.html" target="_top" xlink:title="/Users/Claudio/GitHub\l/visual&#45;tracking&#45;control\l/src/hand&#45;tracking/src/iCubGate\lPose.cpp">
<polygon fill="#ffffff" stroke="#000000" points="0,-.5 0,-48.5 156.6104,-48.5 156.6104,-.5 0,-.5"/>
<text text-anchor="start" x="8" y="-36.5" font-family="Helvetica,sans-Serif" font-size="10.00" fill="#000000">/Users/Claudio/GitHub</text>
<text text-anchor="start" x="8" y="-26.5" font-family="Helvetica,sans-Serif" font-size="10.00" fill="#000000">/visual&#45;tracking&#45;control</text>
<text text-anchor="start" x="8" y="-16.5" font-family="Helvetica,sans-Serif" font-size="10.00" fill="#000000">/src/hand&#45;tracking/src/iCubGate</text>
<text text-anchor="middle" x="78.3052" y="-6.5" font-family="Helvetica,sans-Serif" font-size="10.00" fill="#000000">Pose.cpp</text>
</a>
</g>
</g>
<!-- Node5&#45;&gt;Node6 -->
<g id="edge2" class="edge">
<title>Node5&#45;&gt;Node6</title>
<path fill="none" stroke="#191970" d="M142.0756,-78.7048C130.4515,-68.8244 117.7504,-58.0285 106.7647,-48.6906"/>
<polygon fill="#191970" stroke="#191970" points="140.0305,-81.5601 149.9167,-85.3698 144.564,-76.2265 140.0305,-81.5601"/>
</g>
<!-- Node7 -->
<g id="node4" class="node">
<title>Node7</title>
<g id="a_node4"><a xlink:href="hand-tracking_2src_2main_8cpp.html" target="_top" xlink:title="/Users/Claudio/GitHub\l/visual&#45;tracking&#45;control\l/src/hand&#45;tracking/src/main.cpp">
<polygon fill="#ffffff" stroke="#000000" points="174.835,-5.5 174.835,-43.5 329.7754,-43.5 329.7754,-5.5 174.835,-5.5"/>
<text text-anchor="start" x="182.835" y="-31.5" font-family="Helvetica,sans-Serif" font-size="10.00" fill="#000000">/Users/Claudio/GitHub</text>
<text text-anchor="start" x="182.835" y="-21.5" font-family="Helvetica,sans-Serif" font-size="10.00" fill="#000000">/visual&#45;tracking&#45;control</text>
<text text-anchor="middle" x="252.3052" y="-11.5" font-family="Helvetica,sans-Serif" font-size="10.00" fill="#000000">/src/hand&#45;tracking/src/main.cpp</text>
</a>
</g>
</g>
<!-- Node5&#45;&gt;Node7 -->
<g id="edge3" class="edge">
<title>Node5&#45;&gt;Node7</title>
<path fill="none" stroke="#191970" d="M206.0342,-77.6491C216.0217,-66.177 226.9725,-53.5984 235.7125,-43.5591"/>
<polygon fill="#191970" stroke="#191970" points="203.2391,-75.5293 199.3127,-85.3698 208.5187,-80.1257 203.2391,-75.5293"/>
</g>
<!-- Node8&#45;&gt;Node7 -->
<g id="edge5" class="edge">
<title>Node8&#45;&gt;Node7</title>
<path fill="none" stroke="#191970" d="M298.5762,-77.6491C288.5887,-66.177 277.6379,-53.5984 268.8978,-43.5591"/>
<polygon fill="#191970" stroke="#191970" points="296.0917,-80.1257 305.2977,-85.3698 301.3713,-75.5293 296.0917,-80.1257"/>
</g>
<!-- Node9 -->
<g id="node6" class="node">
<title>Node9</title>
<g id="a_node6"><a xlink:href="PlayGatePose_8cpp.html" target="_top" xlink:title="/Users/Claudio/GitHub\l/visual&#45;tracking&#45;control\l/src/hand&#45;tracking/src/PlayGate\lPose.cpp">
<polygon fill="#ffffff" stroke="#000000" points="347.5566,-.5 347.5566,-48.5 503.0537,-48.5 503.0537,-.5 347.5566,-.5"/>
<text text-anchor="start" x="355.5566" y="-36.5" font-family="Helvetica,sans-Serif" font-size="10.00" fill="#000000">/Users/Claudio/GitHub</text>
<text text-anchor="start" x="355.5566" y="-26.5" font-family="Helvetica,sans-Serif" font-size="10.00" fill="#000000">/visual&#45;tracking&#45;control</text>
<text text-anchor="start" x="355.5566" y="-16.5" font-family="Helvetica,sans-Serif" font-size="10.00" fill="#000000">/src/hand&#45;tracking/src/PlayGate</text>
<text text-anchor="middle" x="425.3052" y="-6.5" font-family="Helvetica,sans-Serif" font-size="10.00" fill="#000000">Pose.cpp</text>
</a>
</g>
</g>
<!-- Node8&#45;&gt;Node9 -->
<g id="edge6" class="edge">
<title>Node8&#45;&gt;Node9</title>
<path fill="none" stroke="#191970" d="M362.1725,-78.7048C373.6803,-68.8244 386.2544,-58.0285 397.1303,-48.6906"/>
<polygon fill="#191970" stroke="#191970" points="359.717,-76.2 354.4098,-85.3698 364.277,-81.511 359.717,-76.2"/>
</g>
</g>
</svg>
