<?xml version="1.0" encoding="UTF-8" standalone="no"?>
<!DOCTYPE svg PUBLIC "-//W3C//DTD SVG 1.1//EN"
 "http://www.w3.org/Graphics/SVG/1.1/DTD/svg11.dtd">
<!-- Generated by graphviz version 2.40.1 (20161225.0304)
 -->
<!-- Title: /Users/Claudio/GitHub/visual&#45;tracking&#45;control/src/hand&#45;tracking/src/GatePose.cpp Pages: 1 -->
<svg width="377pt" height="167pt"
 viewBox="0.00 0.00 376.59 167.00" xmlns="http://www.w3.org/2000/svg" xmlns:xlink="http://www.w3.org/1999/xlink">
<g id="graph0" class="graph" transform="scale(1 1) rotate(0) translate(4 163)">
<title>/Users/Claudio/GitHub/visual&#45;tracking&#45;control/src/hand&#45;tracking/src/GatePose.cpp</title>
<polygon fill="#ffffff" stroke="transparent" points="-4,4 -4,-163 372.5859,-163 372.5859,4 -4,4"/>
<!-- Node0 -->
<g id="node1" class="node">
<title>Node0</title>
<polygon fill="#bfbfbf" stroke="#000000" points="86.3574,-120.5 86.3574,-158.5 264.0957,-158.5 264.0957,-120.5 86.3574,-120.5"/>
<text text-anchor="start" x="94.3574" y="-146.5" font-family="Helvetica,sans-Serif" font-size="10.00" fill="#000000">/Users/Claudio/GitHub</text>
<text text-anchor="start" x="94.3574" y="-136.5" font-family="Helvetica,sans-Serif" font-size="10.00" fill="#000000">/visual&#45;tracking&#45;control</text>
<text text-anchor="middle" x="175.2266" y="-126.5" font-family="Helvetica,sans-Serif" font-size="10.00" fill="#000000">/src/hand&#45;tracking/src/GatePose.cpp</text>
</g>
<!-- Node1 -->
<g id="node2" class="node">
<title>Node1</title>
<g id="a_node2"><a xlink:href="GatePose_8h.html" target="_top" xlink:title="GatePose.h">
<polygon fill="#ffffff" stroke="#000000" points="103.8203,-65.5 103.8203,-83.5 172.6328,-83.5 172.6328,-65.5 103.8203,-65.5"/>
<text text-anchor="middle" x="138.2266" y="-71.5" font-family="Helvetica,sans-Serif" font-size="10.00" fill="#000000">GatePose.h</text>
</a>
</g>
</g>
<!-- Node0&#45;&gt;Node1 -->
<g id="edge1" class="edge">
<title>Node0&#45;&gt;Node1</title>
<path fill="none" stroke="#191970" d="M164.3255,-120.3494C159.3074,-111.5339 153.3865,-101.1324 148.4538,-92.4668"/>
<polygon fill="#191970" stroke="#191970" points="151.3941,-90.557 143.4053,-83.5978 145.3106,-94.02 151.3941,-90.557"/>
</g>
<!-- Node5 -->
<g id="node6" class="node">
<title>Node5</title>
<polygon fill="#ffffff" stroke="#bfbfbf" points="190.6108,-65.5 190.6108,-83.5 233.8423,-83.5 233.8423,-65.5 190.6108,-65.5"/>
<text text-anchor="middle" x="212.2266" y="-71.5" font-family="Helvetica,sans-Serif" font-size="10.00" fill="#000000">cmath</text>
</g>
<!-- Node0&#45;&gt;Node5 -->
<g id="edge5" class="edge">
<title>Node0&#45;&gt;Node5</title>
<path fill="none" stroke="#191970" d="M186.1277,-120.3494C191.1457,-111.5339 197.0666,-101.1324 201.9993,-92.4668"/>
<polygon fill="#191970" stroke="#191970" points="205.1425,-94.02 207.0478,-83.5978 199.059,-90.557 205.1425,-94.02"/>
</g>
<!-- Node2 -->
<g id="node3" class="node">
<title>Node2</title>
<polygon fill="#ffffff" stroke="#bfbfbf" points="0,-5.5 0,-23.5 40.4531,-23.5 40.4531,-5.5 0,-5.5"/>
<text text-anchor="middle" x="20.2266" y="-11.5" font-family="Helvetica,sans-Serif" font-size="10.00" fill="#000000">string</text>
</g>
<!-- Node1&#45;&gt;Node2 -->
<g id="edge2" class="edge">
<title>Node1&#45;&gt;Node2</title>
<path fill="none" stroke="#191970" d="M120.3049,-65.3873C100.7857,-55.4623 69.3583,-39.4822 46.9303,-28.0782"/>
<polygon fill="#191970" stroke="#191970" points="48.4305,-24.9145 37.9302,-23.5019 45.2577,-31.1542 48.4305,-24.9145"/>
</g>
<!-- Node3 -->
<g id="node4" class="node">
<title>Node3</title>
<polygon fill="#ffffff" stroke="#bfbfbf" points="58.3467,-.5 58.3467,-28.5 218.1064,-28.5 218.1064,-.5 58.3467,-.5"/>
<text text-anchor="start" x="66.3467" y="-16.5" font-family="Helvetica,sans-Serif" font-size="10.00" fill="#000000">BayesFilters/PFVisualCorrection</text>
<text text-anchor="middle" x="138.2266" y="-6.5" font-family="Helvetica,sans-Serif" font-size="10.00" fill="#000000">Decorator.h</text>
</g>
<!-- Node1&#45;&gt;Node3 -->
<g id="edge3" class="edge">
<title>Node1&#45;&gt;Node3</title>
<path fill="none" stroke="#191970" d="M138.2266,-65.3873C138.2266,-58.3369 138.2266,-48.2311 138.2266,-38.8806"/>
<polygon fill="#191970" stroke="#191970" points="141.7267,-38.8476 138.2266,-28.8477 134.7267,-38.8477 141.7267,-38.8476"/>
</g>
<!-- Node4 -->
<g id="node5" class="node">
<title>Node4</title>
<polygon fill="#ffffff" stroke="#bfbfbf" points="235.8672,-5.5 235.8672,-23.5 368.5859,-23.5 368.5859,-5.5 235.8672,-5.5"/>
<text text-anchor="middle" x="302.2266" y="-11.5" font-family="Helvetica,sans-Serif" font-size="10.00" fill="#000000">BayesFilters/StateModel.h</text>
</g>
<!-- Node1&#45;&gt;Node4 -->
<g id="edge4" class="edge">
<title>Node1&#45;&gt;Node4</title>
<path fill="none" stroke="#191970" d="M163.1346,-65.3873C191.1107,-55.1521 236.6879,-38.4776 267.9977,-27.0228"/>
<polygon fill="#191970" stroke="#191970" points="269.4328,-30.2247 277.6214,-23.5019 267.0276,-23.6508 269.4328,-30.2247"/>
</g>
</g>
</svg>
