<?xml version="1.0" encoding="UTF-8" standalone="no"?>
<!DOCTYPE svg PUBLIC "-//W3C//DTD SVG 1.1//EN"
 "http://www.w3.org/Graphics/SVG/1.1/DTD/svg11.dtd">
<!-- Generated by graphviz version 2.40.1 (20161225.0304)
 -->
<!-- Title: /Users/Claudio/GitHub/visual&#45;tracking&#45;control/src/hand&#45;tracking/src/main.cpp Pages: 1 -->
<svg width="3440pt" height="287pt"
 viewBox="0.00 0.00 3439.85 287.00" xmlns="http://www.w3.org/2000/svg" xmlns:xlink="http://www.w3.org/1999/xlink">
<g id="graph0" class="graph" transform="scale(1 1) rotate(0) translate(4 283)">
<title>/Users/Claudio/GitHub/visual&#45;tracking&#45;control/src/hand&#45;tracking/src/main.cpp</title>
<polygon fill="#ffffff" stroke="transparent" points="-4,4 -4,-283 3435.8491,-283 3435.8491,4 -4,4"/>
<!-- Node0 -->
<g id="node1" class="node">
<title>Node0</title>
<polygon fill="#bfbfbf" stroke="#000000" points="1418.2192,-240.5 1418.2192,-278.5 1573.1597,-278.5 1573.1597,-240.5 1418.2192,-240.5"/>
<text text-anchor="start" x="1426.2192" y="-266.5" font-family="Helvetica,sans-Serif" font-size="10.00" fill="#000000">/Users/Claudio/GitHub</text>
<text text-anchor="start" x="1426.2192" y="-256.5" font-family="Helvetica,sans-Serif" font-size="10.00" fill="#000000">/visual&#45;tracking&#45;control</text>
<text text-anchor="middle" x="1495.6895" y="-246.5" font-family="Helvetica,sans-Serif" font-size="10.00" fill="#000000">/src/hand&#45;tracking/src/main.cpp</text>
</g>
<!-- Node1 -->
<g id="node2" class="node">
<title>Node1</title>
<polygon fill="#ffffff" stroke="#bfbfbf" points="3229.4014,-60.5 3229.4014,-78.5 3275.9775,-78.5 3275.9775,-60.5 3229.4014,-60.5"/>
<text text-anchor="middle" x="3252.6895" y="-66.5" font-family="Helvetica,sans-Serif" font-size="10.00" fill="#000000">chrono</text>
</g>
<!-- Node0&#45;&gt;Node1 -->
<g id="edge1" class="edge">
<title>Node0&#45;&gt;Node1</title>
<path fill="none" stroke="#191970" d="M1510.9169,-240.4239C1528.7673,-218.4648 1557.6872,-184.231 1571.6895,-175 1613.2288,-147.615 1632.1062,-158.9405 1677.6895,-139 1693.9056,-131.9062 1695.5873,-124.5608 1712.6895,-120 2036.3622,-33.6835 2892.7018,-156.7574 3219.6895,-84 3221.6594,-83.5617 3223.6568,-83.0037 3225.6433,-82.3631"/>
<polygon fill="#191970" stroke="#191970" points="3227.2334,-85.5015 3235.3095,-78.6439 3224.7197,-78.9684 3227.2334,-85.5015"/>
</g>
<!-- Node2 -->
<g id="node3" class="node">
<title>Node2</title>
<polygon fill="#ffffff" stroke="#bfbfbf" points="1758.9038,-180.5 1758.9038,-198.5 1800.4751,-198.5 1800.4751,-180.5 1758.9038,-180.5"/>
<text text-anchor="middle" x="1779.6895" y="-186.5" font-family="Helvetica,sans-Serif" font-size="10.00" fill="#000000">future</text>
</g>
<!-- Node0&#45;&gt;Node2 -->
<g id="edge2" class="edge">
<title>Node0&#45;&gt;Node2</title>
<path fill="none" stroke="#191970" d="M1573.1625,-245.8284C1622.7731,-236.195 1688.204,-221.8471 1744.6895,-204 1746.371,-203.4687 1748.0843,-202.8896 1749.8042,-202.2786"/>
<polygon fill="#191970" stroke="#191970" points="1751.4685,-205.389 1759.5521,-198.5402 1748.9619,-198.8531 1751.4685,-205.389"/>
</g>
<!-- Node3 -->
<g id="node4" class="node">
<title>Node3</title>
<polygon fill="#ffffff" stroke="#bfbfbf" points="1818.5171,-180.5 1818.5171,-198.5 1872.8618,-198.5 1872.8618,-180.5 1818.5171,-180.5"/>
<text text-anchor="middle" x="1845.6895" y="-186.5" font-family="Helvetica,sans-Serif" font-size="10.00" fill="#000000">iostream</text>
</g>
<!-- Node0&#45;&gt;Node3 -->
<g id="edge3" class="edge">
<title>Node0&#45;&gt;Node3</title>
<path fill="none" stroke="#191970" d="M1573.1637,-250.3763C1637.3447,-241.7344 1730.5256,-226.6715 1809.6895,-204 1811.6327,-203.4435 1813.6149,-202.8183 1815.6002,-202.1481"/>
<polygon fill="#191970" stroke="#191970" points="1817.2195,-205.2811 1825.387,-198.5326 1814.7937,-198.7149 1817.2195,-205.2811"/>
</g>
<!-- Node4 -->
<g id="node5" class="node">
<title>Node4</title>
<polygon fill="#ffffff" stroke="#bfbfbf" points="263.6328,-60.5 263.6328,-78.5 315.7461,-78.5 315.7461,-60.5 263.6328,-60.5"/>
<text text-anchor="middle" x="289.6895" y="-66.5" font-family="Helvetica,sans-Serif" font-size="10.00" fill="#000000">memory</text>
</g>
<!-- Node0&#45;&gt;Node4 -->
<g id="edge4" class="edge">
<title>Node0&#45;&gt;Node4</title>
<path fill="none" stroke="#191970" d="M1418.2016,-258.2808C1215.4747,-254.5976 673.0165,-241.4389 497.6895,-204 418.5828,-187.1078 388.6191,-192.2051 327.6895,-139 312.2037,-125.4775 301.8454,-104.0467 295.907,-88.556"/>
<polygon fill="#191970" stroke="#191970" points="299.1401,-87.2013 292.4933,-78.9508 292.5443,-89.5455 299.1401,-87.2013"/>
</g>
<!-- Node5 -->
<g id="node6" class="node">
<title>Node5</title>
<polygon fill="#ffffff" stroke="#bfbfbf" points="1890.3916,-175.5 1890.3916,-203.5 2036.9873,-203.5 2036.9873,-175.5 1890.3916,-175.5"/>
<text text-anchor="start" x="1898.3916" y="-191.5" font-family="Helvetica,sans-Serif" font-size="10.00" fill="#000000">BayesFilters/ResamplingWith</text>
<text text-anchor="middle" x="1963.6895" y="-181.5" font-family="Helvetica,sans-Serif" font-size="10.00" fill="#000000">Prior.h</text>
</g>
<!-- Node0&#45;&gt;Node5 -->
<g id="edge5" class="edge">
<title>Node0&#45;&gt;Node5</title>
<path fill="none" stroke="#191970" d="M1573.431,-249.0712C1649.1772,-238.7391 1767.8606,-222.0984 1879.8326,-204.2718"/>
<polygon fill="#191970" stroke="#191970" points="1880.6289,-207.689 1889.9512,-202.6546 1879.5241,-200.7768 1880.6289,-207.689"/>
</g>
<!-- Node6 -->
<g id="node7" class="node">
<title>Node6</title>
<polygon fill="#ffffff" stroke="#bfbfbf" points="663.6108,-60.5 663.6108,-78.5 775.7681,-78.5 775.7681,-60.5 663.6108,-60.5"/>
<text text-anchor="middle" x="719.6895" y="-66.5" font-family="Helvetica,sans-Serif" font-size="10.00" fill="#000000">yarp/os/ConstString.h</text>
</g>
<!-- Node0&#45;&gt;Node6 -->
<g id="edge6" class="edge">
<title>Node0&#45;&gt;Node6</title>
<path fill="none" stroke="#191970" d="M1418.1288,-257.1441C1264.6537,-251.8303 927.4952,-236.735 816.6895,-204 758.1448,-186.7043 727.0189,-191.3936 695.6895,-139 685.8156,-122.4875 695.887,-101.3281 705.8408,-86.7172"/>
<polygon fill="#191970" stroke="#191970" points="708.732,-88.6936 711.8439,-78.5661 703.0956,-84.5425 708.732,-88.6936"/>
</g>
<!-- Node7 -->
<g id="node8" class="node">
<title>Node7</title>
<polygon fill="#ffffff" stroke="#bfbfbf" points="2055.2759,-180.5 2055.2759,-198.5 2164.103,-198.5 2164.103,-180.5 2055.2759,-180.5"/>
<text text-anchor="middle" x="2109.6895" y="-186.5" font-family="Helvetica,sans-Serif" font-size="10.00" fill="#000000">yarp/os/LogStream.h</text>
</g>
<!-- Node0&#45;&gt;Node7 -->
<g id="edge7" class="edge">
<title>Node0&#45;&gt;Node7</title>
<path fill="none" stroke="#191970" d="M1573.5025,-254.6564C1680.4152,-247.3179 1878.5098,-231.2685 2045.6895,-204 2051.4521,-203.0601 2057.4724,-201.9153 2063.4163,-200.6855"/>
<polygon fill="#191970" stroke="#191970" points="2064.2509,-204.0861 2073.2883,-198.5565 2062.7751,-197.2434 2064.2509,-204.0861"/>
</g>
<!-- Node8 -->
<g id="node9" class="node">
<title>Node8</title>
<polygon fill="#ffffff" stroke="#bfbfbf" points="2182.3965,-180.5 2182.3965,-198.5 2278.9824,-198.5 2278.9824,-180.5 2182.3965,-180.5"/>
<text text-anchor="middle" x="2230.6895" y="-186.5" font-family="Helvetica,sans-Serif" font-size="10.00" fill="#000000">yarp/os/Network.h</text>
</g>
<!-- Node0&#45;&gt;Node8 -->
<g id="edge8" class="edge">
<title>Node0&#45;&gt;Node8</title>
<path fill="none" stroke="#191970" d="M1573.3542,-257.25C1699.7346,-252.6684 1957.4264,-239.4877 2172.6895,-204 2177.8068,-203.1564 2183.1362,-202.0896 2188.3999,-200.919"/>
<polygon fill="#191970" stroke="#191970" points="2189.437,-204.2706 2198.3682,-198.5712 2187.8322,-197.4571 2189.437,-204.2706"/>
</g>
<!-- Node9 -->
<g id="node10" class="node">
<title>Node9</title>
<polygon fill="#ffffff" stroke="#bfbfbf" points="2297.436,-180.5 2297.436,-198.5 2427.9429,-198.5 2427.9429,-180.5 2297.436,-180.5"/>
<text text-anchor="middle" x="2362.6895" y="-186.5" font-family="Helvetica,sans-Serif" font-size="10.00" fill="#000000">yarp/os/ResourceFinder.h</text>
</g>
<!-- Node0&#45;&gt;Node9 -->
<g id="edge9" class="edge">
<title>Node0&#45;&gt;Node9</title>
<path fill="none" stroke="#191970" d="M1573.2904,-257.1782C1715.4894,-252.2324 2027.1705,-238.1839 2287.6895,-204 2295.1866,-203.0163 2303.0644,-201.7515 2310.7816,-200.3796"/>
<polygon fill="#191970" stroke="#191970" points="2311.5916,-203.7893 2320.7884,-198.5291 2310.3187,-196.906 2311.5916,-203.7893"/>
</g>
<!-- Node10 -->
<g id="node11" class="node">
<title>Node10</title>
<polygon fill="#ffffff" stroke="#bfbfbf" points="2446.3145,-180.5 2446.3145,-198.5 2531.0645,-198.5 2531.0645,-180.5 2446.3145,-180.5"/>
<text text-anchor="middle" x="2488.6895" y="-186.5" font-family="Helvetica,sans-Serif" font-size="10.00" fill="#000000">yarp/os/Value.h</text>
</g>
<!-- Node0&#45;&gt;Node10 -->
<g id="edge10" class="edge">
<title>Node0&#45;&gt;Node10</title>
<path fill="none" stroke="#191970" d="M1573.5047,-257.0466C1767.9642,-250.5721 2271.337,-231.6057 2436.6895,-204 2441.2321,-203.2416 2445.9469,-202.2401 2450.6002,-201.1167"/>
<polygon fill="#191970" stroke="#191970" points="2451.805,-204.4197 2460.5985,-198.5099 2450.039,-197.6461 2451.805,-204.4197"/>
</g>
<!-- Node11 -->
<g id="node12" class="node">
<title>Node11</title>
<polygon fill="#ffffff" stroke="#bfbfbf" points="1541.8228,-60.5 1541.8228,-78.5 1659.5562,-78.5 1659.5562,-60.5 1541.8228,-60.5"/>
<text text-anchor="middle" x="1600.6895" y="-66.5" font-family="Helvetica,sans-Serif" font-size="10.00" fill="#000000">opencv2/core/core.hpp</text>
</g>
<!-- Node0&#45;&gt;Node11 -->
<g id="edge11" class="edge">
<title>Node0&#45;&gt;Node11</title>
<path fill="none" stroke="#191970" d="M1481.0599,-240.1462C1461.3118,-211.4683 1431.4519,-157.0913 1457.6895,-120 1468.6691,-104.4784 1512.772,-90.3975 1549.131,-81.0717"/>
<polygon fill="#191970" stroke="#191970" points="1550.2929,-84.3891 1559.1468,-78.5702 1548.5967,-77.5977 1550.2929,-84.3891"/>
</g>
<!-- Node12 -->
<g id="node13" class="node">
<title>Node12</title>
<polygon fill="#ffffff" stroke="#bfbfbf" points="1762.707,-120.5 1762.707,-138.5 1882.6719,-138.5 1882.6719,-120.5 1762.707,-120.5"/>
<text text-anchor="middle" x="1822.6895" y="-126.5" font-family="Helvetica,sans-Serif" font-size="10.00" fill="#000000">opencv2/core/cuda.hpp</text>
</g>
<!-- Node0&#45;&gt;Node12 -->
<g id="edge12" class="edge">
<title>Node0&#45;&gt;Node12</title>
<path fill="none" stroke="#191970" d="M1573.2789,-247.3695C1615.6265,-238.8521 1668.1455,-225.1248 1711.6895,-204 1730.804,-194.7268 1732.2106,-187.0768 1749.6895,-175 1765.6137,-163.9973 1784.1253,-152.4728 1798.5226,-143.7752"/>
<polygon fill="#191970" stroke="#191970" points="1800.543,-146.6448 1807.3209,-138.5017 1796.9443,-140.6406 1800.543,-146.6448"/>
</g>
<!-- Node13 -->
<g id="node14" class="node">
<title>Node13</title>
<g id="a_node14"><a xlink:href="BrownianMotionPose_8h.html" target="_top" xlink:title="BrownianMotionPose.h">
<polygon fill="#ffffff" stroke="#000000" points="336.271,-120.5 336.271,-138.5 455.1079,-138.5 455.1079,-120.5 336.271,-120.5"/>
<text text-anchor="middle" x="395.6895" y="-126.5" font-family="Helvetica,sans-Serif" font-size="10.00" fill="#000000">BrownianMotionPose.h</text>
</a>
</g>
</g>
<!-- Node0&#45;&gt;Node13 -->
<g id="edge13" class="edge">
<title>Node0&#45;&gt;Node13</title>
<path fill="none" stroke="#191970" d="M1418.105,-257.6249C1229.7882,-252.6047 752.5513,-236.9443 596.6895,-204 532.8489,-190.5061 462.1718,-160.5498 423.9688,-143.0106"/>
<polygon fill="#191970" stroke="#191970" points="425.0769,-139.6662 414.5331,-138.6267 422.1273,-146.0144 425.0769,-139.6662"/>
</g>
<!-- Node17 -->
<g id="node18" class="node">
<title>Node17</title>
<g id="a_node18"><a xlink:href="DrawFwdKinPoses_8h.html" target="_top" xlink:title="DrawFwdKinPoses.h">
<polygon fill="#ffffff" stroke="#000000" points="166.2832,-120.5 166.2832,-138.5 275.0957,-138.5 275.0957,-120.5 166.2832,-120.5"/>
<text text-anchor="middle" x="220.6895" y="-126.5" font-family="Helvetica,sans-Serif" font-size="10.00" fill="#000000">DrawFwdKinPoses.h</text>
</a>
</g>
</g>
<!-- Node0&#45;&gt;Node17 -->
<g id="edge17" class="edge">
<title>Node0&#45;&gt;Node17</title>
<path fill="none" stroke="#191970" d="M1417.7743,-257.5042C1159.201,-250.6728 342.9179,-227.3555 291.6895,-204 265.2475,-191.9449 243.7449,-165.1351 231.579,-147.1856"/>
<polygon fill="#191970" stroke="#191970" points="234.4719,-145.2139 226.0914,-138.7318 228.6005,-149.0252 234.4719,-145.2139"/>
</g>
<!-- Node19 -->
<g id="node20" class="node">
<title>Node19</title>
<g id="a_node20"><a xlink:href="iCubGatePose_8h.html" target="_top" xlink:title="iCubGatePose.h">
<polygon fill="#ffffff" stroke="#000000" points="715,-120.5 715,-138.5 804.3789,-138.5 804.3789,-120.5 715,-120.5"/>
<text text-anchor="middle" x="759.6895" y="-126.5" font-family="Helvetica,sans-Serif" font-size="10.00" fill="#000000">iCubGatePose.h</text>
</a>
</g>
</g>
<!-- Node0&#45;&gt;Node19 -->
<g id="edge22" class="edge">
<title>Node0&#45;&gt;Node19</title>
<path fill="none" stroke="#191970" d="M1418.1894,-257.0218C1275.4582,-251.7183 976.6758,-236.9652 878.6895,-204 839.7354,-190.8948 800.4701,-162.7327 778.2032,-145.034"/>
<polygon fill="#191970" stroke="#191970" points="780.2449,-142.1834 770.2749,-138.5986 775.8333,-147.6183 780.2449,-142.1834"/>
</g>
<!-- Node27 -->
<g id="node27" class="node">
<title>Node27</title>
<g id="a_node27"><a xlink:href="iCubFwdKinModel_8h.html" target="_top" xlink:title="iCubFwdKinModel.h">
<polygon fill="#ffffff" stroke="#000000" points="887.9458,-180.5 887.9458,-198.5 993.4331,-198.5 993.4331,-180.5 887.9458,-180.5"/>
<text text-anchor="middle" x="940.6895" y="-186.5" font-family="Helvetica,sans-Serif" font-size="10.00" fill="#000000">iCubFwdKinModel.h</text>
</a>
</g>
</g>
<!-- Node0&#45;&gt;Node27 -->
<g id="edge31" class="edge">
<title>Node0&#45;&gt;Node27</title>
<path fill="none" stroke="#191970" d="M1417.9347,-249.6931C1307.1805,-235.7241 1106.1219,-210.3654 1003.9488,-197.4787"/>
<polygon fill="#191970" stroke="#191970" points="1004.1388,-193.975 993.7794,-196.196 1003.2628,-200.92 1004.1388,-193.975"/>
</g>
<!-- Node30 -->
<g id="node29" class="node">
<title>Node30</title>
<g id="a_node29"><a xlink:href="InitiCubArm_8h.html" target="_top" xlink:title="InitiCubArm.h">
<polygon fill="#ffffff" stroke="#000000" points="1258.4014,-120.5 1258.4014,-138.5 1334.9775,-138.5 1334.9775,-120.5 1258.4014,-120.5"/>
<text text-anchor="middle" x="1296.6895" y="-126.5" font-family="Helvetica,sans-Serif" font-size="10.00" fill="#000000">InitiCubArm.h</text>
</a>
</g>
</g>
<!-- Node0&#45;&gt;Node30 -->
<g id="edge43" class="edge">
<title>Node0&#45;&gt;Node30</title>
<path fill="none" stroke="#191970" d="M1466.3263,-240.3181C1426.2594,-214.1437 1355.3202,-167.8015 1319.1919,-144.2001"/>
<polygon fill="#191970" stroke="#191970" points="1321.0829,-141.2548 1310.7968,-138.7158 1317.2545,-147.1152 1321.0829,-141.2548"/>
</g>
<!-- Node34 -->
<g id="node33" class="node">
<title>Node34</title>
<g id="a_node33"><a xlink:href="PlayFwdKinModel_8h.html" target="_top" xlink:title="PlayFwdKinModel.h">
<polygon fill="#ffffff" stroke="#000000" points="1072.5024,-180.5 1072.5024,-198.5 1176.8765,-198.5 1176.8765,-180.5 1072.5024,-180.5"/>
<text text-anchor="middle" x="1124.6895" y="-186.5" font-family="Helvetica,sans-Serif" font-size="10.00" fill="#000000">PlayFwdKinModel.h</text>
</a>
</g>
</g>
<!-- Node0&#45;&gt;Node34 -->
<g id="edge50" class="edge">
<title>Node0&#45;&gt;Node34</title>
<path fill="none" stroke="#191970" d="M1417.9157,-244.8257C1347.7718,-231.591 1246.1789,-212.4225 1182.8525,-200.4742"/>
<polygon fill="#191970" stroke="#191970" points="1183.1197,-196.9629 1172.6441,-198.548 1181.8218,-203.8415 1183.1197,-196.9629"/>
</g>
<!-- Node35 -->
<g id="node34" class="node">
<title>Node35</title>
<g id="a_node34"><a xlink:href="PlayGatePose_8h.html" target="_top" xlink:title="PlayGatePose.h">
<polygon fill="#ffffff" stroke="#000000" points="1152.5566,-120.5 1152.5566,-138.5 1240.8223,-138.5 1240.8223,-120.5 1152.5566,-120.5"/>
<text text-anchor="middle" x="1196.6895" y="-126.5" font-family="Helvetica,sans-Serif" font-size="10.00" fill="#000000">PlayGatePose.h</text>
</a>
</g>
</g>
<!-- Node0&#45;&gt;Node35 -->
<g id="edge57" class="edge">
<title>Node0&#45;&gt;Node35</title>
<path fill="none" stroke="#191970" d="M1449.0904,-240.4089C1423.5134,-229.8413 1391.2752,-216.3763 1362.6895,-204 1314.6139,-183.1855 1259.1608,-158.0732 1226.0652,-142.9671"/>
<polygon fill="#191970" stroke="#191970" points="1227.0949,-139.5895 1216.5449,-138.616 1224.1851,-145.9561 1227.0949,-139.5895"/>
</g>
<!-- Node36 -->
<g id="node35" class="node">
<title>Node36</title>
<g id="a_node35"><a xlink:href="VisualProprioception_8h.html" target="_top" xlink:title="VisualProprioception.h">
<polygon fill="#ffffff" stroke="#000000" points="1466.748,-120.5 1466.748,-138.5 1582.6309,-138.5 1582.6309,-120.5 1466.748,-120.5"/>
<text text-anchor="middle" x="1524.6895" y="-126.5" font-family="Helvetica,sans-Serif" font-size="10.00" fill="#000000">VisualProprioception.h</text>
</a>
</g>
</g>
<!-- Node0&#45;&gt;Node36 -->
<g id="edge63" class="edge">
<title>Node0&#45;&gt;Node36</title>
<path fill="none" stroke="#191970" d="M1494.54,-240.3275C1494.0307,-222.9489 1494.604,-196.798 1500.6895,-175 1503.3821,-165.3551 1508.32,-155.4305 1513.0199,-147.3214"/>
<polygon fill="#191970" stroke="#191970" points="1516.0263,-149.1141 1518.279,-138.7615 1510.062,-145.4496 1516.0263,-149.1141"/>
</g>
<!-- Node42 -->
<g id="node41" class="node">
<title>Node42</title>
<g id="a_node41"><a xlink:href="VisualSIS_8h.html" target="_top" xlink:title="VisualSIS.h">
<polygon fill="#ffffff" stroke="#ff0000" points="1600.9302,-120.5 1600.9302,-138.5 1668.4487,-138.5 1668.4487,-120.5 1600.9302,-120.5"/>
<text text-anchor="middle" x="1634.6895" y="-126.5" font-family="Helvetica,sans-Serif" font-size="10.00" fill="#000000">VisualSIS.h</text>
</a>
</g>
</g>
<!-- Node0&#45;&gt;Node42 -->
<g id="edge77" class="edge">
<title>Node0&#45;&gt;Node42</title>
<path fill="none" stroke="#191970" d="M1501.4494,-240.1565C1507.8817,-221.4223 1519.9247,-193.2443 1538.6895,-175 1554.0044,-160.1099 1575.1099,-149.3801 1593.6323,-142.0939"/>
<polygon fill="#191970" stroke="#191970" points="1594.8871,-145.3615 1603.0386,-138.5938 1592.4458,-138.801 1594.8871,-145.3615"/>
</g>
<!-- Node52 -->
<g id="node50" class="node">
<title>Node52</title>
<g id="a_node50"><a xlink:href="VisualUpdateParticles_8h.html" target="_top" xlink:title="VisualUpdateParticles.h">
<polygon fill="#ffffff" stroke="#ff0000" points="1580.6938,-180.5 1580.6938,-198.5 1702.6851,-198.5 1702.6851,-180.5 1580.6938,-180.5"/>
<text text-anchor="middle" x="1641.6895" y="-186.5" font-family="Helvetica,sans-Serif" font-size="10.00" fill="#000000">VisualUpdateParticles.h</text>
</a>
</g>
</g>
<!-- Node0&#45;&gt;Node52 -->
<g id="edge96" class="edge">
<title>Node0&#45;&gt;Node52</title>
<path fill="none" stroke="#191970" d="M1535.5846,-240.3722C1560.2961,-228.5242 1591.4286,-213.5977 1613.5655,-202.9841"/>
<polygon fill="#191970" stroke="#191970" points="1615.2482,-206.0589 1622.7522,-198.5795 1612.2218,-199.7469 1615.2482,-206.0589"/>
</g>
<!-- Node14 -->
<g id="node15" class="node">
<title>Node14</title>
<polygon fill="#ffffff" stroke="#bfbfbf" points="371.2856,-60.5 371.2856,-78.5 430.0933,-78.5 430.0933,-60.5 371.2856,-60.5"/>
<text text-anchor="middle" x="400.6895" y="-66.5" font-family="Helvetica,sans-Serif" font-size="10.00" fill="#000000">functional</text>
</g>
<!-- Node13&#45;&gt;Node14 -->
<g id="edge14" class="edge">
<title>Node13&#45;&gt;Node14</title>
<path fill="none" stroke="#191970" d="M396.4488,-120.3873C397.1463,-112.0174 398.2027,-99.3414 399.0865,-88.735"/>
<polygon fill="#191970" stroke="#191970" points="402.5803,-88.9546 399.9229,-78.6985 395.6045,-88.3732 402.5803,-88.9546"/>
</g>
<!-- Node15 -->
<g id="node16" class="node">
<title>Node15</title>
<polygon fill="#ffffff" stroke="#bfbfbf" points="195.7363,-60.5 195.7363,-78.5 245.6426,-78.5 245.6426,-60.5 195.7363,-60.5"/>
<text text-anchor="middle" x="220.6895" y="-66.5" font-family="Helvetica,sans-Serif" font-size="10.00" fill="#000000">random</text>
</g>
<!-- Node13&#45;&gt;Node15 -->
<g id="edge15" class="edge">
<title>Node13&#45;&gt;Node15</title>
<path fill="none" stroke="#191970" d="M364.8827,-120.4424C336.1306,-111.7811 292.1567,-98.0015 254.6895,-84 253.2994,-83.4805 251.883,-82.9366 250.4564,-82.3768"/>
<polygon fill="#191970" stroke="#191970" points="251.6454,-79.0819 241.0642,-78.5452 249.0012,-85.5633 251.6454,-79.0819"/>
</g>
<!-- Node16 -->
<g id="node17" class="node">
<title>Node16</title>
<polygon fill="#ffffff" stroke="#bfbfbf" points="277.3301,-.5 277.3301,-18.5 410.0488,-18.5 410.0488,-.5 277.3301,-.5"/>
<text text-anchor="middle" x="343.6895" y="-6.5" font-family="Helvetica,sans-Serif" font-size="10.00" fill="#000000">BayesFilters/StateModel.h</text>
</g>
<!-- Node13&#45;&gt;Node16 -->
<g id="edge16" class="edge">
<title>Node13&#45;&gt;Node16</title>
<path fill="none" stroke="#191970" d="M387.4765,-120.4046C379.9941,-111.663 369.1541,-97.7819 362.6895,-84 354.2965,-66.1072 349.2563,-43.9907 346.4981,-28.5214"/>
<polygon fill="#191970" stroke="#191970" points="349.9421,-27.8938 344.8777,-18.5877 343.0334,-29.0208 349.9421,-27.8938"/>
</g>
<!-- Node17&#45;&gt;Node4 -->
<g id="edge18" class="edge">
<title>Node17&#45;&gt;Node4</title>
<path fill="none" stroke="#191970" d="M231.1691,-120.3873C241.8076,-111.1364 258.4957,-96.625 271.3334,-85.4618"/>
<polygon fill="#191970" stroke="#191970" points="273.8618,-87.9014 279.1112,-78.6985 269.2685,-82.6192 273.8618,-87.9014"/>
</g>
<!-- Node17&#45;&gt;Node15 -->
<g id="edge19" class="edge">
<title>Node17&#45;&gt;Node15</title>
<path fill="none" stroke="#191970" d="M220.6895,-120.3873C220.6895,-112.0174 220.6895,-99.3414 220.6895,-88.735"/>
<polygon fill="#191970" stroke="#191970" points="224.1896,-88.6984 220.6895,-78.6985 217.1896,-88.6985 224.1896,-88.6984"/>
</g>
<!-- Node17&#45;&gt;Node16 -->
<g id="edge21" class="edge">
<title>Node17&#45;&gt;Node16</title>
<path fill="none" stroke="#191970" d="M210.4049,-120.0987C195.4149,-105.2512 170.9756,-75.9144 186.6895,-55 197.9953,-39.9524 239.7362,-28.2828 277.3369,-20.5306"/>
<polygon fill="#191970" stroke="#191970" points="278.1701,-23.9335 287.2932,-18.5466 276.802,-17.0684 278.1701,-23.9335"/>
</g>
<!-- Node18 -->
<g id="node19" class="node">
<title>Node18</title>
<polygon fill="#ffffff" stroke="#bfbfbf" points="0,-60.5 0,-78.5 139.3789,-78.5 139.3789,-60.5 0,-60.5"/>
<text text-anchor="middle" x="69.6895" y="-66.5" font-family="Helvetica,sans-Serif" font-size="10.00" fill="#000000">BayesFilters/PFPrediction.h</text>
</g>
<!-- Node17&#45;&gt;Node18 -->
<g id="edge20" class="edge">
<title>Node17&#45;&gt;Node18</title>
<path fill="none" stroke="#191970" d="M197.7558,-120.3873C172.2203,-110.2407 130.7584,-93.7658 101.9568,-82.3215"/>
<polygon fill="#191970" stroke="#191970" points="102.9299,-78.942 92.3442,-78.5019 100.345,-85.4472 102.9299,-78.942"/>
</g>
<!-- Node19&#45;&gt;Node6 -->
<g id="edge29" class="edge">
<title>Node19&#45;&gt;Node6</title>
<path fill="none" stroke="#191970" d="M753.6143,-120.3873C747.7407,-111.5769 738.6862,-97.9951 731.4084,-87.0784"/>
<polygon fill="#191970" stroke="#191970" points="734.281,-85.0775 725.8218,-78.6985 728.4566,-88.9605 734.281,-85.0775"/>
</g>
<!-- Node20 -->
<g id="node21" class="node">
<title>Node20</title>
<g id="a_node21"><a xlink:href="GatePose_8h.html" target="_top" xlink:title="GatePose.h">
<polygon fill="#ffffff" stroke="#ff0000" points="577.2832,-60.5 577.2832,-78.5 646.0957,-78.5 646.0957,-60.5 577.2832,-60.5"/>
<text text-anchor="middle" x="611.6895" y="-66.5" font-family="Helvetica,sans-Serif" font-size="10.00" fill="#000000">GatePose.h</text>
</a>
</g>
</g>
<!-- Node19&#45;&gt;Node20 -->
<g id="edge23" class="edge">
<title>Node19&#45;&gt;Node20</title>
<path fill="none" stroke="#191970" d="M737.2114,-120.3873C712.1833,-110.2407 671.5451,-93.7658 643.3157,-82.3215"/>
<polygon fill="#191970" stroke="#191970" points="644.4765,-79.0154 633.8941,-78.5019 641.8465,-85.5026 644.4765,-79.0154"/>
</g>
<!-- Node23 -->
<g id="node23" class="node">
<title>Node23</title>
<polygon fill="#ffffff" stroke="#bfbfbf" points="923.3374,-60.5 923.3374,-78.5 1026.0415,-78.5 1026.0415,-60.5 923.3374,-60.5"/>
<text text-anchor="middle" x="974.6895" y="-66.5" font-family="Helvetica,sans-Serif" font-size="10.00" fill="#000000">iCub/iKin/iKinFwd.h</text>
</g>
<!-- Node19&#45;&gt;Node23 -->
<g id="edge26" class="edge">
<title>Node19&#45;&gt;Node23</title>
<path fill="none" stroke="#191970" d="M792.3433,-120.3873C829.8926,-109.9084 891.6282,-92.6799 932.7157,-81.2136"/>
<polygon fill="#191970" stroke="#191970" points="933.7416,-84.5611 942.4327,-78.5019 931.8599,-77.8187 933.7416,-84.5611"/>
</g>
<!-- Node24 -->
<g id="node24" class="node">
<title>Node24</title>
<polygon fill="#ffffff" stroke="#bfbfbf" points="448.4409,-60.5 448.4409,-78.5 558.938,-78.5 558.938,-60.5 448.4409,-60.5"/>
<text text-anchor="middle" x="503.6895" y="-66.5" font-family="Helvetica,sans-Serif" font-size="10.00" fill="#000000">yarp/dev/IEncoders.h</text>
</g>
<!-- Node19&#45;&gt;Node24 -->
<g id="edge27" class="edge">
<title>Node19&#45;&gt;Node24</title>
<path fill="none" stroke="#191970" d="M721.0865,-120.4524C675.8723,-109.8554 600.9338,-92.2916 551.9283,-80.806"/>
<polygon fill="#191970" stroke="#191970" points="552.7222,-77.3973 542.1873,-78.5229 551.1248,-84.2126 552.7222,-77.3973"/>
</g>
<!-- Node25 -->
<g id="node25" class="node">
<title>Node25</title>
<polygon fill="#ffffff" stroke="#bfbfbf" points="794.1675,-60.5 794.1675,-78.5 905.2114,-78.5 905.2114,-60.5 794.1675,-60.5"/>
<text text-anchor="middle" x="849.6895" y="-66.5" font-family="Helvetica,sans-Serif" font-size="10.00" fill="#000000">yarp/dev/PolyDriver.h</text>
</g>
<!-- Node19&#45;&gt;Node25 -->
<g id="edge28" class="edge">
<title>Node19&#45;&gt;Node25</title>
<path fill="none" stroke="#191970" d="M773.3585,-120.3873C787.7143,-110.8168 810.5155,-95.6159 827.4639,-84.3171"/>
<polygon fill="#191970" stroke="#191970" points="829.8076,-86.9611 836.1866,-78.5019 825.9247,-81.1367 829.8076,-86.9611"/>
</g>
<!-- Node26 -->
<g id="node26" class="node">
<title>Node26</title>
<polygon fill="#ffffff" stroke="#bfbfbf" points="1043.7192,-60.5 1043.7192,-78.5 1133.6597,-78.5 1133.6597,-60.5 1043.7192,-60.5"/>
<text text-anchor="middle" x="1088.6895" y="-66.5" font-family="Helvetica,sans-Serif" font-size="10.00" fill="#000000">yarp/sig/Vector.h</text>
</g>
<!-- Node19&#45;&gt;Node26 -->
<g id="edge30" class="edge">
<title>Node19&#45;&gt;Node26</title>
<path fill="none" stroke="#191970" d="M804.7204,-123.4373C859.3982,-115.7569 954.2846,-101.4026 1034.6895,-84 1038.7987,-83.1106 1043.0632,-82.1071 1047.3128,-81.0536"/>
<polygon fill="#191970" stroke="#191970" points="1048.3064,-84.4121 1057.1215,-78.5346 1046.5652,-77.6321 1048.3064,-84.4121"/>
</g>
<!-- Node20&#45;&gt;Node16 -->
<g id="edge25" class="edge">
<title>Node20&#45;&gt;Node16</title>
<path fill="none" stroke="#191970" d="M585.7835,-60.4002C579.8758,-58.4826 573.5977,-56.5677 567.6895,-55 514.0229,-40.7598 452.106,-28.4939 406.9887,-20.298"/>
<polygon fill="#191970" stroke="#191970" points="407.513,-16.8362 397.0511,-18.5091 406.2729,-23.7254 407.513,-16.8362"/>
</g>
<!-- Node21 -->
<g id="node22" class="node">
<title>Node21</title>
<polygon fill="#ffffff" stroke="#bfbfbf" points="1199.4629,-.5 1199.4629,-18.5 1239.916,-18.5 1239.916,-.5 1199.4629,-.5"/>
<text text-anchor="middle" x="1219.6895" y="-6.5" font-family="Helvetica,sans-Serif" font-size="10.00" fill="#000000">string</text>
</g>
<!-- Node20&#45;&gt;Node21 -->
<g id="edge24" class="edge">
<title>Node20&#45;&gt;Node21</title>
<path fill="none" stroke="#191970" d="M635.0603,-60.464C641.3494,-58.3522 648.2073,-56.3329 654.6895,-55 758.3872,-33.6774 1086.885,-16.0561 1189.0569,-10.9765"/>
<polygon fill="#191970" stroke="#191970" points="1189.4866,-14.4596 1199.3022,-10.4716 1189.142,-7.4681 1189.4866,-14.4596"/>
</g>
<!-- Node27&#45;&gt;Node6 -->
<g id="edge41" class="edge">
<title>Node27&#45;&gt;Node6</title>
<path fill="none" stroke="#191970" d="M887.8594,-185.6989C825.717,-180.0005 728.1449,-166.7936 705.6895,-139 694.0141,-124.5492 700.9731,-102.9786 708.6515,-87.7074"/>
<polygon fill="#191970" stroke="#191970" points="711.8442,-89.1661 713.6126,-78.7199 705.7158,-85.7833 711.8442,-89.1661"/>
</g>
<!-- Node27&#45;&gt;Node23 -->
<g id="edge38" class="edge">
<title>Node27&#45;&gt;Node23</title>
<path fill="none" stroke="#191970" d="M955.0087,-180.2722C967.3472,-171.3877 984.3025,-156.7103 991.6895,-139 998.6156,-122.3945 992.2621,-102.331 985.4388,-88.0383"/>
<polygon fill="#191970" stroke="#191970" points="988.3234,-86.004 980.5705,-78.7829 982.1282,-89.2627 988.3234,-86.004"/>
</g>
<!-- Node27&#45;&gt;Node24 -->
<g id="edge40" class="edge">
<title>Node27&#45;&gt;Node24</title>
<path fill="none" stroke="#191970" d="M887.5889,-180.8332C837.6032,-172.1401 760.8875,-157.416 695.6895,-139 637.9103,-122.6795 572.5457,-97.5342 534.9219,-82.384"/>
<polygon fill="#191970" stroke="#191970" points="536.1077,-79.0881 525.5253,-78.5754 533.4782,-85.5755 536.1077,-79.0881"/>
</g>
<!-- Node27&#45;&gt;Node25 -->
<g id="edge39" class="edge">
<title>Node27&#45;&gt;Node25</title>
<path fill="none" stroke="#191970" d="M929.6848,-180.1851C918.735,-170.573 901.8544,-154.7952 889.6895,-139 877.2488,-122.8467 865.9511,-102.4296 858.5603,-87.9138"/>
<polygon fill="#191970" stroke="#191970" points="861.4867,-85.9367 853.9086,-78.5324 855.2153,-89.0463 861.4867,-85.9367"/>
</g>
<!-- Node27&#45;&gt;Node26 -->
<g id="edge42" class="edge">
<title>Node27&#45;&gt;Node26</title>
<path fill="none" stroke="#191970" d="M952.9952,-180.3725C966.3588,-170.3938 988.2627,-153.8432 1006.6895,-139 1028.9658,-121.0558 1053.9636,-99.6837 1070.4377,-85.4218"/>
<polygon fill="#191970" stroke="#191970" points="1072.9601,-87.8669 1078.216,-78.6676 1068.3705,-82.5814 1072.9601,-87.8669"/>
</g>
<!-- Node28 -->
<g id="node28" class="node">
<title>Node28</title>
<g id="a_node28"><a xlink:href="FwdKinModel_8h.html" target="_top" xlink:title="FwdKinModel.h">
<polygon fill="#ffffff" stroke="#ff0000" points="898.229,-120.5 898.229,-138.5 983.1499,-138.5 983.1499,-120.5 898.229,-120.5"/>
<text text-anchor="middle" x="940.6895" y="-126.5" font-family="Helvetica,sans-Serif" font-size="10.00" fill="#000000">FwdKinModel.h</text>
</a>
</g>
</g>
<!-- Node27&#45;&gt;Node28 -->
<g id="edge32" class="edge">
<title>Node27&#45;&gt;Node28</title>
<path fill="none" stroke="#191970" d="M940.6895,-180.3873C940.6895,-172.0174 940.6895,-159.3414 940.6895,-148.735"/>
<polygon fill="#191970" stroke="#191970" points="944.1896,-148.6984 940.6895,-138.6985 937.1896,-148.6985 944.1896,-148.6984"/>
</g>
<!-- Node28&#45;&gt;Node6 -->
<g id="edge36" class="edge">
<title>Node28&#45;&gt;Node6</title>
<path fill="none" stroke="#191970" d="M907.1243,-120.3873C868.4456,-109.8863 804.8003,-92.607 762.567,-81.141"/>
<polygon fill="#191970" stroke="#191970" points="763.4141,-77.7443 752.8464,-78.5019 761.58,-84.4998 763.4141,-77.7443"/>
</g>
<!-- Node28&#45;&gt;Node23 -->
<g id="edge33" class="edge">
<title>Node28&#45;&gt;Node23</title>
<path fill="none" stroke="#191970" d="M945.8533,-120.3873C950.7959,-111.665 958.3886,-98.2663 964.5423,-87.4067"/>
<polygon fill="#191970" stroke="#191970" points="967.5919,-89.1243 969.477,-78.6985 961.5017,-85.6731 967.5919,-89.1243"/>
</g>
<!-- Node28&#45;&gt;Node24 -->
<g id="edge35" class="edge">
<title>Node28&#45;&gt;Node24</title>
<path fill="none" stroke="#191970" d="M898.0922,-125.6574C828.7581,-119.0966 687.3117,-104.435 568.6895,-84 562.9959,-83.0192 557.0485,-81.8688 551.1634,-80.6524"/>
<polygon fill="#191970" stroke="#191970" points="551.8841,-77.2275 541.3736,-78.5614 550.4219,-84.0731 551.8841,-77.2275"/>
</g>
<!-- Node28&#45;&gt;Node25 -->
<g id="edge34" class="edge">
<title>Node28&#45;&gt;Node25</title>
<path fill="none" stroke="#191970" d="M926.8685,-120.3873C912.3532,-110.8168 889.2986,-95.6159 872.162,-84.3171"/>
<polygon fill="#191970" stroke="#191970" points="873.6176,-81.0845 863.3423,-78.5019 869.7643,-86.9285 873.6176,-81.0845"/>
</g>
<!-- Node28&#45;&gt;Node26 -->
<g id="edge37" class="edge">
<title>Node28&#45;&gt;Node26</title>
<path fill="none" stroke="#191970" d="M963.1675,-120.3873C988.1956,-110.2407 1028.8338,-93.7658 1057.0632,-82.3215"/>
<polygon fill="#191970" stroke="#191970" points="1058.5324,-85.5026 1066.4848,-78.5019 1055.9024,-79.0154 1058.5324,-85.5026"/>
</g>
<!-- Node30&#45;&gt;Node6 -->
<g id="edge48" class="edge">
<title>Node30&#45;&gt;Node6</title>
<path fill="none" stroke="#191970" d="M1258.2809,-121.3388C1255.3806,-120.8446 1252.4928,-120.3903 1249.6895,-120 1044.3851,-91.4129 989.697,-114.643 784.6895,-84 778.536,-83.0802 772.0974,-81.9064 765.7654,-80.626"/>
<polygon fill="#191970" stroke="#191970" points="766.4677,-77.1972 755.9593,-78.5475 765.0162,-84.0451 766.4677,-77.1972"/>
</g>
<!-- Node30&#45;&gt;Node23 -->
<g id="edge45" class="edge">
<title>Node30&#45;&gt;Node23</title>
<path fill="none" stroke="#191970" d="M1258.2356,-121.6182C1255.3458,-121.0593 1252.4728,-120.5142 1249.6895,-120 1154.4156,-102.4 1129.6148,-103.3917 1034.6895,-84 1029.9515,-83.0321 1025.0196,-81.9549 1020.1093,-80.837"/>
<polygon fill="#191970" stroke="#191970" points="1020.6637,-77.3724 1010.1298,-78.5072 1019.0722,-84.1891 1020.6637,-77.3724"/>
</g>
<!-- Node30&#45;&gt;Node26 -->
<g id="edge49" class="edge">
<title>Node30&#45;&gt;Node26</title>
<path fill="none" stroke="#191970" d="M1265.0987,-120.3873C1228.8488,-109.9306 1169.2988,-92.7527 1129.549,-81.2864"/>
<polygon fill="#191970" stroke="#191970" points="1130.4743,-77.9107 1119.8959,-78.5019 1128.5341,-84.6364 1130.4743,-77.9107"/>
</g>
<!-- Node31 -->
<g id="node30" class="node">
<title>Node31</title>
<polygon fill="#ffffff" stroke="#bfbfbf" points="1151.4976,-60.5 1151.4976,-78.5 1285.8813,-78.5 1285.8813,-60.5 1151.4976,-60.5"/>
<text text-anchor="middle" x="1218.6895" y="-66.5" font-family="Helvetica,sans-Serif" font-size="10.00" fill="#000000">BayesFilters/Initialization.h</text>
</g>
<!-- Node30&#45;&gt;Node31 -->
<g id="edge44" class="edge">
<title>Node30&#45;&gt;Node31</title>
<path fill="none" stroke="#191970" d="M1284.8429,-120.3873C1272.5164,-110.9054 1253.0055,-95.897 1238.3609,-84.6319"/>
<polygon fill="#191970" stroke="#191970" points="1240.4522,-81.8248 1230.3919,-78.5019 1236.1841,-87.3732 1240.4522,-81.8248"/>
</g>
<!-- Node32 -->
<g id="node31" class="node">
<title>Node32</title>
<polygon fill="#ffffff" stroke="#bfbfbf" points="1303.9482,-60.5 1303.9482,-78.5 1389.4307,-78.5 1389.4307,-60.5 1303.9482,-60.5"/>
<text text-anchor="middle" x="1346.6895" y="-66.5" font-family="Helvetica,sans-Serif" font-size="10.00" fill="#000000">yarp/os/Bottle.h</text>
</g>
<!-- Node30&#45;&gt;Node32 -->
<g id="edge46" class="edge">
<title>Node30&#45;&gt;Node32</title>
<path fill="none" stroke="#191970" d="M1304.2834,-120.3873C1311.7722,-111.4007 1323.3978,-97.4499 1332.5839,-86.4267"/>
<polygon fill="#191970" stroke="#191970" points="1335.311,-88.6214 1339.0241,-78.6985 1329.9334,-84.14 1335.311,-88.6214"/>
</g>
<!-- Node33 -->
<g id="node32" class="node">
<title>Node33</title>
<polygon fill="#ffffff" stroke="#bfbfbf" points="1407.7505,-60.5 1407.7505,-78.5 1523.6284,-78.5 1523.6284,-60.5 1407.7505,-60.5"/>
<text text-anchor="middle" x="1465.6895" y="-66.5" font-family="Helvetica,sans-Serif" font-size="10.00" fill="#000000">yarp/os/BufferedPort.h</text>
</g>
<!-- Node30&#45;&gt;Node33 -->
<g id="edge47" class="edge">
<title>Node30&#45;&gt;Node33</title>
<path fill="none" stroke="#191970" d="M1322.3569,-120.3873C1351.3108,-110.1078 1398.5596,-93.3331 1430.8352,-81.8743"/>
<polygon fill="#191970" stroke="#191970" points="1432.0815,-85.1459 1440.3342,-78.5019 1429.7394,-78.5493 1432.0815,-85.1459"/>
</g>
<!-- Node34&#45;&gt;Node6 -->
<g id="edge55" class="edge">
<title>Node34&#45;&gt;Node6</title>
<path fill="none" stroke="#191970" d="M1072.2058,-180.9613C1024.1271,-172.4964 951.285,-158.0458 889.6895,-139 838.3977,-123.1402 781.0347,-98.077 747.7762,-82.7782"/>
<polygon fill="#191970" stroke="#191970" points="749.2053,-79.583 738.6608,-78.5514 746.2605,-85.9334 749.2053,-79.583"/>
</g>
<!-- Node34&#45;&gt;Node23 -->
<g id="edge52" class="edge">
<title>Node34&#45;&gt;Node23</title>
<path fill="none" stroke="#191970" d="M1113.4151,-180.4805C1088.0056,-160.1529 1026.0105,-110.5568 994.2083,-85.1151"/>
<polygon fill="#191970" stroke="#191970" points="996.0898,-82.1381 986.0947,-78.6242 991.7169,-87.6042 996.0898,-82.1381"/>
</g>
<!-- Node34&#45;&gt;Node26 -->
<g id="edge56" class="edge">
<title>Node34&#45;&gt;Node26</title>
<path fill="none" stroke="#191970" d="M1121.9836,-180.4805C1116.1459,-161.0216 1102.2622,-114.7423 1094.391,-88.505"/>
<polygon fill="#191970" stroke="#191970" points="1097.6526,-87.1967 1091.4267,-78.6242 1090.9479,-89.2082 1097.6526,-87.1967"/>
</g>
<!-- Node34&#45;&gt;Node28 -->
<g id="edge51" class="edge">
<title>Node34&#45;&gt;Node28</title>
<path fill="none" stroke="#191970" d="M1096.7438,-180.3873C1065.0842,-170.0635 1013.3337,-153.1883 978.1838,-141.7264"/>
<polygon fill="#191970" stroke="#191970" points="978.8876,-138.2746 968.2952,-138.5019 976.7174,-144.9297 978.8876,-138.2746"/>
</g>
<!-- Node34&#45;&gt;Node32 -->
<g id="edge53" class="edge">
<title>Node34&#45;&gt;Node32</title>
<path fill="none" stroke="#191970" d="M1177.1038,-184.6345C1234.9674,-178.0747 1322.7344,-164.2017 1343.6895,-139 1355.1222,-125.2504 1354.3338,-104.157 1351.6365,-88.814"/>
<polygon fill="#191970" stroke="#191970" points="1355.0157,-87.8807 1349.4826,-78.8455 1348.1736,-89.3592 1355.0157,-87.8807"/>
</g>
<!-- Node34&#45;&gt;Node33 -->
<g id="edge54" class="edge">
<title>Node34&#45;&gt;Node33</title>
<path fill="none" stroke="#191970" d="M1177.2505,-184.0889C1226.448,-177.6965 1301.2295,-164.5283 1361.6895,-139 1394.1037,-125.3136 1427.1468,-101.1121 1447.0386,-85.1879"/>
<polygon fill="#191970" stroke="#191970" points="1449.4259,-87.7573 1454.9608,-78.7232 1445.0002,-82.3339 1449.4259,-87.7573"/>
</g>
<!-- Node35&#45;&gt;Node20 -->
<g id="edge58" class="edge">
<title>Node35&#45;&gt;Node20</title>
<path fill="none" stroke="#191970" d="M1152.4203,-127.1647C1040.717,-121.0505 749.5772,-103.679 654.6895,-84 651.4495,-83.3281 648.1153,-82.4863 644.8049,-81.5486"/>
<polygon fill="#191970" stroke="#191970" points="645.6516,-78.1466 635.0634,-78.5211 643.5741,-84.8313 645.6516,-78.1466"/>
</g>
<!-- Node35&#45;&gt;Node23 -->
<g id="edge59" class="edge">
<title>Node35&#45;&gt;Node23</title>
<path fill="none" stroke="#191970" d="M1162.9724,-120.3873C1124.1187,-109.8863 1060.1854,-92.607 1017.761,-81.141"/>
<polygon fill="#191970" stroke="#191970" points="1018.5632,-77.7323 1007.9964,-78.5019 1016.7368,-84.4898 1018.5632,-77.7323"/>
</g>
<!-- Node35&#45;&gt;Node26 -->
<g id="edge62" class="edge">
<title>Node35&#45;&gt;Node26</title>
<path fill="none" stroke="#191970" d="M1180.2866,-120.3873C1162.5811,-110.5509 1134.1702,-94.7671 1113.682,-83.3847"/>
<polygon fill="#191970" stroke="#191970" points="1115.3342,-80.2988 1104.8928,-78.5019 1111.9346,-86.4179 1115.3342,-80.2988"/>
</g>
<!-- Node35&#45;&gt;Node32 -->
<g id="edge60" class="edge">
<title>Node35&#45;&gt;Node32</title>
<path fill="none" stroke="#191970" d="M1219.4712,-120.3873C1244.8376,-110.2407 1286.0249,-93.7658 1314.6358,-82.3215"/>
<polygon fill="#191970" stroke="#191970" points="1316.1999,-85.4655 1324.1848,-78.5019 1313.6001,-78.9662 1316.1999,-85.4655"/>
</g>
<!-- Node35&#45;&gt;Node33 -->
<g id="edge61" class="edge">
<title>Node35&#45;&gt;Node33</title>
<path fill="none" stroke="#191970" d="M1237.2527,-120.4524C1284.8621,-109.8332 1363.8359,-92.2183 1415.3231,-80.7341"/>
<polygon fill="#191970" stroke="#191970" points="1416.2384,-84.1161 1425.2366,-78.5229 1414.7145,-77.2839 1416.2384,-84.1161"/>
</g>
<!-- Node36&#45;&gt;Node6 -->
<g id="edge74" class="edge">
<title>Node36&#45;&gt;Node6</title>
<path fill="none" stroke="#191970" d="M1466.6298,-126.4605C1303.9851,-117.871 851.4002,-93.4314 784.6895,-84 778.4537,-83.1184 771.929,-81.9556 765.5204,-80.671"/>
<polygon fill="#191970" stroke="#191970" points="766.1115,-77.2187 755.6038,-78.5753 764.664,-84.0674 766.1115,-77.2187"/>
</g>
<!-- Node36&#45;&gt;Node11 -->
<g id="edge67" class="edge">
<title>Node36&#45;&gt;Node11</title>
<path fill="none" stroke="#191970" d="M1536.2322,-120.3873C1548.0616,-111.0483 1566.6818,-96.3481 1580.874,-85.1438"/>
<polygon fill="#191970" stroke="#191970" points="1583.358,-87.642 1589.0381,-78.6985 1579.0204,-82.1479 1583.358,-87.642"/>
</g>
<!-- Node36&#45;&gt;Node21 -->
<g id="edge64" class="edge">
<title>Node36&#45;&gt;Node21</title>
<path fill="none" stroke="#191970" d="M1582.9308,-121.1298C1664.9602,-109.206 1805.0297,-88.2927 1808.6895,-84 1817.0514,-74.1918 1817.4453,-64.4583 1808.6895,-55 1789.5393,-34.3134 1368.7476,-15.5955 1250.4046,-10.726"/>
<polygon fill="#191970" stroke="#191970" points="1250.3612,-7.2214 1240.2268,-10.3108 1250.0758,-14.2156 1250.3612,-7.2214"/>
</g>
<!-- Node36&#45;&gt;Node23 -->
<g id="edge66" class="edge">
<title>Node36&#45;&gt;Node23</title>
<path fill="none" stroke="#191970" d="M1466.636,-126.8295C1374.5475,-121.9837 1189.5486,-109.7633 1034.6895,-84 1029.3378,-83.1097 1023.7563,-82.0044 1018.2453,-80.8041"/>
<polygon fill="#191970" stroke="#191970" points="1018.995,-77.3852 1008.4662,-78.5666 1017.4337,-84.2089 1018.995,-77.3852"/>
</g>
<!-- Node36&#45;&gt;Node25 -->
<g id="edge71" class="edge">
<title>Node36&#45;&gt;Node25</title>
<path fill="none" stroke="#191970" d="M1466.4496,-126.2381C1335.3163,-118.7175 1020.1355,-99.6097 914.6895,-84 908.5347,-83.0889 902.0953,-81.9201 895.763,-80.6422"/>
<polygon fill="#191970" stroke="#191970" points="896.4647,-77.2133 885.9566,-78.5658 895.0146,-84.0615 896.4647,-77.2133"/>
</g>
<!-- Node36&#45;&gt;Node26 -->
<g id="edge76" class="edge">
<title>Node36&#45;&gt;Node26</title>
<path fill="none" stroke="#191970" d="M1466.6925,-125.2035C1391.4876,-119.0368 1256.4721,-105.9347 1142.6895,-84 1138.2811,-83.1502 1133.7031,-82.1341 1129.1605,-81.0397"/>
<polygon fill="#191970" stroke="#191970" points="1129.9062,-77.618 1119.3526,-78.5526 1128.1855,-84.4033 1129.9062,-77.618"/>
</g>
<!-- Node36&#45;&gt;Node32 -->
<g id="edge72" class="edge">
<title>Node36&#45;&gt;Node32</title>
<path fill="none" stroke="#191970" d="M1497.6551,-120.3873C1467.0279,-110.0635 1416.9649,-93.1883 1382.9612,-81.7264"/>
<polygon fill="#191970" stroke="#191970" points="1383.9891,-78.3795 1373.395,-78.5019 1381.7532,-85.0128 1383.9891,-78.3795"/>
</g>
<!-- Node36&#45;&gt;Node33 -->
<g id="edge73" class="edge">
<title>Node36&#45;&gt;Node33</title>
<path fill="none" stroke="#191970" d="M1515.7286,-120.3873C1506.8052,-111.3126 1492.9041,-97.1759 1482.016,-86.1033"/>
<polygon fill="#191970" stroke="#191970" points="1484.2416,-83.3747 1474.7346,-78.6985 1479.2504,-88.2827 1484.2416,-83.3747"/>
</g>
<!-- Node37 -->
<g id="node36" class="node">
<title>Node37</title>
<polygon fill="#ffffff" stroke="#bfbfbf" points="1855.3047,-55.5 1855.3047,-83.5 2010.0742,-83.5 2010.0742,-55.5 1855.3047,-55.5"/>
<text text-anchor="start" x="1863.3047" y="-71.5" font-family="Helvetica,sans-Serif" font-size="10.00" fill="#000000">BayesFilters/VisualObservation</text>
<text text-anchor="middle" x="1932.6895" y="-61.5" font-family="Helvetica,sans-Serif" font-size="10.00" fill="#000000">Model.h</text>
</g>
<!-- Node36&#45;&gt;Node37 -->
<g id="edge65" class="edge">
<title>Node36&#45;&gt;Node37</title>
<path fill="none" stroke="#191970" d="M1582.9176,-121.1921C1667.4182,-109.1281 1816.7115,-87.7823 1841.6895,-84 1842.7967,-83.8323 1843.9114,-83.663 1845.0324,-83.4922"/>
<polygon fill="#191970" stroke="#191970" points="1845.9038,-86.8995 1855.2564,-81.9216 1844.8409,-79.9806 1845.9038,-86.8995"/>
</g>
<!-- Node38 -->
<g id="node37" class="node">
<title>Node38</title>
<polygon fill="#ffffff" stroke="#bfbfbf" points="2028.1626,-60.5 2028.1626,-78.5 2169.2163,-78.5 2169.2163,-60.5 2028.1626,-60.5"/>
<text text-anchor="middle" x="2098.6895" y="-66.5" font-family="Helvetica,sans-Serif" font-size="10.00" fill="#000000">SuperimposeMesh/SICAD.h</text>
</g>
<!-- Node36&#45;&gt;Node38 -->
<g id="edge68" class="edge">
<title>Node36&#45;&gt;Node38</title>
<path fill="none" stroke="#191970" d="M1582.7684,-121.0594C1585.7835,-120.6855 1588.7709,-120.3297 1591.6895,-120 1780.937,-98.623 1829.8879,-109.0112 2018.6895,-84 2026.6479,-82.9457 2035.0189,-81.6442 2043.2262,-80.2573"/>
<polygon fill="#191970" stroke="#191970" points="2043.8665,-83.6986 2053.1174,-78.5342 2042.665,-76.8024 2043.8665,-83.6986"/>
</g>
<!-- Node39 -->
<g id="node38" class="node">
<title>Node39</title>
<polygon fill="#ffffff" stroke="#bfbfbf" points="1677.8843,-60.5 1677.8843,-78.5 1799.4946,-78.5 1799.4946,-60.5 1677.8843,-60.5"/>
<text text-anchor="middle" x="1738.6895" y="-66.5" font-family="Helvetica,sans-Serif" font-size="10.00" fill="#000000">yarp/dev/GazeControl.h</text>
</g>
<!-- Node36&#45;&gt;Node39 -->
<g id="edge69" class="edge">
<title>Node36&#45;&gt;Node39</title>
<path fill="none" stroke="#191970" d="M1557.1914,-120.3873C1594.566,-109.9084 1656.0145,-92.6799 1696.9109,-81.2136"/>
<polygon fill="#191970" stroke="#191970" points="1697.899,-84.5716 1706.5828,-78.5019 1696.0092,-77.8315 1697.899,-84.5716"/>
</g>
<!-- Node40 -->
<g id="node39" class="node">
<title>Node40</title>
<polygon fill="#ffffff" stroke="#bfbfbf" points="2187.4263,-60.5 2187.4263,-78.5 2317.9526,-78.5 2317.9526,-60.5 2187.4263,-60.5"/>
<text text-anchor="middle" x="2252.6895" y="-66.5" font-family="Helvetica,sans-Serif" font-size="10.00" fill="#000000">yarp/dev/IAnalogSensor.h</text>
</g>
<!-- Node36&#45;&gt;Node40 -->
<g id="edge70" class="edge">
<title>Node36&#45;&gt;Node40</title>
<path fill="none" stroke="#191970" d="M1582.7597,-120.9778C1585.777,-120.6253 1588.7674,-120.2963 1591.6895,-120 1851.7351,-93.632 1919.4278,-117.2027 2178.6895,-84 2186.1835,-83.0403 2194.0594,-81.7763 2201.7642,-80.3942"/>
<polygon fill="#191970" stroke="#191970" points="2202.5629,-83.8055 2211.7478,-78.5247 2201.2744,-76.9251 2202.5629,-83.8055"/>
</g>
<!-- Node41 -->
<g id="node40" class="node">
<title>Node41</title>
<polygon fill="#ffffff" stroke="#bfbfbf" points="2336.0122,-60.5 2336.0122,-78.5 2425.3667,-78.5 2425.3667,-60.5 2336.0122,-60.5"/>
<text text-anchor="middle" x="2380.6895" y="-66.5" font-family="Helvetica,sans-Serif" font-size="10.00" fill="#000000">yarp/sig/Matrix.h</text>
</g>
<!-- Node36&#45;&gt;Node41 -->
<g id="edge75" class="edge">
<title>Node36&#45;&gt;Node41</title>
<path fill="none" stroke="#191970" d="M1582.7553,-120.9339C1585.7738,-120.5928 1588.7656,-120.2783 1591.6895,-120 1917.2762,-89.0099 2003.5843,-134.6966 2326.6895,-84 2331.5293,-83.2406 2336.5596,-82.2171 2341.5171,-81.0631"/>
<polygon fill="#191970" stroke="#191970" points="2342.6606,-84.3847 2351.5067,-78.5539 2340.9553,-77.5956 2342.6606,-84.3847"/>
</g>
<!-- Node42&#45;&gt;Node1 -->
<g id="edge78" class="edge">
<title>Node42&#45;&gt;Node1</title>
<path fill="none" stroke="#191970" d="M1668.6661,-122.0253C1673.3577,-121.2131 1678.1296,-120.5009 1682.6895,-120 2022.2961,-82.6965 2886.1788,-158.1273 3219.6895,-84 3221.6595,-83.5621 3223.657,-83.0045 3225.6436,-82.3641"/>
<polygon fill="#191970" stroke="#191970" points="3227.2334,-85.5027 3235.3099,-78.6455 3224.72,-78.9694 3227.2334,-85.5027"/>
</g>
<!-- Node42&#45;&gt;Node4 -->
<g id="edge80" class="edge">
<title>Node42&#45;&gt;Node4</title>
<path fill="none" stroke="#191970" d="M1600.5227,-121.3435C1597.5472,-120.8182 1594.5726,-120.3575 1591.6895,-120 1049.3856,-52.7597 905.6805,-145.445 362.6895,-84 350.5744,-82.6291 337.4726,-80.2988 325.7574,-77.9026"/>
<polygon fill="#191970" stroke="#191970" points="326.3881,-74.4586 315.8789,-75.8024 324.9324,-81.3055 326.3881,-74.4586"/>
</g>
<!-- Node42&#45;&gt;Node6 -->
<g id="edge92" class="edge">
<title>Node42&#45;&gt;Node6</title>
<path fill="none" stroke="#191970" d="M1600.5166,-121.3915C1597.5424,-120.8557 1594.5698,-120.3795 1591.6895,-120 1235.7427,-73.0992 1140.588,-131.2649 784.6895,-84 778.2961,-83.1509 771.6028,-81.9834 765.0439,-80.6766"/>
<polygon fill="#191970" stroke="#191970" points="765.4176,-77.1783 754.9099,-78.5341 763.9696,-84.0269 765.4176,-77.1783"/>
</g>
<!-- Node42&#45;&gt;Node23 -->
<g id="edge85" class="edge">
<title>Node42&#45;&gt;Node23</title>
<path fill="none" stroke="#191970" d="M1600.508,-121.454C1597.5357,-120.9046 1594.5658,-120.4082 1591.6895,-120 1346.0789,-85.1401 1279.945,-121.2753 1034.6895,-84 1029.1272,-83.1546 1023.3228,-82.0461 1017.6097,-80.818"/>
<polygon fill="#191970" stroke="#191970" points="1018.0247,-77.3228 1007.4965,-78.5093 1016.4667,-84.1472 1018.0247,-77.3228"/>
</g>
<!-- Node42&#45;&gt;Node25 -->
<g id="edge88" class="edge">
<title>Node42&#45;&gt;Node25</title>
<path fill="none" stroke="#191970" d="M1600.513,-121.4182C1597.5396,-120.8766 1594.5681,-120.3918 1591.6895,-120 1293.1284,-79.362 1213.2087,-124.9434 914.6895,-84 908.375,-83.1339 901.766,-81.9685 895.2821,-80.6728"/>
<polygon fill="#191970" stroke="#191970" points="895.7642,-77.1975 885.2565,-78.5538 894.3166,-84.0462 895.7642,-77.1975"/>
</g>
<!-- Node42&#45;&gt;Node26 -->
<g id="edge95" class="edge">
<title>Node42&#45;&gt;Node26</title>
<path fill="none" stroke="#191970" d="M1600.501,-121.5023C1597.5302,-120.9425 1594.5626,-120.4305 1591.6895,-120 1393.7034,-90.336 1339.9598,-118.1002 1142.6895,-84 1137.9756,-83.1852 1133.0755,-82.1467 1128.2355,-81.0009"/>
<polygon fill="#191970" stroke="#191970" points="1129.0166,-77.5884 1118.4642,-78.5355 1127.304,-84.3757 1129.0166,-77.5884"/>
</g>
<!-- Node42&#45;&gt;Node32 -->
<g id="edge90" class="edge">
<title>Node42&#45;&gt;Node32</title>
<path fill="none" stroke="#191970" d="M1600.9108,-121.9268C1597.796,-121.2619 1594.6861,-120.6103 1591.6895,-120 1506.1876,-102.5857 1483.6851,-103.7375 1398.6895,-84 1394.8951,-83.1189 1390.9622,-82.1417 1387.0356,-81.1228"/>
<polygon fill="#191970" stroke="#191970" points="1387.9361,-77.7407 1377.3711,-78.5353 1386.1257,-84.5025 1387.9361,-77.7407"/>
</g>
<!-- Node42&#45;&gt;Node33 -->
<g id="edge91" class="edge">
<title>Node42&#45;&gt;Node33</title>
<path fill="none" stroke="#191970" d="M1609.022,-120.3873C1580.0682,-110.1078 1532.8193,-93.3331 1500.5437,-81.8743"/>
<polygon fill="#191970" stroke="#191970" points="1501.6395,-78.5493 1491.0447,-78.5019 1499.2974,-85.1459 1501.6395,-78.5493"/>
</g>
<!-- Node42&#45;&gt;Node40 -->
<g id="edge89" class="edge">
<title>Node42&#45;&gt;Node40</title>
<path fill="none" stroke="#191970" d="M1668.6916,-122.2338C1673.3792,-121.3893 1678.1432,-120.6125 1682.6895,-120 1901.7347,-90.4883 1959.6163,-113.304 2178.6895,-84 2186.0878,-83.0104 2193.8613,-81.7423 2201.4758,-80.3689"/>
<polygon fill="#191970" stroke="#191970" points="2202.1659,-83.8006 2211.3494,-78.5174 2200.8756,-76.9206 2202.1659,-83.8006"/>
</g>
<!-- Node42&#45;&gt;Node41 -->
<g id="edge94" class="edge">
<title>Node42&#45;&gt;Node41</title>
<path fill="none" stroke="#191970" d="M1668.6824,-122.1633C1673.3714,-121.3297 1678.1383,-120.5747 1682.6895,-120 1967.0997,-84.0841 2043.6403,-129.4131 2326.6895,-84 2331.5266,-83.2239 2336.5553,-82.1903 2341.512,-81.0308"/>
<polygon fill="#191970" stroke="#191970" points="2342.6577,-84.3517 2351.5007,-78.5163 2340.9488,-77.5634 2342.6577,-84.3517"/>
</g>
<!-- Node43 -->
<g id="node42" class="node">
<title>Node43</title>
<polygon fill="#ffffff" stroke="#bfbfbf" points="2916.7856,-60.5 2916.7856,-78.5 2960.5933,-78.5 2960.5933,-60.5 2916.7856,-60.5"/>
<text text-anchor="middle" x="2938.6895" y="-66.5" font-family="Helvetica,sans-Serif" font-size="10.00" fill="#000000">deque</text>
</g>
<!-- Node42&#45;&gt;Node43 -->
<g id="edge79" class="edge">
<title>Node42&#45;&gt;Node43</title>
<path fill="none" stroke="#191970" d="M1668.6689,-122.0507C1673.3601,-121.2346 1678.1311,-120.5145 1682.6895,-120 1953.3111,-89.4574 2642.7368,-147.0004 2907.6895,-84 2909.3983,-83.5937 2911.1259,-83.0878 2912.845,-82.5109"/>
<polygon fill="#191970" stroke="#191970" points="2914.4624,-85.6317 2922.4109,-78.6265 2911.8288,-79.146 2914.4624,-85.6317"/>
</g>
<!-- Node44 -->
<g id="node43" class="node">
<title>Node44</title>
<polygon fill="#ffffff" stroke="#bfbfbf" points="2979.0737,-60.5 2979.0737,-78.5 3022.3052,-78.5 3022.3052,-60.5 2979.0737,-60.5"/>
<text text-anchor="middle" x="3000.6895" y="-66.5" font-family="Helvetica,sans-Serif" font-size="10.00" fill="#000000">vector</text>
</g>
<!-- Node42&#45;&gt;Node44 -->
<g id="edge81" class="edge">
<title>Node42&#45;&gt;Node44</title>
<path fill="none" stroke="#191970" d="M1668.6682,-122.0447C1673.3595,-121.2295 1678.1307,-120.5112 1682.6895,-120 1967.019,-88.1139 2691.2915,-149.9894 2969.6895,-84 2971.3986,-83.5949 2973.1264,-83.09 2974.8457,-82.5137"/>
<polygon fill="#191970" stroke="#191970" points="2976.4623,-85.635 2984.412,-78.6312 2973.8298,-79.1488 2976.4623,-85.635"/>
</g>
<!-- Node45 -->
<g id="node44" class="node">
<title>Node45</title>
<polygon fill="#ffffff" stroke="#bfbfbf" points="3040.4409,-60.5 3040.4409,-78.5 3210.938,-78.5 3210.938,-60.5 3040.4409,-60.5"/>
<text text-anchor="middle" x="3125.6895" y="-66.5" font-family="Helvetica,sans-Serif" font-size="10.00" fill="#000000">BayesFilters/EstimatesExtraction.h</text>
</g>
<!-- Node42&#45;&gt;Node45 -->
<g id="edge82" class="edge">
<title>Node42&#45;&gt;Node45</title>
<path fill="none" stroke="#191970" d="M1668.6676,-122.0392C1673.359,-121.2249 1678.1304,-120.5083 1682.6895,-120 2278.765,-53.5409 2434.3406,-137.8255 3031.6895,-84 3042.518,-83.0243 3053.9947,-81.5912 3065.0697,-80.0007"/>
<polygon fill="#191970" stroke="#191970" points="3065.7238,-83.4419 3075.0977,-78.5043 3064.6906,-76.5186 3065.7238,-83.4419"/>
</g>
<!-- Node46 -->
<g id="node45" class="node">
<title>Node46</title>
<polygon fill="#ffffff" stroke="#bfbfbf" points="2443.5903,-55.5 2443.5903,-83.5 2577.7886,-83.5 2577.7886,-55.5 2443.5903,-55.5"/>
<text text-anchor="start" x="2451.5903" y="-71.5" font-family="Helvetica,sans-Serif" font-size="10.00" fill="#000000">BayesFilters/VisualParticle</text>
<text text-anchor="middle" x="2510.6895" y="-61.5" font-family="Helvetica,sans-Serif" font-size="10.00" fill="#000000">Filter.h</text>
</g>
<!-- Node42&#45;&gt;Node46 -->
<g id="edge83" class="edge">
<title>Node42&#45;&gt;Node46</title>
<path fill="none" stroke="#191970" d="M1668.6781,-122.1292C1673.3679,-121.3009 1678.136,-120.5565 1682.6895,-120 2011.4174,-79.8239 2100.5963,-122.5572 2432.8167,-84.104"/>
<polygon fill="#191970" stroke="#191970" points="2433.6974,-87.5247 2443.2211,-82.8825 2432.8811,-80.5725 2433.6974,-87.5247"/>
</g>
<!-- Node47 -->
<g id="node46" class="node">
<title>Node47</title>
<polygon fill="#ffffff" stroke="#bfbfbf" points="2596.0591,-60.5 2596.0591,-78.5 2669.3198,-78.5 2669.3198,-60.5 2596.0591,-60.5"/>
<text text-anchor="middle" x="2632.6895" y="-66.5" font-family="Helvetica,sans-Serif" font-size="10.00" fill="#000000">Eigen/Dense</text>
</g>
<!-- Node42&#45;&gt;Node47 -->
<g id="edge84" class="edge">
<title>Node42&#45;&gt;Node47</title>
<path fill="none" stroke="#191970" d="M1668.674,-122.0951C1673.3644,-121.2721 1678.1338,-120.5382 1682.6895,-120 2082.0086,-72.8237 2190.5664,-153.0499 2586.6895,-84 2590.5691,-83.3237 2594.5758,-82.4065 2598.532,-81.3598"/>
<polygon fill="#191970" stroke="#191970" points="2599.5389,-84.712 2608.1606,-78.5543 2597.5807,-77.9915 2599.5389,-84.712"/>
</g>
<!-- Node48 -->
<g id="node47" class="node">
<title>Node48</title>
<polygon fill="#ffffff" stroke="#bfbfbf" points="3293.5298,-60.5 3293.5298,-78.5 3431.8491,-78.5 3431.8491,-60.5 3293.5298,-60.5"/>
<text text-anchor="middle" x="3362.6895" y="-66.5" font-family="Helvetica,sans-Serif" font-size="10.00" fill="#000000">opencv2/cudaobjdetect.hpp</text>
</g>
<!-- Node42&#45;&gt;Node48 -->
<g id="edge86" class="edge">
<title>Node42&#45;&gt;Node48</title>
<path fill="none" stroke="#191970" d="M1668.5312,-125.0738C1684.3479,-123.1819 1703.4531,-121.1482 1720.6895,-120 2414.4471,-73.7855 2593.1083,-155.7701 3284.6895,-84 3293.1578,-83.1212 3302.0842,-81.8214 3310.7536,-80.3552"/>
<polygon fill="#191970" stroke="#191970" points="3311.5379,-83.7707 3320.77,-78.5727 3310.3114,-76.8789 3311.5379,-83.7707"/>
</g>
<!-- Node49 -->
<g id="node48" class="node">
<title>Node49</title>
<polygon fill="#ffffff" stroke="#bfbfbf" points="2687.3145,-55.5 2687.3145,-83.5 2802.0645,-83.5 2802.0645,-55.5 2687.3145,-55.5"/>
<text text-anchor="start" x="2695.3145" y="-71.5" font-family="Helvetica,sans-Serif" font-size="10.00" fill="#000000">thrift/VisualSISParticle</text>
<text text-anchor="middle" x="2744.6895" y="-61.5" font-family="Helvetica,sans-Serif" font-size="10.00" fill="#000000">FilterIDL.h</text>
</g>
<!-- Node42&#45;&gt;Node49 -->
<g id="edge87" class="edge">
<title>Node42&#45;&gt;Node49</title>
<path fill="none" stroke="#191970" d="M1668.6722,-122.0794C1673.3628,-121.2589 1678.1329,-120.5298 1682.6895,-120 2119.3506,-69.225 2237.473,-138.6842 2677.089,-84.0404"/>
<polygon fill="#191970" stroke="#191970" points="2677.7179,-87.4889 2687.203,-82.7684 2676.8444,-80.5436 2677.7179,-87.4889"/>
</g>
<!-- Node50 -->
<g id="node49" class="node">
<title>Node50</title>
<polygon fill="#ffffff" stroke="#bfbfbf" points="2820.564,-60.5 2820.564,-78.5 2898.8149,-78.5 2898.8149,-60.5 2820.564,-60.5"/>
<text text-anchor="middle" x="2859.6895" y="-66.5" font-family="Helvetica,sans-Serif" font-size="10.00" fill="#000000">yarp/os/Port.h</text>
</g>
<!-- Node42&#45;&gt;Node50 -->
<g id="edge93" class="edge">
<title>Node42&#45;&gt;Node50</title>
<path fill="none" stroke="#191970" d="M1668.6701,-122.0615C1673.3611,-121.2437 1678.1318,-120.5202 1682.6895,-120 2181.0423,-63.1182 2315.492,-163.8161 2810.6895,-84 2814.9757,-83.3091 2819.4138,-82.3525 2823.789,-81.2571"/>
<polygon fill="#191970" stroke="#191970" points="2825.0691,-84.535 2833.783,-78.5085 2823.2129,-77.7856 2825.0691,-84.535"/>
</g>
<!-- Node52&#45;&gt;Node12 -->
<g id="edge98" class="edge">
<title>Node52&#45;&gt;Node12</title>
<path fill="none" stroke="#191970" d="M1669.1795,-180.3873C1700.3229,-170.0635 1751.2296,-153.1883 1785.8064,-141.7264"/>
<polygon fill="#191970" stroke="#191970" points="1787.143,-144.9707 1795.5338,-138.5019 1784.9404,-138.3263 1787.143,-144.9707"/>
</g>
<!-- Node52&#45;&gt;Node36 -->
<g id="edge97" class="edge">
<title>Node52&#45;&gt;Node36</title>
<path fill="none" stroke="#191970" d="M1623.9197,-180.3873C1604.5659,-170.4623 1573.4048,-154.4822 1551.1669,-143.0782"/>
<polygon fill="#191970" stroke="#191970" points="1552.7384,-139.9507 1542.2431,-138.5019 1549.5442,-146.1795 1552.7384,-139.9507"/>
</g>
<!-- Node52&#45;&gt;Node48 -->
<g id="edge99" class="edge">
<title>Node52&#45;&gt;Node48</title>
<path fill="none" stroke="#191970" d="M1654.472,-180.3599C1679.0655,-162.9813 1732.4154,-126.3356 1753.6895,-120 1916.7694,-71.4332 3115.4446,-101.6061 3284.6895,-84 3293.1576,-83.1191 3302.0838,-81.8182 3310.7533,-80.3515"/>
<polygon fill="#191970" stroke="#191970" points="3311.5376,-83.767 3320.7696,-78.5689 3310.311,-76.8753 3311.5376,-83.767"/>
</g>
</g>
</svg>
