<?xml version="1.0" encoding="UTF-8" standalone="no"?>
<!DOCTYPE svg PUBLIC "-//W3C//DTD SVG 1.1//EN"
 "http://www.w3.org/Graphics/SVG/1.1/DTD/svg11.dtd">
<!-- Generated by graphviz version 2.40.1 (20161225.0304)
 -->
<!-- Title: /Users/Claudio/GitHub/visual&#45;tracking&#45;control/src/hand&#45;tracking/src/iCubGatePose.cpp Pages: 1 -->
<!--zoomable 232 -->
<svg id="main" version="1.1" xmlns="http://www.w3.org/2000/svg" xmlns:xlink="http://www.w3.org/1999/xlink" xml:space="preserve" onload="init(evt)">
<style type="text/css"><![CDATA[
.edge:hover path { stroke: red; }
.edge:hover polygon { stroke: red; fill: red; }
]]></style>
<script type="text/javascript"><![CDATA[
var edges = document.getElementsByTagName('g');
if (edges && edges.length) {
  for (var i=0;i<edges.length;i++) {
    if (edges[i].id.substr(0,4)=='edge') {
      edges[i].setAttribute('class','edge');
    }
  }
}
]]></script>
        <defs>
                <circle id="rim" cx="0" cy="0" r="7"/>
                <circle id="rim2" cx="0" cy="0" r="3.5"/>
                <g id="zoomPlus">
                        <use xlink:href="#rim" fill="#404040">
                                <set attributeName="fill" to="#808080" begin="zoomplus.mouseover" end="zoomplus.mouseout"/>
                        </use>
                        <path d="M-4,0h8M0,-4v8" fill="none" stroke="white" stroke-width="1.5" pointer-events="none"/>
                </g>
                <g id="zoomMin">
                        <use xlink:href="#rim" fill="#404040">
                                <set attributeName="fill" to="#808080" begin="zoomminus.mouseover" end="zoomminus.mouseout"/>
                        </use>
                        <path d="M-4,0h8" fill="none" stroke="white" stroke-width="1.5" pointer-events="none"/>
                </g>
                <g id="dirArrow">
                        <path fill="none" stroke="white" stroke-width="1.5" d="M0,-3.0v7 M-2.5,-0.5L0,-3.0L2.5,-0.5"/>
                </g>
               <g id="resetDef">
                       <use xlink:href="#rim2" fill="#404040">
                               <set attributeName="fill" to="#808080" begin="reset.mouseover" end="reset.mouseout"/>
                       </use>
               </g>
        </defs>

<script type="text/javascript">
var viewWidth = 948;
var viewHeight = 232;
var sectionId = 'dynsection-0';
</script>
<script xlink:href="svgpan.js"/>
<svg id="graph" class="graph">
<g id="viewport">
<title>/Users/Claudio/GitHub/visual&#45;tracking&#45;control/src/hand&#45;tracking/src/iCubGatePose.cpp</title>
<polygon fill="#ffffff" stroke="transparent" points="-4,4 -4,-228 943.71,-228 943.71,4 -4,4"/>
<!-- Node0 -->
<g id="node1" class="node">
<title>Node0</title>
<polygon fill="#bfbfbf" stroke="#000000" points="569.9214,-175.5 569.9214,-223.5 726.5317,-223.5 726.5317,-175.5 569.9214,-175.5"/>
<text text-anchor="start" x="577.9214" y="-211.5" font-family="Helvetica,sans-Serif" font-size="10.00" fill="#000000">/Users/Claudio/GitHub</text>
<text text-anchor="start" x="577.9214" y="-201.5" font-family="Helvetica,sans-Serif" font-size="10.00" fill="#000000">/visual&#45;tracking&#45;control</text>
<text text-anchor="start" x="577.9214" y="-191.5" font-family="Helvetica,sans-Serif" font-size="10.00" fill="#000000">/src/hand&#45;tracking/src/iCubGate</text>
<text text-anchor="middle" x="648.2266" y="-181.5" font-family="Helvetica,sans-Serif" font-size="10.00" fill="#000000">Pose.cpp</text>
</g>
<!-- Node1 -->
<g id="node2" class="node">
<title>Node1</title>
<g id="a_node2"><a xlink:href="iCubGatePose_8h.html" target="_top" xlink:title="iCubGatePose.h">
<polygon fill="#ffffff" stroke="#000000" points="386.5371,-120.5 386.5371,-138.5 475.916,-138.5 475.916,-120.5 386.5371,-120.5"/>
<text text-anchor="middle" x="431.2266" y="-126.5" font-family="Helvetica,sans-Serif" font-size="10.00" fill="#000000">iCubGatePose.h</text>
</a>
</g>
</g>
<!-- Node0&#45;&gt;Node1 -->
<g id="edge1" class="edge">
<title>Node0&#45;&gt;Node1</title>
<path fill="none" stroke="#191970" d="M573.5475,-175.41C538.2344,-164.0186 497.6104,-150.9142 468.8275,-141.6293"/>
<polygon fill="#191970" stroke="#191970" points="469.7602,-138.2527 459.1686,-138.5136 467.6111,-144.9146 469.7602,-138.2527"/>
</g>
<!-- Node11 -->
<g id="node12" class="node">
<title>Node11</title>
<polygon fill="#ffffff" stroke="#bfbfbf" points="494.2144,-120.5 494.2144,-138.5 580.2388,-138.5 580.2388,-120.5 494.2144,-120.5"/>
<text text-anchor="middle" x="537.2266" y="-126.5" font-family="Helvetica,sans-Serif" font-size="10.00" fill="#000000">iCub/ctrl/math.h</text>
</g>
<!-- Node0&#45;&gt;Node11 -->
<g id="edge11" class="edge">
<title>Node0&#45;&gt;Node11</title>
<path fill="none" stroke="#191970" d="M610.0267,-175.41C593.462,-164.9638 574.6128,-153.0769 560.245,-144.0161"/>
<polygon fill="#191970" stroke="#191970" points="561.845,-140.8873 551.5195,-138.5136 558.111,-146.8083 561.845,-140.8873"/>
</g>
<!-- Node12 -->
<g id="node13" class="node">
<title>Node12</title>
<polygon fill="#ffffff" stroke="#bfbfbf" points="598.5298,-120.5 598.5298,-138.5 697.9233,-138.5 697.9233,-120.5 598.5298,-120.5"/>
<text text-anchor="middle" x="648.2266" y="-126.5" font-family="Helvetica,sans-Serif" font-size="10.00" fill="#000000">yarp/eigen/Eigen.h</text>
</g>
<!-- Node0&#45;&gt;Node12 -->
<g id="edge12" class="edge">
<title>Node0&#45;&gt;Node12</title>
<path fill="none" stroke="#191970" d="M648.2266,-175.41C648.2266,-166.7094 648.2266,-157.0095 648.2266,-148.7754"/>
<polygon fill="#191970" stroke="#191970" points="651.7267,-148.6872 648.2266,-138.6872 644.7267,-148.6873 651.7267,-148.6872"/>
</g>
<!-- Node13 -->
<g id="node14" class="node">
<title>Node13</title>
<polygon fill="#ffffff" stroke="#bfbfbf" points="715.813,-120.5 715.813,-138.5 824.6401,-138.5 824.6401,-120.5 715.813,-120.5"/>
<text text-anchor="middle" x="770.2266" y="-126.5" font-family="Helvetica,sans-Serif" font-size="10.00" fill="#000000">yarp/os/LogStream.h</text>
</g>
<!-- Node0&#45;&gt;Node13 -->
<g id="edge13" class="edge">
<title>Node0&#45;&gt;Node13</title>
<path fill="none" stroke="#191970" d="M690.212,-175.41C708.7651,-164.7648 729.9255,-152.6235 745.824,-143.5015"/>
<polygon fill="#191970" stroke="#191970" points="747.5854,-146.5261 754.5172,-138.5136 744.1017,-140.4545 747.5854,-146.5261"/>
</g>
<!-- Node14 -->
<g id="node15" class="node">
<title>Node14</title>
<polygon fill="#ffffff" stroke="#bfbfbf" points="842.7432,-120.5 842.7432,-138.5 939.71,-138.5 939.71,-120.5 842.7432,-120.5"/>
<text text-anchor="middle" x="891.2266" y="-126.5" font-family="Helvetica,sans-Serif" font-size="10.00" fill="#000000">yarp/os/Property.h</text>
</g>
<!-- Node0&#45;&gt;Node14 -->
<g id="edge14" class="edge">
<title>Node0&#45;&gt;Node14</title>
<path fill="none" stroke="#191970" d="M726.7861,-176.8697C767.7526,-165.0686 816.1936,-151.1144 849.843,-141.4212"/>
<polygon fill="#191970" stroke="#191970" points="851.1459,-144.6883 859.7863,-138.5569 849.2082,-137.9618 851.1459,-144.6883"/>
</g>
<!-- Node2 -->
<g id="node3" class="node">
<title>Node2</title>
<g id="a_node3"><a xlink:href="GatePose_8h.html" target="_top" xlink:title="GatePose.h">
<polygon fill="#ffffff" stroke="#000000" points="103.8203,-65.5 103.8203,-83.5 172.6328,-83.5 172.6328,-65.5 103.8203,-65.5"/>
<text text-anchor="middle" x="138.2266" y="-71.5" font-family="Helvetica,sans-Serif" font-size="10.00" fill="#000000">GatePose.h</text>
</a>
</g>
</g>
<!-- Node1&#45;&gt;Node2 -->
<g id="edge2" class="edge">
<title>Node1&#45;&gt;Node2</title>
<path fill="none" stroke="#191970" d="M386.1618,-121.711C338.2702,-113.334 260.0813,-99.3744 182.7123,-84.0459"/>
<polygon fill="#191970" stroke="#191970" points="183.2829,-80.5909 172.7921,-82.072 181.9167,-87.4563 183.2829,-80.5909"/>
</g>
<!-- Node6 -->
<g id="node7" class="node">
<title>Node6</title>
<polygon fill="#ffffff" stroke="#bfbfbf" points="190.8745,-65.5 190.8745,-83.5 293.5786,-83.5 293.5786,-65.5 190.8745,-65.5"/>
<text text-anchor="middle" x="242.2266" y="-71.5" font-family="Helvetica,sans-Serif" font-size="10.00" fill="#000000">iCub/iKin/iKinFwd.h</text>
</g>
<!-- Node1&#45;&gt;Node6 -->
<g id="edge6" class="edge">
<title>Node1&#45;&gt;Node6</title>
<path fill="none" stroke="#191970" d="M400.0171,-120.4179C368.0492,-111.115 318.1978,-96.608 283.0995,-86.3943"/>
<polygon fill="#191970" stroke="#191970" points="283.748,-82.9378 273.1683,-83.5042 281.792,-89.659 283.748,-82.9378"/>
</g>
<!-- Node7 -->
<g id="node8" class="node">
<title>Node7</title>
<polygon fill="#ffffff" stroke="#bfbfbf" points="311.978,-65.5 311.978,-83.5 422.4751,-83.5 422.4751,-65.5 311.978,-65.5"/>
<text text-anchor="middle" x="367.2266" y="-71.5" font-family="Helvetica,sans-Serif" font-size="10.00" fill="#000000">yarp/dev/IEncoders.h</text>
</g>
<!-- Node1&#45;&gt;Node7 -->
<g id="edge7" class="edge">
<title>Node1&#45;&gt;Node7</title>
<path fill="none" stroke="#191970" d="M420.6583,-120.4179C411.1733,-112.2667 397.0391,-100.1201 385.6899,-90.3669"/>
<polygon fill="#191970" stroke="#191970" points="387.8899,-87.6427 378.0245,-83.7795 383.3275,-92.9516 387.8899,-87.6427"/>
</g>
<!-- Node8 -->
<g id="node9" class="node">
<title>Node8</title>
<polygon fill="#ffffff" stroke="#bfbfbf" points="440.7046,-65.5 440.7046,-83.5 551.7485,-83.5 551.7485,-65.5 440.7046,-65.5"/>
<text text-anchor="middle" x="496.2266" y="-71.5" font-family="Helvetica,sans-Serif" font-size="10.00" fill="#000000">yarp/dev/PolyDriver.h</text>
</g>
<!-- Node1&#45;&gt;Node8 -->
<g id="edge8" class="edge">
<title>Node1&#45;&gt;Node8</title>
<path fill="none" stroke="#191970" d="M441.96,-120.4179C451.5932,-112.2667 465.9482,-100.1201 477.4747,-90.3669"/>
<polygon fill="#191970" stroke="#191970" points="479.8869,-92.9108 485.2599,-83.7795 475.3652,-87.5671 479.8869,-92.9108"/>
</g>
<!-- Node9 -->
<g id="node10" class="node">
<title>Node9</title>
<polygon fill="#ffffff" stroke="#bfbfbf" points="570.1479,-65.5 570.1479,-83.5 682.3052,-83.5 682.3052,-65.5 570.1479,-65.5"/>
<text text-anchor="middle" x="626.2266" y="-71.5" font-family="Helvetica,sans-Serif" font-size="10.00" fill="#000000">yarp/os/ConstString.h</text>
</g>
<!-- Node1&#45;&gt;Node9 -->
<g id="edge9" class="edge">
<title>Node1&#45;&gt;Node9</title>
<path fill="none" stroke="#191970" d="M463.4268,-120.4179C496.5511,-111.0751 548.2854,-96.4834 584.5214,-86.263"/>
<polygon fill="#191970" stroke="#191970" points="585.6282,-89.5875 594.3025,-83.5042 583.7279,-82.8503 585.6282,-89.5875"/>
</g>
<!-- Node10 -->
<g id="node11" class="node">
<title>Node10</title>
<polygon fill="#ffffff" stroke="#bfbfbf" points="700.2563,-65.5 700.2563,-83.5 790.1968,-83.5 790.1968,-65.5 700.2563,-65.5"/>
<text text-anchor="middle" x="745.2266" y="-71.5" font-family="Helvetica,sans-Serif" font-size="10.00" fill="#000000">yarp/sig/Vector.h</text>
</g>
<!-- Node1&#45;&gt;Node10 -->
<g id="edge10" class="edge">
<title>Node1&#45;&gt;Node10</title>
<path fill="none" stroke="#191970" d="M476.0149,-121.6165C479.1323,-121.0691 482.2263,-120.5261 485.2266,-120 573.644,-104.4967 598.034,-100.3324 690.1103,-84.1942"/>
<polygon fill="#191970" stroke="#191970" points="690.9006,-87.6091 700.146,-82.4348 689.6918,-80.7142 690.9006,-87.6091"/>
</g>
<!-- Node3 -->
<g id="node4" class="node">
<title>Node3</title>
<polygon fill="#ffffff" stroke="#bfbfbf" points="0,-5.5 0,-23.5 40.4531,-23.5 40.4531,-5.5 0,-5.5"/>
<text text-anchor="middle" x="20.2266" y="-11.5" font-family="Helvetica,sans-Serif" font-size="10.00" fill="#000000">string</text>
</g>
<!-- Node2&#45;&gt;Node3 -->
<g id="edge3" class="edge">
<title>Node2&#45;&gt;Node3</title>
<path fill="none" stroke="#191970" d="M120.3049,-65.3873C100.7857,-55.4623 69.3583,-39.4822 46.9303,-28.0782"/>
<polygon fill="#191970" stroke="#191970" points="48.4305,-24.9145 37.9302,-23.5019 45.2577,-31.1542 48.4305,-24.9145"/>
</g>
<!-- Node4 -->
<g id="node5" class="node">
<title>Node4</title>
<polygon fill="#ffffff" stroke="#bfbfbf" points="58.3467,-.5 58.3467,-28.5 218.1064,-28.5 218.1064,-.5 58.3467,-.5"/>
<text text-anchor="start" x="66.3467" y="-16.5" font-family="Helvetica,sans-Serif" font-size="10.00" fill="#000000">BayesFilters/PFVisualCorrection</text>
<text text-anchor="middle" x="138.2266" y="-6.5" font-family="Helvetica,sans-Serif" font-size="10.00" fill="#000000">Decorator.h</text>
</g>
<!-- Node2&#45;&gt;Node4 -->
<g id="edge4" class="edge">
<title>Node2&#45;&gt;Node4</title>
<path fill="none" stroke="#191970" d="M138.2266,-65.3873C138.2266,-58.3369 138.2266,-48.2311 138.2266,-38.8806"/>
<polygon fill="#191970" stroke="#191970" points="141.7267,-38.8476 138.2266,-28.8477 134.7267,-38.8477 141.7267,-38.8476"/>
</g>
<!-- Node5 -->
<g id="node6" class="node">
<title>Node5</title>
<polygon fill="#ffffff" stroke="#bfbfbf" points="235.8672,-5.5 235.8672,-23.5 368.5859,-23.5 368.5859,-5.5 235.8672,-5.5"/>
<text text-anchor="middle" x="302.2266" y="-11.5" font-family="Helvetica,sans-Serif" font-size="10.00" fill="#000000">BayesFilters/StateModel.h</text>
</g>
<!-- Node2&#45;&gt;Node5 -->
<g id="edge5" class="edge">
<title>Node2&#45;&gt;Node5</title>
<path fill="none" stroke="#191970" d="M163.1346,-65.3873C191.1107,-55.1521 236.6879,-38.4776 267.9977,-27.0228"/>
<polygon fill="#191970" stroke="#191970" points="269.4328,-30.2247 277.6214,-23.5019 267.0276,-23.6508 269.4328,-30.2247"/>
</g>
</g>
</svg>
        <g id="navigator" transform="translate(0 0)" fill="#404254">
                <rect fill="#f2f5e9" fill-opacity="0.5" stroke="#606060" stroke-width=".5" x="0" y="0" width="60" height="60"/>
                <use id="zoomplus" xlink:href="#zoomPlus" x="17" y="9" onmousedown="handleZoom(evt,'in')"/>
                <use id="zoomminus" xlink:href="#zoomMin" x="42" y="9" onmousedown="handleZoom(evt,'out')"/>
                <use id="reset" xlink:href="#resetDef" x="30" y="36" onmousedown="handleReset()"/>
                <g id="arrowUp" xlink:href="#dirArrow" transform="translate(30 24)" onmousedown="handlePan(0,-1)">
                  <use xlink:href="#rim" fill="#404040">
                        <set attributeName="fill" to="#808080" begin="arrowUp.mouseover" end="arrowUp.mouseout"/>
                  </use>
                  <path fill="none" stroke="white" stroke-width="1.5" d="M0,-3.0v7 M-2.5,-0.5L0,-3.0L2.5,-0.5"/>
                </g>
                <g id="arrowRight" xlink:href="#dirArrow" transform="rotate(90) translate(36 -43)" onmousedown="handlePan(1,0)">
                  <use xlink:href="#rim" fill="#404040">
                        <set attributeName="fill" to="#808080" begin="arrowRight.mouseover" end="arrowRight.mouseout"/>
                  </use>
                  <path fill="none" stroke="white" stroke-width="1.5" d="M0,-3.0v7 M-2.5,-0.5L0,-3.0L2.5,-0.5"/>
                </g>
                <g id="arrowDown" xlink:href="#dirArrow" transform="rotate(180) translate(-30 -48)" onmousedown="handlePan(0,1)">
                  <use xlink:href="#rim" fill="#404040">
                        <set attributeName="fill" to="#808080" begin="arrowDown.mouseover" end="arrowDown.mouseout"/>
                  </use>
                  <path fill="none" stroke="white" stroke-width="1.5" d="M0,-3.0v7 M-2.5,-0.5L0,-3.0L2.5,-0.5"/>
                </g>
                <g id="arrowLeft" xlink:href="#dirArrow" transform="rotate(270) translate(-36 17)" onmousedown="handlePan(-1,0)">
                  <use xlink:href="#rim" fill="#404040">
                        <set attributeName="fill" to="#808080" begin="arrowLeft.mouseover" end="arrowLeft.mouseout"/>
                  </use>
                  <path fill="none" stroke="white" stroke-width="1.5" d="M0,-3.0v7 M-2.5,-0.5L0,-3.0L2.5,-0.5"/>
                </g>
        </g>
        <svg viewBox="0 0 15 15" width="100%" height="30px" preserveAspectRatio="xMaxYMin meet">
         <g id="arrow_out" transform="scale(0.3 0.3)">
          <a xlink:href="iCubGatePose_8cpp__incl_org.svg" target="_base">
           <rect id="button" ry="5" rx="5" y="6" x="6" height="38" width="38"
                fill="#f2f5e9" fill-opacity="0.5" stroke="#606060" stroke-width="1.0"/>
           <path id="arrow"
             d="M 11.500037,31.436501 C 11.940474,20.09759 22.043105,11.32322 32.158766,21.979434 L 37.068811,17.246167 C 37.068811,17.246167 37.088388,32 37.088388,32 L 22.160133,31.978069 C 22.160133,31.978069 26.997745,27.140456 26.997745,27.140456 C 18.528582,18.264221 13.291696,25.230495 11.500037,31.436501 z"
             style="fill:#404040;"/>
          </a>
         </g>
        </svg>
</svg>
