<?xml version="1.0" encoding="UTF-8" standalone="no"?>
<!DOCTYPE svg PUBLIC "-//W3C//DTD SVG 1.1//EN"
 "http://www.w3.org/Graphics/SVG/1.1/DTD/svg11.dtd">
<!-- Generated by graphviz version 2.40.1 (20161225.0304)
 -->
<!-- Title: /Users/Claudio/GitHub/visual&#45;tracking&#45;control/src/hand&#45;tracking/include/iCubFwdKinModel.h Pages: 1 -->
<!--zoomable 167 -->
<svg id="main" version="1.1" xmlns="http://www.w3.org/2000/svg" xmlns:xlink="http://www.w3.org/1999/xlink" xml:space="preserve" onload="init(evt)">
<style type="text/css"><![CDATA[
.edge:hover path { stroke: red; }
.edge:hover polygon { stroke: red; fill: red; }
]]></style>
<script type="text/javascript"><![CDATA[
var edges = document.getElementsByTagName('g');
if (edges && edges.length) {
  for (var i=0;i<edges.length;i++) {
    if (edges[i].id.substr(0,4)=='edge') {
      edges[i].setAttribute('class','edge');
    }
  }
}
]]></script>
        <defs>
                <circle id="rim" cx="0" cy="0" r="7"/>
                <circle id="rim2" cx="0" cy="0" r="3.5"/>
                <g id="zoomPlus">
                        <use xlink:href="#rim" fill="#404040">
                                <set attributeName="fill" to="#808080" begin="zoomplus.mouseover" end="zoomplus.mouseout"/>
                        </use>
                        <path d="M-4,0h8M0,-4v8" fill="none" stroke="white" stroke-width="1.5" pointer-events="none"/>
                </g>
                <g id="zoomMin">
                        <use xlink:href="#rim" fill="#404040">
                                <set attributeName="fill" to="#808080" begin="zoomminus.mouseover" end="zoomminus.mouseout"/>
                        </use>
                        <path d="M-4,0h8" fill="none" stroke="white" stroke-width="1.5" pointer-events="none"/>
                </g>
                <g id="dirArrow">
                        <path fill="none" stroke="white" stroke-width="1.5" d="M0,-3.0v7 M-2.5,-0.5L0,-3.0L2.5,-0.5"/>
                </g>
               <g id="resetDef">
                       <use xlink:href="#rim2" fill="#404040">
                               <set attributeName="fill" to="#808080" begin="reset.mouseover" end="reset.mouseout"/>
                       </use>
               </g>
        </defs>

<script type="text/javascript">
var viewWidth = 783;
var viewHeight = 167;
var sectionId = 'dynsection-0';
</script>
<script xlink:href="svgpan.js"/>
<svg id="graph" class="graph">
<g id="viewport">
<title>/Users/Claudio/GitHub/visual&#45;tracking&#45;control/src/hand&#45;tracking/include/iCubFwdKinModel.h</title>
<polygon fill="#ffffff" stroke="transparent" points="-4,4 -4,-163 779.3223,-163 779.3223,4 -4,4"/>
<!-- Node0 -->
<g id="node1" class="node">
<title>Node0</title>
<polygon fill="#bfbfbf" stroke="#000000" points="382.3794,-110.5 382.3794,-158.5 512.3247,-158.5 512.3247,-110.5 382.3794,-110.5"/>
<text text-anchor="start" x="390.3794" y="-146.5" font-family="Helvetica,sans-Serif" font-size="10.00" fill="#000000">/Users/Claudio/GitHub</text>
<text text-anchor="start" x="390.3794" y="-136.5" font-family="Helvetica,sans-Serif" font-size="10.00" fill="#000000">/visual&#45;tracking&#45;control</text>
<text text-anchor="start" x="390.3794" y="-126.5" font-family="Helvetica,sans-Serif" font-size="10.00" fill="#000000">/src/hand&#45;tracking/include</text>
<text text-anchor="middle" x="447.3521" y="-116.5" font-family="Helvetica,sans-Serif" font-size="10.00" fill="#000000">/iCubFwdKinModel.h</text>
</g>
<!-- Node1 -->
<g id="node2" class="node">
<title>Node1</title>
<g id="a_node2"><a xlink:href="FwdKinModel_8h.html" target="_top" xlink:title="FwdKinModel.h">
<polygon fill="#ffffff" stroke="#000000" points="369.8916,-55.5 369.8916,-73.5 454.8125,-73.5 454.8125,-55.5 369.8916,-55.5"/>
<text text-anchor="middle" x="412.3521" y="-61.5" font-family="Helvetica,sans-Serif" font-size="10.00" fill="#000000">FwdKinModel.h</text>
</a>
</g>
</g>
<!-- Node0&#45;&gt;Node1 -->
<g id="edge1" class="edge">
<title>Node0&#45;&gt;Node1</title>
<path fill="none" stroke="#191970" d="M435.307,-110.41C430.759,-101.314 425.6649,-91.1256 421.433,-82.6619"/>
<polygon fill="#191970" stroke="#191970" points="424.5484,-81.0663 416.9457,-73.6872 418.2874,-84.1968 424.5484,-81.0663"/>
</g>
<!-- Node3 -->
<g id="node4" class="node">
<title>Node3</title>
<polygon fill="#ffffff" stroke="#bfbfbf" points="0,-.5 0,-18.5 102.7041,-18.5 102.7041,-.5 0,-.5"/>
<text text-anchor="middle" x="51.3521" y="-6.5" font-family="Helvetica,sans-Serif" font-size="10.00" fill="#000000">iCub/iKin/iKinFwd.h</text>
</g>
<!-- Node0&#45;&gt;Node3 -->
<g id="edge8" class="edge">
<title>Node0&#45;&gt;Node3</title>
<path fill="none" stroke="#191970" d="M381.9607,-113.8588C298.798,-87.6079 157.8725,-43.1239 90.0669,-21.7206"/>
<polygon fill="#191970" stroke="#191970" points="90.8101,-18.285 80.2204,-18.6125 88.703,-24.9604 90.8101,-18.285"/>
</g>
<!-- Node4 -->
<g id="node5" class="node">
<title>Node4</title>
<polygon fill="#ffffff" stroke="#bfbfbf" points="120.8301,-.5 120.8301,-18.5 231.874,-18.5 231.874,-.5 120.8301,-.5"/>
<text text-anchor="middle" x="176.3521" y="-6.5" font-family="Helvetica,sans-Serif" font-size="10.00" fill="#000000">yarp/dev/PolyDriver.h</text>
</g>
<!-- Node0&#45;&gt;Node4 -->
<g id="edge9" class="edge">
<title>Node0&#45;&gt;Node4</title>
<path fill="none" stroke="#191970" d="M395.1005,-110.3987C338.4997,-84.2913 250.2575,-43.5892 205.098,-22.7592"/>
<polygon fill="#191970" stroke="#191970" points="206.4291,-19.5188 195.8826,-18.5085 203.4972,-25.8753 206.4291,-19.5188"/>
</g>
<!-- Node5 -->
<g id="node6" class="node">
<title>Node5</title>
<polygon fill="#ffffff" stroke="#bfbfbf" points="427.1035,-.5 427.1035,-18.5 537.6006,-18.5 537.6006,-.5 427.1035,-.5"/>
<text text-anchor="middle" x="482.3521" y="-6.5" font-family="Helvetica,sans-Serif" font-size="10.00" fill="#000000">yarp/dev/IEncoders.h</text>
</g>
<!-- Node0&#45;&gt;Node5 -->
<g id="edge10" class="edge">
<title>Node0&#45;&gt;Node5</title>
<path fill="none" stroke="#191970" d="M454.1004,-110.3987C460.7958,-86.4866 470.9194,-50.331 477.0559,-28.4147"/>
<polygon fill="#191970" stroke="#191970" points="480.4631,-29.2269 479.7891,-18.6536 473.7223,-27.3395 480.4631,-29.2269"/>
</g>
<!-- Node6 -->
<g id="node7" class="node">
<title>Node6</title>
<polygon fill="#ffffff" stroke="#bfbfbf" points="555.2734,-.5 555.2734,-18.5 667.4307,-18.5 667.4307,-.5 555.2734,-.5"/>
<text text-anchor="middle" x="611.3521" y="-6.5" font-family="Helvetica,sans-Serif" font-size="10.00" fill="#000000">yarp/os/ConstString.h</text>
</g>
<!-- Node0&#45;&gt;Node6 -->
<g id="edge11" class="edge">
<title>Node0&#45;&gt;Node6</title>
<path fill="none" stroke="#191970" d="M478.9729,-110.3987C512.0647,-85.1763 563.0285,-46.3319 591.0886,-24.9447"/>
<polygon fill="#191970" stroke="#191970" points="593.511,-27.4991 599.3426,-18.6536 589.2677,-21.9319 593.511,-27.4991"/>
</g>
<!-- Node7 -->
<g id="node8" class="node">
<title>Node7</title>
<polygon fill="#ffffff" stroke="#bfbfbf" points="685.3818,-.5 685.3818,-18.5 775.3223,-18.5 775.3223,-.5 685.3818,-.5"/>
<text text-anchor="middle" x="730.3521" y="-6.5" font-family="Helvetica,sans-Serif" font-size="10.00" fill="#000000">yarp/sig/Vector.h</text>
</g>
<!-- Node0&#45;&gt;Node7 -->
<g id="edge12" class="edge">
<title>Node0&#45;&gt;Node7</title>
<path fill="none" stroke="#191970" d="M501.9173,-110.3987C561.1484,-84.2366 653.5606,-43.4185 700.6293,-22.6284"/>
<polygon fill="#191970" stroke="#191970" points="702.2235,-25.7506 709.9567,-18.5085 699.3951,-19.3474 702.2235,-25.7506"/>
</g>
<!-- Node2 -->
<g id="node3" class="node">
<title>Node2</title>
<polygon fill="#ffffff" stroke="#bfbfbf" points="249.6479,-.5 249.6479,-18.5 409.0562,-18.5 409.0562,-.5 249.6479,-.5"/>
<text text-anchor="middle" x="329.3521" y="-6.5" font-family="Helvetica,sans-Serif" font-size="10.00" fill="#000000">BayesFilters/ExogenousModel.h</text>
</g>
<!-- Node1&#45;&gt;Node2 -->
<g id="edge2" class="edge">
<title>Node1&#45;&gt;Node2</title>
<path fill="none" stroke="#191970" d="M398.6463,-55.4179C385.9109,-46.9788 366.7126,-34.257 351.7508,-24.3426"/>
<polygon fill="#191970" stroke="#191970" points="353.3475,-21.2019 343.0782,-18.5956 349.4808,-27.037 353.3475,-21.2019"/>
</g>
<!-- Node1&#45;&gt;Node3 -->
<g id="edge3" class="edge">
<title>Node1&#45;&gt;Node3</title>
<path fill="none" stroke="#191970" d="M369.4706,-58.1144C313.0124,-49.6858 210.3791,-34.2904 112.7719,-19.212"/>
<polygon fill="#191970" stroke="#191970" points="113.1528,-15.7294 102.7353,-17.6599 112.0829,-22.6472 113.1528,-15.7294"/>
</g>
<!-- Node1&#45;&gt;Node4 -->
<g id="edge4" class="edge">
<title>Node1&#45;&gt;Node4</title>
<path fill="none" stroke="#191970" d="M373.6457,-55.4795C333.0046,-46.008 269.007,-31.0933 224.9831,-20.8335"/>
<polygon fill="#191970" stroke="#191970" points="225.613,-17.3866 215.0795,-18.5255 224.0241,-24.2039 225.613,-17.3866"/>
</g>
<!-- Node1&#45;&gt;Node5 -->
<g id="edge5" class="edge">
<title>Node1&#45;&gt;Node5</title>
<path fill="none" stroke="#191970" d="M423.9111,-55.4179C434.386,-47.1876 450.0453,-34.8839 462.5184,-25.0836"/>
<polygon fill="#191970" stroke="#191970" points="464.841,-27.7098 470.5418,-18.7795 460.5162,-22.2056 464.841,-27.7098"/>
</g>
<!-- Node1&#45;&gt;Node6 -->
<g id="edge6" class="edge">
<title>Node1&#45;&gt;Node6</title>
<path fill="none" stroke="#191970" d="M445.2129,-55.4179C479.0166,-46.0751 531.8121,-31.4834 568.7914,-21.263"/>
<polygon fill="#191970" stroke="#191970" points="570.0669,-24.5418 578.7732,-18.5042 568.2021,-17.7947 570.0669,-24.5418"/>
</g>
<!-- Node1&#45;&gt;Node7 -->
<g id="edge7" class="edge">
<title>Node1&#45;&gt;Node7</title>
<path fill="none" stroke="#191970" d="M454.8832,-57.2166C505.0771,-48.6105 591.342,-33.7875 675.312,-19.1767"/>
<polygon fill="#191970" stroke="#191970" points="676.0214,-22.606 685.2729,-17.4427 674.8207,-15.7097 676.0214,-22.606"/>
</g>
</g>
</svg>
        <g id="navigator" transform="translate(0 0)" fill="#404254">
                <rect fill="#f2f5e9" fill-opacity="0.5" stroke="#606060" stroke-width=".5" x="0" y="0" width="60" height="60"/>
                <use id="zoomplus" xlink:href="#zoomPlus" x="17" y="9" onmousedown="handleZoom(evt,'in')"/>
                <use id="zoomminus" xlink:href="#zoomMin" x="42" y="9" onmousedown="handleZoom(evt,'out')"/>
                <use id="reset" xlink:href="#resetDef" x="30" y="36" onmousedown="handleReset()"/>
                <g id="arrowUp" xlink:href="#dirArrow" transform="translate(30 24)" onmousedown="handlePan(0,-1)">
                  <use xlink:href="#rim" fill="#404040">
                        <set attributeName="fill" to="#808080" begin="arrowUp.mouseover" end="arrowUp.mouseout"/>
                  </use>
                  <path fill="none" stroke="white" stroke-width="1.5" d="M0,-3.0v7 M-2.5,-0.5L0,-3.0L2.5,-0.5"/>
                </g>
                <g id="arrowRight" xlink:href="#dirArrow" transform="rotate(90) translate(36 -43)" onmousedown="handlePan(1,0)">
                  <use xlink:href="#rim" fill="#404040">
                        <set attributeName="fill" to="#808080" begin="arrowRight.mouseover" end="arrowRight.mouseout"/>
                  </use>
                  <path fill="none" stroke="white" stroke-width="1.5" d="M0,-3.0v7 M-2.5,-0.5L0,-3.0L2.5,-0.5"/>
                </g>
                <g id="arrowDown" xlink:href="#dirArrow" transform="rotate(180) translate(-30 -48)" onmousedown="handlePan(0,1)">
                  <use xlink:href="#rim" fill="#404040">
                        <set attributeName="fill" to="#808080" begin="arrowDown.mouseover" end="arrowDown.mouseout"/>
                  </use>
                  <path fill="none" stroke="white" stroke-width="1.5" d="M0,-3.0v7 M-2.5,-0.5L0,-3.0L2.5,-0.5"/>
                </g>
                <g id="arrowLeft" xlink:href="#dirArrow" transform="rotate(270) translate(-36 17)" onmousedown="handlePan(-1,0)">
                  <use xlink:href="#rim" fill="#404040">
                        <set attributeName="fill" to="#808080" begin="arrowLeft.mouseover" end="arrowLeft.mouseout"/>
                  </use>
                  <path fill="none" stroke="white" stroke-width="1.5" d="M0,-3.0v7 M-2.5,-0.5L0,-3.0L2.5,-0.5"/>
                </g>
        </g>
        <svg viewBox="0 0 15 15" width="100%" height="30px" preserveAspectRatio="xMaxYMin meet">
         <g id="arrow_out" transform="scale(0.3 0.3)">
          <a xlink:href="iCubFwdKinModel_8h__incl_org.svg" target="_base">
           <rect id="button" ry="5" rx="5" y="6" x="6" height="38" width="38"
                fill="#f2f5e9" fill-opacity="0.5" stroke="#606060" stroke-width="1.0"/>
           <path id="arrow"
             d="M 11.500037,31.436501 C 11.940474,20.09759 22.043105,11.32322 32.158766,21.979434 L 37.068811,17.246167 C 37.068811,17.246167 37.088388,32 37.088388,32 L 22.160133,31.978069 C 22.160133,31.978069 26.997745,27.140456 26.997745,27.140456 C 18.528582,18.264221 13.291696,25.230495 11.500037,31.436501 z"
             style="fill:#404040;"/>
          </a>
         </g>
        </svg>
</svg>
