<?xml version="1.0" encoding="UTF-8" standalone="no"?>
<!DOCTYPE svg PUBLIC "-//W3C//DTD SVG 1.1//EN"
 "http://www.w3.org/Graphics/SVG/1.1/DTD/svg11.dtd">
<!-- Generated by graphviz version 2.40.1 (20161225.0304)
 -->
<!-- Title: /Users/Claudio/GitHub/visual&#45;tracking&#45;control/src/hand&#45;tracking/include/iCubGatePose.h Pages: 1 -->
<svg width="798pt" height="177pt"
 viewBox="0.00 0.00 798.20 177.00" xmlns="http://www.w3.org/2000/svg" xmlns:xlink="http://www.w3.org/1999/xlink">
<g id="graph0" class="graph" transform="scale(1 1) rotate(0) translate(4 173)">
<title>/Users/Claudio/GitHub/visual&#45;tracking&#45;control/src/hand&#45;tracking/include/iCubGatePose.h</title>
<polygon fill="#ffffff" stroke="transparent" points="-4,4 -4,-173 794.1968,-173 794.1968,4 -4,4"/>
<!-- Node0 -->
<g id="node1" class="node">
<title>Node0</title>
<polygon fill="#bfbfbf" stroke="#000000" points="366.2539,-120.5 366.2539,-168.5 496.1992,-168.5 496.1992,-120.5 366.2539,-120.5"/>
<text text-anchor="start" x="374.2539" y="-156.5" font-family="Helvetica,sans-Serif" font-size="10.00" fill="#000000">/Users/Claudio/GitHub</text>
<text text-anchor="start" x="374.2539" y="-146.5" font-family="Helvetica,sans-Serif" font-size="10.00" fill="#000000">/visual&#45;tracking&#45;control</text>
<text text-anchor="start" x="374.2539" y="-136.5" font-family="Helvetica,sans-Serif" font-size="10.00" fill="#000000">/src/hand&#45;tracking/include</text>
<text text-anchor="middle" x="431.2266" y="-126.5" font-family="Helvetica,sans-Serif" font-size="10.00" fill="#000000">/iCubGatePose.h</text>
</g>
<!-- Node1 -->
<g id="node2" class="node">
<title>Node1</title>
<g id="a_node2"><a xlink:href="GatePose_8h.html" target="_top" xlink:title="GatePose.h">
<polygon fill="#ffffff" stroke="#000000" points="103.8203,-65.5 103.8203,-83.5 172.6328,-83.5 172.6328,-65.5 103.8203,-65.5"/>
<text text-anchor="middle" x="138.2266" y="-71.5" font-family="Helvetica,sans-Serif" font-size="10.00" fill="#000000">GatePose.h</text>
</a>
</g>
</g>
<!-- Node0&#45;&gt;Node1 -->
<g id="edge1" class="edge">
<title>Node0&#45;&gt;Node1</title>
<path fill="none" stroke="#191970" d="M366.2004,-128.9647C310.4813,-115.653 231.707,-96.8332 182.8574,-85.1627"/>
<polygon fill="#191970" stroke="#191970" points="183.4463,-81.7049 172.9067,-82.7854 181.8197,-88.5133 183.4463,-81.7049"/>
</g>
<!-- Node5 -->
<g id="node6" class="node">
<title>Node5</title>
<polygon fill="#ffffff" stroke="#bfbfbf" points="190.8745,-65.5 190.8745,-83.5 293.5786,-83.5 293.5786,-65.5 190.8745,-65.5"/>
<text text-anchor="middle" x="242.2266" y="-71.5" font-family="Helvetica,sans-Serif" font-size="10.00" fill="#000000">iCub/iKin/iKinFwd.h</text>
</g>
<!-- Node0&#45;&gt;Node5 -->
<g id="edge5" class="edge">
<title>Node0&#45;&gt;Node5</title>
<path fill="none" stroke="#191970" d="M366.1835,-120.41C335.8298,-109.1679 300.971,-96.2572 275.9663,-86.9962"/>
<polygon fill="#191970" stroke="#191970" points="277.1563,-83.7046 266.5632,-83.5136 274.725,-90.2689 277.1563,-83.7046"/>
</g>
<!-- Node6 -->
<g id="node7" class="node">
<title>Node6</title>
<polygon fill="#ffffff" stroke="#bfbfbf" points="311.978,-65.5 311.978,-83.5 422.4751,-83.5 422.4751,-65.5 311.978,-65.5"/>
<text text-anchor="middle" x="367.2266" y="-71.5" font-family="Helvetica,sans-Serif" font-size="10.00" fill="#000000">yarp/dev/IEncoders.h</text>
</g>
<!-- Node0&#45;&gt;Node6 -->
<g id="edge6" class="edge">
<title>Node0&#45;&gt;Node6</title>
<path fill="none" stroke="#191970" d="M409.2014,-120.41C400.4331,-110.8196 390.5545,-100.015 382.5845,-91.2977"/>
<polygon fill="#191970" stroke="#191970" points="384.9572,-88.7059 375.6263,-83.6872 379.7909,-93.4293 384.9572,-88.7059"/>
</g>
<!-- Node7 -->
<g id="node8" class="node">
<title>Node7</title>
<polygon fill="#ffffff" stroke="#bfbfbf" points="440.7046,-65.5 440.7046,-83.5 551.7485,-83.5 551.7485,-65.5 440.7046,-65.5"/>
<text text-anchor="middle" x="496.2266" y="-71.5" font-family="Helvetica,sans-Serif" font-size="10.00" fill="#000000">yarp/dev/PolyDriver.h</text>
</g>
<!-- Node0&#45;&gt;Node7 -->
<g id="edge7" class="edge">
<title>Node0&#45;&gt;Node7</title>
<path fill="none" stroke="#191970" d="M453.5959,-120.41C462.593,-110.7207 472.7411,-99.7921 480.8784,-91.0288"/>
<polygon fill="#191970" stroke="#191970" points="483.4558,-93.3968 487.6956,-83.6872 478.3262,-88.6336 483.4558,-93.3968"/>
</g>
<!-- Node8 -->
<g id="node9" class="node">
<title>Node8</title>
<polygon fill="#ffffff" stroke="#bfbfbf" points="570.1479,-65.5 570.1479,-83.5 682.3052,-83.5 682.3052,-65.5 570.1479,-65.5"/>
<text text-anchor="middle" x="626.2266" y="-71.5" font-family="Helvetica,sans-Serif" font-size="10.00" fill="#000000">yarp/os/ConstString.h</text>
</g>
<!-- Node0&#45;&gt;Node8 -->
<g id="edge8" class="edge">
<title>Node0&#45;&gt;Node8</title>
<path fill="none" stroke="#191970" d="M496.4298,-121.0937C528.2389,-109.675 565.2184,-96.4004 591.5502,-86.9479"/>
<polygon fill="#191970" stroke="#191970" points="592.8584,-90.1971 601.0878,-83.5242 590.4933,-83.6087 592.8584,-90.1971"/>
</g>
<!-- Node9 -->
<g id="node10" class="node">
<title>Node9</title>
<polygon fill="#ffffff" stroke="#bfbfbf" points="700.2563,-65.5 700.2563,-83.5 790.1968,-83.5 790.1968,-65.5 700.2563,-65.5"/>
<text text-anchor="middle" x="745.2266" y="-71.5" font-family="Helvetica,sans-Serif" font-size="10.00" fill="#000000">yarp/sig/Vector.h</text>
</g>
<!-- Node0&#45;&gt;Node9 -->
<g id="edge9" class="edge">
<title>Node0&#45;&gt;Node9</title>
<path fill="none" stroke="#191970" d="M496.2876,-129.996C555.184,-116.8662 640.7326,-97.7948 694.6471,-85.7757"/>
<polygon fill="#191970" stroke="#191970" points="695.6627,-89.1353 704.6615,-83.5432 694.1396,-82.303 695.6627,-89.1353"/>
</g>
<!-- Node2 -->
<g id="node3" class="node">
<title>Node2</title>
<polygon fill="#ffffff" stroke="#bfbfbf" points="0,-5.5 0,-23.5 40.4531,-23.5 40.4531,-5.5 0,-5.5"/>
<text text-anchor="middle" x="20.2266" y="-11.5" font-family="Helvetica,sans-Serif" font-size="10.00" fill="#000000">string</text>
</g>
<!-- Node1&#45;&gt;Node2 -->
<g id="edge2" class="edge">
<title>Node1&#45;&gt;Node2</title>
<path fill="none" stroke="#191970" d="M120.3049,-65.3873C100.7857,-55.4623 69.3583,-39.4822 46.9303,-28.0782"/>
<polygon fill="#191970" stroke="#191970" points="48.4305,-24.9145 37.9302,-23.5019 45.2577,-31.1542 48.4305,-24.9145"/>
</g>
<!-- Node3 -->
<g id="node4" class="node">
<title>Node3</title>
<polygon fill="#ffffff" stroke="#bfbfbf" points="58.3467,-.5 58.3467,-28.5 218.1064,-28.5 218.1064,-.5 58.3467,-.5"/>
<text text-anchor="start" x="66.3467" y="-16.5" font-family="Helvetica,sans-Serif" font-size="10.00" fill="#000000">BayesFilters/PFVisualCorrection</text>
<text text-anchor="middle" x="138.2266" y="-6.5" font-family="Helvetica,sans-Serif" font-size="10.00" fill="#000000">Decorator.h</text>
</g>
<!-- Node1&#45;&gt;Node3 -->
<g id="edge3" class="edge">
<title>Node1&#45;&gt;Node3</title>
<path fill="none" stroke="#191970" d="M138.2266,-65.3873C138.2266,-58.3369 138.2266,-48.2311 138.2266,-38.8806"/>
<polygon fill="#191970" stroke="#191970" points="141.7267,-38.8476 138.2266,-28.8477 134.7267,-38.8477 141.7267,-38.8476"/>
</g>
<!-- Node4 -->
<g id="node5" class="node">
<title>Node4</title>
<polygon fill="#ffffff" stroke="#bfbfbf" points="235.8672,-5.5 235.8672,-23.5 368.5859,-23.5 368.5859,-5.5 235.8672,-5.5"/>
<text text-anchor="middle" x="302.2266" y="-11.5" font-family="Helvetica,sans-Serif" font-size="10.00" fill="#000000">BayesFilters/StateModel.h</text>
</g>
<!-- Node1&#45;&gt;Node4 -->
<g id="edge4" class="edge">
<title>Node1&#45;&gt;Node4</title>
<path fill="none" stroke="#191970" d="M163.1346,-65.3873C191.1107,-55.1521 236.6879,-38.4776 267.9977,-27.0228"/>
<polygon fill="#191970" stroke="#191970" points="269.4328,-30.2247 277.6214,-23.5019 267.0276,-23.6508 269.4328,-30.2247"/>
</g>
</g>
</svg>
