<?xml version="1.0" encoding="UTF-8" standalone="no"?>
<!DOCTYPE svg PUBLIC "-//W3C//DTD SVG 1.1//EN"
 "http://www.w3.org/Graphics/SVG/1.1/DTD/svg11.dtd">
<!-- Generated by graphviz version 2.40.1 (20161225.0304)
 -->
<!-- Title: /Users/Claudio/GitHub/visual&#45;tracking&#45;control/src/hand&#45;tracking/src/iCubFwdKinModel.cpp Pages: 1 -->
<svg width="1341pt" height="222pt"
 viewBox="0.00 0.00 1340.77 222.00" xmlns="http://www.w3.org/2000/svg" xmlns:xlink="http://www.w3.org/1999/xlink">
<g id="graph0" class="graph" transform="scale(1 1) rotate(0) translate(4 218)">
<title>/Users/Claudio/GitHub/visual&#45;tracking&#45;control/src/hand&#45;tracking/src/iCubFwdKinModel.cpp</title>
<polygon fill="#ffffff" stroke="transparent" points="-4,4 -4,-218 1336.7656,-218 1336.7656,4 -4,4"/>
<!-- Node0 -->
<g id="node1" class="node">
<title>Node0</title>
<polygon fill="#bfbfbf" stroke="#000000" points="741.2144,-165.5 741.2144,-213.5 909.4897,-213.5 909.4897,-165.5 741.2144,-165.5"/>
<text text-anchor="start" x="749.2144" y="-201.5" font-family="Helvetica,sans-Serif" font-size="10.00" fill="#000000">/Users/Claudio/GitHub</text>
<text text-anchor="start" x="749.2144" y="-191.5" font-family="Helvetica,sans-Serif" font-size="10.00" fill="#000000">/visual&#45;tracking&#45;control</text>
<text text-anchor="start" x="749.2144" y="-181.5" font-family="Helvetica,sans-Serif" font-size="10.00" fill="#000000">/src/hand&#45;tracking/src/iCubFwdKin</text>
<text text-anchor="middle" x="825.3521" y="-171.5" font-family="Helvetica,sans-Serif" font-size="10.00" fill="#000000">Model.cpp</text>
</g>
<!-- Node1 -->
<g id="node2" class="node">
<title>Node1</title>
<g id="a_node2"><a xlink:href="iCubFwdKinModel_8h.html" target="_top" xlink:title="iCubFwdKinModel.h">
<polygon fill="#ffffff" stroke="#000000" points="394.6084,-110.5 394.6084,-128.5 500.0957,-128.5 500.0957,-110.5 394.6084,-110.5"/>
<text text-anchor="middle" x="447.3521" y="-116.5" font-family="Helvetica,sans-Serif" font-size="10.00" fill="#000000">iCubFwdKinModel.h</text>
</a>
</g>
</g>
<!-- Node0&#45;&gt;Node1 -->
<g id="edge1" class="edge">
<title>Node0&#45;&gt;Node1</title>
<path fill="none" stroke="#191970" d="M740.992,-173.8778C669.6765,-160.6712 569.3363,-142.0897 506.3553,-130.4265"/>
<polygon fill="#191970" stroke="#191970" points="506.6658,-126.9246 496.1957,-128.5451 505.3911,-133.8076 506.6658,-126.9246"/>
</g>
<!-- Node9 -->
<g id="node10" class="node">
<title>Node9</title>
<polygon fill="#ffffff" stroke="#bfbfbf" points="517.9482,-110.5 517.9482,-128.5 576.7559,-128.5 576.7559,-110.5 517.9482,-110.5"/>
<text text-anchor="middle" x="547.3521" y="-116.5" font-family="Helvetica,sans-Serif" font-size="10.00" fill="#000000">exception</text>
</g>
<!-- Node0&#45;&gt;Node9 -->
<g id="edge14" class="edge">
<title>Node0&#45;&gt;Node9</title>
<path fill="none" stroke="#191970" d="M741.1885,-168.3077C689.8811,-155.3886 626.7026,-139.4803 586.7147,-129.4115"/>
<polygon fill="#191970" stroke="#191970" points="587.3742,-125.9683 576.8223,-126.9206 585.665,-132.7565 587.3742,-125.9683"/>
</g>
<!-- Node10 -->
<g id="node11" class="node">
<title>Node10</title>
<polygon fill="#ffffff" stroke="#bfbfbf" points="594.9482,-110.5 594.9482,-128.5 653.7559,-128.5 653.7559,-110.5 594.9482,-110.5"/>
<text text-anchor="middle" x="624.3521" y="-116.5" font-family="Helvetica,sans-Serif" font-size="10.00" fill="#000000">functional</text>
</g>
<!-- Node0&#45;&gt;Node10 -->
<g id="edge15" class="edge">
<title>Node0&#45;&gt;Node10</title>
<path fill="none" stroke="#191970" d="M756.1793,-165.41C723.7555,-154.1181 686.4982,-141.1429 659.8816,-131.8735"/>
<polygon fill="#191970" stroke="#191970" points="660.8287,-128.4972 650.2338,-128.5136 658.5264,-135.1078 660.8287,-128.4972"/>
</g>
<!-- Node11 -->
<g id="node12" class="node">
<title>Node11</title>
<polygon fill="#ffffff" stroke="#bfbfbf" points="671.3398,-110.5 671.3398,-128.5 757.3643,-128.5 757.3643,-110.5 671.3398,-110.5"/>
<text text-anchor="middle" x="714.3521" y="-116.5" font-family="Helvetica,sans-Serif" font-size="10.00" fill="#000000">iCub/ctrl/math.h</text>
</g>
<!-- Node0&#45;&gt;Node11 -->
<g id="edge16" class="edge">
<title>Node0&#45;&gt;Node11</title>
<path fill="none" stroke="#191970" d="M787.1521,-165.41C770.5875,-154.9638 751.7383,-143.0769 737.3705,-134.0161"/>
<polygon fill="#191970" stroke="#191970" points="738.9705,-130.8873 728.645,-128.5136 735.2365,-136.8083 738.9705,-130.8873"/>
</g>
<!-- Node12 -->
<g id="node13" class="node">
<title>Node12</title>
<polygon fill="#ffffff" stroke="#bfbfbf" points="775.6553,-110.5 775.6553,-128.5 875.0488,-128.5 875.0488,-110.5 775.6553,-110.5"/>
<text text-anchor="middle" x="825.3521" y="-116.5" font-family="Helvetica,sans-Serif" font-size="10.00" fill="#000000">yarp/eigen/Eigen.h</text>
</g>
<!-- Node0&#45;&gt;Node12 -->
<g id="edge17" class="edge">
<title>Node0&#45;&gt;Node12</title>
<path fill="none" stroke="#191970" d="M825.3521,-165.41C825.3521,-156.7094 825.3521,-147.0095 825.3521,-138.7754"/>
<polygon fill="#191970" stroke="#191970" points="828.8521,-138.6872 825.3521,-128.6872 821.8521,-138.6873 828.8521,-138.6872"/>
</g>
<!-- Node13 -->
<g id="node14" class="node">
<title>Node13</title>
<polygon fill="#ffffff" stroke="#bfbfbf" points="893.4458,-110.5 893.4458,-128.5 987.2583,-128.5 987.2583,-110.5 893.4458,-110.5"/>
<text text-anchor="middle" x="940.3521" y="-116.5" font-family="Helvetica,sans-Serif" font-size="10.00" fill="#000000">yarp/math/Math.h</text>
</g>
<!-- Node0&#45;&gt;Node13 -->
<g id="edge18" class="edge">
<title>Node0&#45;&gt;Node13</title>
<path fill="none" stroke="#191970" d="M864.9285,-165.41C882.2536,-154.8643 901.9907,-142.8504 916.9282,-133.758"/>
<polygon fill="#191970" stroke="#191970" points="918.8219,-136.7028 925.5441,-128.5136 915.1822,-130.7234 918.8219,-136.7028"/>
</g>
<!-- Node14 -->
<g id="node15" class="node">
<title>Node14</title>
<polygon fill="#ffffff" stroke="#bfbfbf" points="1005.6108,-110.5 1005.6108,-128.5 1091.0933,-128.5 1091.0933,-110.5 1005.6108,-110.5"/>
<text text-anchor="middle" x="1048.3521" y="-116.5" font-family="Helvetica,sans-Serif" font-size="10.00" fill="#000000">yarp/os/Bottle.h</text>
</g>
<!-- Node0&#45;&gt;Node14 -->
<g id="edge19" class="edge">
<title>Node0&#45;&gt;Node14</title>
<path fill="none" stroke="#191970" d="M902.096,-165.41C938.3855,-154.0186 980.1327,-140.9142 1009.7114,-131.6293"/>
<polygon fill="#191970" stroke="#191970" points="1011.1447,-134.8479 1019.6374,-128.5136 1009.0482,-128.1692 1011.1447,-134.8479"/>
</g>
<!-- Node15 -->
<g id="node16" class="node">
<title>Node15</title>
<polygon fill="#ffffff" stroke="#bfbfbf" points="1108.8687,-110.5 1108.8687,-128.5 1205.8354,-128.5 1205.8354,-110.5 1108.8687,-110.5"/>
<text text-anchor="middle" x="1157.3521" y="-116.5" font-family="Helvetica,sans-Serif" font-size="10.00" fill="#000000">yarp/os/Property.h</text>
</g>
<!-- Node0&#45;&gt;Node15 -->
<g id="edge20" class="edge">
<title>Node0&#45;&gt;Node15</title>
<path fill="none" stroke="#191970" d="M909.5589,-171.7456C970.7927,-158.8348 1051.8228,-141.7502 1104.2674,-130.6925"/>
<polygon fill="#191970" stroke="#191970" points="1105.2981,-134.0523 1114.3609,-128.5644 1103.8539,-127.2029 1105.2981,-134.0523"/>
</g>
<!-- Node16 -->
<g id="node17" class="node">
<title>Node16</title>
<polygon fill="#ffffff" stroke="#bfbfbf" points="1223.9385,-110.5 1223.9385,-128.5 1332.7656,-128.5 1332.7656,-110.5 1223.9385,-110.5"/>
<text text-anchor="middle" x="1278.3521" y="-116.5" font-family="Helvetica,sans-Serif" font-size="10.00" fill="#000000">yarp/os/LogStream.h</text>
</g>
<!-- Node0&#45;&gt;Node16 -->
<g id="edge21" class="edge">
<title>Node0&#45;&gt;Node16</title>
<path fill="none" stroke="#191970" d="M909.4962,-176.4976C997.5851,-162.8856 1133.9839,-141.8085 1213.8958,-129.4601"/>
<polygon fill="#191970" stroke="#191970" points="1214.4829,-132.911 1223.8311,-127.9249 1213.4139,-125.9931 1214.4829,-132.911"/>
</g>
<!-- Node2 -->
<g id="node3" class="node">
<title>Node2</title>
<g id="a_node3"><a xlink:href="FwdKinModel_8h.html" target="_top" xlink:title="FwdKinModel.h">
<polygon fill="#ffffff" stroke="#000000" points="369.8916,-55.5 369.8916,-73.5 454.8125,-73.5 454.8125,-55.5 369.8916,-55.5"/>
<text text-anchor="middle" x="412.3521" y="-61.5" font-family="Helvetica,sans-Serif" font-size="10.00" fill="#000000">FwdKinModel.h</text>
</a>
</g>
</g>
<!-- Node1&#45;&gt;Node2 -->
<g id="edge2" class="edge">
<title>Node1&#45;&gt;Node2</title>
<path fill="none" stroke="#191970" d="M441.5725,-110.4179C436.7379,-102.8207 429.6947,-91.7527 423.7344,-82.3866"/>
<polygon fill="#191970" stroke="#191970" points="426.5788,-80.337 418.2572,-73.7795 420.6731,-84.0952 426.5788,-80.337"/>
</g>
<!-- Node4 -->
<g id="node5" class="node">
<title>Node4</title>
<polygon fill="#ffffff" stroke="#bfbfbf" points="0,-.5 0,-18.5 102.7041,-18.5 102.7041,-.5 0,-.5"/>
<text text-anchor="middle" x="51.3521" y="-6.5" font-family="Helvetica,sans-Serif" font-size="10.00" fill="#000000">iCub/iKin/iKinFwd.h</text>
</g>
<!-- Node1&#45;&gt;Node4 -->
<g id="edge9" class="edge">
<title>Node1&#45;&gt;Node4</title>
<path fill="none" stroke="#191970" d="M414.9457,-110.4982C343.6456,-90.6927 173.2022,-43.3473 93.625,-21.2425"/>
<polygon fill="#191970" stroke="#191970" points="94.4999,-17.8531 83.928,-18.5489 92.6264,-24.5977 94.4999,-17.8531"/>
</g>
<!-- Node5 -->
<g id="node6" class="node">
<title>Node5</title>
<polygon fill="#ffffff" stroke="#bfbfbf" points="120.8301,-.5 120.8301,-18.5 231.874,-18.5 231.874,-.5 120.8301,-.5"/>
<text text-anchor="middle" x="176.3521" y="-6.5" font-family="Helvetica,sans-Serif" font-size="10.00" fill="#000000">yarp/dev/PolyDriver.h</text>
</g>
<!-- Node1&#45;&gt;Node5 -->
<g id="edge10" class="edge">
<title>Node1&#45;&gt;Node5</title>
<path fill="none" stroke="#191970" d="M425.175,-110.4982C377.2359,-91.0396 263.8046,-44.9974 208.1993,-22.4269"/>
<polygon fill="#191970" stroke="#191970" points="209.4177,-19.1442 198.8355,-18.6261 206.785,-25.6303 209.4177,-19.1442"/>
</g>
<!-- Node6 -->
<g id="node7" class="node">
<title>Node6</title>
<polygon fill="#ffffff" stroke="#bfbfbf" points="427.1035,-.5 427.1035,-18.5 537.6006,-18.5 537.6006,-.5 427.1035,-.5"/>
<text text-anchor="middle" x="482.3521" y="-6.5" font-family="Helvetica,sans-Serif" font-size="10.00" fill="#000000">yarp/dev/IEncoders.h</text>
</g>
<!-- Node1&#45;&gt;Node6 -->
<g id="edge11" class="edge">
<title>Node1&#45;&gt;Node6</title>
<path fill="none" stroke="#191970" d="M450.6779,-110.4822C454.0147,-101.3356 459.2356,-86.7495 463.3521,-74 468.2346,-58.8779 473.2968,-41.6007 476.9671,-28.736"/>
<polygon fill="#191970" stroke="#191970" points="480.4429,-29.3066 479.7947,-18.7317 473.7068,-27.4027 480.4429,-29.3066"/>
</g>
<!-- Node7 -->
<g id="node8" class="node">
<title>Node7</title>
<polygon fill="#ffffff" stroke="#bfbfbf" points="555.2734,-.5 555.2734,-18.5 667.4307,-18.5 667.4307,-.5 555.2734,-.5"/>
<text text-anchor="middle" x="611.3521" y="-6.5" font-family="Helvetica,sans-Serif" font-size="10.00" fill="#000000">yarp/os/ConstString.h</text>
</g>
<!-- Node1&#45;&gt;Node7 -->
<g id="edge12" class="edge">
<title>Node1&#45;&gt;Node7</title>
<path fill="none" stroke="#191970" d="M460.7729,-110.4982C489.0032,-91.5633 554.7623,-47.4566 589.2874,-24.2994"/>
<polygon fill="#191970" stroke="#191970" points="591.3905,-27.1033 597.7458,-18.6261 587.4913,-21.2898 591.3905,-27.1033"/>
</g>
<!-- Node8 -->
<g id="node9" class="node">
<title>Node8</title>
<polygon fill="#ffffff" stroke="#bfbfbf" points="685.3818,-.5 685.3818,-18.5 775.3223,-18.5 775.3223,-.5 685.3818,-.5"/>
<text text-anchor="middle" x="730.3521" y="-6.5" font-family="Helvetica,sans-Serif" font-size="10.00" fill="#000000">yarp/sig/Vector.h</text>
</g>
<!-- Node1&#45;&gt;Node8 -->
<g id="edge13" class="edge">
<title>Node1&#45;&gt;Node8</title>
<path fill="none" stroke="#191970" d="M470.5111,-110.4982C520.6767,-90.9993 639.5178,-44.8066 697.4544,-22.2871"/>
<polygon fill="#191970" stroke="#191970" points="698.8203,-25.5113 706.873,-18.6261 696.2843,-18.9868 698.8203,-25.5113"/>
</g>
<!-- Node3 -->
<g id="node4" class="node">
<title>Node3</title>
<polygon fill="#ffffff" stroke="#bfbfbf" points="249.6479,-.5 249.6479,-18.5 409.0562,-18.5 409.0562,-.5 249.6479,-.5"/>
<text text-anchor="middle" x="329.3521" y="-6.5" font-family="Helvetica,sans-Serif" font-size="10.00" fill="#000000">BayesFilters/ExogenousModel.h</text>
</g>
<!-- Node2&#45;&gt;Node3 -->
<g id="edge3" class="edge">
<title>Node2&#45;&gt;Node3</title>
<path fill="none" stroke="#191970" d="M398.6463,-55.4179C385.9109,-46.9788 366.7126,-34.257 351.7508,-24.3426"/>
<polygon fill="#191970" stroke="#191970" points="353.3475,-21.2019 343.0782,-18.5956 349.4808,-27.037 353.3475,-21.2019"/>
</g>
<!-- Node2&#45;&gt;Node4 -->
<g id="edge4" class="edge">
<title>Node2&#45;&gt;Node4</title>
<path fill="none" stroke="#191970" d="M369.4706,-58.1144C313.0124,-49.6858 210.3791,-34.2904 112.7719,-19.212"/>
<polygon fill="#191970" stroke="#191970" points="113.1528,-15.7294 102.7353,-17.6599 112.0829,-22.6472 113.1528,-15.7294"/>
</g>
<!-- Node2&#45;&gt;Node5 -->
<g id="edge5" class="edge">
<title>Node2&#45;&gt;Node5</title>
<path fill="none" stroke="#191970" d="M373.6457,-55.4795C333.0046,-46.008 269.007,-31.0933 224.9831,-20.8335"/>
<polygon fill="#191970" stroke="#191970" points="225.613,-17.3866 215.0795,-18.5255 224.0241,-24.2039 225.613,-17.3866"/>
</g>
<!-- Node2&#45;&gt;Node6 -->
<g id="edge6" class="edge">
<title>Node2&#45;&gt;Node6</title>
<path fill="none" stroke="#191970" d="M423.9111,-55.4179C434.386,-47.1876 450.0453,-34.8839 462.5184,-25.0836"/>
<polygon fill="#191970" stroke="#191970" points="464.841,-27.7098 470.5418,-18.7795 460.5162,-22.2056 464.841,-27.7098"/>
</g>
<!-- Node2&#45;&gt;Node7 -->
<g id="edge7" class="edge">
<title>Node2&#45;&gt;Node7</title>
<path fill="none" stroke="#191970" d="M445.2129,-55.4179C479.0166,-46.0751 531.8121,-31.4834 568.7914,-21.263"/>
<polygon fill="#191970" stroke="#191970" points="570.0669,-24.5418 578.7732,-18.5042 568.2021,-17.7947 570.0669,-24.5418"/>
</g>
<!-- Node2&#45;&gt;Node8 -->
<g id="edge8" class="edge">
<title>Node2&#45;&gt;Node8</title>
<path fill="none" stroke="#191970" d="M454.8832,-57.2166C505.0771,-48.6105 591.342,-33.7875 675.312,-19.1767"/>
<polygon fill="#191970" stroke="#191970" points="676.0214,-22.606 685.2729,-17.4427 674.8207,-15.7097 676.0214,-22.606"/>
</g>
</g>
</svg>
