<?xml version="1.0" encoding="UTF-8" standalone="no"?>
<!DOCTYPE svg PUBLIC "-//W3C//DTD SVG 1.1//EN"
 "http://www.w3.org/Graphics/SVG/1.1/DTD/svg11.dtd">
<!-- Generated by graphviz version 2.40.1 (20161225.0304)
 -->
<!-- Title: Graphical Class Hierarchy Pages: 1 -->
<svg width="347pt" height="64pt"
 viewBox="0.00 0.00 347.00 64.00" xmlns="http://www.w3.org/2000/svg" xmlns:xlink="http://www.w3.org/1999/xlink">
<g id="graph0" class="graph" transform="scale(1 1) rotate(0) translate(4 60)">
<title>Graphical Class Hierarchy</title>
<polygon fill="#ffffff" stroke="transparent" points="-4,4 -4,-60 343.0039,-60 343.0039,4 -4,4"/>
<!-- Node25 -->
<g id="node1" class="node">
<title>Node25</title>
<polygon fill="#ffffff" stroke="#bfbfbf" points="0,-18.5 0,-36.5 93.2754,-36.5 93.2754,-18.5 0,-18.5"/>
<text text-anchor="middle" x="46.6377" y="-24.5" font-family="Helvetica,sans-Serif" font-size="10.00" fill="#000000">ExogenousModel</text>
</g>
<!-- Node0 -->
<g id="node2" class="node">
<title>Node0</title>
<g id="a_node2"><a xlink:href="classFwdKinModel.html" target="_top" xlink:title="FwdKinModel">
<polygon fill="#ffffff" stroke="#000000" points="129.2754,-18.5 129.2754,-36.5 205.8564,-36.5 205.8564,-18.5 129.2754,-18.5"/>
<text text-anchor="middle" x="167.5659" y="-24.5" font-family="Helvetica,sans-Serif" font-size="10.00" fill="#000000">FwdKinModel</text>
</a>
</g>
</g>
<!-- Node25&#45;&gt;Node0 -->
<g id="edge1" class="edge">
<title>Node25&#45;&gt;Node0</title>
<path fill="none" stroke="#191970" d="M103.5058,-27.5C112.1973,-27.5 120.9882,-27.5 129.1568,-27.5"/>
<polygon fill="#191970" stroke="#191970" points="103.3917,-24.0001 93.3917,-27.5 103.3917,-31.0001 103.3917,-24.0001"/>
</g>
<!-- Node1 -->
<g id="node3" class="node">
<title>Node1</title>
<g id="a_node3"><a xlink:href="classiCubFwdKinModel.html" target="_top" xlink:title="iCubFwdKinModel">
<polygon fill="#ffffff" stroke="#000000" points="241.8564,-37.5 241.8564,-55.5 339.0039,-55.5 339.0039,-37.5 241.8564,-37.5"/>
<text text-anchor="middle" x="290.4302" y="-43.5" font-family="Helvetica,sans-Serif" font-size="10.00" fill="#000000">iCubFwdKinModel</text>
</a>
</g>
</g>
<!-- Node0&#45;&gt;Node1 -->
<g id="edge2" class="edge">
<title>Node0&#45;&gt;Node1</title>
<path fill="none" stroke="#191970" d="M216.1239,-35.0091C224.5115,-36.3062 233.2343,-37.6551 241.6283,-38.9532"/>
<polygon fill="#191970" stroke="#191970" points="216.5213,-31.529 206.1038,-33.4596 215.4514,-38.4468 216.5213,-31.529"/>
</g>
<!-- Node2 -->
<g id="node4" class="node">
<title>Node2</title>
<g id="a_node4"><a xlink:href="classPlayFwdKinModel.html" target="_top" xlink:title="PlayFwdKinModel">
<polygon fill="#ffffff" stroke="#000000" points="242.4131,-.5 242.4131,-18.5 338.4473,-18.5 338.4473,-.5 242.4131,-.5"/>
<text text-anchor="middle" x="290.4302" y="-6.5" font-family="Helvetica,sans-Serif" font-size="10.00" fill="#000000">PlayFwdKinModel</text>
</a>
</g>
</g>
<!-- Node0&#45;&gt;Node2 -->
<g id="edge3" class="edge">
<title>Node0&#45;&gt;Node2</title>
<path fill="none" stroke="#191970" d="M216.2518,-20.3674C224.7477,-19.1227 233.5837,-17.8282 242.0708,-16.5848"/>
<polygon fill="#191970" stroke="#191970" points="215.4908,-16.9414 206.1038,-21.8541 216.5056,-23.8675 215.4908,-16.9414"/>
</g>
</g>
</svg>
