<?xml version="1.0" encoding="UTF-8" standalone="no"?>
<!DOCTYPE svg PUBLIC "-//W3C//DTD SVG 1.1//EN"
 "http://www.w3.org/Graphics/SVG/1.1/DTD/svg11.dtd">
<!-- Generated by graphviz version 2.40.1 (20161225.0304)
 -->
<!-- Title: Graphical Class Hierarchy Pages: 1 -->
<svg width="367pt" height="64pt"
 viewBox="0.00 0.00 367.38 64.00" xmlns="http://www.w3.org/2000/svg" xmlns:xlink="http://www.w3.org/1999/xlink">
<g id="graph0" class="graph" transform="scale(1 1) rotate(0) translate(4 60)">
<title>Graphical Class Hierarchy</title>
<polygon fill="#ffffff" stroke="transparent" points="-4,4 -4,-60 363.3848,-60 363.3848,4 -4,4"/>
<!-- Node13 -->
<g id="node1" class="node">
<title>Node13</title>
<polygon fill="#ffffff" stroke="#bfbfbf" points="0,-18.5 0,-36.5 145.873,-36.5 145.873,-18.5 0,-18.5"/>
<text text-anchor="middle" x="72.9365" y="-24.5" font-family="Helvetica,sans-Serif" font-size="10.00" fill="#000000">PFVisualCorrectionDecorator</text>
</g>
<!-- Node0 -->
<g id="node2" class="node">
<title>Node0</title>
<g id="a_node2"><a xlink:href="classGatePose.html" target="_top" xlink:title="GatePose">
<polygon fill="#ffffff" stroke="#000000" points="181.873,-18.5 181.873,-36.5 242.3457,-36.5 242.3457,-18.5 181.873,-18.5"/>
<text text-anchor="middle" x="212.1094" y="-24.5" font-family="Helvetica,sans-Serif" font-size="10.00" fill="#000000">GatePose</text>
</a>
</g>
</g>
<!-- Node13&#45;&gt;Node0 -->
<g id="edge1" class="edge">
<title>Node13&#45;&gt;Node0</title>
<path fill="none" stroke="#191970" d="M156.4354,-27.5C165.4174,-27.5 174.0771,-27.5 181.7822,-27.5"/>
<polygon fill="#191970" stroke="#191970" points="156.1911,-24.0001 146.191,-27.5 156.191,-31.0001 156.1911,-24.0001"/>
</g>
<!-- Node1 -->
<g id="node3" class="node">
<title>Node1</title>
<g id="a_node3"><a xlink:href="classiCubGatePose.html" target="_top" xlink:title="iCubGatePose">
<polygon fill="#ffffff" stroke="#000000" points="278.3457,-37.5 278.3457,-55.5 359.3848,-55.5 359.3848,-37.5 278.3457,-37.5"/>
<text text-anchor="middle" x="318.8652" y="-43.5" font-family="Helvetica,sans-Serif" font-size="10.00" fill="#000000">iCubGatePose</text>
</a>
</g>
</g>
<!-- Node0&#45;&gt;Node1 -->
<g id="edge2" class="edge">
<title>Node0&#45;&gt;Node1</title>
<path fill="none" stroke="#191970" d="M252.3898,-34.669C260.805,-36.1667 269.6831,-37.7467 278.1152,-39.2475"/>
<polygon fill="#191970" stroke="#191970" points="252.8744,-31.2003 242.4158,-32.8938 251.6477,-38.092 252.8744,-31.2003"/>
</g>
<!-- Node2 -->
<g id="node4" class="node">
<title>Node2</title>
<g id="a_node4"><a xlink:href="classPlayGatePose.html" target="_top" xlink:title="PlayGatePose">
<polygon fill="#ffffff" stroke="#000000" points="278.9023,-.5 278.9023,-18.5 358.8281,-18.5 358.8281,-.5 278.9023,-.5"/>
<text text-anchor="middle" x="318.8652" y="-6.5" font-family="Helvetica,sans-Serif" font-size="10.00" fill="#000000">PlayGatePose</text>
</a>
</g>
</g>
<!-- Node0&#45;&gt;Node2 -->
<g id="edge3" class="edge">
<title>Node0&#45;&gt;Node2</title>
<path fill="none" stroke="#191970" d="M252.5039,-20.6891C261.0168,-19.2538 269.9987,-17.7393 278.5102,-16.3042"/>
<polygon fill="#191970" stroke="#191970" points="251.6946,-17.2761 242.4158,-22.3901 252.8585,-24.1787 251.6946,-17.2761"/>
</g>
</g>
</svg>
