<?xml version="1.0" encoding="UTF-8" standalone="no"?>
<!DOCTYPE svg PUBLIC "-//W3C//DTD SVG 1.1//EN"
 "http://www.w3.org/Graphics/SVG/1.1/DTD/svg11.dtd">
<!-- Generated by graphviz version 2.40.1 (20161225.0304)
 -->
<!-- Title: Graphical Class Hierarchy Pages: 1 -->
<svg width="368pt" height="156pt"
 viewBox="0.00 0.00 367.58 156.00" xmlns="http://www.w3.org/2000/svg" xmlns:xlink="http://www.w3.org/1999/xlink">
<g id="graph0" class="graph" transform="scale(1 1) rotate(0) translate(4 152)">
<title>Graphical Class Hierarchy</title>
<polygon fill="#ffffff" stroke="transparent" points="-4,4 -4,-152 363.5752,-152 363.5752,4 -4,4"/>
<!-- Node29 -->
<g id="node1" class="node">
<title>Node29</title>
<polygon fill="#ffffff" stroke="#bfbfbf" points="12.4292,-129.5 12.4292,-147.5 85.6606,-147.5 85.6606,-129.5 12.4292,-129.5"/>
<text text-anchor="middle" x="49.0449" y="-135.5" font-family="Helvetica,sans-Serif" font-size="10.00" fill="#000000">DeviceDriver</text>
</g>
<!-- Node22 -->
<g id="node2" class="node">
<title>Node22</title>
<g id="a_node2"><a xlink:href="classVisualServoingClient.html" target="_top" xlink:title="VisualServoingClient">
<polygon fill="#ffffff" stroke="#000000" points="145.1958,-124.5 145.1958,-142.5 253.2905,-142.5 253.2905,-124.5 145.1958,-124.5"/>
<text text-anchor="middle" x="199.2432" y="-130.5" font-family="Helvetica,sans-Serif" font-size="10.00" fill="#000000">VisualServoingClient</text>
</a>
</g>
</g>
<!-- Node29&#45;&gt;Node22 -->
<g id="edge1" class="edge">
<title>Node29&#45;&gt;Node22</title>
<path fill="none" stroke="#191970" d="M96.1772,-136.931C111.6692,-136.4153 129.0136,-135.8379 144.9908,-135.306"/>
<polygon fill="#191970" stroke="#191970" points="95.6655,-133.446 85.7875,-137.2769 95.8985,-140.4421 95.6655,-133.446"/>
</g>
<!-- Node1 -->
<g id="node3" class="node">
<title>Node1</title>
<g id="a_node3"><a xlink:href="classVisualServoingServer.html" target="_top" xlink:title="VisualServoingServer">
<polygon fill="#ffffff" stroke="#000000" points="143.2524,-83.5 143.2524,-101.5 255.2339,-101.5 255.2339,-83.5 143.2524,-83.5"/>
<text text-anchor="middle" x="199.2432" y="-89.5" font-family="Helvetica,sans-Serif" font-size="10.00" fill="#000000">VisualServoingServer</text>
</a>
</g>
</g>
<!-- Node29&#45;&gt;Node1 -->
<g id="edge2" class="edge">
<title>Node29&#45;&gt;Node1</title>
<path fill="none" stroke="#191970" d="M88.4298,-126.4379C113.8556,-118.651 146.4009,-108.6836 169.6305,-101.5692"/>
<polygon fill="#191970" stroke="#191970" points="87.2559,-123.1369 78.7193,-129.4119 89.3058,-129.83 87.2559,-123.1369"/>
</g>
<!-- Node21 -->
<g id="node4" class="node">
<title>Node21</title>
<polygon fill="#ffffff" stroke="#bfbfbf" points="6.3916,-92.5 6.3916,-110.5 91.6982,-110.5 91.6982,-92.5 6.3916,-92.5"/>
<text text-anchor="middle" x="49.0449" y="-98.5" font-family="Helvetica,sans-Serif" font-size="10.00" fill="#000000">IVisualServoing</text>
</g>
<!-- Node21&#45;&gt;Node22 -->
<g id="edge3" class="edge">
<title>Node21&#45;&gt;Node22</title>
<path fill="none" stroke="#191970" d="M101.4968,-112.675C119.5718,-116.5259 139.5777,-120.7882 156.7577,-124.4484"/>
<polygon fill="#191970" stroke="#191970" points="102.1938,-109.245 91.684,-110.5843 100.7351,-116.0913 102.1938,-109.245"/>
</g>
<!-- Node21&#45;&gt;Node1 -->
<g id="edge4" class="edge">
<title>Node21&#45;&gt;Node1</title>
<path fill="none" stroke="#191970" d="M102.4032,-98.3027C115.5725,-97.5136 129.7179,-96.666 143.0187,-95.869"/>
<polygon fill="#191970" stroke="#191970" points="101.8584,-94.829 92.0857,-98.921 102.2772,-101.8165 101.8584,-94.829"/>
</g>
<!-- Node8 -->
<g id="node5" class="node">
<title>Node8</title>
<polygon fill="#ffffff" stroke="#bfbfbf" points="25.2026,-55.5 25.2026,-73.5 72.8872,-73.5 72.8872,-55.5 25.2026,-55.5"/>
<text text-anchor="middle" x="49.0449" y="-61.5" font-family="Helvetica,sans-Serif" font-size="10.00" fill="#000000">Thread</text>
</g>
<!-- Node8&#45;&gt;Node1 -->
<g id="edge5" class="edge">
<title>Node8&#45;&gt;Node1</title>
<path fill="none" stroke="#006400" d="M83.0929,-70.8472C103.1292,-74.5824 128.7932,-79.3667 150.8992,-83.4877"/>
<polygon fill="#006400" stroke="#006400" points="83.649,-67.3907 73.1769,-68.9987 82.3661,-74.2721 83.649,-67.3907"/>
</g>
<!-- Node5 -->
<g id="node6" class="node">
<title>Node5</title>
<polygon fill="#ffffff" stroke="#bfbfbf" points="149.9297,-37.5 149.9297,-55.5 248.5566,-55.5 248.5566,-37.5 149.9297,-37.5"/>
<text text-anchor="middle" x="199.2432" y="-43.5" font-family="Helvetica,sans-Serif" font-size="10.00" fill="#000000">VisualParticleFilter</text>
</g>
<!-- Node4 -->
<g id="node7" class="node">
<title>Node4</title>
<g id="a_node7"><a xlink:href="classVisualSIS.html" target="_top" xlink:title="VisualSIS">
<polygon fill="#ffffff" stroke="#000000" points="300.3965,-18.5 300.3965,-36.5 359.5752,-36.5 359.5752,-18.5 300.3965,-18.5"/>
<text text-anchor="middle" x="329.9858" y="-24.5" font-family="Helvetica,sans-Serif" font-size="10.00" fill="#000000">VisualSIS</text>
</a>
</g>
</g>
<!-- Node5&#45;&gt;Node4 -->
<g id="edge6" class="edge">
<title>Node5&#45;&gt;Node4</title>
<path fill="none" stroke="#191970" d="M258.9835,-37.8183C273.2877,-35.7396 287.9542,-33.6082 300.2161,-31.8262"/>
<polygon fill="#191970" stroke="#191970" points="258.064,-34.4151 248.6714,-39.3169 259.0708,-41.3423 258.064,-34.4151"/>
</g>
<!-- Node0 -->
<g id="node8" class="node">
<title>Node0</title>
<g id="a_node8"><a xlink:href="classVisualServoingIDL.html" target="_top" xlink:title="VisualServoingIDL IDL Interface to ServerVisualServoing functionalities. ">
<polygon fill="#ffffff" stroke="#000000" points="0,-.5 0,-18.5 98.0898,-18.5 98.0898,-.5 0,-.5"/>
<text text-anchor="middle" x="49.0449" y="-6.5" font-family="Helvetica,sans-Serif" font-size="10.00" fill="#000000">VisualServoingIDL</text>
</a>
</g>
</g>
<!-- Node0&#45;&gt;Node1 -->
<g id="edge8" class="edge">
<title>Node0&#45;&gt;Node1</title>
<path fill="none" stroke="#191970" d="M69.7469,-24.7358C86.5604,-36.7102 111.1605,-53.3407 134.0898,-65.5 146.9624,-72.3262 161.9458,-78.6404 174.2962,-83.4435"/>
<polygon fill="#191970" stroke="#191970" points="71.4254,-21.631 61.2673,-18.6203 67.3308,-27.3086 71.4254,-21.631"/>
</g>
<!-- Node0&#45;&gt;Node0 -->
<g id="edge7" class="edge">
<title>Node0&#45;&gt;Node0</title>
<path fill="none" stroke="#191970" d="M20.9199,-26.7043C20.9382,-32.4256 30.3132,-37 49.0449,-37 76.291,-37 83.7411,-27.322 71.3952,-18.5134"/>
<polygon fill="#191970" stroke="#191970" points="23.793,-28.7032 26.6946,-18.5134 18.0719,-24.6697 23.793,-28.7032"/>
</g>
<!-- Node3 -->
<g id="node9" class="node">
<title>Node3</title>
<g id="a_node9"><a xlink:href="classVisualSISParticleFilterIDL.html" target="_top" xlink:title="VisualSISParticleFilterIDL IDL Interface to VisualSIRParticleFilter options. ">
<polygon fill="#ffffff" stroke="#000000" points="134.0898,-.5 134.0898,-18.5 264.3965,-18.5 264.3965,-.5 134.0898,-.5"/>
<text text-anchor="middle" x="199.2432" y="-6.5" font-family="Helvetica,sans-Serif" font-size="10.00" fill="#000000">VisualSISParticleFilterIDL</text>
</a>
</g>
</g>
<!-- Node0&#45;&gt;Node3 -->
<g id="edge9" class="edge">
<title>Node0&#45;&gt;Node3</title>
<path fill="none" stroke="#191970" d="M108.2899,-9.5C116.6779,-9.5 125.3424,-9.5 133.8385,-9.5"/>
<polygon fill="#191970" stroke="#191970" points="108.2255,-6.0001 98.2254,-9.5 108.2254,-13.0001 108.2255,-6.0001"/>
</g>
<!-- Node3&#45;&gt;Node4 -->
<g id="edge10" class="edge">
<title>Node3&#45;&gt;Node4</title>
<path fill="none" stroke="#191970" d="M274.551,-19.868C283.6449,-21.12 292.476,-22.3358 300.3183,-23.4155"/>
<polygon fill="#191970" stroke="#191970" points="274.9984,-16.3967 264.6145,-18.5 274.0437,-23.3313 274.9984,-16.3967"/>
</g>
</g>
</svg>
