<?xml version="1.0" encoding="UTF-8" standalone="no"?>
<!DOCTYPE svg PUBLIC "-//W3C//DTD SVG 1.1//EN"
 "http://www.w3.org/Graphics/SVG/1.1/DTD/svg11.dtd">
<!-- Generated by graphviz version 2.40.1 (20161225.0304)
 -->
<!-- Title: /Users/Claudio/GitHub/visual&#45;tracking&#45;control/src/hand&#45;tracking/include/InitiCubArm.h Pages: 1 -->
<svg width="739pt" height="112pt"
 viewBox="0.00 0.00 739.16 112.00" xmlns="http://www.w3.org/2000/svg" xmlns:xlink="http://www.w3.org/1999/xlink">
<g id="graph0" class="graph" transform="scale(1 1) rotate(0) translate(4 108)">
<title>/Users/Claudio/GitHub/visual&#45;tracking&#45;control/src/hand&#45;tracking/include/InitiCubArm.h</title>
<polygon fill="#ffffff" stroke="transparent" points="-4,4 -4,-108 735.1621,-108 735.1621,4 -4,4"/>
<!-- Node0 -->
<g id="node1" class="node">
<title>Node0</title>
<polygon fill="#bfbfbf" stroke="#000000" points="310.2192,-55.5 310.2192,-103.5 440.1646,-103.5 440.1646,-55.5 310.2192,-55.5"/>
<text text-anchor="start" x="318.2192" y="-91.5" font-family="Helvetica,sans-Serif" font-size="10.00" fill="#000000">/Users/Claudio/GitHub</text>
<text text-anchor="start" x="318.2192" y="-81.5" font-family="Helvetica,sans-Serif" font-size="10.00" fill="#000000">/visual&#45;tracking&#45;control</text>
<text text-anchor="start" x="318.2192" y="-71.5" font-family="Helvetica,sans-Serif" font-size="10.00" fill="#000000">/src/hand&#45;tracking/include</text>
<text text-anchor="middle" x="375.1919" y="-61.5" font-family="Helvetica,sans-Serif" font-size="10.00" fill="#000000">/InitiCubArm.h</text>
</g>
<!-- Node1 -->
<g id="node2" class="node">
<title>Node1</title>
<polygon fill="#ffffff" stroke="#bfbfbf" points="0,-.5 0,-18.5 134.3838,-18.5 134.3838,-.5 0,-.5"/>
<text text-anchor="middle" x="67.1919" y="-6.5" font-family="Helvetica,sans-Serif" font-size="10.00" fill="#000000">BayesFilters/Initialization.h</text>
</g>
<!-- Node0&#45;&gt;Node1 -->
<g id="edge1" class="edge">
<title>Node0&#45;&gt;Node1</title>
<path fill="none" stroke="#191970" d="M309.873,-64.6548C252.2627,-51.5616 169.5353,-32.7599 117.092,-20.8409"/>
<polygon fill="#191970" stroke="#191970" points="117.5506,-17.356 107.0236,-18.5527 115.9992,-24.1819 117.5506,-17.356"/>
</g>
<!-- Node2 -->
<g id="node3" class="node">
<title>Node2</title>
<polygon fill="#ffffff" stroke="#bfbfbf" points="152.8398,-.5 152.8398,-18.5 255.5439,-18.5 255.5439,-.5 152.8398,-.5"/>
<text text-anchor="middle" x="204.1919" y="-6.5" font-family="Helvetica,sans-Serif" font-size="10.00" fill="#000000">iCub/iKin/iKinFwd.h</text>
</g>
<!-- Node0&#45;&gt;Node2 -->
<g id="edge2" class="edge">
<title>Node0&#45;&gt;Node2</title>
<path fill="none" stroke="#191970" d="M316.3434,-55.41C289.2451,-44.3171 258.1782,-31.5997 235.6239,-22.3669"/>
<polygon fill="#191970" stroke="#191970" points="236.7913,-19.0629 226.2107,-18.5136 234.1394,-25.5412 236.7913,-19.0629"/>
</g>
<!-- Node3 -->
<g id="node4" class="node">
<title>Node3</title>
<polygon fill="#ffffff" stroke="#bfbfbf" points="273.4507,-.5 273.4507,-18.5 358.9331,-18.5 358.9331,-.5 273.4507,-.5"/>
<text text-anchor="middle" x="316.1919" y="-6.5" font-family="Helvetica,sans-Serif" font-size="10.00" fill="#000000">yarp/os/Bottle.h</text>
</g>
<!-- Node0&#45;&gt;Node3 -->
<g id="edge3" class="edge">
<title>Node0&#45;&gt;Node3</title>
<path fill="none" stroke="#191970" d="M354.8874,-55.41C346.8875,-45.9185 337.885,-35.2376 330.5778,-26.568"/>
<polygon fill="#191970" stroke="#191970" points="333.0564,-24.0779 323.9354,-18.6872 327.704,-28.5892 333.0564,-24.0779"/>
</g>
<!-- Node4 -->
<g id="node5" class="node">
<title>Node4</title>
<polygon fill="#ffffff" stroke="#bfbfbf" points="377.2529,-.5 377.2529,-18.5 493.1309,-18.5 493.1309,-.5 377.2529,-.5"/>
<text text-anchor="middle" x="435.1919" y="-6.5" font-family="Helvetica,sans-Serif" font-size="10.00" fill="#000000">yarp/os/BufferedPort.h</text>
</g>
<!-- Node0&#45;&gt;Node4 -->
<g id="edge4" class="edge">
<title>Node0&#45;&gt;Node4</title>
<path fill="none" stroke="#191970" d="M395.8405,-55.41C404.0608,-45.8196 413.3219,-35.015 420.7939,-26.2977"/>
<polygon fill="#191970" stroke="#191970" points="423.4666,-28.5576 427.3171,-18.6872 418.1518,-24.002 423.4666,-28.5576"/>
</g>
<!-- Node5 -->
<g id="node6" class="node">
<title>Node5</title>
<polygon fill="#ffffff" stroke="#bfbfbf" points="511.1133,-.5 511.1133,-18.5 623.2705,-18.5 623.2705,-.5 511.1133,-.5"/>
<text text-anchor="middle" x="567.1919" y="-6.5" font-family="Helvetica,sans-Serif" font-size="10.00" fill="#000000">yarp/os/ConstString.h</text>
</g>
<!-- Node0&#45;&gt;Node5 -->
<g id="edge5" class="edge">
<title>Node0&#45;&gt;Node5</title>
<path fill="none" stroke="#191970" d="M440.1943,-55.8012C471.1197,-44.5263 506.8527,-31.4987 532.5219,-22.1401"/>
<polygon fill="#191970" stroke="#191970" points="533.9812,-25.3335 542.1774,-18.6199 531.5835,-18.7569 533.9812,-25.3335"/>
</g>
<!-- Node6 -->
<g id="node7" class="node">
<title>Node6</title>
<polygon fill="#ffffff" stroke="#bfbfbf" points="641.2217,-.5 641.2217,-18.5 731.1621,-18.5 731.1621,-.5 641.2217,-.5"/>
<text text-anchor="middle" x="686.1919" y="-6.5" font-family="Helvetica,sans-Serif" font-size="10.00" fill="#000000">yarp/sig/Vector.h</text>
</g>
<!-- Node0&#45;&gt;Node6 -->
<g id="edge6" class="edge">
<title>Node0&#45;&gt;Node6</title>
<path fill="none" stroke="#191970" d="M440.3877,-64.8257C498.619,-51.719 582.7057,-32.7927 635.8863,-20.8228"/>
<polygon fill="#191970" stroke="#191970" points="636.781,-24.2091 645.7683,-18.5986 635.2438,-17.3799 636.781,-24.2091"/>
</g>
</g>
</svg>
