<?xml version="1.0" encoding="UTF-8" standalone="no"?>
<!DOCTYPE svg PUBLIC "-//W3C//DTD SVG 1.1//EN"
 "http://www.w3.org/Graphics/SVG/1.1/DTD/svg11.dtd">
<!-- Generated by graphviz version 2.40.1 (20161225.0304)
 -->
<!-- Title: /Users/Claudio/GitHub/visual&#45;tracking&#45;control/src/hand&#45;tracking/src/InitiCubArm.cpp Pages: 1 -->
<svg width="739pt" height="167pt"
 viewBox="0.00 0.00 739.16 167.00" xmlns="http://www.w3.org/2000/svg" xmlns:xlink="http://www.w3.org/1999/xlink">
<g id="graph0" class="graph" transform="scale(1 1) rotate(0) translate(4 163)">
<title>/Users/Claudio/GitHub/visual&#45;tracking&#45;control/src/hand&#45;tracking/src/InitiCubArm.cpp</title>
<polygon fill="#ffffff" stroke="transparent" points="-4,4 -4,-163 735.1621,-163 735.1621,4 -4,4"/>
<!-- Node0 -->
<g id="node1" class="node">
<title>Node0</title>
<polygon fill="#bfbfbf" stroke="#000000" points="350.0566,-110.5 350.0566,-158.5 498.3271,-158.5 498.3271,-110.5 350.0566,-110.5"/>
<text text-anchor="start" x="358.0566" y="-146.5" font-family="Helvetica,sans-Serif" font-size="10.00" fill="#000000">/Users/Claudio/GitHub</text>
<text text-anchor="start" x="358.0566" y="-136.5" font-family="Helvetica,sans-Serif" font-size="10.00" fill="#000000">/visual&#45;tracking&#45;control</text>
<text text-anchor="start" x="358.0566" y="-126.5" font-family="Helvetica,sans-Serif" font-size="10.00" fill="#000000">/src/hand&#45;tracking/src/InitiCub</text>
<text text-anchor="middle" x="424.1919" y="-116.5" font-family="Helvetica,sans-Serif" font-size="10.00" fill="#000000">Arm.cpp</text>
</g>
<!-- Node1 -->
<g id="node2" class="node">
<title>Node1</title>
<g id="a_node2"><a xlink:href="InitiCubArm_8h.html" target="_top" xlink:title="InitiCubArm.h">
<polygon fill="#ffffff" stroke="#000000" points="336.9038,-55.5 336.9038,-73.5 413.48,-73.5 413.48,-55.5 336.9038,-55.5"/>
<text text-anchor="middle" x="375.1919" y="-61.5" font-family="Helvetica,sans-Serif" font-size="10.00" fill="#000000">InitiCubArm.h</text>
</a>
</g>
</g>
<!-- Node0&#45;&gt;Node1 -->
<g id="edge1" class="edge">
<title>Node0&#45;&gt;Node1</title>
<path fill="none" stroke="#191970" d="M407.3289,-110.41C400.8233,-101.1162 393.5194,-90.6821 387.5206,-82.1124"/>
<polygon fill="#191970" stroke="#191970" points="390.2249,-79.8724 381.623,-73.6872 384.4903,-83.8867 390.2249,-79.8724"/>
</g>
<!-- Node8 -->
<g id="node9" class="node">
<title>Node8</title>
<polygon fill="#ffffff" stroke="#bfbfbf" points="431.1797,-55.5 431.1797,-73.5 517.2041,-73.5 517.2041,-55.5 431.1797,-55.5"/>
<text text-anchor="middle" x="474.1919" y="-61.5" font-family="Helvetica,sans-Serif" font-size="10.00" fill="#000000">iCub/ctrl/math.h</text>
</g>
<!-- Node0&#45;&gt;Node8 -->
<g id="edge8" class="edge">
<title>Node0&#45;&gt;Node8</title>
<path fill="none" stroke="#191970" d="M441.3991,-110.41C448.1081,-101.0174 455.649,-90.46 461.8065,-81.8395"/>
<polygon fill="#191970" stroke="#191970" points="464.6652,-83.8589 467.6296,-73.6872 458.9691,-79.7902 464.6652,-83.8589"/>
</g>
<!-- Node2 -->
<g id="node3" class="node">
<title>Node2</title>
<polygon fill="#ffffff" stroke="#bfbfbf" points="0,-.5 0,-18.5 134.3838,-18.5 134.3838,-.5 0,-.5"/>
<text text-anchor="middle" x="67.1919" y="-6.5" font-family="Helvetica,sans-Serif" font-size="10.00" fill="#000000">BayesFilters/Initialization.h</text>
</g>
<!-- Node1&#45;&gt;Node2 -->
<g id="edge2" class="edge">
<title>Node1&#45;&gt;Node2</title>
<path fill="none" stroke="#191970" d="M336.8062,-57.6454C284.4111,-48.2891 189.939,-31.4191 127.8935,-20.3396"/>
<polygon fill="#191970" stroke="#191970" points="128.3052,-16.8578 117.8456,-18.5453 127.0746,-23.7488 128.3052,-16.8578"/>
</g>
<!-- Node3 -->
<g id="node4" class="node">
<title>Node3</title>
<polygon fill="#ffffff" stroke="#bfbfbf" points="152.8398,-.5 152.8398,-18.5 255.5439,-18.5 255.5439,-.5 152.8398,-.5"/>
<text text-anchor="middle" x="204.1919" y="-6.5" font-family="Helvetica,sans-Serif" font-size="10.00" fill="#000000">iCub/iKin/iKinFwd.h</text>
</g>
<!-- Node1&#45;&gt;Node3 -->
<g id="edge3" class="edge">
<title>Node1&#45;&gt;Node3</title>
<path fill="none" stroke="#191970" d="M346.9547,-55.4179C318.2797,-46.1949 273.7009,-31.8567 241.9929,-21.6582"/>
<polygon fill="#191970" stroke="#191970" points="242.7782,-18.2343 232.1868,-18.5042 240.6348,-24.8981 242.7782,-18.2343"/>
</g>
<!-- Node4 -->
<g id="node5" class="node">
<title>Node4</title>
<polygon fill="#ffffff" stroke="#bfbfbf" points="273.4507,-.5 273.4507,-18.5 358.9331,-18.5 358.9331,-.5 273.4507,-.5"/>
<text text-anchor="middle" x="316.1919" y="-6.5" font-family="Helvetica,sans-Serif" font-size="10.00" fill="#000000">yarp/os/Bottle.h</text>
</g>
<!-- Node1&#45;&gt;Node4 -->
<g id="edge4" class="edge">
<title>Node1&#45;&gt;Node4</title>
<path fill="none" stroke="#191970" d="M365.4492,-55.4179C356.7902,-47.3458 343.9279,-35.3556 333.5182,-25.6517"/>
<polygon fill="#191970" stroke="#191970" points="335.8475,-23.0381 326.1462,-18.7795 331.0743,-28.1584 335.8475,-23.0381"/>
</g>
<!-- Node5 -->
<g id="node6" class="node">
<title>Node5</title>
<polygon fill="#ffffff" stroke="#bfbfbf" points="377.2529,-.5 377.2529,-18.5 493.1309,-18.5 493.1309,-.5 377.2529,-.5"/>
<text text-anchor="middle" x="435.1919" y="-6.5" font-family="Helvetica,sans-Serif" font-size="10.00" fill="#000000">yarp/os/BufferedPort.h</text>
</g>
<!-- Node1&#45;&gt;Node5 -->
<g id="edge5" class="edge">
<title>Node1&#45;&gt;Node5</title>
<path fill="none" stroke="#191970" d="M385.0997,-55.4179C393.9055,-47.3458 406.9858,-35.3556 417.5719,-25.6517"/>
<polygon fill="#191970" stroke="#191970" points="420.0623,-28.1168 425.0689,-18.7795 415.3322,-22.9567 420.0623,-28.1168"/>
</g>
<!-- Node6 -->
<g id="node7" class="node">
<title>Node6</title>
<polygon fill="#ffffff" stroke="#bfbfbf" points="511.1133,-.5 511.1133,-18.5 623.2705,-18.5 623.2705,-.5 511.1133,-.5"/>
<text text-anchor="middle" x="567.1919" y="-6.5" font-family="Helvetica,sans-Serif" font-size="10.00" fill="#000000">yarp/os/ConstString.h</text>
</g>
<!-- Node1&#45;&gt;Node6 -->
<g id="edge6" class="edge">
<title>Node1&#45;&gt;Node6</title>
<path fill="none" stroke="#191970" d="M406.8968,-55.4179C439.5115,-46.0751 490.4498,-31.4834 526.1284,-21.263"/>
<polygon fill="#191970" stroke="#191970" points="527.1095,-24.6228 535.759,-18.5042 525.1818,-17.8934 527.1095,-24.6228"/>
</g>
<!-- Node7 -->
<g id="node8" class="node">
<title>Node7</title>
<polygon fill="#ffffff" stroke="#bfbfbf" points="641.2217,-.5 641.2217,-18.5 731.1621,-18.5 731.1621,-.5 641.2217,-.5"/>
<text text-anchor="middle" x="686.1919" y="-6.5" font-family="Helvetica,sans-Serif" font-size="10.00" fill="#000000">yarp/sig/Vector.h</text>
</g>
<!-- Node1&#45;&gt;Node7 -->
<g id="edge7" class="edge">
<title>Node1&#45;&gt;Node7</title>
<path fill="none" stroke="#191970" d="M413.648,-56.6303C416.5373,-56.0687 419.4096,-55.5196 422.1919,-55 512.1869,-38.1947 537.2489,-35.3805 631.1858,-19.1649"/>
<polygon fill="#191970" stroke="#191970" points="631.8572,-22.6008 641.1132,-17.4457 630.6626,-15.7035 631.8572,-22.6008"/>
</g>
</g>
</svg>
