<?xml version="1.0" encoding="UTF-8" standalone="no"?>
<!DOCTYPE svg PUBLIC "-//W3C//DTD SVG 1.1//EN"
 "http://www.w3.org/Graphics/SVG/1.1/DTD/svg11.dtd">
<!-- Generated by graphviz version 2.40.1 (20161225.0304)
 -->
<!-- Title: /Users/Claudio/GitHub/visual&#45;tracking&#45;control/src/hand&#45;tracking/src/PlayGatePose.cpp Pages: 1 -->
<!--zoomable 232 -->
<svg id="main" version="1.1" xmlns="http://www.w3.org/2000/svg" xmlns:xlink="http://www.w3.org/1999/xlink" xml:space="preserve" onload="init(evt)">
<style type="text/css"><![CDATA[
.edge:hover path { stroke: red; }
.edge:hover polygon { stroke: red; fill: red; }
]]></style>
<script type="text/javascript"><![CDATA[
var edges = document.getElementsByTagName('g');
if (edges && edges.length) {
  for (var i=0;i<edges.length;i++) {
    if (edges[i].id.substr(0,4)=='edge') {
      edges[i].setAttribute('class','edge');
    }
  }
}
]]></script>
        <defs>
                <circle id="rim" cx="0" cy="0" r="7"/>
                <circle id="rim2" cx="0" cy="0" r="3.5"/>
                <g id="zoomPlus">
                        <use xlink:href="#rim" fill="#404040">
                                <set attributeName="fill" to="#808080" begin="zoomplus.mouseover" end="zoomplus.mouseout"/>
                        </use>
                        <path d="M-4,0h8M0,-4v8" fill="none" stroke="white" stroke-width="1.5" pointer-events="none"/>
                </g>
                <g id="zoomMin">
                        <use xlink:href="#rim" fill="#404040">
                                <set attributeName="fill" to="#808080" begin="zoomminus.mouseover" end="zoomminus.mouseout"/>
                        </use>
                        <path d="M-4,0h8" fill="none" stroke="white" stroke-width="1.5" pointer-events="none"/>
                </g>
                <g id="dirArrow">
                        <path fill="none" stroke="white" stroke-width="1.5" d="M0,-3.0v7 M-2.5,-0.5L0,-3.0L2.5,-0.5"/>
                </g>
               <g id="resetDef">
                       <use xlink:href="#rim2" fill="#404040">
                               <set attributeName="fill" to="#808080" begin="reset.mouseover" end="reset.mouseout"/>
                       </use>
               </g>
        </defs>

<script type="text/javascript">
var viewWidth = 870;
var viewHeight = 232;
var sectionId = 'dynsection-0';
</script>
<script xlink:href="svgpan.js"/>
<svg id="graph" class="graph">
<g id="viewport">
<title>/Users/Claudio/GitHub/visual&#45;tracking&#45;control/src/hand&#45;tracking/src/PlayGatePose.cpp</title>
<polygon fill="#ffffff" stroke="transparent" points="-4,4 -4,-228 865.71,-228 865.71,4 -4,4"/>
<!-- Node0 -->
<g id="node1" class="node">
<title>Node0</title>
<polygon fill="#bfbfbf" stroke="#000000" points="492.478,-175.5 492.478,-223.5 647.9751,-223.5 647.9751,-175.5 492.478,-175.5"/>
<text text-anchor="start" x="500.478" y="-211.5" font-family="Helvetica,sans-Serif" font-size="10.00" fill="#000000">/Users/Claudio/GitHub</text>
<text text-anchor="start" x="500.478" y="-201.5" font-family="Helvetica,sans-Serif" font-size="10.00" fill="#000000">/visual&#45;tracking&#45;control</text>
<text text-anchor="start" x="500.478" y="-191.5" font-family="Helvetica,sans-Serif" font-size="10.00" fill="#000000">/src/hand&#45;tracking/src/PlayGate</text>
<text text-anchor="middle" x="570.2266" y="-181.5" font-family="Helvetica,sans-Serif" font-size="10.00" fill="#000000">Pose.cpp</text>
</g>
<!-- Node1 -->
<g id="node2" class="node">
<title>Node1</title>
<g id="a_node2"><a xlink:href="PlayGatePose_8h.html" target="_top" xlink:title="PlayGatePose.h">
<polygon fill="#ffffff" stroke="#000000" points="310.0938,-120.5 310.0938,-138.5 398.3594,-138.5 398.3594,-120.5 310.0938,-120.5"/>
<text text-anchor="middle" x="354.2266" y="-126.5" font-family="Helvetica,sans-Serif" font-size="10.00" fill="#000000">PlayGatePose.h</text>
</a>
</g>
</g>
<!-- Node0&#45;&gt;Node1 -->
<g id="edge1" class="edge">
<title>Node0&#45;&gt;Node1</title>
<path fill="none" stroke="#191970" d="M495.8916,-175.41C460.7412,-164.0186 420.3045,-150.9142 391.6542,-141.6293"/>
<polygon fill="#191970" stroke="#191970" points="392.6318,-138.267 382.0398,-138.5136 390.4737,-144.926 392.6318,-138.267"/>
</g>
<!-- Node10 -->
<g id="node11" class="node">
<title>Node10</title>
<polygon fill="#ffffff" stroke="#bfbfbf" points="416.2144,-120.5 416.2144,-138.5 502.2388,-138.5 502.2388,-120.5 416.2144,-120.5"/>
<text text-anchor="middle" x="459.2266" y="-126.5" font-family="Helvetica,sans-Serif" font-size="10.00" fill="#000000">iCub/ctrl/math.h</text>
</g>
<!-- Node0&#45;&gt;Node10 -->
<g id="edge10" class="edge">
<title>Node0&#45;&gt;Node10</title>
<path fill="none" stroke="#191970" d="M532.0267,-175.41C515.462,-164.9638 496.6128,-153.0769 482.245,-144.0161"/>
<polygon fill="#191970" stroke="#191970" points="483.845,-140.8873 473.5195,-138.5136 480.111,-146.8083 483.845,-140.8873"/>
</g>
<!-- Node11 -->
<g id="node12" class="node">
<title>Node11</title>
<polygon fill="#ffffff" stroke="#bfbfbf" points="520.5298,-120.5 520.5298,-138.5 619.9233,-138.5 619.9233,-120.5 520.5298,-120.5"/>
<text text-anchor="middle" x="570.2266" y="-126.5" font-family="Helvetica,sans-Serif" font-size="10.00" fill="#000000">yarp/eigen/Eigen.h</text>
</g>
<!-- Node0&#45;&gt;Node11 -->
<g id="edge11" class="edge">
<title>Node0&#45;&gt;Node11</title>
<path fill="none" stroke="#191970" d="M570.2266,-175.41C570.2266,-166.7094 570.2266,-157.0095 570.2266,-148.7754"/>
<polygon fill="#191970" stroke="#191970" points="573.7267,-148.6872 570.2266,-138.6872 566.7267,-148.6873 573.7267,-148.6872"/>
</g>
<!-- Node12 -->
<g id="node13" class="node">
<title>Node12</title>
<polygon fill="#ffffff" stroke="#bfbfbf" points="637.813,-120.5 637.813,-138.5 746.6401,-138.5 746.6401,-120.5 637.813,-120.5"/>
<text text-anchor="middle" x="692.2266" y="-126.5" font-family="Helvetica,sans-Serif" font-size="10.00" fill="#000000">yarp/os/LogStream.h</text>
</g>
<!-- Node0&#45;&gt;Node12 -->
<g id="edge12" class="edge">
<title>Node0&#45;&gt;Node12</title>
<path fill="none" stroke="#191970" d="M612.212,-175.41C630.7651,-164.7648 651.9255,-152.6235 667.824,-143.5015"/>
<polygon fill="#191970" stroke="#191970" points="669.5854,-146.5261 676.5172,-138.5136 666.1017,-140.4545 669.5854,-146.5261"/>
</g>
<!-- Node13 -->
<g id="node14" class="node">
<title>Node13</title>
<polygon fill="#ffffff" stroke="#bfbfbf" points="764.7432,-120.5 764.7432,-138.5 861.71,-138.5 861.71,-120.5 764.7432,-120.5"/>
<text text-anchor="middle" x="813.2266" y="-126.5" font-family="Helvetica,sans-Serif" font-size="10.00" fill="#000000">yarp/os/Property.h</text>
</g>
<!-- Node0&#45;&gt;Node13 -->
<g id="edge13" class="edge">
<title>Node0&#45;&gt;Node13</title>
<path fill="none" stroke="#191970" d="M648.116,-177.0627C689.2548,-165.212 738.0845,-151.1459 771.9205,-141.3989"/>
<polygon fill="#191970" stroke="#191970" points="773.2745,-144.6512 781.9149,-138.5198 771.3367,-137.9248 773.2745,-144.6512"/>
</g>
<!-- Node2 -->
<g id="node3" class="node">
<title>Node2</title>
<g id="a_node3"><a xlink:href="GatePose_8h.html" target="_top" xlink:title="GatePose.h">
<polygon fill="#ffffff" stroke="#000000" points="103.8203,-65.5 103.8203,-83.5 172.6328,-83.5 172.6328,-65.5 103.8203,-65.5"/>
<text text-anchor="middle" x="138.2266" y="-71.5" font-family="Helvetica,sans-Serif" font-size="10.00" fill="#000000">GatePose.h</text>
</a>
</g>
</g>
<!-- Node1&#45;&gt;Node2 -->
<g id="edge2" class="edge">
<title>Node1&#45;&gt;Node2</title>
<path fill="none" stroke="#191970" d="M318.5586,-120.4179C281.3325,-110.939 222.8874,-96.0571 182.6798,-85.8191"/>
<polygon fill="#191970" stroke="#191970" points="183.429,-82.3983 172.8745,-83.3224 181.7016,-89.1818 183.429,-82.3983"/>
</g>
<!-- Node6 -->
<g id="node7" class="node">
<title>Node6</title>
<polygon fill="#ffffff" stroke="#bfbfbf" points="190.8745,-65.5 190.8745,-83.5 293.5786,-83.5 293.5786,-65.5 190.8745,-65.5"/>
<text text-anchor="middle" x="242.2266" y="-71.5" font-family="Helvetica,sans-Serif" font-size="10.00" fill="#000000">iCub/iKin/iKinFwd.h</text>
</g>
<!-- Node1&#45;&gt;Node6 -->
<g id="edge6" class="edge">
<title>Node1&#45;&gt;Node6</title>
<path fill="none" stroke="#191970" d="M335.732,-120.4179C317.8174,-111.6205 290.4255,-98.1691 269.9122,-88.0956"/>
<polygon fill="#191970" stroke="#191970" points="271.2675,-84.8619 260.7486,-83.5956 268.1819,-91.1452 271.2675,-84.8619"/>
</g>
<!-- Node7 -->
<g id="node8" class="node">
<title>Node7</title>
<polygon fill="#ffffff" stroke="#bfbfbf" points="311.4854,-65.5 311.4854,-83.5 396.9678,-83.5 396.9678,-65.5 311.4854,-65.5"/>
<text text-anchor="middle" x="354.2266" y="-71.5" font-family="Helvetica,sans-Serif" font-size="10.00" fill="#000000">yarp/os/Bottle.h</text>
</g>
<!-- Node1&#45;&gt;Node7 -->
<g id="edge7" class="edge">
<title>Node1&#45;&gt;Node7</title>
<path fill="none" stroke="#191970" d="M354.2266,-120.4179C354.2266,-113.2164 354.2266,-102.8962 354.2266,-93.8632"/>
<polygon fill="#191970" stroke="#191970" points="357.7267,-93.7794 354.2266,-83.7795 350.7267,-93.7795 357.7267,-93.7794"/>
</g>
<!-- Node8 -->
<g id="node9" class="node">
<title>Node8</title>
<polygon fill="#ffffff" stroke="#bfbfbf" points="415.2876,-65.5 415.2876,-83.5 531.1655,-83.5 531.1655,-65.5 415.2876,-65.5"/>
<text text-anchor="middle" x="473.2266" y="-71.5" font-family="Helvetica,sans-Serif" font-size="10.00" fill="#000000">yarp/os/BufferedPort.h</text>
</g>
<!-- Node1&#45;&gt;Node8 -->
<g id="edge8" class="edge">
<title>Node1&#45;&gt;Node8</title>
<path fill="none" stroke="#191970" d="M373.877,-120.4179C393.0836,-111.5409 422.5428,-97.9253 444.4005,-87.823"/>
<polygon fill="#191970" stroke="#191970" points="445.938,-90.9682 453.5469,-83.5956 443.0012,-84.614 445.938,-90.9682"/>
</g>
<!-- Node9 -->
<g id="node10" class="node">
<title>Node9</title>
<polygon fill="#ffffff" stroke="#bfbfbf" points="549.2563,-65.5 549.2563,-83.5 639.1968,-83.5 639.1968,-65.5 549.2563,-65.5"/>
<text text-anchor="middle" x="594.2266" y="-71.5" font-family="Helvetica,sans-Serif" font-size="10.00" fill="#000000">yarp/sig/Vector.h</text>
</g>
<!-- Node1&#45;&gt;Node9 -->
<g id="edge9" class="edge">
<title>Node1&#45;&gt;Node9</title>
<path fill="none" stroke="#191970" d="M393.5889,-120.4795C435.0059,-110.9881 500.2754,-96.0305 545.0537,-85.7688"/>
<polygon fill="#191970" stroke="#191970" points="545.8772,-89.1709 554.8427,-83.5255 544.3135,-82.3477 545.8772,-89.1709"/>
</g>
<!-- Node3 -->
<g id="node4" class="node">
<title>Node3</title>
<polygon fill="#ffffff" stroke="#bfbfbf" points="0,-5.5 0,-23.5 40.4531,-23.5 40.4531,-5.5 0,-5.5"/>
<text text-anchor="middle" x="20.2266" y="-11.5" font-family="Helvetica,sans-Serif" font-size="10.00" fill="#000000">string</text>
</g>
<!-- Node2&#45;&gt;Node3 -->
<g id="edge3" class="edge">
<title>Node2&#45;&gt;Node3</title>
<path fill="none" stroke="#191970" d="M120.3049,-65.3873C100.7857,-55.4623 69.3583,-39.4822 46.9303,-28.0782"/>
<polygon fill="#191970" stroke="#191970" points="48.4305,-24.9145 37.9302,-23.5019 45.2577,-31.1542 48.4305,-24.9145"/>
</g>
<!-- Node4 -->
<g id="node5" class="node">
<title>Node4</title>
<polygon fill="#ffffff" stroke="#bfbfbf" points="58.3467,-.5 58.3467,-28.5 218.1064,-28.5 218.1064,-.5 58.3467,-.5"/>
<text text-anchor="start" x="66.3467" y="-16.5" font-family="Helvetica,sans-Serif" font-size="10.00" fill="#000000">BayesFilters/PFVisualCorrection</text>
<text text-anchor="middle" x="138.2266" y="-6.5" font-family="Helvetica,sans-Serif" font-size="10.00" fill="#000000">Decorator.h</text>
</g>
<!-- Node2&#45;&gt;Node4 -->
<g id="edge4" class="edge">
<title>Node2&#45;&gt;Node4</title>
<path fill="none" stroke="#191970" d="M138.2266,-65.3873C138.2266,-58.3369 138.2266,-48.2311 138.2266,-38.8806"/>
<polygon fill="#191970" stroke="#191970" points="141.7267,-38.8476 138.2266,-28.8477 134.7267,-38.8477 141.7267,-38.8476"/>
</g>
<!-- Node5 -->
<g id="node6" class="node">
<title>Node5</title>
<polygon fill="#ffffff" stroke="#bfbfbf" points="235.8672,-5.5 235.8672,-23.5 368.5859,-23.5 368.5859,-5.5 235.8672,-5.5"/>
<text text-anchor="middle" x="302.2266" y="-11.5" font-family="Helvetica,sans-Serif" font-size="10.00" fill="#000000">BayesFilters/StateModel.h</text>
</g>
<!-- Node2&#45;&gt;Node5 -->
<g id="edge5" class="edge">
<title>Node2&#45;&gt;Node5</title>
<path fill="none" stroke="#191970" d="M163.1346,-65.3873C191.1107,-55.1521 236.6879,-38.4776 267.9977,-27.0228"/>
<polygon fill="#191970" stroke="#191970" points="269.4328,-30.2247 277.6214,-23.5019 267.0276,-23.6508 269.4328,-30.2247"/>
</g>
</g>
</svg>
        <g id="navigator" transform="translate(0 0)" fill="#404254">
                <rect fill="#f2f5e9" fill-opacity="0.5" stroke="#606060" stroke-width=".5" x="0" y="0" width="60" height="60"/>
                <use id="zoomplus" xlink:href="#zoomPlus" x="17" y="9" onmousedown="handleZoom(evt,'in')"/>
                <use id="zoomminus" xlink:href="#zoomMin" x="42" y="9" onmousedown="handleZoom(evt,'out')"/>
                <use id="reset" xlink:href="#resetDef" x="30" y="36" onmousedown="handleReset()"/>
                <g id="arrowUp" xlink:href="#dirArrow" transform="translate(30 24)" onmousedown="handlePan(0,-1)">
                  <use xlink:href="#rim" fill="#404040">
                        <set attributeName="fill" to="#808080" begin="arrowUp.mouseover" end="arrowUp.mouseout"/>
                  </use>
                  <path fill="none" stroke="white" stroke-width="1.5" d="M0,-3.0v7 M-2.5,-0.5L0,-3.0L2.5,-0.5"/>
                </g>
                <g id="arrowRight" xlink:href="#dirArrow" transform="rotate(90) translate(36 -43)" onmousedown="handlePan(1,0)">
                  <use xlink:href="#rim" fill="#404040">
                        <set attributeName="fill" to="#808080" begin="arrowRight.mouseover" end="arrowRight.mouseout"/>
                  </use>
                  <path fill="none" stroke="white" stroke-width="1.5" d="M0,-3.0v7 M-2.5,-0.5L0,-3.0L2.5,-0.5"/>
                </g>
                <g id="arrowDown" xlink:href="#dirArrow" transform="rotate(180) translate(-30 -48)" onmousedown="handlePan(0,1)">
                  <use xlink:href="#rim" fill="#404040">
                        <set attributeName="fill" to="#808080" begin="arrowDown.mouseover" end="arrowDown.mouseout"/>
                  </use>
                  <path fill="none" stroke="white" stroke-width="1.5" d="M0,-3.0v7 M-2.5,-0.5L0,-3.0L2.5,-0.5"/>
                </g>
                <g id="arrowLeft" xlink:href="#dirArrow" transform="rotate(270) translate(-36 17)" onmousedown="handlePan(-1,0)">
                  <use xlink:href="#rim" fill="#404040">
                        <set attributeName="fill" to="#808080" begin="arrowLeft.mouseover" end="arrowLeft.mouseout"/>
                  </use>
                  <path fill="none" stroke="white" stroke-width="1.5" d="M0,-3.0v7 M-2.5,-0.5L0,-3.0L2.5,-0.5"/>
                </g>
        </g>
        <svg viewBox="0 0 15 15" width="100%" height="30px" preserveAspectRatio="xMaxYMin meet">
         <g id="arrow_out" transform="scale(0.3 0.3)">
          <a xlink:href="PlayGatePose_8cpp__incl_org.svg" target="_base">
           <rect id="button" ry="5" rx="5" y="6" x="6" height="38" width="38"
                fill="#f2f5e9" fill-opacity="0.5" stroke="#606060" stroke-width="1.0"/>
           <path id="arrow"
             d="M 11.500037,31.436501 C 11.940474,20.09759 22.043105,11.32322 32.158766,21.979434 L 37.068811,17.246167 C 37.068811,17.246167 37.088388,32 37.088388,32 L 22.160133,31.978069 C 22.160133,31.978069 26.997745,27.140456 26.997745,27.140456 C 18.528582,18.264221 13.291696,25.230495 11.500037,31.436501 z"
             style="fill:#404040;"/>
          </a>
         </g>
        </svg>
</svg>
