<?xml version="1.0" encoding="UTF-8" standalone="no"?>
<!DOCTYPE svg PUBLIC "-//W3C//DTD SVG 1.1//EN"
 "http://www.w3.org/Graphics/SVG/1.1/DTD/svg11.dtd">
<!-- Generated by graphviz version 2.40.1 (20161225.0304)
 -->
<!-- Title: /Users/Claudio/GitHub/visual&#45;tracking&#45;control/src/hand&#45;tracking/include/PlayFwdKinModel.h Pages: 1 -->
<!--zoomable 167 -->
<svg id="main" version="1.1" xmlns="http://www.w3.org/2000/svg" xmlns:xlink="http://www.w3.org/1999/xlink" xml:space="preserve" onload="init(evt)">
<style type="text/css"><![CDATA[
.edge:hover path { stroke: red; }
.edge:hover polygon { stroke: red; fill: red; }
]]></style>
<script type="text/javascript"><![CDATA[
var edges = document.getElementsByTagName('g');
if (edges && edges.length) {
  for (var i=0;i<edges.length;i++) {
    if (edges[i].id.substr(0,4)=='edge') {
      edges[i].setAttribute('class','edge');
    }
  }
}
]]></script>
        <defs>
                <circle id="rim" cx="0" cy="0" r="7"/>
                <circle id="rim2" cx="0" cy="0" r="3.5"/>
                <g id="zoomPlus">
                        <use xlink:href="#rim" fill="#404040">
                                <set attributeName="fill" to="#808080" begin="zoomplus.mouseover" end="zoomplus.mouseout"/>
                        </use>
                        <path d="M-4,0h8M0,-4v8" fill="none" stroke="white" stroke-width="1.5" pointer-events="none"/>
                </g>
                <g id="zoomMin">
                        <use xlink:href="#rim" fill="#404040">
                                <set attributeName="fill" to="#808080" begin="zoomminus.mouseover" end="zoomminus.mouseout"/>
                        </use>
                        <path d="M-4,0h8" fill="none" stroke="white" stroke-width="1.5" pointer-events="none"/>
                </g>
                <g id="dirArrow">
                        <path fill="none" stroke="white" stroke-width="1.5" d="M0,-3.0v7 M-2.5,-0.5L0,-3.0L2.5,-0.5"/>
                </g>
               <g id="resetDef">
                       <use xlink:href="#rim2" fill="#404040">
                               <set attributeName="fill" to="#808080" begin="reset.mouseover" end="reset.mouseout"/>
                       </use>
               </g>
        </defs>

<script type="text/javascript">
var viewWidth = 875;
var viewHeight = 167;
var sectionId = 'dynsection-0';
</script>
<script xlink:href="svgpan.js"/>
<svg id="graph" class="graph">
<g id="viewport">
<title>/Users/Claudio/GitHub/visual&#45;tracking&#45;control/src/hand&#45;tracking/include/PlayFwdKinModel.h</title>
<polygon fill="#ffffff" stroke="transparent" points="-4,4 -4,-163 871.291,-163 871.291,4 -4,4"/>
<!-- Node0 -->
<g id="node1" class="node">
<title>Node0</title>
<polygon fill="#bfbfbf" stroke="#000000" points="535.3794,-110.5 535.3794,-158.5 665.3247,-158.5 665.3247,-110.5 535.3794,-110.5"/>
<text text-anchor="start" x="543.3794" y="-146.5" font-family="Helvetica,sans-Serif" font-size="10.00" fill="#000000">/Users/Claudio/GitHub</text>
<text text-anchor="start" x="543.3794" y="-136.5" font-family="Helvetica,sans-Serif" font-size="10.00" fill="#000000">/visual&#45;tracking&#45;control</text>
<text text-anchor="start" x="543.3794" y="-126.5" font-family="Helvetica,sans-Serif" font-size="10.00" fill="#000000">/src/hand&#45;tracking/include</text>
<text text-anchor="middle" x="600.3521" y="-116.5" font-family="Helvetica,sans-Serif" font-size="10.00" fill="#000000">/PlayFwdKinModel.h</text>
</g>
<!-- Node1 -->
<g id="node2" class="node">
<title>Node1</title>
<g id="a_node2"><a xlink:href="FwdKinModel_8h.html" target="_top" xlink:title="FwdKinModel.h">
<polygon fill="#ffffff" stroke="#000000" points="439.8916,-55.5 439.8916,-73.5 524.8125,-73.5 524.8125,-55.5 439.8916,-55.5"/>
<text text-anchor="middle" x="482.3521" y="-61.5" font-family="Helvetica,sans-Serif" font-size="10.00" fill="#000000">FwdKinModel.h</text>
</a>
</g>
</g>
<!-- Node0&#45;&gt;Node1 -->
<g id="edge1" class="edge">
<title>Node0&#45;&gt;Node1</title>
<path fill="none" stroke="#191970" d="M559.7431,-110.41C541.9661,-99.8643 521.7141,-87.8504 506.387,-78.758"/>
<polygon fill="#191970" stroke="#191970" points="507.9326,-75.6054 497.5463,-73.5136 504.3612,-81.6258 507.9326,-75.6054"/>
</g>
<!-- Node3 -->
<g id="node4" class="node">
<title>Node3</title>
<polygon fill="#ffffff" stroke="#bfbfbf" points="0,-.5 0,-18.5 102.7041,-18.5 102.7041,-.5 0,-.5"/>
<text text-anchor="middle" x="51.3521" y="-6.5" font-family="Helvetica,sans-Serif" font-size="10.00" fill="#000000">iCub/iKin/iKinFwd.h</text>
</g>
<!-- Node0&#45;&gt;Node3 -->
<g id="edge8" class="edge">
<title>Node0&#45;&gt;Node3</title>
<path fill="none" stroke="#191970" d="M535.2187,-119.67C424.1424,-94.3794 200.4593,-43.4497 100.9913,-20.8022"/>
<polygon fill="#191970" stroke="#191970" points="101.7197,-17.3785 91.1922,-18.5711 100.1656,-24.2039 101.7197,-17.3785"/>
</g>
<!-- Node6 -->
<g id="node7" class="node">
<title>Node6</title>
<polygon fill="#ffffff" stroke="#bfbfbf" points="555.2734,-.5 555.2734,-18.5 667.4307,-18.5 667.4307,-.5 555.2734,-.5"/>
<text text-anchor="middle" x="611.3521" y="-6.5" font-family="Helvetica,sans-Serif" font-size="10.00" fill="#000000">yarp/os/ConstString.h</text>
</g>
<!-- Node0&#45;&gt;Node6 -->
<g id="edge11" class="edge">
<title>Node0&#45;&gt;Node6</title>
<path fill="none" stroke="#191970" d="M601.4358,-110.4613C602.253,-94.674 603.5447,-73.5819 605.3521,-55 606.2005,-46.2767 607.4276,-36.6493 608.5513,-28.5053"/>
<polygon fill="#191970" stroke="#191970" points="612.025,-28.938 609.9743,-18.5436 605.0953,-27.9481 612.025,-28.938"/>
</g>
<!-- Node7 -->
<g id="node8" class="node">
<title>Node7</title>
<polygon fill="#ffffff" stroke="#bfbfbf" points="685.3818,-.5 685.3818,-18.5 775.3223,-18.5 775.3223,-.5 685.3818,-.5"/>
<text text-anchor="middle" x="730.3521" y="-6.5" font-family="Helvetica,sans-Serif" font-size="10.00" fill="#000000">yarp/sig/Vector.h</text>
</g>
<!-- Node0&#45;&gt;Node7 -->
<g id="edge12" class="edge">
<title>Node0&#45;&gt;Node7</title>
<path fill="none" stroke="#191970" d="M607.1707,-110.4445C613.072,-93.2321 623.095,-70.463 638.3521,-55 652.8187,-40.3381 672.9784,-29.6402 690.7404,-22.3158"/>
<polygon fill="#191970" stroke="#191970" points="692.2613,-25.4797 700.3101,-18.59 689.7216,-18.9566 692.2613,-25.4797"/>
</g>
<!-- Node8 -->
<g id="node9" class="node">
<title>Node8</title>
<polygon fill="#ffffff" stroke="#bfbfbf" points="647.6108,-55.5 647.6108,-73.5 733.0933,-73.5 733.0933,-55.5 647.6108,-55.5"/>
<text text-anchor="middle" x="690.3521" y="-61.5" font-family="Helvetica,sans-Serif" font-size="10.00" fill="#000000">yarp/os/Bottle.h</text>
</g>
<!-- Node0&#45;&gt;Node8 -->
<g id="edge9" class="edge">
<title>Node0&#45;&gt;Node8</title>
<path fill="none" stroke="#191970" d="M631.3249,-110.41C644.291,-100.3253 658.9834,-88.8979 670.4662,-79.9668"/>
<polygon fill="#191970" stroke="#191970" points="672.7951,-82.5894 678.5399,-73.6872 668.4975,-77.0639 672.7951,-82.5894"/>
</g>
<!-- Node9 -->
<g id="node10" class="node">
<title>Node9</title>
<polygon fill="#ffffff" stroke="#bfbfbf" points="751.4131,-55.5 751.4131,-73.5 867.291,-73.5 867.291,-55.5 751.4131,-55.5"/>
<text text-anchor="middle" x="809.3521" y="-61.5" font-family="Helvetica,sans-Serif" font-size="10.00" fill="#000000">yarp/os/BufferedPort.h</text>
</g>
<!-- Node0&#45;&gt;Node9 -->
<g id="edge10" class="edge">
<title>Node0&#45;&gt;Node9</title>
<path fill="none" stroke="#191970" d="M665.3353,-112.7353C700.7551,-100.8722 743.2779,-86.6301 772.8973,-76.7097"/>
<polygon fill="#191970" stroke="#191970" points="774.0478,-80.0156 782.4185,-73.5208 771.8246,-73.378 774.0478,-80.0156"/>
</g>
<!-- Node2 -->
<g id="node3" class="node">
<title>Node2</title>
<polygon fill="#ffffff" stroke="#bfbfbf" points="120.6479,-.5 120.6479,-18.5 280.0562,-18.5 280.0562,-.5 120.6479,-.5"/>
<text text-anchor="middle" x="200.3521" y="-6.5" font-family="Helvetica,sans-Serif" font-size="10.00" fill="#000000">BayesFilters/ExogenousModel.h</text>
</g>
<!-- Node1&#45;&gt;Node2 -->
<g id="edge2" class="edge">
<title>Node1&#45;&gt;Node2</title>
<path fill="none" stroke="#191970" d="M439.8285,-56.2064C390.9707,-46.6774 310.6048,-31.0032 256.6047,-20.4713"/>
<polygon fill="#191970" stroke="#191970" points="256.9931,-16.9811 246.508,-18.502 255.6531,-23.8517 256.9931,-16.9811"/>
</g>
<!-- Node1&#45;&gt;Node3 -->
<g id="edge3" class="edge">
<title>Node1&#45;&gt;Node3</title>
<path fill="none" stroke="#191970" d="M439.7233,-59.7631C372.484,-52.184 237.4395,-36.5278 112.8213,-19.1685"/>
<polygon fill="#191970" stroke="#191970" points="113.11,-15.6749 102.7213,-17.7546 112.1395,-22.6073 113.11,-15.6749"/>
</g>
<!-- Node4 -->
<g id="node5" class="node">
<title>Node4</title>
<polygon fill="#ffffff" stroke="#bfbfbf" points="297.8301,-.5 297.8301,-18.5 408.874,-18.5 408.874,-.5 297.8301,-.5"/>
<text text-anchor="middle" x="353.3521" y="-6.5" font-family="Helvetica,sans-Serif" font-size="10.00" fill="#000000">yarp/dev/PolyDriver.h</text>
</g>
<!-- Node1&#45;&gt;Node4 -->
<g id="edge4" class="edge">
<title>Node1&#45;&gt;Node4</title>
<path fill="none" stroke="#191970" d="M461.0503,-55.4179C440.043,-46.4613 407.7212,-32.6806 383.9649,-22.552"/>
<polygon fill="#191970" stroke="#191970" points="385.257,-19.2981 374.6854,-18.5956 382.5115,-25.7372 385.257,-19.2981"/>
</g>
<!-- Node5 -->
<g id="node6" class="node">
<title>Node5</title>
<polygon fill="#ffffff" stroke="#bfbfbf" points="427.1035,-.5 427.1035,-18.5 537.6006,-18.5 537.6006,-.5 427.1035,-.5"/>
<text text-anchor="middle" x="482.3521" y="-6.5" font-family="Helvetica,sans-Serif" font-size="10.00" fill="#000000">yarp/dev/IEncoders.h</text>
</g>
<!-- Node1&#45;&gt;Node5 -->
<g id="edge5" class="edge">
<title>Node1&#45;&gt;Node5</title>
<path fill="none" stroke="#191970" d="M482.3521,-55.4179C482.3521,-48.2164 482.3521,-37.8962 482.3521,-28.8632"/>
<polygon fill="#191970" stroke="#191970" points="485.8521,-28.7794 482.3521,-18.7795 478.8521,-28.7795 485.8521,-28.7794"/>
</g>
<!-- Node1&#45;&gt;Node6 -->
<g id="edge6" class="edge">
<title>Node1&#45;&gt;Node6</title>
<path fill="none" stroke="#191970" d="M503.6538,-55.4179C524.6611,-46.4613 556.9829,-32.6806 580.7392,-22.552"/>
<polygon fill="#191970" stroke="#191970" points="582.1926,-25.7372 590.0187,-18.5956 579.4471,-19.2981 582.1926,-25.7372"/>
</g>
<!-- Node1&#45;&gt;Node7 -->
<g id="edge7" class="edge">
<title>Node1&#45;&gt;Node7</title>
<path fill="none" stroke="#191970" d="M523.0265,-55.4795C565.9139,-45.9681 633.5526,-30.9676 679.8314,-20.7042"/>
<polygon fill="#191970" stroke="#191970" points="680.6504,-24.1077 689.6554,-18.5255 679.1348,-17.2737 680.6504,-24.1077"/>
</g>
</g>
</svg>
        <g id="navigator" transform="translate(0 0)" fill="#404254">
                <rect fill="#f2f5e9" fill-opacity="0.5" stroke="#606060" stroke-width=".5" x="0" y="0" width="60" height="60"/>
                <use id="zoomplus" xlink:href="#zoomPlus" x="17" y="9" onmousedown="handleZoom(evt,'in')"/>
                <use id="zoomminus" xlink:href="#zoomMin" x="42" y="9" onmousedown="handleZoom(evt,'out')"/>
                <use id="reset" xlink:href="#resetDef" x="30" y="36" onmousedown="handleReset()"/>
                <g id="arrowUp" xlink:href="#dirArrow" transform="translate(30 24)" onmousedown="handlePan(0,-1)">
                  <use xlink:href="#rim" fill="#404040">
                        <set attributeName="fill" to="#808080" begin="arrowUp.mouseover" end="arrowUp.mouseout"/>
                  </use>
                  <path fill="none" stroke="white" stroke-width="1.5" d="M0,-3.0v7 M-2.5,-0.5L0,-3.0L2.5,-0.5"/>
                </g>
                <g id="arrowRight" xlink:href="#dirArrow" transform="rotate(90) translate(36 -43)" onmousedown="handlePan(1,0)">
                  <use xlink:href="#rim" fill="#404040">
                        <set attributeName="fill" to="#808080" begin="arrowRight.mouseover" end="arrowRight.mouseout"/>
                  </use>
                  <path fill="none" stroke="white" stroke-width="1.5" d="M0,-3.0v7 M-2.5,-0.5L0,-3.0L2.5,-0.5"/>
                </g>
                <g id="arrowDown" xlink:href="#dirArrow" transform="rotate(180) translate(-30 -48)" onmousedown="handlePan(0,1)">
                  <use xlink:href="#rim" fill="#404040">
                        <set attributeName="fill" to="#808080" begin="arrowDown.mouseover" end="arrowDown.mouseout"/>
                  </use>
                  <path fill="none" stroke="white" stroke-width="1.5" d="M0,-3.0v7 M-2.5,-0.5L0,-3.0L2.5,-0.5"/>
                </g>
                <g id="arrowLeft" xlink:href="#dirArrow" transform="rotate(270) translate(-36 17)" onmousedown="handlePan(-1,0)">
                  <use xlink:href="#rim" fill="#404040">
                        <set attributeName="fill" to="#808080" begin="arrowLeft.mouseover" end="arrowLeft.mouseout"/>
                  </use>
                  <path fill="none" stroke="white" stroke-width="1.5" d="M0,-3.0v7 M-2.5,-0.5L0,-3.0L2.5,-0.5"/>
                </g>
        </g>
        <svg viewBox="0 0 15 15" width="100%" height="30px" preserveAspectRatio="xMaxYMin meet">
         <g id="arrow_out" transform="scale(0.3 0.3)">
          <a xlink:href="PlayFwdKinModel_8h__incl_org.svg" target="_base">
           <rect id="button" ry="5" rx="5" y="6" x="6" height="38" width="38"
                fill="#f2f5e9" fill-opacity="0.5" stroke="#606060" stroke-width="1.0"/>
           <path id="arrow"
             d="M 11.500037,31.436501 C 11.940474,20.09759 22.043105,11.32322 32.158766,21.979434 L 37.068811,17.246167 C 37.068811,17.246167 37.088388,32 37.088388,32 L 22.160133,31.978069 C 22.160133,31.978069 26.997745,27.140456 26.997745,27.140456 C 18.528582,18.264221 13.291696,25.230495 11.500037,31.436501 z"
             style="fill:#404040;"/>
          </a>
         </g>
        </svg>
</svg>
