<?xml version="1.0" encoding="UTF-8" standalone="no"?>
<!DOCTYPE svg PUBLIC "-//W3C//DTD SVG 1.1//EN"
 "http://www.w3.org/Graphics/SVG/1.1/DTD/svg11.dtd">
<!-- Generated by graphviz version 2.40.1 (20161225.0304)
 -->
<!-- Title: /Users/Claudio/GitHub/visual&#45;tracking&#45;control/src/hand&#45;tracking/src/PlayFwdKinModel.cpp Pages: 1 -->
<!--zoomable 222 -->
<svg id="main" version="1.1" xmlns="http://www.w3.org/2000/svg" xmlns:xlink="http://www.w3.org/1999/xlink" xml:space="preserve" onload="init(evt)">
<style type="text/css"><![CDATA[
.edge:hover path { stroke: red; }
.edge:hover polygon { stroke: red; fill: red; }
]]></style>
<script type="text/javascript"><![CDATA[
var edges = document.getElementsByTagName('g');
if (edges && edges.length) {
  for (var i=0;i<edges.length;i++) {
    if (edges[i].id.substr(0,4)=='edge') {
      edges[i].setAttribute('class','edge');
    }
  }
}
]]></script>
        <defs>
                <circle id="rim" cx="0" cy="0" r="7"/>
                <circle id="rim2" cx="0" cy="0" r="3.5"/>
                <g id="zoomPlus">
                        <use xlink:href="#rim" fill="#404040">
                                <set attributeName="fill" to="#808080" begin="zoomplus.mouseover" end="zoomplus.mouseout"/>
                        </use>
                        <path d="M-4,0h8M0,-4v8" fill="none" stroke="white" stroke-width="1.5" pointer-events="none"/>
                </g>
                <g id="zoomMin">
                        <use xlink:href="#rim" fill="#404040">
                                <set attributeName="fill" to="#808080" begin="zoomminus.mouseover" end="zoomminus.mouseout"/>
                        </use>
                        <path d="M-4,0h8" fill="none" stroke="white" stroke-width="1.5" pointer-events="none"/>
                </g>
                <g id="dirArrow">
                        <path fill="none" stroke="white" stroke-width="1.5" d="M0,-3.0v7 M-2.5,-0.5L0,-3.0L2.5,-0.5"/>
                </g>
               <g id="resetDef">
                       <use xlink:href="#rim2" fill="#404040">
                               <set attributeName="fill" to="#808080" begin="reset.mouseover" end="reset.mouseout"/>
                       </use>
               </g>
        </defs>

<script type="text/javascript">
var viewWidth = 1508;
var viewHeight = 222;
var sectionId = 'dynsection-0';
</script>
<script xlink:href="svgpan.js"/>
<svg id="graph" class="graph">
<g id="viewport">
<title>/Users/Claudio/GitHub/visual&#45;tracking&#45;control/src/hand&#45;tracking/src/PlayFwdKinModel.cpp</title>
<polygon fill="#ffffff" stroke="transparent" points="-4,4 -4,-218 1503.7656,-218 1503.7656,4 -4,4"/>
<!-- Node0 -->
<g id="node1" class="node">
<title>Node0</title>
<polygon fill="#bfbfbf" stroke="#000000" points="901.771,-165.5 901.771,-213.5 1068.9331,-213.5 1068.9331,-165.5 901.771,-165.5"/>
<text text-anchor="start" x="909.771" y="-201.5" font-family="Helvetica,sans-Serif" font-size="10.00" fill="#000000">/Users/Claudio/GitHub</text>
<text text-anchor="start" x="909.771" y="-191.5" font-family="Helvetica,sans-Serif" font-size="10.00" fill="#000000">/visual&#45;tracking&#45;control</text>
<text text-anchor="start" x="909.771" y="-181.5" font-family="Helvetica,sans-Serif" font-size="10.00" fill="#000000">/src/hand&#45;tracking/src/PlayFwdKin</text>
<text text-anchor="middle" x="985.3521" y="-171.5" font-family="Helvetica,sans-Serif" font-size="10.00" fill="#000000">Model.cpp</text>
</g>
<!-- Node1 -->
<g id="node2" class="node">
<title>Node1</title>
<g id="a_node2"><a xlink:href="PlayFwdKinModel_8h.html" target="_top" xlink:title="PlayFwdKinModel.h">
<polygon fill="#ffffff" stroke="#000000" points="567.165,-110.5 567.165,-128.5 671.5391,-128.5 671.5391,-110.5 567.165,-110.5"/>
<text text-anchor="middle" x="619.3521" y="-116.5" font-family="Helvetica,sans-Serif" font-size="10.00" fill="#000000">PlayFwdKinModel.h</text>
</a>
</g>
</g>
<!-- Node0&#45;&gt;Node1 -->
<g id="edge1" class="edge">
<title>Node0&#45;&gt;Node1</title>
<path fill="none" stroke="#191970" d="M901.3843,-173.4406C832.5551,-160.2765 736.9792,-141.997 676.6576,-130.4601"/>
<polygon fill="#191970" stroke="#191970" points="677.034,-126.9687 666.5545,-128.5278 675.719,-133.8441 677.034,-126.9687"/>
</g>
<!-- Node9 -->
<g id="node10" class="node">
<title>Node9</title>
<polygon fill="#ffffff" stroke="#bfbfbf" points="781.6108,-55.5 781.6108,-73.5 867.0933,-73.5 867.0933,-55.5 781.6108,-55.5"/>
<text text-anchor="middle" x="824.3521" y="-61.5" font-family="Helvetica,sans-Serif" font-size="10.00" fill="#000000">yarp/os/Bottle.h</text>
</g>
<!-- Node0&#45;&gt;Node9 -->
<g id="edge19" class="edge">
<title>Node0&#45;&gt;Node9</title>
<path fill="none" stroke="#191970" d="M901.5793,-175.2325C851.7457,-164.8477 795.3766,-149.0993 780.3521,-129 768.1192,-112.6354 785.5441,-93.1816 801.9438,-79.9492"/>
<polygon fill="#191970" stroke="#191970" points="804.4065,-82.4744 810.2638,-73.6459 800.1794,-76.8949 804.4065,-82.4744"/>
</g>
<!-- Node11 -->
<g id="node12" class="node">
<title>Node11</title>
<polygon fill="#ffffff" stroke="#bfbfbf" points="788.9482,-110.5 788.9482,-128.5 847.7559,-128.5 847.7559,-110.5 788.9482,-110.5"/>
<text text-anchor="middle" x="818.3521" y="-116.5" font-family="Helvetica,sans-Serif" font-size="10.00" fill="#000000">exception</text>
</g>
<!-- Node0&#45;&gt;Node11 -->
<g id="edge14" class="edge">
<title>Node0&#45;&gt;Node11</title>
<path fill="none" stroke="#191970" d="M927.8801,-165.41C901.5344,-154.3669 871.3476,-141.7137 849.3457,-132.4913"/>
<polygon fill="#191970" stroke="#191970" points="850.4314,-129.1515 839.8558,-128.5136 847.7254,-135.6073 850.4314,-129.1515"/>
</g>
<!-- Node12 -->
<g id="node13" class="node">
<title>Node12</title>
<polygon fill="#ffffff" stroke="#bfbfbf" points="865.9482,-110.5 865.9482,-128.5 924.7559,-128.5 924.7559,-110.5 865.9482,-110.5"/>
<text text-anchor="middle" x="895.3521" y="-116.5" font-family="Helvetica,sans-Serif" font-size="10.00" fill="#000000">functional</text>
</g>
<!-- Node0&#45;&gt;Node12 -->
<g id="edge15" class="edge">
<title>Node0&#45;&gt;Node12</title>
<path fill="none" stroke="#191970" d="M954.3792,-165.41C941.4131,-155.3253 926.7207,-143.8979 915.2379,-134.9668"/>
<polygon fill="#191970" stroke="#191970" points="917.2066,-132.0639 907.1642,-128.6872 912.909,-137.5894 917.2066,-132.0639"/>
</g>
<!-- Node13 -->
<g id="node14" class="node">
<title>Node13</title>
<polygon fill="#ffffff" stroke="#bfbfbf" points="942.3398,-110.5 942.3398,-128.5 1028.3643,-128.5 1028.3643,-110.5 942.3398,-110.5"/>
<text text-anchor="middle" x="985.3521" y="-116.5" font-family="Helvetica,sans-Serif" font-size="10.00" fill="#000000">iCub/ctrl/math.h</text>
</g>
<!-- Node0&#45;&gt;Node13 -->
<g id="edge16" class="edge">
<title>Node0&#45;&gt;Node13</title>
<path fill="none" stroke="#191970" d="M985.3521,-165.41C985.3521,-156.7094 985.3521,-147.0095 985.3521,-138.7754"/>
<polygon fill="#191970" stroke="#191970" points="988.8521,-138.6872 985.3521,-128.6872 981.8521,-138.6873 988.8521,-138.6872"/>
</g>
<!-- Node14 -->
<g id="node15" class="node">
<title>Node14</title>
<polygon fill="#ffffff" stroke="#bfbfbf" points="1046.4458,-110.5 1046.4458,-128.5 1140.2583,-128.5 1140.2583,-110.5 1046.4458,-110.5"/>
<text text-anchor="middle" x="1093.3521" y="-116.5" font-family="Helvetica,sans-Serif" font-size="10.00" fill="#000000">yarp/math/Math.h</text>
</g>
<!-- Node0&#45;&gt;Node14 -->
<g id="edge17" class="edge">
<title>Node0&#45;&gt;Node14</title>
<path fill="none" stroke="#191970" d="M1022.5195,-165.41C1038.6365,-154.9638 1056.9763,-143.0769 1070.9557,-134.0161"/>
<polygon fill="#191970" stroke="#191970" points="1072.9575,-136.8896 1079.4454,-128.5136 1069.1502,-131.0155 1072.9575,-136.8896"/>
</g>
<!-- Node15 -->
<g id="node16" class="node">
<title>Node15</title>
<polygon fill="#ffffff" stroke="#bfbfbf" points="1158.6553,-110.5 1158.6553,-128.5 1258.0488,-128.5 1258.0488,-110.5 1158.6553,-110.5"/>
<text text-anchor="middle" x="1208.3521" y="-116.5" font-family="Helvetica,sans-Serif" font-size="10.00" fill="#000000">yarp/eigen/Eigen.h</text>
</g>
<!-- Node0&#45;&gt;Node15 -->
<g id="edge18" class="edge">
<title>Node0&#45;&gt;Node15</title>
<path fill="none" stroke="#191970" d="M1062.096,-165.41C1098.3855,-154.0186 1140.1327,-140.9142 1169.7114,-131.6293"/>
<polygon fill="#191970" stroke="#191970" points="1171.1447,-134.8479 1179.6374,-128.5136 1169.0482,-128.1692 1171.1447,-134.8479"/>
</g>
<!-- Node16 -->
<g id="node17" class="node">
<title>Node16</title>
<polygon fill="#ffffff" stroke="#bfbfbf" points="1275.8687,-110.5 1275.8687,-128.5 1372.8354,-128.5 1372.8354,-110.5 1275.8687,-110.5"/>
<text text-anchor="middle" x="1324.3521" y="-116.5" font-family="Helvetica,sans-Serif" font-size="10.00" fill="#000000">yarp/os/Property.h</text>
</g>
<!-- Node0&#45;&gt;Node16 -->
<g id="edge20" class="edge">
<title>Node0&#45;&gt;Node16</title>
<path fill="none" stroke="#191970" d="M1069.1498,-172.1966C1131.9614,-159.2267 1216.0805,-141.857 1270.2533,-130.6708"/>
<polygon fill="#191970" stroke="#191970" points="1271.255,-134.0379 1280.3406,-128.5879 1269.8394,-127.1825 1271.255,-134.0379"/>
</g>
<!-- Node17 -->
<g id="node18" class="node">
<title>Node17</title>
<polygon fill="#ffffff" stroke="#bfbfbf" points="1390.9385,-110.5 1390.9385,-128.5 1499.7656,-128.5 1499.7656,-110.5 1390.9385,-110.5"/>
<text text-anchor="middle" x="1445.3521" y="-116.5" font-family="Helvetica,sans-Serif" font-size="10.00" fill="#000000">yarp/os/LogStream.h</text>
</g>
<!-- Node0&#45;&gt;Node17 -->
<g id="edge21" class="edge">
<title>Node0&#45;&gt;Node17</title>
<path fill="none" stroke="#191970" d="M1069.1883,-176.7423C1158.9009,-163.0904 1299.2722,-141.7295 1380.7797,-129.3262"/>
<polygon fill="#191970" stroke="#191970" points="1381.5467,-132.7499 1390.9063,-127.7852 1380.4936,-125.8296 1381.5467,-132.7499"/>
</g>
<!-- Node2 -->
<g id="node3" class="node">
<title>Node2</title>
<g id="a_node3"><a xlink:href="FwdKinModel_8h.html" target="_top" xlink:title="FwdKinModel.h">
<polygon fill="#ffffff" stroke="#000000" points="439.8916,-55.5 439.8916,-73.5 524.8125,-73.5 524.8125,-55.5 439.8916,-55.5"/>
<text text-anchor="middle" x="482.3521" y="-61.5" font-family="Helvetica,sans-Serif" font-size="10.00" fill="#000000">FwdKinModel.h</text>
</a>
</g>
</g>
<!-- Node1&#45;&gt;Node2 -->
<g id="edge2" class="edge">
<title>Node1&#45;&gt;Node2</title>
<path fill="none" stroke="#191970" d="M596.7293,-110.4179C574.3201,-101.4215 539.7876,-87.5581 514.5275,-77.4172"/>
<polygon fill="#191970" stroke="#191970" points="515.5925,-74.0732 505.0084,-73.5956 512.9845,-80.5693 515.5925,-74.0732"/>
</g>
<!-- Node4 -->
<g id="node5" class="node">
<title>Node4</title>
<polygon fill="#ffffff" stroke="#bfbfbf" points="0,-.5 0,-18.5 102.7041,-18.5 102.7041,-.5 0,-.5"/>
<text text-anchor="middle" x="51.3521" y="-6.5" font-family="Helvetica,sans-Serif" font-size="10.00" fill="#000000">iCub/iKin/iKinFwd.h</text>
</g>
<!-- Node1&#45;&gt;Node4 -->
<g id="edge9" class="edge">
<title>Node1&#45;&gt;Node4</title>
<path fill="none" stroke="#191970" d="M572.8702,-110.4982C469.4558,-90.4708 220.6322,-42.2831 108.1997,-20.5092"/>
<polygon fill="#191970" stroke="#191970" points="108.5602,-17.0141 98.0771,-18.5489 107.2292,-23.8864 108.5602,-17.0141"/>
</g>
<!-- Node7 -->
<g id="node8" class="node">
<title>Node7</title>
<polygon fill="#ffffff" stroke="#bfbfbf" points="555.2734,-.5 555.2734,-18.5 667.4307,-18.5 667.4307,-.5 555.2734,-.5"/>
<text text-anchor="middle" x="611.3521" y="-6.5" font-family="Helvetica,sans-Serif" font-size="10.00" fill="#000000">yarp/os/ConstString.h</text>
</g>
<!-- Node1&#45;&gt;Node7 -->
<g id="edge12" class="edge">
<title>Node1&#45;&gt;Node7</title>
<path fill="none" stroke="#191970" d="M615.6216,-110.2787C612.1716,-101.2185 607.2938,-86.9132 605.3521,-74 603.0757,-58.8612 604.9166,-41.5851 607.1399,-28.725"/>
<polygon fill="#191970" stroke="#191970" points="610.611,-29.2116 609.0982,-18.7253 603.7415,-27.8662 610.611,-29.2116"/>
</g>
<!-- Node8 -->
<g id="node9" class="node">
<title>Node8</title>
<polygon fill="#ffffff" stroke="#bfbfbf" points="685.3818,-.5 685.3818,-18.5 775.3223,-18.5 775.3223,-.5 685.3818,-.5"/>
<text text-anchor="middle" x="730.3521" y="-6.5" font-family="Helvetica,sans-Serif" font-size="10.00" fill="#000000">yarp/sig/Vector.h</text>
</g>
<!-- Node1&#45;&gt;Node8 -->
<g id="edge13" class="edge">
<title>Node1&#45;&gt;Node8</title>
<path fill="none" stroke="#191970" d="M619.8066,-110.0741C620.931,-96.4383 624.8316,-71.085 638.3521,-55 651.1217,-39.8082 670.1936,-29.223 687.6671,-22.1116"/>
<polygon fill="#191970" stroke="#191970" points="689.0513,-25.3299 697.16,-18.5109 686.5687,-18.7849 689.0513,-25.3299"/>
</g>
<!-- Node1&#45;&gt;Node9 -->
<g id="edge10" class="edge">
<title>Node1&#45;&gt;Node9</title>
<path fill="none" stroke="#191970" d="M653.2036,-110.4179C688.1754,-101.0352 742.8791,-86.3586 780.9957,-76.1322"/>
<polygon fill="#191970" stroke="#191970" points="782.0394,-79.476 790.7909,-73.5042 780.2255,-72.7151 782.0394,-79.476"/>
</g>
<!-- Node10 -->
<g id="node11" class="node">
<title>Node10</title>
<polygon fill="#ffffff" stroke="#bfbfbf" points="647.4131,-55.5 647.4131,-73.5 763.291,-73.5 763.291,-55.5 647.4131,-55.5"/>
<text text-anchor="middle" x="705.3521" y="-61.5" font-family="Helvetica,sans-Serif" font-size="10.00" fill="#000000">yarp/os/BufferedPort.h</text>
</g>
<!-- Node1&#45;&gt;Node10 -->
<g id="edge11" class="edge">
<title>Node1&#45;&gt;Node10</title>
<path fill="none" stroke="#191970" d="M633.5532,-110.4179C646.8734,-101.8992 667.0171,-89.0166 682.5812,-79.0627"/>
<polygon fill="#191970" stroke="#191970" points="684.591,-81.932 691.1298,-73.5956 680.8196,-76.0348 684.591,-81.932"/>
</g>
<!-- Node3 -->
<g id="node4" class="node">
<title>Node3</title>
<polygon fill="#ffffff" stroke="#bfbfbf" points="120.6479,-.5 120.6479,-18.5 280.0562,-18.5 280.0562,-.5 120.6479,-.5"/>
<text text-anchor="middle" x="200.3521" y="-6.5" font-family="Helvetica,sans-Serif" font-size="10.00" fill="#000000">BayesFilters/ExogenousModel.h</text>
</g>
<!-- Node2&#45;&gt;Node3 -->
<g id="edge3" class="edge">
<title>Node2&#45;&gt;Node3</title>
<path fill="none" stroke="#191970" d="M439.8285,-56.2064C390.9707,-46.6774 310.6048,-31.0032 256.6047,-20.4713"/>
<polygon fill="#191970" stroke="#191970" points="256.9931,-16.9811 246.508,-18.502 255.6531,-23.8517 256.9931,-16.9811"/>
</g>
<!-- Node2&#45;&gt;Node4 -->
<g id="edge4" class="edge">
<title>Node2&#45;&gt;Node4</title>
<path fill="none" stroke="#191970" d="M439.7233,-59.7631C372.484,-52.184 237.4395,-36.5278 112.8213,-19.1685"/>
<polygon fill="#191970" stroke="#191970" points="113.11,-15.6749 102.7213,-17.7546 112.1395,-22.6073 113.11,-15.6749"/>
</g>
<!-- Node5 -->
<g id="node6" class="node">
<title>Node5</title>
<polygon fill="#ffffff" stroke="#bfbfbf" points="297.8301,-.5 297.8301,-18.5 408.874,-18.5 408.874,-.5 297.8301,-.5"/>
<text text-anchor="middle" x="353.3521" y="-6.5" font-family="Helvetica,sans-Serif" font-size="10.00" fill="#000000">yarp/dev/PolyDriver.h</text>
</g>
<!-- Node2&#45;&gt;Node5 -->
<g id="edge5" class="edge">
<title>Node2&#45;&gt;Node5</title>
<path fill="none" stroke="#191970" d="M461.0503,-55.4179C440.043,-46.4613 407.7212,-32.6806 383.9649,-22.552"/>
<polygon fill="#191970" stroke="#191970" points="385.257,-19.2981 374.6854,-18.5956 382.5115,-25.7372 385.257,-19.2981"/>
</g>
<!-- Node6 -->
<g id="node7" class="node">
<title>Node6</title>
<polygon fill="#ffffff" stroke="#bfbfbf" points="427.1035,-.5 427.1035,-18.5 537.6006,-18.5 537.6006,-.5 427.1035,-.5"/>
<text text-anchor="middle" x="482.3521" y="-6.5" font-family="Helvetica,sans-Serif" font-size="10.00" fill="#000000">yarp/dev/IEncoders.h</text>
</g>
<!-- Node2&#45;&gt;Node6 -->
<g id="edge6" class="edge">
<title>Node2&#45;&gt;Node6</title>
<path fill="none" stroke="#191970" d="M482.3521,-55.4179C482.3521,-48.2164 482.3521,-37.8962 482.3521,-28.8632"/>
<polygon fill="#191970" stroke="#191970" points="485.8521,-28.7794 482.3521,-18.7795 478.8521,-28.7795 485.8521,-28.7794"/>
</g>
<!-- Node2&#45;&gt;Node7 -->
<g id="edge7" class="edge">
<title>Node2&#45;&gt;Node7</title>
<path fill="none" stroke="#191970" d="M503.6538,-55.4179C524.6611,-46.4613 556.9829,-32.6806 580.7392,-22.552"/>
<polygon fill="#191970" stroke="#191970" points="582.1926,-25.7372 590.0187,-18.5956 579.4471,-19.2981 582.1926,-25.7372"/>
</g>
<!-- Node2&#45;&gt;Node8 -->
<g id="edge8" class="edge">
<title>Node2&#45;&gt;Node8</title>
<path fill="none" stroke="#191970" d="M523.0265,-55.4795C565.9139,-45.9681 633.5526,-30.9676 679.8314,-20.7042"/>
<polygon fill="#191970" stroke="#191970" points="680.6504,-24.1077 689.6554,-18.5255 679.1348,-17.2737 680.6504,-24.1077"/>
</g>
</g>
</svg>
        <g id="navigator" transform="translate(0 0)" fill="#404254">
                <rect fill="#f2f5e9" fill-opacity="0.5" stroke="#606060" stroke-width=".5" x="0" y="0" width="60" height="60"/>
                <use id="zoomplus" xlink:href="#zoomPlus" x="17" y="9" onmousedown="handleZoom(evt,'in')"/>
                <use id="zoomminus" xlink:href="#zoomMin" x="42" y="9" onmousedown="handleZoom(evt,'out')"/>
                <use id="reset" xlink:href="#resetDef" x="30" y="36" onmousedown="handleReset()"/>
                <g id="arrowUp" xlink:href="#dirArrow" transform="translate(30 24)" onmousedown="handlePan(0,-1)">
                  <use xlink:href="#rim" fill="#404040">
                        <set attributeName="fill" to="#808080" begin="arrowUp.mouseover" end="arrowUp.mouseout"/>
                  </use>
                  <path fill="none" stroke="white" stroke-width="1.5" d="M0,-3.0v7 M-2.5,-0.5L0,-3.0L2.5,-0.5"/>
                </g>
                <g id="arrowRight" xlink:href="#dirArrow" transform="rotate(90) translate(36 -43)" onmousedown="handlePan(1,0)">
                  <use xlink:href="#rim" fill="#404040">
                        <set attributeName="fill" to="#808080" begin="arrowRight.mouseover" end="arrowRight.mouseout"/>
                  </use>
                  <path fill="none" stroke="white" stroke-width="1.5" d="M0,-3.0v7 M-2.5,-0.5L0,-3.0L2.5,-0.5"/>
                </g>
                <g id="arrowDown" xlink:href="#dirArrow" transform="rotate(180) translate(-30 -48)" onmousedown="handlePan(0,1)">
                  <use xlink:href="#rim" fill="#404040">
                        <set attributeName="fill" to="#808080" begin="arrowDown.mouseover" end="arrowDown.mouseout"/>
                  </use>
                  <path fill="none" stroke="white" stroke-width="1.5" d="M0,-3.0v7 M-2.5,-0.5L0,-3.0L2.5,-0.5"/>
                </g>
                <g id="arrowLeft" xlink:href="#dirArrow" transform="rotate(270) translate(-36 17)" onmousedown="handlePan(-1,0)">
                  <use xlink:href="#rim" fill="#404040">
                        <set attributeName="fill" to="#808080" begin="arrowLeft.mouseover" end="arrowLeft.mouseout"/>
                  </use>
                  <path fill="none" stroke="white" stroke-width="1.5" d="M0,-3.0v7 M-2.5,-0.5L0,-3.0L2.5,-0.5"/>
                </g>
        </g>
        <svg viewBox="0 0 15 15" width="100%" height="30px" preserveAspectRatio="xMaxYMin meet">
         <g id="arrow_out" transform="scale(0.3 0.3)">
          <a xlink:href="PlayFwdKinModel_8cpp__incl_org.svg" target="_base">
           <rect id="button" ry="5" rx="5" y="6" x="6" height="38" width="38"
                fill="#f2f5e9" fill-opacity="0.5" stroke="#606060" stroke-width="1.0"/>
           <path id="arrow"
             d="M 11.500037,31.436501 C 11.940474,20.09759 22.043105,11.32322 32.158766,21.979434 L 37.068811,17.246167 C 37.068811,17.246167 37.088388,32 37.088388,32 L 22.160133,31.978069 C 22.160133,31.978069 26.997745,27.140456 26.997745,27.140456 C 18.528582,18.264221 13.291696,25.230495 11.500037,31.436501 z"
             style="fill:#404040;"/>
          </a>
         </g>
        </svg>
</svg>
