<?xml version="1.0" encoding="UTF-8" standalone="no"?>
<!DOCTYPE svg PUBLIC "-//W3C//DTD SVG 1.1//EN"
 "http://www.w3.org/Graphics/SVG/1.1/DTD/svg11.dtd">
<!-- Generated by graphviz version 2.40.1 (20161225.0304)
 -->
<!-- Title: /Users/Claudio/GitHub/visual&#45;tracking&#45;control/src/reaching/main.cpp Pages: 1 -->
<svg width="2667pt" height="102pt"
 viewBox="0.00 0.00 2666.59 102.00" xmlns="http://www.w3.org/2000/svg" xmlns:xlink="http://www.w3.org/1999/xlink">
<g id="graph0" class="graph" transform="scale(1 1) rotate(0) translate(4 98)">
<title>/Users/Claudio/GitHub/visual&#45;tracking&#45;control/src/reaching/main.cpp</title>
<polygon fill="#ffffff" stroke="transparent" points="-4,4 -4,-98 2662.5859,-98 2662.5859,4 -4,4"/>
<!-- Node0 -->
<g id="node1" class="node">
<title>Node0</title>
<polygon fill="#bfbfbf" stroke="#000000" points="1337.3154,-55.5 1337.3154,-93.5 1453.916,-93.5 1453.916,-55.5 1337.3154,-55.5"/>
<text text-anchor="start" x="1345.3154" y="-81.5" font-family="Helvetica,sans-Serif" font-size="10.00" fill="#000000">/Users/Claudio/GitHub</text>
<text text-anchor="start" x="1345.3154" y="-71.5" font-family="Helvetica,sans-Serif" font-size="10.00" fill="#000000">/visual&#45;tracking&#45;control</text>
<text text-anchor="middle" x="1395.6157" y="-61.5" font-family="Helvetica,sans-Serif" font-size="10.00" fill="#000000">/src/reaching/main.cpp</text>
</g>
<!-- Node1 -->
<g id="node2" class="node">
<title>Node1</title>
<polygon fill="#ffffff" stroke="#bfbfbf" points="0,-.5 0,-18.5 43.2314,-18.5 43.2314,-.5 0,-.5"/>
<text text-anchor="middle" x="21.6157" y="-6.5" font-family="Helvetica,sans-Serif" font-size="10.00" fill="#000000">cmath</text>
</g>
<!-- Node0&#45;&gt;Node1 -->
<g id="edge1" class="edge">
<title>Node0&#45;&gt;Node1</title>
<path fill="none" stroke="#191970" d="M1337.2767,-74.0726C1115.7075,-72.1459 325.6204,-62.4368 53.6936,-18.6591"/>
<polygon fill="#191970" stroke="#191970" points="53.9027,-15.1457 43.4632,-16.9534 52.7514,-22.0504 53.9027,-15.1457"/>
</g>
<!-- Node2 -->
<g id="node3" class="node">
<title>Node2</title>
<polygon fill="#ffffff" stroke="#bfbfbf" points="61.4434,-.5 61.4434,-18.5 115.7881,-18.5 115.7881,-.5 61.4434,-.5"/>
<text text-anchor="middle" x="88.6157" y="-6.5" font-family="Helvetica,sans-Serif" font-size="10.00" fill="#000000">iostream</text>
</g>
<!-- Node0&#45;&gt;Node2 -->
<g id="edge2" class="edge">
<title>Node0&#45;&gt;Node2</title>
<path fill="none" stroke="#191970" d="M1337.1446,-73.6101C1123.2734,-70.0999 383.0492,-55.644 126.0452,-18.8616"/>
<polygon fill="#191970" stroke="#191970" points="126.4106,-15.3776 116.0058,-17.3754 125.3855,-22.3021 126.4106,-15.3776"/>
</g>
<!-- Node3 -->
<g id="node4" class="node">
<title>Node3</title>
<polygon fill="#ffffff" stroke="#bfbfbf" points="133.4409,-.5 133.4409,-18.5 247.7905,-18.5 247.7905,-.5 133.4409,-.5"/>
<text text-anchor="middle" x="190.6157" y="-6.5" font-family="Helvetica,sans-Serif" font-size="10.00" fill="#000000">iCub/ctrl/minJerkCtrl.h</text>
</g>
<!-- Node0&#45;&gt;Node3 -->
<g id="edge3" class="edge">
<title>Node0&#45;&gt;Node3</title>
<path fill="none" stroke="#191970" d="M1337.1488,-73.5485C1170.3745,-70.4287 677.9299,-58.3955 258.17,-18.9511"/>
<polygon fill="#191970" stroke="#191970" points="258.2419,-15.4423 247.9566,-17.9845 257.5823,-22.4112 258.2419,-15.4423"/>
</g>
<!-- Node4 -->
<g id="node5" class="node">
<title>Node4</title>
<polygon fill="#ffffff" stroke="#bfbfbf" points="266.2637,-.5 266.2637,-18.5 368.9678,-18.5 368.9678,-.5 266.2637,-.5"/>
<text text-anchor="middle" x="317.6157" y="-6.5" font-family="Helvetica,sans-Serif" font-size="10.00" fill="#000000">iCub/iKin/iKinFwd.h</text>
</g>
<!-- Node0&#45;&gt;Node4 -->
<g id="edge4" class="edge">
<title>Node0&#45;&gt;Node4</title>
<path fill="none" stroke="#191970" d="M1337.2027,-73.4106C1182.4961,-70.0768 749.2184,-57.8263 379.3795,-19.091"/>
<polygon fill="#191970" stroke="#191970" points="379.5939,-15.5942 369.2817,-18.0251 378.859,-22.5556 379.5939,-15.5942"/>
</g>
<!-- Node5 -->
<g id="node6" class="node">
<title>Node5</title>
<polygon fill="#ffffff" stroke="#bfbfbf" points="386.749,-.5 386.749,-18.5 504.4824,-18.5 504.4824,-.5 386.749,-.5"/>
<text text-anchor="middle" x="445.6157" y="-6.5" font-family="Helvetica,sans-Serif" font-size="10.00" fill="#000000">opencv2/core/core.hpp</text>
</g>
<!-- Node0&#45;&gt;Node5 -->
<g id="edge5" class="edge">
<title>Node0&#45;&gt;Node5</title>
<path fill="none" stroke="#191970" d="M1337.1795,-72.3592C1197.1273,-66.8976 831.0871,-50.6648 514.8389,-19.0486"/>
<polygon fill="#191970" stroke="#191970" points="514.8549,-15.5326 504.5546,-18.0132 514.1536,-22.4974 514.8549,-15.5326"/>
</g>
<!-- Node6 -->
<g id="node7" class="node">
<title>Node6</title>
<polygon fill="#ffffff" stroke="#bfbfbf" points="522.6357,-.5 522.6357,-18.5 672.5957,-18.5 672.5957,-.5 522.6357,-.5"/>
<text text-anchor="middle" x="597.6157" y="-6.5" font-family="Helvetica,sans-Serif" font-size="10.00" fill="#000000">opencv2/imgproc/imgproc.hpp</text>
</g>
<!-- Node0&#45;&gt;Node6 -->
<g id="edge6" class="edge">
<title>Node0&#45;&gt;Node6</title>
<path fill="none" stroke="#191970" d="M1337.2486,-70.6588C1216.9489,-62.5906 932.4556,-42.7309 682.6989,-19.0747"/>
<polygon fill="#191970" stroke="#191970" points="682.9944,-15.5871 672.7079,-18.1245 682.3316,-22.5556 682.9944,-15.5871"/>
</g>
<!-- Node7 -->
<g id="node8" class="node">
<title>Node7</title>
<polygon fill="#ffffff" stroke="#bfbfbf" points="690.1875,-.5 690.1875,-18.5 849.0439,-18.5 849.0439,-.5 690.1875,-.5"/>
<text text-anchor="middle" x="769.6157" y="-6.5" font-family="Helvetica,sans-Serif" font-size="10.00" fill="#000000">SuperimposeMesh/SISkeleton.h</text>
</g>
<!-- Node0&#45;&gt;Node7 -->
<g id="edge7" class="edge">
<title>Node0&#45;&gt;Node7</title>
<path fill="none" stroke="#191970" d="M1337.2042,-68.5278C1240.3445,-58.6103 1040.0945,-38.0463 859.1574,-19.054"/>
<polygon fill="#191970" stroke="#191970" points="859.5016,-15.5709 849.1907,-18.0073 858.7705,-22.5327 859.5016,-15.5709"/>
</g>
<!-- Node8 -->
<g id="node9" class="node">
<title>Node8</title>
<polygon fill="#ffffff" stroke="#bfbfbf" points="867.3623,-.5 867.3623,-18.5 1007.8691,-18.5 1007.8691,-.5 867.3623,-.5"/>
<text text-anchor="middle" x="937.6157" y="-6.5" font-family="Helvetica,sans-Serif" font-size="10.00" fill="#000000">yarp/dev/CartesianControl.h</text>
</g>
<!-- Node0&#45;&gt;Node8 -->
<g id="edge8" class="edge">
<title>Node0&#45;&gt;Node8</title>
<path fill="none" stroke="#191970" d="M1337.1445,-66.2017C1254.0469,-54.4084 1101.8358,-32.8063 1011.1784,-19.9401"/>
<polygon fill="#191970" stroke="#191970" points="1011.6419,-16.4709 1001.2493,-18.531 1010.6583,-23.4015 1011.6419,-16.4709"/>
</g>
<!-- Node9 -->
<g id="node10" class="node">
<title>Node9</title>
<polygon fill="#ffffff" stroke="#bfbfbf" points="1025.8105,-.5 1025.8105,-18.5 1147.4209,-18.5 1147.4209,-.5 1025.8105,-.5"/>
<text text-anchor="middle" x="1086.6157" y="-6.5" font-family="Helvetica,sans-Serif" font-size="10.00" fill="#000000">yarp/dev/GazeControl.h</text>
</g>
<!-- Node0&#45;&gt;Node9 -->
<g id="edge9" class="edge">
<title>Node0&#45;&gt;Node9</title>
<path fill="none" stroke="#191970" d="M1337.1319,-62.1976C1280.141,-50.2092 1194.2719,-32.1461 1139.3344,-20.5897"/>
<polygon fill="#191970" stroke="#191970" points="1139.9565,-17.144 1129.4502,-18.5105 1138.5155,-23.9941 1139.9565,-17.144"/>
</g>
<!-- Node10 -->
<g id="node11" class="node">
<title>Node10</title>
<polygon fill="#ffffff" stroke="#bfbfbf" points="1165.0938,-.5 1165.0938,-18.5 1276.1377,-18.5 1276.1377,-.5 1165.0938,-.5"/>
<text text-anchor="middle" x="1220.6157" y="-6.5" font-family="Helvetica,sans-Serif" font-size="10.00" fill="#000000">yarp/dev/PolyDriver.h</text>
</g>
<!-- Node0&#45;&gt;Node10 -->
<g id="edge10" class="edge">
<title>Node0&#45;&gt;Node10</title>
<path fill="none" stroke="#191970" d="M1344.0565,-55.3494C1315.2183,-44.6381 1280.0761,-31.5853 1254.6736,-22.1501"/>
<polygon fill="#191970" stroke="#191970" points="1255.7029,-18.7988 1245.1099,-18.5978 1253.2655,-25.3608 1255.7029,-18.7988"/>
</g>
<!-- Node11 -->
<g id="node12" class="node">
<title>Node11</title>
<polygon fill="#ffffff" stroke="#bfbfbf" points="1293.7095,-.5 1293.7095,-18.5 1387.522,-18.5 1387.522,-.5 1293.7095,-.5"/>
<text text-anchor="middle" x="1340.6157" y="-6.5" font-family="Helvetica,sans-Serif" font-size="10.00" fill="#000000">yarp/math/Math.h</text>
</g>
<!-- Node0&#45;&gt;Node11 -->
<g id="edge11" class="edge">
<title>Node0&#45;&gt;Node11</title>
<path fill="none" stroke="#191970" d="M1379.4114,-55.3494C1371.6313,-46.1548 1362.3912,-35.2347 1354.8807,-26.3586"/>
<polygon fill="#191970" stroke="#191970" points="1357.4452,-23.9709 1348.3139,-18.5978 1352.1015,-28.4925 1357.4452,-23.9709"/>
</g>
<!-- Node12 -->
<g id="node13" class="node">
<title>Node12</title>
<polygon fill="#ffffff" stroke="#bfbfbf" points="1405.5444,-.5 1405.5444,-18.5 1497.687,-18.5 1497.687,-.5 1405.5444,-.5"/>
<text text-anchor="middle" x="1451.6157" y="-6.5" font-family="Helvetica,sans-Serif" font-size="10.00" fill="#000000">yarp/math/SVD.h</text>
</g>
<!-- Node0&#45;&gt;Node12 -->
<g id="edge12" class="edge">
<title>Node0&#45;&gt;Node12</title>
<path fill="none" stroke="#191970" d="M1412.1147,-55.3494C1420.0362,-46.1548 1429.4443,-35.2347 1437.0914,-26.3586"/>
<polygon fill="#191970" stroke="#191970" points="1439.9021,-28.4585 1443.7776,-18.5978 1434.5988,-23.8895 1439.9021,-28.4585"/>
</g>
<!-- Node13 -->
<g id="node14" class="node">
<title>Node13</title>
<polygon fill="#ffffff" stroke="#bfbfbf" points="1515.6768,-.5 1515.6768,-18.5 1631.5547,-18.5 1631.5547,-.5 1515.6768,-.5"/>
<text text-anchor="middle" x="1573.6157" y="-6.5" font-family="Helvetica,sans-Serif" font-size="10.00" fill="#000000">yarp/os/BufferedPort.h</text>
</g>
<!-- Node0&#45;&gt;Node13 -->
<g id="edge13" class="edge">
<title>Node0&#45;&gt;Node13</title>
<path fill="none" stroke="#191970" d="M1448.0589,-55.3494C1477.3914,-44.6381 1513.1361,-31.5853 1538.974,-22.1501"/>
<polygon fill="#191970" stroke="#191970" points="1540.5089,-25.3157 1548.7016,-18.5978 1538.1077,-18.7404 1540.5089,-25.3157"/>
</g>
<!-- Node14 -->
<g id="node15" class="node">
<title>Node14</title>
<polygon fill="#ffffff" stroke="#bfbfbf" points="1649.2021,-.5 1649.2021,-18.5 1758.0293,-18.5 1758.0293,-.5 1649.2021,-.5"/>
<text text-anchor="middle" x="1703.6157" y="-6.5" font-family="Helvetica,sans-Serif" font-size="10.00" fill="#000000">yarp/os/LogStream.h</text>
</g>
<!-- Node0&#45;&gt;Node14 -->
<g id="edge14" class="edge">
<title>Node0&#45;&gt;Node14</title>
<path fill="none" stroke="#191970" d="M1454.2731,-62.121C1510.9604,-50.1578 1596.0632,-32.1978 1650.7203,-20.663"/>
<polygon fill="#191970" stroke="#191970" points="1651.4962,-24.0764 1660.5579,-18.5869 1650.0507,-17.2273 1651.4962,-24.0764"/>
</g>
<!-- Node15 -->
<g id="node16" class="node">
<title>Node15</title>
<polygon fill="#ffffff" stroke="#bfbfbf" points="1776.3228,-.5 1776.3228,-18.5 1872.9087,-18.5 1872.9087,-.5 1776.3228,-.5"/>
<text text-anchor="middle" x="1824.6157" y="-6.5" font-family="Helvetica,sans-Serif" font-size="10.00" fill="#000000">yarp/os/Network.h</text>
</g>
<!-- Node0&#45;&gt;Node15 -->
<g id="edge15" class="edge">
<title>Node0&#45;&gt;Node15</title>
<path fill="none" stroke="#191970" d="M1454.1277,-66.0026C1525.196,-55.6245 1649.0082,-37.361 1765.9932,-19.0794"/>
<polygon fill="#191970" stroke="#191970" points="1766.8649,-22.4857 1776.2032,-17.4811 1765.7822,-15.5699 1766.8649,-22.4857"/>
</g>
<!-- Node16 -->
<g id="node17" class="node">
<title>Node16</title>
<polygon fill="#ffffff" stroke="#bfbfbf" points="1891.1323,-.5 1891.1323,-18.5 1988.0991,-18.5 1988.0991,-.5 1891.1323,-.5"/>
<text text-anchor="middle" x="1939.6157" y="-6.5" font-family="Helvetica,sans-Serif" font-size="10.00" fill="#000000">yarp/os/Property.h</text>
</g>
<!-- Node0&#45;&gt;Node16 -->
<g id="edge16" class="edge">
<title>Node0&#45;&gt;Node16</title>
<path fill="none" stroke="#191970" d="M1454.0832,-68.7512C1543.6054,-59.7441 1720.249,-41.1651 1880.8425,-19.0482"/>
<polygon fill="#191970" stroke="#191970" points="1881.4822,-22.4931 1890.9075,-17.6544 1880.5219,-15.5593 1881.4822,-22.4931"/>
</g>
<!-- Node17 -->
<g id="node18" class="node">
<title>Node17</title>
<polygon fill="#ffffff" stroke="#bfbfbf" points="2006.5962,-.5 2006.5962,-18.5 2112.6353,-18.5 2112.6353,-.5 2006.5962,-.5"/>
<text text-anchor="middle" x="2059.6157" y="-6.5" font-family="Helvetica,sans-Serif" font-size="10.00" fill="#000000">yarp/os/RFModule.h</text>
</g>
<!-- Node0&#45;&gt;Node17 -->
<g id="edge17" class="edge">
<title>Node0&#45;&gt;Node17</title>
<path fill="none" stroke="#191970" d="M1454.174,-70.2185C1560.0602,-62.2304 1790.6132,-43.7107 1996.2849,-18.9701"/>
<polygon fill="#191970" stroke="#191970" points="1996.8622,-22.4258 2006.3692,-17.7495 1996.021,-15.4765 1996.8622,-22.4258"/>
</g>
<!-- Node18 -->
<g id="node19" class="node">
<title>Node18</title>
<polygon fill="#ffffff" stroke="#bfbfbf" points="2130.9854,-.5 2130.9854,-18.5 2234.2461,-18.5 2234.2461,-.5 2130.9854,-.5"/>
<text text-anchor="middle" x="2182.6157" y="-6.5" font-family="Helvetica,sans-Serif" font-size="10.00" fill="#000000">yarp/os/RpcClient.h</text>
</g>
<!-- Node0&#45;&gt;Node18 -->
<g id="edge18" class="edge">
<title>Node0&#45;&gt;Node18</title>
<path fill="none" stroke="#191970" d="M1454.1095,-71.584C1576.043,-65.1682 1866.4557,-48.1304 2120.5742,-19.0343"/>
<polygon fill="#191970" stroke="#191970" points="2121.2062,-22.4847 2130.7392,-17.8617 2120.4039,-15.5308 2121.2062,-22.4847"/>
</g>
<!-- Node19 -->
<g id="node20" class="node">
<title>Node19</title>
<polygon fill="#ffffff" stroke="#bfbfbf" points="2252.7324,-.5 2252.7324,-18.5 2334.499,-18.5 2334.499,-.5 2252.7324,-.5"/>
<text text-anchor="middle" x="2293.6157" y="-6.5" font-family="Helvetica,sans-Serif" font-size="10.00" fill="#000000">yarp/os/Time.h</text>
</g>
<!-- Node0&#45;&gt;Node19 -->
<g id="edge19" class="edge">
<title>Node0&#45;&gt;Node19</title>
<path fill="none" stroke="#191970" d="M1453.9402,-73.1408C1590.246,-69.4354 1940.3593,-56.8573 2242.2123,-19.0281"/>
<polygon fill="#191970" stroke="#191970" points="2242.997,-22.4568 2252.4786,-17.7293 2242.1184,-15.5122 2242.997,-22.4568"/>
</g>
<!-- Node20 -->
<g id="node21" class="node">
<title>Node20</title>
<polygon fill="#ffffff" stroke="#bfbfbf" points="2352.6528,-.5 2352.6528,-18.5 2442.5786,-18.5 2442.5786,-.5 2352.6528,-.5"/>
<text text-anchor="middle" x="2397.6157" y="-6.5" font-family="Helvetica,sans-Serif" font-size="10.00" fill="#000000">yarp/sig/Image.h</text>
</g>
<!-- Node0&#45;&gt;Node20 -->
<g id="edge20" class="edge">
<title>Node0&#45;&gt;Node20</title>
<path fill="none" stroke="#191970" d="M1454.0732,-73.4276C1601.4948,-70.219 2000.4418,-58.4074 2342.4889,-18.9963"/>
<polygon fill="#191970" stroke="#191970" points="2343.0626,-22.4533 2352.5917,-17.8222 2342.2545,-15.5001 2343.0626,-22.4533"/>
</g>
<!-- Node21 -->
<g id="node22" class="node">
<title>Node21</title>
<polygon fill="#ffffff" stroke="#bfbfbf" points="2460.9385,-.5 2460.9385,-18.5 2550.293,-18.5 2550.293,-.5 2460.9385,-.5"/>
<text text-anchor="middle" x="2505.6157" y="-6.5" font-family="Helvetica,sans-Serif" font-size="10.00" fill="#000000">yarp/sig/Matrix.h</text>
</g>
<!-- Node0&#45;&gt;Node21 -->
<g id="edge21" class="edge">
<title>Node0&#45;&gt;Node21</title>
<path fill="none" stroke="#191970" d="M1453.9167,-73.9211C1612.5035,-71.8152 2065.0668,-62.2694 2450.926,-18.9288"/>
<polygon fill="#191970" stroke="#191970" points="2451.345,-22.4038 2460.8876,-17.8006 2450.5572,-15.4482 2451.345,-22.4038"/>
</g>
<!-- Node22 -->
<g id="node23" class="node">
<title>Node22</title>
<polygon fill="#ffffff" stroke="#bfbfbf" points="2568.6455,-.5 2568.6455,-18.5 2658.5859,-18.5 2658.5859,-.5 2568.6455,-.5"/>
<text text-anchor="middle" x="2613.6157" y="-6.5" font-family="Helvetica,sans-Serif" font-size="10.00" fill="#000000">yarp/sig/Vector.h</text>
</g>
<!-- Node0&#45;&gt;Node22 -->
<g id="edge22" class="edge">
<title>Node0&#45;&gt;Node22</title>
<path fill="none" stroke="#191970" d="M1453.9449,-72.6973C1655.3687,-66.3213 2321.7888,-43.9336 2558.3343,-18.9739"/>
<polygon fill="#191970" stroke="#191970" points="2559.0325,-22.4187 2568.5959,-17.859 2558.2764,-15.4596 2559.0325,-22.4187"/>
</g>
</g>
</svg>
