<?xml version="1.0" encoding="UTF-8" standalone="no"?>
<!DOCTYPE svg PUBLIC "-//W3C//DTD SVG 1.1//EN"
 "http://www.w3.org/Graphics/SVG/1.1/DTD/svg11.dtd">
<!-- Generated by graphviz version 2.40.1 (20161225.0304)
 -->
<!-- Title: idl_dox/VisualServoingIDL.h Pages: 1 -->
<svg width="226pt" height="82pt"
 viewBox="0.00 0.00 226.20 82.00" xmlns="http://www.w3.org/2000/svg" xmlns:xlink="http://www.w3.org/1999/xlink">
<g id="graph0" class="graph" transform="scale(1 1) rotate(0) translate(4 78)">
<title>idl_dox/VisualServoingIDL.h</title>
<polygon fill="#ffffff" stroke="transparent" points="-4,4 -4,-78 222.1968,-78 222.1968,4 -4,4"/>
<!-- Node0 -->
<g id="node1" class="node">
<title>Node0</title>
<polygon fill="#bfbfbf" stroke="#000000" points="28.7827,-55.5 28.7827,-73.5 169.6802,-73.5 169.6802,-55.5 28.7827,-55.5"/>
<text text-anchor="middle" x="99.2314" y="-61.5" font-family="Helvetica,sans-Serif" font-size="10.00" fill="#000000">idl_dox/VisualServoingIDL.h</text>
</g>
<!-- Node1 -->
<g id="node2" class="node">
<title>Node1</title>
<polygon fill="#ffffff" stroke="#bfbfbf" points="0,-.5 0,-18.5 80.4629,-18.5 80.4629,-.5 0,-.5"/>
<text text-anchor="middle" x="40.2314" y="-6.5" font-family="Helvetica,sans-Serif" font-size="10.00" fill="#000000">yarp/os/Wire.h</text>
</g>
<!-- Node0&#45;&gt;Node1 -->
<g id="edge1" class="edge">
<title>Node0&#45;&gt;Node1</title>
<path fill="none" stroke="#191970" d="M89.4888,-55.4179C80.8297,-47.3458 67.9675,-35.3556 57.5578,-25.6517"/>
<polygon fill="#191970" stroke="#191970" points="59.8871,-23.0381 50.1858,-18.7795 55.1139,-28.1584 59.8871,-23.0381"/>
</g>
<!-- Node2 -->
<g id="node3" class="node">
<title>Node2</title>
<polygon fill="#ffffff" stroke="#bfbfbf" points="98.2661,-.5 98.2661,-18.5 218.1968,-18.5 218.1968,-.5 98.2661,-.5"/>
<text text-anchor="middle" x="158.2314" y="-6.5" font-family="Helvetica,sans-Serif" font-size="10.00" fill="#000000">yarp/os/idl/WireTypes.h</text>
</g>
<!-- Node0&#45;&gt;Node2 -->
<g id="edge2" class="edge">
<title>Node0&#45;&gt;Node2</title>
<path fill="none" stroke="#191970" d="M108.9741,-55.4179C117.6332,-47.3458 130.4954,-35.3556 140.9051,-25.6517"/>
<polygon fill="#191970" stroke="#191970" points="143.349,-28.1584 148.2771,-18.7795 138.5758,-23.0381 143.349,-28.1584"/>
</g>
</g>
</svg>
