<?xml version="1.0" encoding="UTF-8" standalone="no"?>
<!DOCTYPE svg PUBLIC "-//W3C//DTD SVG 1.1//EN"
 "http://www.w3.org/Graphics/SVG/1.1/DTD/svg11.dtd">
<!-- Generated by graphviz version 2.40.1 (20161225.0304)
 -->
<!-- Title: /Users/Claudio/GitHub/visual&#45;tracking&#45;control/src/visualservoing/visualservoingserver/include/VisualServoingServer.h Pages: 1 -->
<svg width="2674pt" height="112pt"
 viewBox="0.00 0.00 2674.30 112.00" xmlns="http://www.w3.org/2000/svg" xmlns:xlink="http://www.w3.org/1999/xlink">
<g id="graph0" class="graph" transform="scale(1 1) rotate(0) translate(4 108)">
<title>/Users/Claudio/GitHub/visual&#45;tracking&#45;control/src/visualservoing/visualservoingserver/include/VisualServoingServer.h</title>
<polygon fill="#ffffff" stroke="transparent" points="-4,4 -4,-108 2670.2983,-108 2670.2983,4 -4,4"/>
<!-- Node0 -->
<g id="node1" class="node">
<title>Node0</title>
<polygon fill="#bfbfbf" stroke="#000000" points="1189.2397,-55.5 1189.2397,-103.5 1381.4165,-103.5 1381.4165,-55.5 1189.2397,-55.5"/>
<text text-anchor="start" x="1197.2397" y="-91.5" font-family="Helvetica,sans-Serif" font-size="10.00" fill="#000000">/Users/Claudio/GitHub</text>
<text text-anchor="start" x="1197.2397" y="-81.5" font-family="Helvetica,sans-Serif" font-size="10.00" fill="#000000">/visual&#45;tracking&#45;control</text>
<text text-anchor="start" x="1197.2397" y="-71.5" font-family="Helvetica,sans-Serif" font-size="10.00" fill="#000000">/src/visualservoing/visualservoingserver</text>
<text text-anchor="middle" x="1285.3281" y="-61.5" font-family="Helvetica,sans-Serif" font-size="10.00" fill="#000000">/include/VisualServoingServer.h</text>
</g>
<!-- Node1 -->
<g id="node2" class="node">
<title>Node1</title>
<polygon fill="#ffffff" stroke="#bfbfbf" points="0,-.5 0,-18.5 128.6563,-18.5 128.6563,-.5 0,-.5"/>
<text text-anchor="middle" x="64.3281" y="-6.5" font-family="Helvetica,sans-Serif" font-size="10.00" fill="#000000">thrift/VisualServoingIDL.h</text>
</g>
<!-- Node0&#45;&gt;Node1 -->
<g id="edge1" class="edge">
<title>Node0&#45;&gt;Node1</title>
<path fill="none" stroke="#191970" d="M1189.235,-76.8661C993.6389,-70.9728 535.0093,-54.4425 139.0933,-18.996"/>
<polygon fill="#191970" stroke="#191970" points="139.1444,-15.4866 128.8708,-18.0753 138.5164,-22.4583 139.1444,-15.4866"/>
</g>
<!-- Node2 -->
<g id="node3" class="node">
<title>Node2</title>
<polygon fill="#ffffff" stroke="#bfbfbf" points="146.9365,-.5 146.9365,-18.5 185.7197,-18.5 185.7197,-.5 146.9365,-.5"/>
<text text-anchor="middle" x="166.3281" y="-6.5" font-family="Helvetica,sans-Serif" font-size="10.00" fill="#000000">array</text>
</g>
<!-- Node0&#45;&gt;Node2 -->
<g id="edge2" class="edge">
<title>Node0&#45;&gt;Node2</title>
<path fill="none" stroke="#191970" d="M1189.1355,-77.5103C963.0324,-72.3027 401.948,-56.1543 195.5779,-18.6923"/>
<polygon fill="#191970" stroke="#191970" points="196.2026,-15.2485 185.7271,-16.8346 194.9052,-22.1273 196.2026,-15.2485"/>
</g>
<!-- Node3 -->
<g id="node4" class="node">
<title>Node3</title>
<polygon fill="#ffffff" stroke="#bfbfbf" points="203.7124,-.5 203.7124,-18.5 246.9438,-18.5 246.9438,-.5 203.7124,-.5"/>
<text text-anchor="middle" x="225.3281" y="-6.5" font-family="Helvetica,sans-Serif" font-size="10.00" fill="#000000">cmath</text>
</g>
<!-- Node0&#45;&gt;Node3 -->
<g id="edge3" class="edge">
<title>Node0&#45;&gt;Node3</title>
<path fill="none" stroke="#191970" d="M1188.8778,-76.887C972.2295,-70.5317 451.421,-52.4159 257.2303,-18.9041"/>
<polygon fill="#191970" stroke="#191970" points="257.5849,-15.4119 247.1239,-17.0904 256.3484,-22.3018 257.5849,-15.4119"/>
</g>
<!-- Node4 -->
<g id="node5" class="node">
<title>Node4</title>
<polygon fill="#ffffff" stroke="#bfbfbf" points="264.7124,-.5 264.7124,-18.5 307.9438,-18.5 307.9438,-.5 264.7124,-.5"/>
<text text-anchor="middle" x="286.3281" y="-6.5" font-family="Helvetica,sans-Serif" font-size="10.00" fill="#000000">mutex</text>
</g>
<!-- Node0&#45;&gt;Node4 -->
<g id="edge4" class="edge">
<title>Node0&#45;&gt;Node4</title>
<path fill="none" stroke="#191970" d="M1189.2314,-76.3653C982.6677,-69.1683 500.9946,-49.8076 318.2275,-18.6728"/>
<polygon fill="#191970" stroke="#191970" points="318.6432,-15.1921 308.186,-16.8944 317.4223,-22.0848 318.6432,-15.1921"/>
</g>
<!-- Node5 -->
<g id="node6" class="node">
<title>Node5</title>
<polygon fill="#ffffff" stroke="#bfbfbf" points="326.1509,-.5 326.1509,-18.5 370.5054,-18.5 370.5054,-.5 326.1509,-.5"/>
<text text-anchor="middle" x="348.3281" y="-6.5" font-family="Helvetica,sans-Serif" font-size="10.00" fill="#000000">thread</text>
</g>
<!-- Node0&#45;&gt;Node5 -->
<g id="edge5" class="edge">
<title>Node0&#45;&gt;Node5</title>
<path fill="none" stroke="#191970" d="M1189.0026,-75.8806C992.5531,-68.0477 550.5877,-48.0034 380.5994,-18.7766"/>
<polygon fill="#191970" stroke="#191970" points="380.9867,-15.2904 370.5265,-16.9739 379.7536,-22.1809 380.9867,-15.2904"/>
</g>
<!-- Node6 -->
<g id="node7" class="node">
<title>Node6</title>
<polygon fill="#ffffff" stroke="#bfbfbf" points="388.7124,-.5 388.7124,-18.5 431.9438,-18.5 431.9438,-.5 388.7124,-.5"/>
<text text-anchor="middle" x="410.3281" y="-6.5" font-family="Helvetica,sans-Serif" font-size="10.00" fill="#000000">vector</text>
</g>
<!-- Node0&#45;&gt;Node6 -->
<g id="edge6" class="edge">
<title>Node0&#45;&gt;Node6</title>
<path fill="none" stroke="#191970" d="M1189.1174,-75.34C1003.278,-66.8638 600.1183,-46.2174 442.2309,-18.6918"/>
<polygon fill="#191970" stroke="#191970" points="442.6551,-15.2117 432.1907,-16.8688 441.4046,-22.0991 442.6551,-15.2117"/>
</g>
<!-- Node7 -->
<g id="node8" class="node">
<title>Node7</title>
<polygon fill="#ffffff" stroke="#bfbfbf" points="450.0747,-.5 450.0747,-18.5 590.5815,-18.5 590.5815,-.5 450.0747,-.5"/>
<text text-anchor="middle" x="520.3281" y="-6.5" font-family="Helvetica,sans-Serif" font-size="10.00" fill="#000000">yarp/dev/CartesianControl.h</text>
</g>
<!-- Node0&#45;&gt;Node7 -->
<g id="edge7" class="edge">
<title>Node0&#45;&gt;Node7</title>
<path fill="none" stroke="#191970" d="M1189.2338,-71.9923C1058.5472,-61.5648 817.2013,-41.5385 601.2162,-19.1719"/>
<polygon fill="#191970" stroke="#191970" points="601.2591,-15.6576 590.9509,-18.1051 600.5355,-22.6201 601.2591,-15.6576"/>
</g>
<!-- Node8 -->
<g id="node9" class="node">
<title>Node8</title>
<polygon fill="#ffffff" stroke="#bfbfbf" points="608.5229,-.5 608.5229,-18.5 730.1333,-18.5 730.1333,-.5 608.5229,-.5"/>
<text text-anchor="middle" x="669.3281" y="-6.5" font-family="Helvetica,sans-Serif" font-size="10.00" fill="#000000">yarp/dev/GazeControl.h</text>
</g>
<!-- Node0&#45;&gt;Node8 -->
<g id="edge8" class="edge">
<title>Node0&#45;&gt;Node8</title>
<path fill="none" stroke="#191970" d="M1189.0812,-69.5568C1082.1757,-58.3483 904.1779,-39.1992 740.6516,-19.1392"/>
<polygon fill="#191970" stroke="#191970" points="740.7526,-15.6254 730.4001,-17.8781 739.8979,-22.573 740.7526,-15.6254"/>
</g>
<!-- Node9 -->
<g id="node10" class="node">
<title>Node9</title>
<polygon fill="#ffffff" stroke="#bfbfbf" points="748.2495,-.5 748.2495,-18.5 870.4067,-18.5 870.4067,-.5 748.2495,-.5"/>
<text text-anchor="middle" x="809.3281" y="-6.5" font-family="Helvetica,sans-Serif" font-size="10.00" fill="#000000">yarp/dev/DeviceDriver.h</text>
</g>
<!-- Node0&#45;&gt;Node9 -->
<g id="edge9" class="edge">
<title>Node0&#45;&gt;Node9</title>
<path fill="none" stroke="#191970" d="M1189.0024,-65.3345C1097.7292,-51.9119 962.7485,-32.0618 880.7289,-20.0001"/>
<polygon fill="#191970" stroke="#191970" points="881.1522,-16.5248 870.7494,-18.5325 880.1337,-23.4503 881.1522,-16.5248"/>
</g>
<!-- Node10 -->
<g id="node11" class="node">
<title>Node10</title>
<polygon fill="#ffffff" stroke="#bfbfbf" points="888.0796,-.5 888.0796,-18.5 998.5767,-18.5 998.5767,-.5 888.0796,-.5"/>
<text text-anchor="middle" x="943.3281" y="-6.5" font-family="Helvetica,sans-Serif" font-size="10.00" fill="#000000">yarp/dev/IEncoders.h</text>
</g>
<!-- Node0&#45;&gt;Node10 -->
<g id="edge10" class="edge">
<title>Node0&#45;&gt;Node10</title>
<path fill="none" stroke="#191970" d="M1189.1519,-59.8148C1127.1031,-47.1148 1048.6816,-31.0636 997.3203,-20.551"/>
<polygon fill="#191970" stroke="#191970" points="997.9204,-17.1014 987.4217,-18.525 996.5167,-23.9592 997.9204,-17.1014"/>
</g>
<!-- Node11 -->
<g id="node12" class="node">
<title>Node11</title>
<polygon fill="#ffffff" stroke="#bfbfbf" points="1016.9385,-.5 1016.9385,-18.5 1151.7178,-18.5 1151.7178,-.5 1016.9385,-.5"/>
<text text-anchor="middle" x="1084.3281" y="-6.5" font-family="Helvetica,sans-Serif" font-size="10.00" fill="#000000">yarp/dev/IVisualServoing.h</text>
</g>
<!-- Node0&#45;&gt;Node11 -->
<g id="edge11" class="edge">
<title>Node0&#45;&gt;Node11</title>
<path fill="none" stroke="#191970" d="M1216.1553,-55.41C1183.7316,-44.1181 1146.4742,-31.1429 1119.8577,-21.8735"/>
<polygon fill="#191970" stroke="#191970" points="1120.8047,-18.4972 1110.2099,-18.5136 1118.5025,-25.1078 1120.8047,-18.4972"/>
</g>
<!-- Node12 -->
<g id="node13" class="node">
<title>Node12</title>
<polygon fill="#ffffff" stroke="#bfbfbf" points="1169.8062,-.5 1169.8062,-18.5 1280.8501,-18.5 1280.8501,-.5 1169.8062,-.5"/>
<text text-anchor="middle" x="1225.3281" y="-6.5" font-family="Helvetica,sans-Serif" font-size="10.00" fill="#000000">yarp/dev/PolyDriver.h</text>
</g>
<!-- Node0&#45;&gt;Node12 -->
<g id="edge12" class="edge">
<title>Node0&#45;&gt;Node12</title>
<path fill="none" stroke="#191970" d="M1264.6795,-55.41C1256.4592,-45.8196 1247.1981,-35.015 1239.7262,-26.2977"/>
<polygon fill="#191970" stroke="#191970" points="1242.3683,-24.002 1233.2029,-18.6872 1237.0534,-28.5576 1242.3683,-24.002"/>
</g>
<!-- Node13 -->
<g id="node14" class="node">
<title>Node13</title>
<polygon fill="#ffffff" stroke="#bfbfbf" points="1298.4219,-.5 1298.4219,-18.5 1392.2344,-18.5 1392.2344,-.5 1298.4219,-.5"/>
<text text-anchor="middle" x="1345.3281" y="-6.5" font-family="Helvetica,sans-Serif" font-size="10.00" fill="#000000">yarp/math/Math.h</text>
</g>
<!-- Node0&#45;&gt;Node13 -->
<g id="edge13" class="edge">
<title>Node0&#45;&gt;Node13</title>
<path fill="none" stroke="#191970" d="M1305.9767,-55.41C1314.197,-45.8196 1323.4581,-35.015 1330.9301,-26.2977"/>
<polygon fill="#191970" stroke="#191970" points="1333.6028,-28.5576 1337.4533,-18.6872 1328.288,-24.002 1333.6028,-28.5576"/>
</g>
<!-- Node14 -->
<g id="node15" class="node">
<title>Node14</title>
<polygon fill="#ffffff" stroke="#bfbfbf" points="1410.5869,-.5 1410.5869,-18.5 1496.0693,-18.5 1496.0693,-.5 1410.5869,-.5"/>
<text text-anchor="middle" x="1453.3281" y="-6.5" font-family="Helvetica,sans-Serif" font-size="10.00" fill="#000000">yarp/os/Bottle.h</text>
</g>
<!-- Node0&#45;&gt;Node14 -->
<g id="edge14" class="edge">
<title>Node0&#45;&gt;Node14</title>
<path fill="none" stroke="#191970" d="M1343.1442,-55.41C1369.7671,-44.3171 1400.2889,-31.5997 1422.4475,-22.3669"/>
<polygon fill="#191970" stroke="#191970" points="1423.811,-25.5905 1431.6956,-18.5136 1421.1186,-19.129 1423.811,-25.5905"/>
</g>
<!-- Node15 -->
<g id="node16" class="node">
<title>Node15</title>
<polygon fill="#ffffff" stroke="#bfbfbf" points="1514.3892,-.5 1514.3892,-18.5 1630.2671,-18.5 1630.2671,-.5 1514.3892,-.5"/>
<text text-anchor="middle" x="1572.3281" y="-6.5" font-family="Helvetica,sans-Serif" font-size="10.00" fill="#000000">yarp/os/BufferedPort.h</text>
</g>
<!-- Node0&#45;&gt;Node15 -->
<g id="edge15" class="edge">
<title>Node0&#45;&gt;Node15</title>
<path fill="none" stroke="#191970" d="M1381.6934,-55.9963C1429.9775,-44.2197 1486.2707,-30.4896 1525.1039,-21.0181"/>
<polygon fill="#191970" stroke="#191970" points="1526.1922,-24.3554 1535.078,-18.5854 1524.5334,-17.5547 1526.1922,-24.3554"/>
</g>
<!-- Node16 -->
<g id="node17" class="node">
<title>Node16</title>
<polygon fill="#ffffff" stroke="#bfbfbf" points="1648.2495,-.5 1648.2495,-18.5 1760.4067,-18.5 1760.4067,-.5 1648.2495,-.5"/>
<text text-anchor="middle" x="1704.3281" y="-6.5" font-family="Helvetica,sans-Serif" font-size="10.00" fill="#000000">yarp/os/ConstString.h</text>
</g>
<!-- Node0&#45;&gt;Node16 -->
<g id="edge16" class="edge">
<title>Node0&#45;&gt;Node16</title>
<path fill="none" stroke="#191970" d="M1381.4552,-63.4406C1460.7398,-50.1949 1571.0251,-31.7702 1640.0037,-20.2463"/>
<polygon fill="#191970" stroke="#191970" points="1641.0038,-23.6278 1650.2903,-18.5278 1639.8503,-16.7235 1641.0038,-23.6278"/>
</g>
<!-- Node17 -->
<g id="node18" class="node">
<title>Node17</title>
<polygon fill="#ffffff" stroke="#bfbfbf" points="1777.9146,-.5 1777.9146,-18.5 1886.7417,-18.5 1886.7417,-.5 1777.9146,-.5"/>
<text text-anchor="middle" x="1832.3281" y="-6.5" font-family="Helvetica,sans-Serif" font-size="10.00" fill="#000000">yarp/os/LogStream.h</text>
</g>
<!-- Node0&#45;&gt;Node17 -->
<g id="edge17" class="edge">
<title>Node0&#45;&gt;Node17</title>
<path fill="none" stroke="#191970" d="M1381.8443,-68.1645C1477.3087,-56.7851 1627.8494,-38.3925 1767.6579,-19.206"/>
<polygon fill="#191970" stroke="#191970" points="1768.2752,-22.6542 1777.7046,-17.8233 1767.3208,-15.7195 1768.2752,-22.6542"/>
</g>
<!-- Node18 -->
<g id="node19" class="node">
<title>Node18</title>
<polygon fill="#ffffff" stroke="#bfbfbf" points="1905.2026,-.5 1905.2026,-18.5 1983.4536,-18.5 1983.4536,-.5 1905.2026,-.5"/>
<text text-anchor="middle" x="1944.3281" y="-6.5" font-family="Helvetica,sans-Serif" font-size="10.00" fill="#000000">yarp/os/Port.h</text>
</g>
<!-- Node0&#45;&gt;Node18 -->
<g id="edge18" class="edge">
<title>Node0&#45;&gt;Node18</title>
<path fill="none" stroke="#191970" d="M1381.5437,-72.7271C1499.9149,-63.7699 1707.1575,-46.0601 1895.0041,-18.9101"/>
<polygon fill="#191970" stroke="#191970" points="1895.6772,-22.3491 1905.068,-17.4437 1894.6678,-15.4222 1895.6772,-22.3491"/>
</g>
<!-- Node19 -->
<g id="node20" class="node">
<title>Node19</title>
<polygon fill="#ffffff" stroke="#bfbfbf" points="2001.6978,-.5 2001.6978,-18.5 2104.9585,-18.5 2104.9585,-.5 2001.6978,-.5"/>
<text text-anchor="middle" x="2053.3281" y="-6.5" font-family="Helvetica,sans-Serif" font-size="10.00" fill="#000000">yarp/os/RpcClient.h</text>
</g>
<!-- Node0&#45;&gt;Node19 -->
<g id="edge19" class="edge">
<title>Node0&#45;&gt;Node19</title>
<path fill="none" stroke="#191970" d="M1381.6025,-73.3798C1515.8618,-64.3705 1767.1256,-45.7901 1991.461,-19.0285"/>
<polygon fill="#191970" stroke="#191970" points="1991.9363,-22.4966 2001.4478,-17.8295 1991.1018,-15.5465 1991.9363,-22.4966"/>
</g>
<!-- Node20 -->
<g id="node21" class="node">
<title>Node20</title>
<polygon fill="#ffffff" stroke="#bfbfbf" points="2122.5303,-.5 2122.5303,-18.5 2214.126,-18.5 2214.126,-.5 2122.5303,-.5"/>
<text text-anchor="middle" x="2168.3281" y="-6.5" font-family="Helvetica,sans-Serif" font-size="10.00" fill="#000000">yarp/os/Thread.h</text>
</g>
<!-- Node0&#45;&gt;Node20 -->
<g id="edge20" class="edge">
<title>Node0&#45;&gt;Node20</title>
<path fill="none" stroke="#191970" d="M1381.6905,-75.6391C1534.6793,-68.8062 1842.6541,-52.187 2112.4351,-19.1355"/>
<polygon fill="#191970" stroke="#191970" points="2112.9233,-22.6019 2122.419,-17.9026 2112.0654,-15.6547 2112.9233,-22.6019"/>
</g>
<!-- Node21 -->
<g id="node22" class="node">
<title>Node21</title>
<polygon fill="#ffffff" stroke="#bfbfbf" points="2232.0771,-.5 2232.0771,-18.5 2342.5791,-18.5 2342.5791,-.5 2232.0771,-.5"/>
<text text-anchor="middle" x="2287.3281" y="-6.5" font-family="Helvetica,sans-Serif" font-size="10.00" fill="#000000">yarp/os/Searchable.h</text>
</g>
<!-- Node0&#45;&gt;Node21 -->
<g id="edge21" class="edge">
<title>Node0&#45;&gt;Node21</title>
<path fill="none" stroke="#191970" d="M1381.4246,-75.9352C1549.7005,-69.1123 1908.8131,-51.9698 2221.6855,-19.0974"/>
<polygon fill="#191970" stroke="#191970" points="2222.2848,-22.5536 2231.8611,-18.0209 2221.5484,-15.5924 2222.2848,-22.5536"/>
</g>
<!-- Node22 -->
<g id="node23" class="node">
<title>Node22</title>
<polygon fill="#ffffff" stroke="#bfbfbf" points="2360.3652,-.5 2360.3652,-18.5 2450.291,-18.5 2450.291,-.5 2360.3652,-.5"/>
<text text-anchor="middle" x="2405.3281" y="-6.5" font-family="Helvetica,sans-Serif" font-size="10.00" fill="#000000">yarp/sig/Image.h</text>
</g>
<!-- Node0&#45;&gt;Node22 -->
<g id="edge22" class="edge">
<title>Node0&#45;&gt;Node22</title>
<path fill="none" stroke="#191970" d="M1381.5708,-77.8209C1567.1368,-73.7553 1987.3682,-60.529 2350.1293,-19.0023"/>
<polygon fill="#191970" stroke="#191970" points="2350.7719,-22.4515 2360.3048,-17.8283 2349.9695,-15.4976 2350.7719,-22.4515"/>
</g>
<!-- Node23 -->
<g id="node24" class="node">
<title>Node23</title>
<polygon fill="#ffffff" stroke="#bfbfbf" points="2468.6509,-.5 2468.6509,-18.5 2558.0054,-18.5 2558.0054,-.5 2468.6509,-.5"/>
<text text-anchor="middle" x="2513.3281" y="-6.5" font-family="Helvetica,sans-Serif" font-size="10.00" fill="#000000">yarp/sig/Matrix.h</text>
</g>
<!-- Node0&#45;&gt;Node23 -->
<g id="edge23" class="edge">
<title>Node0&#45;&gt;Node23</title>
<path fill="none" stroke="#191970" d="M1381.5274,-78.5312C1580.7336,-75.6557 2052.9171,-64.3374 2458.4318,-18.951"/>
<polygon fill="#191970" stroke="#191970" points="2459.0557,-22.4029 2468.6004,-17.8042 2458.2711,-15.447 2459.0557,-22.4029"/>
</g>
<!-- Node24 -->
<g id="node25" class="node">
<title>Node24</title>
<polygon fill="#ffffff" stroke="#bfbfbf" points="2576.3579,-.5 2576.3579,-18.5 2666.2983,-18.5 2666.2983,-.5 2576.3579,-.5"/>
<text text-anchor="middle" x="2621.3281" y="-6.5" font-family="Helvetica,sans-Serif" font-size="10.00" fill="#000000">yarp/sig/Vector.h</text>
</g>
<!-- Node0&#45;&gt;Node24 -->
<g id="edge24" class="edge">
<title>Node0&#45;&gt;Node24</title>
<path fill="none" stroke="#191970" d="M1381.6603,-76.5423C1635.3409,-68.5027 2318.6809,-45.1618 2566.2664,-18.9522"/>
<polygon fill="#191970" stroke="#191970" points="2566.7453,-22.4209 2576.3085,-17.8607 2565.9888,-15.4618 2566.7453,-22.4209"/>
</g>
</g>
</svg>
