<?xml version="1.0" encoding="UTF-8" standalone="no"?>
<!DOCTYPE svg PUBLIC "-//W3C//DTD SVG 1.1//EN"
 "http://www.w3.org/Graphics/SVG/1.1/DTD/svg11.dtd">
<!-- Generated by graphviz version 2.40.1 (20161225.0304)
 -->
<!-- Title: /Users/Claudio/GitHub/visual&#45;tracking&#45;control/src/hand&#45;tracking/include/VisualProprioception.h Pages: 1 -->
<svg width="486pt" height="227pt"
 viewBox="0.00 0.00 485.87 227.00" xmlns="http://www.w3.org/2000/svg" xmlns:xlink="http://www.w3.org/1999/xlink">
<g id="graph0" class="graph" transform="scale(1 1) rotate(0) translate(4 223)">
<title>/Users/Claudio/GitHub/visual&#45;tracking&#45;control/src/hand&#45;tracking/include/VisualProprioception.h</title>
<polygon fill="#ffffff" stroke="transparent" points="-4,4 -4,-223 481.8745,-223 481.8745,4 -4,4"/>
<!-- Node14 -->
<g id="node1" class="node">
<title>Node14</title>
<polygon fill="#bfbfbf" stroke="#000000" points="105.4976,-170.5 105.4976,-218.5 235.4429,-218.5 235.4429,-170.5 105.4976,-170.5"/>
<text text-anchor="start" x="113.4976" y="-206.5" font-family="Helvetica,sans-Serif" font-size="10.00" fill="#000000">/Users/Claudio/GitHub</text>
<text text-anchor="start" x="113.4976" y="-196.5" font-family="Helvetica,sans-Serif" font-size="10.00" fill="#000000">/visual&#45;tracking&#45;control</text>
<text text-anchor="start" x="113.4976" y="-186.5" font-family="Helvetica,sans-Serif" font-size="10.00" fill="#000000">/src/hand&#45;tracking/include</text>
<text text-anchor="middle" x="170.4702" y="-176.5" font-family="Helvetica,sans-Serif" font-size="10.00" fill="#000000">/VisualProprioception.h</text>
</g>
<!-- Node15 -->
<g id="node2" class="node">
<title>Node15</title>
<g id="a_node2"><a xlink:href="VisualUpdateParticles_8h.html" target="_top" xlink:title="/Users/Claudio/GitHub\l/visual&#45;tracking&#45;control\l/src/hand&#45;tracking/include\l/VisualUpdateParticles.h">
<polygon fill="#ffffff" stroke="#000000" points="105.4976,-85.5 105.4976,-133.5 235.4429,-133.5 235.4429,-85.5 105.4976,-85.5"/>
<text text-anchor="start" x="113.4976" y="-121.5" font-family="Helvetica,sans-Serif" font-size="10.00" fill="#000000">/Users/Claudio/GitHub</text>
<text text-anchor="start" x="113.4976" y="-111.5" font-family="Helvetica,sans-Serif" font-size="10.00" fill="#000000">/visual&#45;tracking&#45;control</text>
<text text-anchor="start" x="113.4976" y="-101.5" font-family="Helvetica,sans-Serif" font-size="10.00" fill="#000000">/src/hand&#45;tracking/include</text>
<text text-anchor="middle" x="170.4702" y="-91.5" font-family="Helvetica,sans-Serif" font-size="10.00" fill="#000000">/VisualUpdateParticles.h</text>
</a>
</g>
</g>
<!-- Node14&#45;&gt;Node15 -->
<g id="edge1" class="edge">
<title>Node14&#45;&gt;Node15</title>
<path fill="none" stroke="#191970" d="M170.4702,-160.2518C170.4702,-151.3524 170.4702,-141.951 170.4702,-133.6906"/>
<polygon fill="#191970" stroke="#191970" points="166.9703,-160.3697 170.4702,-170.3698 173.9703,-160.3698 166.9703,-160.3697"/>
</g>
<!-- Node16 -->
<g id="node3" class="node">
<title>Node16</title>
<g id="a_node3"><a xlink:href="hand-tracking_2src_2main_8cpp.html" target="_top" xlink:title="/Users/Claudio/GitHub\l/visual&#45;tracking&#45;control\l/src/hand&#45;tracking/src/main.cpp">
<polygon fill="#ffffff" stroke="#000000" points="0,-5.5 0,-43.5 154.9404,-43.5 154.9404,-5.5 0,-5.5"/>
<text text-anchor="start" x="8" y="-31.5" font-family="Helvetica,sans-Serif" font-size="10.00" fill="#000000">/Users/Claudio/GitHub</text>
<text text-anchor="start" x="8" y="-21.5" font-family="Helvetica,sans-Serif" font-size="10.00" fill="#000000">/visual&#45;tracking&#45;control</text>
<text text-anchor="middle" x="77.4702" y="-11.5" font-family="Helvetica,sans-Serif" font-size="10.00" fill="#000000">/src/hand&#45;tracking/src/main.cpp</text>
</a>
</g>
</g>
<!-- Node14&#45;&gt;Node16 -->
<g id="edge4" class="edge">
<title>Node14&#45;&gt;Node16</title>
<path fill="none" stroke="#191970" d="M123.0074,-164.1858C112.8269,-155.5907 103.1395,-145.4187 96.4702,-134 79.9275,-105.6765 76.977,-66.683 76.8615,-43.6806"/>
<polygon fill="#191970" stroke="#191970" points="120.8484,-166.9407 130.8467,-170.4456 125.2163,-161.4707 120.8484,-166.9407"/>
</g>
<!-- Node18 -->
<g id="node5" class="node">
<title>Node18</title>
<g id="a_node5"><a xlink:href="VisualProprioception_8cpp.html" target="_top" xlink:title="/Users/Claudio/GitHub\l/visual&#45;tracking&#45;control\l/src/hand&#45;tracking/src/VisualProprioception.cpp">
<polygon fill="#ffffff" stroke="#000000" points="253.0659,-90.5 253.0659,-128.5 477.8745,-128.5 477.8745,-90.5 253.0659,-90.5"/>
<text text-anchor="start" x="261.0659" y="-116.5" font-family="Helvetica,sans-Serif" font-size="10.00" fill="#000000">/Users/Claudio/GitHub</text>
<text text-anchor="start" x="261.0659" y="-106.5" font-family="Helvetica,sans-Serif" font-size="10.00" fill="#000000">/visual&#45;tracking&#45;control</text>
<text text-anchor="middle" x="365.4702" y="-96.5" font-family="Helvetica,sans-Serif" font-size="10.00" fill="#000000">/src/hand&#45;tracking/src/VisualProprioception.cpp</text>
</a>
</g>
</g>
<!-- Node14&#45;&gt;Node18 -->
<g id="edge5" class="edge">
<title>Node14&#45;&gt;Node18</title>
<path fill="none" stroke="#191970" d="M235.0277,-166.3596C263.4499,-153.9704 296.1045,-139.7363 321.6315,-128.6092"/>
<polygon fill="#191970" stroke="#191970" points="233.3359,-163.2789 225.5675,-170.4832 236.133,-169.6958 233.3359,-163.2789"/>
</g>
<!-- Node15&#45;&gt;Node16 -->
<g id="edge2" class="edge">
<title>Node15&#45;&gt;Node16</title>
<path fill="none" stroke="#191970" d="M136.3444,-78.3097C123.6001,-66.6617 109.5185,-53.7914 98.3231,-43.5591"/>
<polygon fill="#191970" stroke="#191970" points="134.3262,-81.2068 144.0689,-85.3698 139.0487,-76.0398 134.3262,-81.2068"/>
</g>
<!-- Node17 -->
<g id="node4" class="node">
<title>Node17</title>
<g id="a_node4"><a xlink:href="VisualUpdateParticles_8cpp.html" target="_top" xlink:title="/Users/Claudio/GitHub\l/visual&#45;tracking&#45;control\l/src/hand&#45;tracking/src/VisualUpdate\lParticles.cpp">
<polygon fill="#ffffff" stroke="#000000" points="172.6348,-.5 172.6348,-48.5 346.3057,-48.5 346.3057,-.5 172.6348,-.5"/>
<text text-anchor="start" x="180.6348" y="-36.5" font-family="Helvetica,sans-Serif" font-size="10.00" fill="#000000">/Users/Claudio/GitHub</text>
<text text-anchor="start" x="180.6348" y="-26.5" font-family="Helvetica,sans-Serif" font-size="10.00" fill="#000000">/visual&#45;tracking&#45;control</text>
<text text-anchor="start" x="180.6348" y="-16.5" font-family="Helvetica,sans-Serif" font-size="10.00" fill="#000000">/src/hand&#45;tracking/src/VisualUpdate</text>
<text text-anchor="middle" x="259.4702" y="-6.5" font-family="Helvetica,sans-Serif" font-size="10.00" fill="#000000">Particles.cpp</text>
</a>
</g>
</g>
<!-- Node15&#45;&gt;Node17 -->
<g id="edge3" class="edge">
<title>Node15&#45;&gt;Node17</title>
<path fill="none" stroke="#191970" d="M203.0132,-78.4196C213.2773,-68.6169 224.4579,-57.9387 234.1413,-48.6906"/>
<polygon fill="#191970" stroke="#191970" points="200.5504,-75.9319 195.736,-85.3698 205.3851,-80.9942 200.5504,-75.9319"/>
</g>
</g>
</svg>
