<?xml version="1.0" encoding="UTF-8" standalone="no"?>
<!DOCTYPE svg PUBLIC "-//W3C//DTD SVG 1.1//EN"
 "http://www.w3.org/Graphics/SVG/1.1/DTD/svg11.dtd">
<!-- Generated by graphviz version 2.40.1 (20161225.0304)
 -->
<!-- Title: /Users/Claudio/GitHub/visual&#45;tracking&#45;control/src/visualservoing/visualservoingclient/include/VisualServoingClient.h Pages: 1 -->
<!--zoomable 112 -->
<svg id="main" version="1.1" xmlns="http://www.w3.org/2000/svg" xmlns:xlink="http://www.w3.org/1999/xlink" xml:space="preserve" onload="init(evt)">
<style type="text/css"><![CDATA[
.edge:hover path { stroke: red; }
.edge:hover polygon { stroke: red; fill: red; }
]]></style>
<script type="text/javascript"><![CDATA[
var edges = document.getElementsByTagName('g');
if (edges && edges.length) {
  for (var i=0;i<edges.length;i++) {
    if (edges[i].id.substr(0,4)=='edge') {
      edges[i].setAttribute('class','edge');
    }
  }
}
]]></script>
        <defs>
                <circle id="rim" cx="0" cy="0" r="7"/>
                <circle id="rim2" cx="0" cy="0" r="3.5"/>
                <g id="zoomPlus">
                        <use xlink:href="#rim" fill="#404040">
                                <set attributeName="fill" to="#808080" begin="zoomplus.mouseover" end="zoomplus.mouseout"/>
                        </use>
                        <path d="M-4,0h8M0,-4v8" fill="none" stroke="white" stroke-width="1.5" pointer-events="none"/>
                </g>
                <g id="zoomMin">
                        <use xlink:href="#rim" fill="#404040">
                                <set attributeName="fill" to="#808080" begin="zoomminus.mouseover" end="zoomminus.mouseout"/>
                        </use>
                        <path d="M-4,0h8" fill="none" stroke="white" stroke-width="1.5" pointer-events="none"/>
                </g>
                <g id="dirArrow">
                        <path fill="none" stroke="white" stroke-width="1.5" d="M0,-3.0v7 M-2.5,-0.5L0,-3.0L2.5,-0.5"/>
                </g>
               <g id="resetDef">
                       <use xlink:href="#rim2" fill="#404040">
                               <set attributeName="fill" to="#808080" begin="reset.mouseover" end="reset.mouseout"/>
                       </use>
               </g>
        </defs>

<script type="text/javascript">
var viewWidth = 1317;
var viewHeight = 112;
var sectionId = 'dynsection-0';
</script>
<script xlink:href="svgpan.js"/>
<svg id="graph" class="graph">
<g id="viewport">
<title>/Users/Claudio/GitHub/visual&#45;tracking&#45;control/src/visualservoing/visualservoingclient/include/VisualServoingClient.h</title>
<polygon fill="#ffffff" stroke="transparent" points="-4,4 -4,-108 1313.2983,-108 1313.2983,4 -4,4"/>
<!-- Node0 -->
<g id="node1" class="node">
<title>Node0</title>
<polygon fill="#bfbfbf" stroke="#000000" points="568.459,-55.5 568.459,-103.5 756.1973,-103.5 756.1973,-55.5 568.459,-55.5"/>
<text text-anchor="start" x="576.459" y="-91.5" font-family="Helvetica,sans-Serif" font-size="10.00" fill="#000000">/Users/Claudio/GitHub</text>
<text text-anchor="start" x="576.459" y="-81.5" font-family="Helvetica,sans-Serif" font-size="10.00" fill="#000000">/visual&#45;tracking&#45;control</text>
<text text-anchor="start" x="576.459" y="-71.5" font-family="Helvetica,sans-Serif" font-size="10.00" fill="#000000">/src/visualservoing/visualservoingclient</text>
<text text-anchor="middle" x="662.3281" y="-61.5" font-family="Helvetica,sans-Serif" font-size="10.00" fill="#000000">/include/VisualServoingClient.h</text>
</g>
<!-- Node1 -->
<g id="node2" class="node">
<title>Node1</title>
<polygon fill="#ffffff" stroke="#bfbfbf" points="0,-.5 0,-18.5 128.6563,-18.5 128.6563,-.5 0,-.5"/>
<text text-anchor="middle" x="64.3281" y="-6.5" font-family="Helvetica,sans-Serif" font-size="10.00" fill="#000000">thrift/VisualServoingIDL.h</text>
</g>
<!-- Node0&#45;&gt;Node1 -->
<g id="edge1" class="edge">
<title>Node0&#45;&gt;Node1</title>
<path fill="none" stroke="#191970" d="M568.3901,-69.0953C465.5653,-57.6105 295.5414,-38.3398 139.0927,-19.2036"/>
<polygon fill="#191970" stroke="#191970" points="139.1597,-15.6857 128.8082,-17.9434 138.3083,-22.6337 139.1597,-15.6857"/>
</g>
<!-- Node2 -->
<g id="node3" class="node">
<title>Node2</title>
<polygon fill="#ffffff" stroke="#bfbfbf" points="146.7124,-.5 146.7124,-18.5 189.9438,-18.5 189.9438,-.5 146.7124,-.5"/>
<text text-anchor="middle" x="168.3281" y="-6.5" font-family="Helvetica,sans-Serif" font-size="10.00" fill="#000000">vector</text>
</g>
<!-- Node0&#45;&gt;Node2 -->
<g id="edge2" class="edge">
<title>Node0&#45;&gt;Node2</title>
<path fill="none" stroke="#191970" d="M568.4236,-71.8776C476.6194,-63.3667 332.9125,-47.2275 200.1677,-18.8592"/>
<polygon fill="#191970" stroke="#191970" points="200.7376,-15.4016 190.2235,-16.7064 199.2565,-22.2431 200.7376,-15.4016"/>
</g>
<!-- Node3 -->
<g id="node4" class="node">
<title>Node3</title>
<polygon fill="#ffffff" stroke="#bfbfbf" points="208.2495,-.5 208.2495,-18.5 330.4067,-18.5 330.4067,-.5 208.2495,-.5"/>
<text text-anchor="middle" x="269.3281" y="-6.5" font-family="Helvetica,sans-Serif" font-size="10.00" fill="#000000">yarp/dev/DeviceDriver.h</text>
</g>
<!-- Node0&#45;&gt;Node3 -->
<g id="edge3" class="edge">
<title>Node0&#45;&gt;Node3</title>
<path fill="none" stroke="#191970" d="M568.1948,-62.7333C494.2613,-49.5644 393.5035,-31.6177 329.9333,-20.2948"/>
<polygon fill="#191970" stroke="#191970" points="330.5186,-16.8441 320.0598,-18.5362 329.291,-23.7356 330.5186,-16.8441"/>
</g>
<!-- Node4 -->
<g id="node5" class="node">
<title>Node4</title>
<polygon fill="#ffffff" stroke="#bfbfbf" points="347.9385,-.5 347.9385,-18.5 482.7178,-18.5 482.7178,-.5 347.9385,-.5"/>
<text text-anchor="middle" x="415.3281" y="-6.5" font-family="Helvetica,sans-Serif" font-size="10.00" fill="#000000">yarp/dev/IVisualServoing.h</text>
</g>
<!-- Node0&#45;&gt;Node4 -->
<g id="edge4" class="edge">
<title>Node0&#45;&gt;Node4</title>
<path fill="none" stroke="#191970" d="M577.3247,-55.41C536.6031,-43.8694 489.6769,-30.5705 456.8467,-21.2664"/>
<polygon fill="#191970" stroke="#191970" points="457.7085,-17.8729 447.1331,-18.5136 455.7998,-24.6076 457.7085,-17.8729"/>
</g>
<!-- Node5 -->
<g id="node6" class="node">
<title>Node5</title>
<polygon fill="#ffffff" stroke="#bfbfbf" points="500.5869,-.5 500.5869,-18.5 586.0693,-18.5 586.0693,-.5 500.5869,-.5"/>
<text text-anchor="middle" x="543.3281" y="-6.5" font-family="Helvetica,sans-Serif" font-size="10.00" fill="#000000">yarp/os/Bottle.h</text>
</g>
<!-- Node0&#45;&gt;Node5 -->
<g id="edge5" class="edge">
<title>Node0&#45;&gt;Node5</title>
<path fill="none" stroke="#191970" d="M621.3751,-55.41C603.4474,-44.8643 583.0237,-32.8504 567.5668,-23.758"/>
<polygon fill="#191970" stroke="#191970" points="569.0451,-20.567 558.6512,-18.5136 565.4959,-26.6006 569.0451,-20.567"/>
</g>
<!-- Node6 -->
<g id="node7" class="node">
<title>Node6</title>
<polygon fill="#ffffff" stroke="#bfbfbf" points="604.3892,-.5 604.3892,-18.5 720.2671,-18.5 720.2671,-.5 604.3892,-.5"/>
<text text-anchor="middle" x="662.3281" y="-6.5" font-family="Helvetica,sans-Serif" font-size="10.00" fill="#000000">yarp/os/BufferedPort.h</text>
</g>
<!-- Node0&#45;&gt;Node6 -->
<g id="edge6" class="edge">
<title>Node0&#45;&gt;Node6</title>
<path fill="none" stroke="#191970" d="M662.3281,-55.41C662.3281,-46.7094 662.3281,-37.0095 662.3281,-28.7754"/>
<polygon fill="#191970" stroke="#191970" points="665.8282,-28.6872 662.3281,-18.6872 658.8282,-28.6873 665.8282,-28.6872"/>
</g>
<!-- Node7 -->
<g id="node8" class="node">
<title>Node7</title>
<polygon fill="#ffffff" stroke="#bfbfbf" points="738.2495,-.5 738.2495,-18.5 850.4067,-18.5 850.4067,-.5 738.2495,-.5"/>
<text text-anchor="middle" x="794.3281" y="-6.5" font-family="Helvetica,sans-Serif" font-size="10.00" fill="#000000">yarp/os/ConstString.h</text>
</g>
<!-- Node0&#45;&gt;Node7 -->
<g id="edge7" class="edge">
<title>Node0&#45;&gt;Node7</title>
<path fill="none" stroke="#191970" d="M707.755,-55.41C728.0164,-44.6653 751.1519,-32.3965 768.4061,-23.2465"/>
<polygon fill="#191970" stroke="#191970" points="770.1363,-26.2908 777.3311,-18.5136 766.8567,-20.1065 770.1363,-26.2908"/>
</g>
<!-- Node8 -->
<g id="node9" class="node">
<title>Node8</title>
<polygon fill="#ffffff" stroke="#bfbfbf" points="867.9146,-.5 867.9146,-18.5 976.7417,-18.5 976.7417,-.5 867.9146,-.5"/>
<text text-anchor="middle" x="922.3281" y="-6.5" font-family="Helvetica,sans-Serif" font-size="10.00" fill="#000000">yarp/os/LogStream.h</text>
</g>
<!-- Node0&#45;&gt;Node8 -->
<g id="edge8" class="edge">
<title>Node0&#45;&gt;Node8</title>
<path fill="none" stroke="#191970" d="M751.8054,-55.41C794.8551,-43.8197 844.4922,-30.4558 879.0704,-21.1463"/>
<polygon fill="#191970" stroke="#191970" points="880.103,-24.493 888.8492,-18.5136 878.2831,-17.7337 880.103,-24.493"/>
</g>
<!-- Node9 -->
<g id="node10" class="node">
<title>Node9</title>
<polygon fill="#ffffff" stroke="#bfbfbf" points="995.2026,-.5 995.2026,-18.5 1073.4536,-18.5 1073.4536,-.5 995.2026,-.5"/>
<text text-anchor="middle" x="1034.3281" y="-6.5" font-family="Helvetica,sans-Serif" font-size="10.00" fill="#000000">yarp/os/Port.h</text>
</g>
<!-- Node0&#45;&gt;Node9 -->
<g id="edge9" class="edge">
<title>Node0&#45;&gt;Node9</title>
<path fill="none" stroke="#191970" d="M756.348,-62.0521C818.3523,-50.5072 901.6405,-34.9268 985.1041,-19.0333"/>
<polygon fill="#191970" stroke="#191970" points="985.8496,-22.4543 995.0176,-17.1442 984.5392,-15.578 985.8496,-22.4543"/>
</g>
<!-- Node10 -->
<g id="node11" class="node">
<title>Node10</title>
<polygon fill="#ffffff" stroke="#bfbfbf" points="1091.0771,-.5 1091.0771,-18.5 1201.5791,-18.5 1201.5791,-.5 1091.0771,-.5"/>
<text text-anchor="middle" x="1146.3281" y="-6.5" font-family="Helvetica,sans-Serif" font-size="10.00" fill="#000000">yarp/os/Searchable.h</text>
</g>
<!-- Node0&#45;&gt;Node10 -->
<g id="edge10" class="edge">
<title>Node0&#45;&gt;Node10</title>
<path fill="none" stroke="#191970" d="M756.5912,-66.0397C839.3128,-54.2002 963.1806,-36.4056 1080.5799,-19.2514"/>
<polygon fill="#191970" stroke="#191970" points="1081.4388,-22.6631 1090.8273,-17.7533 1080.4262,-15.7368 1081.4388,-22.6631"/>
</g>
<!-- Node11 -->
<g id="node12" class="node">
<title>Node11</title>
<polygon fill="#ffffff" stroke="#bfbfbf" points="1219.3579,-.5 1219.3579,-18.5 1309.2983,-18.5 1309.2983,-.5 1219.3579,-.5"/>
<text text-anchor="middle" x="1264.3281" y="-6.5" font-family="Helvetica,sans-Serif" font-size="10.00" fill="#000000">yarp/sig/Vector.h</text>
</g>
<!-- Node0&#45;&gt;Node11 -->
<g id="edge11" class="edge">
<title>Node0&#45;&gt;Node11</title>
<path fill="none" stroke="#191970" d="M756.6192,-70.9458C863.7501,-60.806 1044.0357,-42.4692 1208.9443,-19.1208"/>
<polygon fill="#191970" stroke="#191970" points="1209.8753,-22.5236 1219.2814,-17.6477 1208.8877,-15.5936 1209.8753,-22.5236"/>
</g>
</g>
</svg>
        <g id="navigator" transform="translate(0 0)" fill="#404254">
                <rect fill="#f2f5e9" fill-opacity="0.5" stroke="#606060" stroke-width=".5" x="0" y="0" width="60" height="60"/>
                <use id="zoomplus" xlink:href="#zoomPlus" x="17" y="9" onmousedown="handleZoom(evt,'in')"/>
                <use id="zoomminus" xlink:href="#zoomMin" x="42" y="9" onmousedown="handleZoom(evt,'out')"/>
                <use id="reset" xlink:href="#resetDef" x="30" y="36" onmousedown="handleReset()"/>
                <g id="arrowUp" xlink:href="#dirArrow" transform="translate(30 24)" onmousedown="handlePan(0,-1)">
                  <use xlink:href="#rim" fill="#404040">
                        <set attributeName="fill" to="#808080" begin="arrowUp.mouseover" end="arrowUp.mouseout"/>
                  </use>
                  <path fill="none" stroke="white" stroke-width="1.5" d="M0,-3.0v7 M-2.5,-0.5L0,-3.0L2.5,-0.5"/>
                </g>
                <g id="arrowRight" xlink:href="#dirArrow" transform="rotate(90) translate(36 -43)" onmousedown="handlePan(1,0)">
                  <use xlink:href="#rim" fill="#404040">
                        <set attributeName="fill" to="#808080" begin="arrowRight.mouseover" end="arrowRight.mouseout"/>
                  </use>
                  <path fill="none" stroke="white" stroke-width="1.5" d="M0,-3.0v7 M-2.5,-0.5L0,-3.0L2.5,-0.5"/>
                </g>
                <g id="arrowDown" xlink:href="#dirArrow" transform="rotate(180) translate(-30 -48)" onmousedown="handlePan(0,1)">
                  <use xlink:href="#rim" fill="#404040">
                        <set attributeName="fill" to="#808080" begin="arrowDown.mouseover" end="arrowDown.mouseout"/>
                  </use>
                  <path fill="none" stroke="white" stroke-width="1.5" d="M0,-3.0v7 M-2.5,-0.5L0,-3.0L2.5,-0.5"/>
                </g>
                <g id="arrowLeft" xlink:href="#dirArrow" transform="rotate(270) translate(-36 17)" onmousedown="handlePan(-1,0)">
                  <use xlink:href="#rim" fill="#404040">
                        <set attributeName="fill" to="#808080" begin="arrowLeft.mouseover" end="arrowLeft.mouseout"/>
                  </use>
                  <path fill="none" stroke="white" stroke-width="1.5" d="M0,-3.0v7 M-2.5,-0.5L0,-3.0L2.5,-0.5"/>
                </g>
        </g>
        <svg viewBox="0 0 15 15" width="100%" height="30px" preserveAspectRatio="xMaxYMin meet">
         <g id="arrow_out" transform="scale(0.3 0.3)">
          <a xlink:href="VisualServoingClient_8h__incl_org.svg" target="_base">
           <rect id="button" ry="5" rx="5" y="6" x="6" height="38" width="38"
                fill="#f2f5e9" fill-opacity="0.5" stroke="#606060" stroke-width="1.0"/>
           <path id="arrow"
             d="M 11.500037,31.436501 C 11.940474,20.09759 22.043105,11.32322 32.158766,21.979434 L 37.068811,17.246167 C 37.068811,17.246167 37.088388,32 37.088388,32 L 22.160133,31.978069 C 22.160133,31.978069 26.997745,27.140456 26.997745,27.140456 C 18.528582,18.264221 13.291696,25.230495 11.500037,31.436501 z"
             style="fill:#404040;"/>
          </a>
         </g>
        </svg>
</svg>
