<?xml version="1.0" encoding="UTF-8" standalone="no"?>
<!DOCTYPE svg PUBLIC "-//W3C//DTD SVG 1.1//EN"
 "http://www.w3.org/Graphics/SVG/1.1/DTD/svg11.dtd">
<!-- Generated by graphviz version 2.40.1 (20161225.0304)
 -->
<!-- Title: /Users/Claudio/GitHub/visual&#45;tracking&#45;control/src/visualservoing/visualservoingserver&#45;app/src/main.cpp Pages: 1 -->
<svg width="740pt" height="112pt"
 viewBox="0.00 0.00 740.32 112.00" xmlns="http://www.w3.org/2000/svg" xmlns:xlink="http://www.w3.org/1999/xlink">
<g id="graph0" class="graph" transform="scale(1 1) rotate(0) translate(4 108)">
<title>/Users/Claudio/GitHub/visual&#45;tracking&#45;control/src/visualservoing/visualservoingserver&#45;app/src/main.cpp</title>
<polygon fill="#ffffff" stroke="transparent" points="-4,4 -4,-108 736.3198,-108 736.3198,4 -4,4"/>
<!-- Node0 -->
<g id="node1" class="node">
<title>Node0</title>
<polygon fill="#bfbfbf" stroke="#000000" points="261.3252,-55.5 261.3252,-103.5 453.502,-103.5 453.502,-55.5 261.3252,-55.5"/>
<text text-anchor="start" x="269.3252" y="-91.5" font-family="Helvetica,sans-Serif" font-size="10.00" fill="#000000">/Users/Claudio/GitHub</text>
<text text-anchor="start" x="269.3252" y="-81.5" font-family="Helvetica,sans-Serif" font-size="10.00" fill="#000000">/visual&#45;tracking&#45;control</text>
<text text-anchor="start" x="269.3252" y="-71.5" font-family="Helvetica,sans-Serif" font-size="10.00" fill="#000000">/src/visualservoing/visualservoingserver</text>
<text text-anchor="middle" x="357.4136" y="-61.5" font-family="Helvetica,sans-Serif" font-size="10.00" fill="#000000">&#45;app/src/main.cpp</text>
</g>
<!-- Node1 -->
<g id="node2" class="node">
<title>Node1</title>
<polygon fill="#ffffff" stroke="#bfbfbf" points="0,-.5 0,-18.5 108.8271,-18.5 108.8271,-.5 0,-.5"/>
<text text-anchor="middle" x="54.4136" y="-6.5" font-family="Helvetica,sans-Serif" font-size="10.00" fill="#000000">yarp/os/LogStream.h</text>
</g>
<!-- Node0&#45;&gt;Node1 -->
<g id="edge1" class="edge">
<title>Node0&#45;&gt;Node1</title>
<path fill="none" stroke="#191970" d="M261.1262,-57.2554C208.667,-45.1361 145.9761,-30.6531 103.4926,-20.8384"/>
<polygon fill="#191970" stroke="#191970" points="104.2116,-17.4124 93.6804,-18.5715 102.6359,-24.2327 104.2116,-17.4124"/>
</g>
<!-- Node2 -->
<g id="node3" class="node">
<title>Node2</title>
<polygon fill="#ffffff" stroke="#bfbfbf" points="126.9302,-.5 126.9302,-18.5 223.897,-18.5 223.897,-.5 126.9302,-.5"/>
<text text-anchor="middle" x="175.4136" y="-6.5" font-family="Helvetica,sans-Serif" font-size="10.00" fill="#000000">yarp/os/Property.h</text>
</g>
<!-- Node0&#45;&gt;Node2 -->
<g id="edge2" class="edge">
<title>Node0&#45;&gt;Node2</title>
<path fill="none" stroke="#191970" d="M294.7795,-55.41C265.6794,-44.2176 232.2793,-31.3714 208.2239,-22.1193"/>
<polygon fill="#191970" stroke="#191970" points="209.4387,-18.8367 198.8488,-18.5136 206.9258,-25.3701 209.4387,-18.8367"/>
</g>
<!-- Node3 -->
<g id="node4" class="node">
<title>Node3</title>
<polygon fill="#ffffff" stroke="#bfbfbf" points="241.8447,-.5 241.8447,-18.5 338.9824,-18.5 338.9824,-.5 241.8447,-.5"/>
<text text-anchor="middle" x="290.4136" y="-6.5" font-family="Helvetica,sans-Serif" font-size="10.00" fill="#000000">yarp/dev/Drivers.h</text>
</g>
<!-- Node0&#45;&gt;Node3 -->
<g id="edge3" class="edge">
<title>Node0&#45;&gt;Node3</title>
<path fill="none" stroke="#191970" d="M334.356,-55.41C325.082,-45.7207 314.6217,-34.7921 306.234,-26.0288"/>
<polygon fill="#191970" stroke="#191970" points="308.6501,-23.4913 299.2071,-18.6872 303.5932,-28.3316 308.6501,-23.4913"/>
</g>
<!-- Node4 -->
<g id="node5" class="node">
<title>Node4</title>
<polygon fill="#ffffff" stroke="#bfbfbf" points="357.0239,-.5 357.0239,-18.5 491.8032,-18.5 491.8032,-.5 357.0239,-.5"/>
<text text-anchor="middle" x="424.4136" y="-6.5" font-family="Helvetica,sans-Serif" font-size="10.00" fill="#000000">yarp/dev/IVisualServoing.h</text>
</g>
<!-- Node0&#45;&gt;Node4 -->
<g id="edge4" class="edge">
<title>Node0&#45;&gt;Node4</title>
<path fill="none" stroke="#191970" d="M380.4712,-55.41C389.7451,-45.7207 400.2054,-34.7921 408.5932,-26.0288"/>
<polygon fill="#191970" stroke="#191970" points="411.2339,-28.3316 415.6201,-18.6872 406.177,-23.4913 411.2339,-28.3316"/>
</g>
<!-- Node5 -->
<g id="node6" class="node">
<title>Node5</title>
<polygon fill="#ffffff" stroke="#bfbfbf" points="509.8916,-.5 509.8916,-18.5 620.9355,-18.5 620.9355,-.5 509.8916,-.5"/>
<text text-anchor="middle" x="565.4136" y="-6.5" font-family="Helvetica,sans-Serif" font-size="10.00" fill="#000000">yarp/dev/PolyDriver.h</text>
</g>
<!-- Node0&#45;&gt;Node5 -->
<g id="edge5" class="edge">
<title>Node0&#45;&gt;Node5</title>
<path fill="none" stroke="#191970" d="M428.9954,-55.41C462.6961,-44.0684 501.443,-31.0286 529.01,-21.7512"/>
<polygon fill="#191970" stroke="#191970" points="530.2691,-25.0204 538.6304,-18.5136 528.0364,-18.386 530.2691,-25.0204"/>
</g>
<!-- Node6 -->
<g id="node7" class="node">
<title>Node6</title>
<polygon fill="#ffffff" stroke="#bfbfbf" points="638.5073,-.5 638.5073,-18.5 732.3198,-18.5 732.3198,-.5 638.5073,-.5"/>
<text text-anchor="middle" x="685.4136" y="-6.5" font-family="Helvetica,sans-Serif" font-size="10.00" fill="#000000">yarp/math/Math.h</text>
</g>
<!-- Node0&#45;&gt;Node6 -->
<g id="edge6" class="edge">
<title>Node0&#45;&gt;Node6</title>
<path fill="none" stroke="#191970" d="M453.6082,-58.9707C512.1986,-46.4666 584.8028,-30.9718 632.9813,-20.6898"/>
<polygon fill="#191970" stroke="#191970" points="633.8282,-24.088 642.8774,-18.5778 632.3671,-17.2421 633.8282,-24.088"/>
</g>
</g>
</svg>
