<?xml version="1.0" encoding="UTF-8" standalone="no"?>
<!DOCTYPE svg PUBLIC "-//W3C//DTD SVG 1.1//EN"
 "http://www.w3.org/Graphics/SVG/1.1/DTD/svg11.dtd">
<!-- Generated by graphviz version 2.40.1 (20161225.0304)
 -->
<!-- Title: /Users/Claudio/GitHub/visual&#45;tracking&#45;control/src/hand&#45;tracking/include/VisualProprioception.h Pages: 1 -->
<svg width="1637pt" height="122pt"
 viewBox="0.00 0.00 1637.20 122.00" xmlns="http://www.w3.org/2000/svg" xmlns:xlink="http://www.w3.org/1999/xlink">
<g id="graph0" class="graph" transform="scale(1 1) rotate(0) translate(4 118)">
<title>/Users/Claudio/GitHub/visual&#45;tracking&#45;control/src/hand&#45;tracking/include/VisualProprioception.h</title>
<polygon fill="#ffffff" stroke="transparent" points="-4,4 -4,-118 1633.1968,-118 1633.1968,4 -4,4"/>
<!-- Node0 -->
<g id="node1" class="node">
<title>Node0</title>
<polygon fill="#bfbfbf" stroke="#000000" points="786.2539,-65.5 786.2539,-113.5 916.1992,-113.5 916.1992,-65.5 786.2539,-65.5"/>
<text text-anchor="start" x="794.2539" y="-101.5" font-family="Helvetica,sans-Serif" font-size="10.00" fill="#000000">/Users/Claudio/GitHub</text>
<text text-anchor="start" x="794.2539" y="-91.5" font-family="Helvetica,sans-Serif" font-size="10.00" fill="#000000">/visual&#45;tracking&#45;control</text>
<text text-anchor="start" x="794.2539" y="-81.5" font-family="Helvetica,sans-Serif" font-size="10.00" fill="#000000">/src/hand&#45;tracking/include</text>
<text text-anchor="middle" x="851.2266" y="-71.5" font-family="Helvetica,sans-Serif" font-size="10.00" fill="#000000">/VisualProprioception.h</text>
</g>
<!-- Node1 -->
<g id="node2" class="node">
<title>Node1</title>
<polygon fill="#ffffff" stroke="#bfbfbf" points="0,-5.5 0,-23.5 40.4531,-23.5 40.4531,-5.5 0,-5.5"/>
<text text-anchor="middle" x="20.2266" y="-11.5" font-family="Helvetica,sans-Serif" font-size="10.00" fill="#000000">string</text>
</g>
<!-- Node0&#45;&gt;Node1 -->
<g id="edge1" class="edge">
<title>Node0&#45;&gt;Node1</title>
<path fill="none" stroke="#191970" d="M786.1683,-87.7119C620.9697,-82.6722 188.6002,-66.2265 50.2266,-29 48.7602,-28.6055 47.2791,-28.1395 45.8018,-27.6207"/>
<polygon fill="#191970" stroke="#191970" points="46.8769,-24.2761 36.3016,-23.6315 44.1667,-30.7302 46.8769,-24.2761"/>
</g>
<!-- Node2 -->
<g id="node3" class="node">
<title>Node2</title>
<polygon fill="#ffffff" stroke="#bfbfbf" points="58.8418,-.5 58.8418,-28.5 213.6113,-28.5 213.6113,-.5 58.8418,-.5"/>
<text text-anchor="start" x="66.8418" y="-16.5" font-family="Helvetica,sans-Serif" font-size="10.00" fill="#000000">BayesFilters/VisualObservation</text>
<text text-anchor="middle" x="136.2266" y="-6.5" font-family="Helvetica,sans-Serif" font-size="10.00" fill="#000000">Model.h</text>
</g>
<!-- Node0&#45;&gt;Node2 -->
<g id="edge2" class="edge">
<title>Node0&#45;&gt;Node2</title>
<path fill="none" stroke="#191970" d="M785.9657,-84.7075C673.4538,-76.117 435.5222,-56.5124 224.0256,-29.0454"/>
<polygon fill="#191970" stroke="#191970" points="224.3443,-25.5574 213.975,-27.7315 223.4369,-32.4983 224.3443,-25.5574"/>
</g>
<!-- Node3 -->
<g id="node4" class="node">
<title>Node3</title>
<polygon fill="#ffffff" stroke="#bfbfbf" points="231.8745,-5.5 231.8745,-23.5 334.5786,-23.5 334.5786,-5.5 231.8745,-5.5"/>
<text text-anchor="middle" x="283.2266" y="-11.5" font-family="Helvetica,sans-Serif" font-size="10.00" fill="#000000">iCub/iKin/iKinFwd.h</text>
</g>
<!-- Node0&#45;&gt;Node3 -->
<g id="edge3" class="edge">
<title>Node0&#45;&gt;Node3</title>
<path fill="none" stroke="#191970" d="M785.9057,-84.217C688.8414,-75.8039 501.0143,-57.3587 343.2266,-29 338.1489,-28.0874 332.8592,-27.0053 327.6168,-25.8497"/>
<polygon fill="#191970" stroke="#191970" points="328.1916,-22.3906 317.6617,-23.562 326.6238,-29.2128 328.1916,-22.3906"/>
</g>
<!-- Node4 -->
<g id="node5" class="node">
<title>Node4</title>
<polygon fill="#ffffff" stroke="#bfbfbf" points="352.3599,-5.5 352.3599,-23.5 470.0933,-23.5 470.0933,-5.5 352.3599,-5.5"/>
<text text-anchor="middle" x="411.2266" y="-11.5" font-family="Helvetica,sans-Serif" font-size="10.00" fill="#000000">opencv2/core/core.hpp</text>
</g>
<!-- Node0&#45;&gt;Node4 -->
<g id="edge4" class="edge">
<title>Node0&#45;&gt;Node4</title>
<path fill="none" stroke="#191970" d="M786.0227,-79.9813C711.4297,-68.8469 585.7136,-49.3337 478.2266,-29 472.7451,-27.963 467.0246,-26.8197 461.3365,-25.6437"/>
<polygon fill="#191970" stroke="#191970" points="461.698,-22.1431 451.1914,-23.5074 460.2556,-28.9929 461.698,-22.1431"/>
</g>
<!-- Node5 -->
<g id="node6" class="node">
<title>Node5</title>
<polygon fill="#ffffff" stroke="#bfbfbf" points="487.6997,-5.5 487.6997,-23.5 628.7534,-23.5 628.7534,-5.5 487.6997,-5.5"/>
<text text-anchor="middle" x="558.2266" y="-11.5" font-family="Helvetica,sans-Serif" font-size="10.00" fill="#000000">SuperimposeMesh/SICAD.h</text>
</g>
<!-- Node0&#45;&gt;Node5 -->
<g id="edge5" class="edge">
<title>Node0&#45;&gt;Node5</title>
<path fill="none" stroke="#191970" d="M786.2004,-72.8551C730.7961,-58.6731 652.5964,-38.6561 603.6882,-26.1369"/>
<polygon fill="#191970" stroke="#191970" points="604.2707,-22.6733 593.7151,-23.5841 602.5348,-29.4546 604.2707,-22.6733"/>
</g>
<!-- Node6 -->
<g id="node7" class="node">
<title>Node6</title>
<polygon fill="#ffffff" stroke="#bfbfbf" points="646.4214,-5.5 646.4214,-23.5 768.0317,-23.5 768.0317,-5.5 646.4214,-5.5"/>
<text text-anchor="middle" x="707.2266" y="-11.5" font-family="Helvetica,sans-Serif" font-size="10.00" fill="#000000">yarp/dev/GazeControl.h</text>
</g>
<!-- Node0&#45;&gt;Node6 -->
<g id="edge6" class="edge">
<title>Node0&#45;&gt;Node6</title>
<path fill="none" stroke="#191970" d="M804.8714,-65.3567C781.4135,-53.139 753.778,-38.7455 733.9051,-28.3951"/>
<polygon fill="#191970" stroke="#191970" points="735.3112,-25.1812 724.8252,-23.666 732.0776,-31.3896 735.3112,-25.1812"/>
</g>
<!-- Node7 -->
<g id="node8" class="node">
<title>Node7</title>
<polygon fill="#ffffff" stroke="#bfbfbf" points="785.9634,-5.5 785.9634,-23.5 916.4897,-23.5 916.4897,-5.5 785.9634,-5.5"/>
<text text-anchor="middle" x="851.2266" y="-11.5" font-family="Helvetica,sans-Serif" font-size="10.00" fill="#000000">yarp/dev/IAnalogSensor.h</text>
</g>
<!-- Node0&#45;&gt;Node7 -->
<g id="edge7" class="edge">
<title>Node0&#45;&gt;Node7</title>
<path fill="none" stroke="#191970" d="M851.2266,-65.3567C851.2266,-55.1383 851.2266,-43.3979 851.2266,-33.7737"/>
<polygon fill="#191970" stroke="#191970" points="854.7267,-33.6659 851.2266,-23.666 847.7267,-33.666 854.7267,-33.6659"/>
</g>
<!-- Node8 -->
<g id="node9" class="node">
<title>Node8</title>
<polygon fill="#ffffff" stroke="#bfbfbf" points="934.7046,-5.5 934.7046,-23.5 1045.7485,-23.5 1045.7485,-5.5 934.7046,-5.5"/>
<text text-anchor="middle" x="990.2266" y="-11.5" font-family="Helvetica,sans-Serif" font-size="10.00" fill="#000000">yarp/dev/PolyDriver.h</text>
</g>
<!-- Node0&#45;&gt;Node8 -->
<g id="edge8" class="edge">
<title>Node0&#45;&gt;Node8</title>
<path fill="none" stroke="#191970" d="M895.9722,-65.3567C918.5126,-53.1946 945.0491,-38.8763 964.2123,-28.5365"/>
<polygon fill="#191970" stroke="#191970" points="966.1003,-31.4948 973.2389,-23.666 962.7763,-25.3344 966.1003,-31.4948"/>
</g>
<!-- Node9 -->
<g id="node10" class="node">
<title>Node9</title>
<polygon fill="#ffffff" stroke="#bfbfbf" points="1063.4854,-5.5 1063.4854,-23.5 1148.9678,-23.5 1148.9678,-5.5 1063.4854,-5.5"/>
<text text-anchor="middle" x="1106.2266" y="-11.5" font-family="Helvetica,sans-Serif" font-size="10.00" fill="#000000">yarp/os/Bottle.h</text>
</g>
<!-- Node0&#45;&gt;Node9 -->
<g id="edge9" class="edge">
<title>Node0&#45;&gt;Node9</title>
<path fill="none" stroke="#191970" d="M916.2336,-70.3803C963.3003,-56.5371 1025.4616,-38.2544 1065.643,-26.4363"/>
<polygon fill="#191970" stroke="#191970" points="1066.7564,-29.7572 1075.3625,-23.5777 1064.7812,-23.0416 1066.7564,-29.7572"/>
</g>
<!-- Node10 -->
<g id="node11" class="node">
<title>Node10</title>
<polygon fill="#ffffff" stroke="#bfbfbf" points="1167.2876,-5.5 1167.2876,-23.5 1283.1655,-23.5 1283.1655,-5.5 1167.2876,-5.5"/>
<text text-anchor="middle" x="1225.2266" y="-11.5" font-family="Helvetica,sans-Serif" font-size="10.00" fill="#000000">yarp/os/BufferedPort.h</text>
</g>
<!-- Node0&#45;&gt;Node10 -->
<g id="edge10" class="edge">
<title>Node0&#45;&gt;Node10</title>
<path fill="none" stroke="#191970" d="M916.2778,-77.0435C978.4678,-65.0491 1074.8373,-46.2386 1158.2266,-29 1163.3401,-27.9429 1168.6689,-26.8222 1173.9889,-25.6908"/>
<polygon fill="#191970" stroke="#191970" points="1175.1041,-29.0315 1184.15,-23.5158 1173.6388,-22.1866 1175.1041,-29.0315"/>
</g>
<!-- Node11 -->
<g id="node12" class="node">
<title>Node11</title>
<polygon fill="#ffffff" stroke="#bfbfbf" points="1301.1479,-5.5 1301.1479,-23.5 1413.3052,-23.5 1413.3052,-5.5 1301.1479,-5.5"/>
<text text-anchor="middle" x="1357.2266" y="-11.5" font-family="Helvetica,sans-Serif" font-size="10.00" fill="#000000">yarp/os/ConstString.h</text>
</g>
<!-- Node0&#45;&gt;Node11 -->
<g id="edge11" class="edge">
<title>Node0&#45;&gt;Node11</title>
<path fill="none" stroke="#191970" d="M916.5011,-82.2652C1002.8149,-72.3059 1159.5022,-52.8653 1292.2266,-29 1297.703,-28.0153 1303.4175,-26.8884 1309.087,-25.7075"/>
<polygon fill="#191970" stroke="#191970" points="1310.1385,-29.0617 1319.1824,-23.5428 1308.6708,-22.2173 1310.1385,-29.0617"/>
</g>
<!-- Node12 -->
<g id="node13" class="node">
<title>Node12</title>
<polygon fill="#ffffff" stroke="#bfbfbf" points="1431.5493,-5.5 1431.5493,-23.5 1520.9038,-23.5 1520.9038,-5.5 1431.5493,-5.5"/>
<text text-anchor="middle" x="1476.2266" y="-11.5" font-family="Helvetica,sans-Serif" font-size="10.00" fill="#000000">yarp/sig/Matrix.h</text>
</g>
<!-- Node0&#45;&gt;Node12 -->
<g id="edge12" class="edge">
<title>Node0&#45;&gt;Node12</title>
<path fill="none" stroke="#191970" d="M916.3567,-85.9311C1022.8742,-79.3507 1240.6721,-62.778 1422.2266,-29 1426.6955,-28.1686 1431.3364,-27.1561 1435.9368,-26.0567"/>
<polygon fill="#191970" stroke="#191970" points="1437.0237,-29.3921 1445.8606,-23.5475 1435.3078,-22.6057 1437.0237,-29.3921"/>
</g>
<!-- Node13 -->
<g id="node14" class="node">
<title>Node13</title>
<polygon fill="#ffffff" stroke="#bfbfbf" points="1539.2563,-5.5 1539.2563,-23.5 1629.1968,-23.5 1629.1968,-5.5 1539.2563,-5.5"/>
<text text-anchor="middle" x="1584.2266" y="-11.5" font-family="Helvetica,sans-Serif" font-size="10.00" fill="#000000">yarp/sig/Vector.h</text>
</g>
<!-- Node0&#45;&gt;Node13 -->
<g id="edge13" class="edge">
<title>Node0&#45;&gt;Node13</title>
<path fill="none" stroke="#191970" d="M916.3186,-87.4538C1037.8275,-82.8055 1307.0735,-68.5932 1530.2266,-29 1534.7576,-28.1961 1539.4622,-27.1927 1544.1208,-26.0912"/>
<polygon fill="#191970" stroke="#191970" points="1545.3181,-29.3991 1554.1605,-23.5627 1543.6085,-22.611 1545.3181,-29.3991"/>
</g>
</g>
</svg>
