<?xml version="1.0" encoding="UTF-8" standalone="no"?>
<!DOCTYPE svg PUBLIC "-//W3C//DTD SVG 1.1//EN"
 "http://www.w3.org/Graphics/SVG/1.1/DTD/svg11.dtd">
<!-- Generated by graphviz version 2.40.1 (20161225.0304)
 -->
<!-- Title: /Users/Claudio/GitHub/visual&#45;tracking&#45;control/src/hand&#45;tracking/include/VisualSIS.h Pages: 1 -->
<!--zoomable 122 -->
<svg id="main" version="1.1" xmlns="http://www.w3.org/2000/svg" xmlns:xlink="http://www.w3.org/1999/xlink" xml:space="preserve" onload="init(evt)">
<style type="text/css"><![CDATA[
.edge:hover path { stroke: red; }
.edge:hover polygon { stroke: red; fill: red; }
]]></style>
<script type="text/javascript"><![CDATA[
var edges = document.getElementsByTagName('g');
if (edges && edges.length) {
  for (var i=0;i<edges.length;i++) {
    if (edges[i].id.substr(0,4)=='edge') {
      edges[i].setAttribute('class','edge');
    }
  }
}
]]></script>
        <defs>
                <circle id="rim" cx="0" cy="0" r="7"/>
                <circle id="rim2" cx="0" cy="0" r="3.5"/>
                <g id="zoomPlus">
                        <use xlink:href="#rim" fill="#404040">
                                <set attributeName="fill" to="#808080" begin="zoomplus.mouseover" end="zoomplus.mouseout"/>
                        </use>
                        <path d="M-4,0h8M0,-4v8" fill="none" stroke="white" stroke-width="1.5" pointer-events="none"/>
                </g>
                <g id="zoomMin">
                        <use xlink:href="#rim" fill="#404040">
                                <set attributeName="fill" to="#808080" begin="zoomminus.mouseover" end="zoomminus.mouseout"/>
                        </use>
                        <path d="M-4,0h8" fill="none" stroke="white" stroke-width="1.5" pointer-events="none"/>
                </g>
                <g id="dirArrow">
                        <path fill="none" stroke="white" stroke-width="1.5" d="M0,-3.0v7 M-2.5,-0.5L0,-3.0L2.5,-0.5"/>
                </g>
               <g id="resetDef">
                       <use xlink:href="#rim2" fill="#404040">
                               <set attributeName="fill" to="#808080" begin="reset.mouseover" end="reset.mouseout"/>
                       </use>
               </g>
        </defs>

<script type="text/javascript">
var viewWidth = 2156;
var viewHeight = 122;
var sectionId = 'dynsection-0';
</script>
<script xlink:href="svgpan.js"/>
<svg id="graph" class="graph">
<g id="viewport">
<title>/Users/Claudio/GitHub/visual&#45;tracking&#45;control/src/hand&#45;tracking/include/VisualSIS.h</title>
<polygon fill="#ffffff" stroke="transparent" points="-4,4 -4,-118 2152.2583,-118 2152.2583,4 -4,4"/>
<!-- Node0 -->
<g id="node1" class="node">
<title>Node0</title>
<polygon fill="#bfbfbf" stroke="#000000" points="960.3154,-65.5 960.3154,-113.5 1090.2607,-113.5 1090.2607,-65.5 960.3154,-65.5"/>
<text text-anchor="start" x="968.3154" y="-101.5" font-family="Helvetica,sans-Serif" font-size="10.00" fill="#000000">/Users/Claudio/GitHub</text>
<text text-anchor="start" x="968.3154" y="-91.5" font-family="Helvetica,sans-Serif" font-size="10.00" fill="#000000">/visual&#45;tracking&#45;control</text>
<text text-anchor="start" x="968.3154" y="-81.5" font-family="Helvetica,sans-Serif" font-size="10.00" fill="#000000">/src/hand&#45;tracking/include</text>
<text text-anchor="middle" x="1025.2881" y="-71.5" font-family="Helvetica,sans-Serif" font-size="10.00" fill="#000000">/VisualSIS.h</text>
</g>
<!-- Node1 -->
<g id="node2" class="node">
<title>Node1</title>
<polygon fill="#ffffff" stroke="#bfbfbf" points="0,-5.5 0,-23.5 46.5762,-23.5 46.5762,-5.5 0,-5.5"/>
<text text-anchor="middle" x="23.2881" y="-11.5" font-family="Helvetica,sans-Serif" font-size="10.00" fill="#000000">chrono</text>
</g>
<!-- Node0&#45;&gt;Node1 -->
<g id="edge1" class="edge">
<title>Node0&#45;&gt;Node1</title>
<path fill="none" stroke="#191970" d="M960.251,-88.5036C771.7376,-85.1322 227.5194,-71.855 55.2881,-29 53.3793,-28.525 51.4435,-27.9396 49.518,-27.2791"/>
<polygon fill="#191970" stroke="#191970" points="50.7305,-23.9944 40.1465,-23.5147 48.1212,-30.49 50.7305,-23.9944"/>
</g>
<!-- Node2 -->
<g id="node3" class="node">
<title>Node2</title>
<polygon fill="#ffffff" stroke="#bfbfbf" points="64.3843,-5.5 64.3843,-23.5 108.1919,-23.5 108.1919,-5.5 64.3843,-5.5"/>
<text text-anchor="middle" x="86.2881" y="-11.5" font-family="Helvetica,sans-Serif" font-size="10.00" fill="#000000">deque</text>
</g>
<!-- Node0&#45;&gt;Node2 -->
<g id="edge2" class="edge">
<title>Node0&#45;&gt;Node2</title>
<path fill="none" stroke="#191970" d="M960.2303,-88.2802C779.9891,-84.407 276.9794,-70.1198 117.2881,-29 115.5871,-28.562 113.8656,-28.0318 112.1509,-27.4365"/>
<polygon fill="#191970" stroke="#191970" points="113.1764,-24.0738 102.5968,-23.5046 110.5123,-30.5471 113.1764,-24.0738"/>
</g>
<!-- Node3 -->
<g id="node4" class="node">
<title>Node3</title>
<polygon fill="#ffffff" stroke="#bfbfbf" points="126.2314,-5.5 126.2314,-23.5 178.3447,-23.5 178.3447,-5.5 126.2314,-5.5"/>
<text text-anchor="middle" x="152.2881" y="-11.5" font-family="Helvetica,sans-Serif" font-size="10.00" fill="#000000">memory</text>
</g>
<!-- Node0&#45;&gt;Node3 -->
<g id="edge3" class="edge">
<title>Node0&#45;&gt;Node3</title>
<path fill="none" stroke="#191970" d="M960.1591,-87.49C789.7762,-81.8022 333.9328,-63.7098 187.2881,-29 185.104,-28.483 182.8802,-27.8462 180.6662,-27.1307"/>
<polygon fill="#191970" stroke="#191970" points="181.7684,-23.8067 171.1753,-23.6177 179.3385,-30.3714 181.7684,-23.8067"/>
</g>
<!-- Node4 -->
<g id="node5" class="node">
<title>Node4</title>
<polygon fill="#ffffff" stroke="#bfbfbf" points="196.6724,-5.5 196.6724,-23.5 239.9038,-23.5 239.9038,-5.5 196.6724,-5.5"/>
<text text-anchor="middle" x="218.2881" y="-11.5" font-family="Helvetica,sans-Serif" font-size="10.00" fill="#000000">vector</text>
</g>
<!-- Node0&#45;&gt;Node4 -->
<g id="edge4" class="edge">
<title>Node0&#45;&gt;Node4</title>
<path fill="none" stroke="#191970" d="M960.2271,-87.4248C798.7393,-81.794 382.9801,-64.2299 249.2881,-29 247.6291,-28.5628 245.9499,-28.0398 244.2763,-27.4559"/>
<polygon fill="#191970" stroke="#191970" points="245.5097,-24.1788 234.9296,-23.6187 242.8512,-30.6543 245.5097,-24.1788"/>
</g>
<!-- Node5 -->
<g id="node6" class="node">
<title>Node5</title>
<polygon fill="#ffffff" stroke="#bfbfbf" points="258.0396,-5.5 258.0396,-23.5 428.5366,-23.5 428.5366,-5.5 258.0396,-5.5"/>
<text text-anchor="middle" x="343.2881" y="-11.5" font-family="Helvetica,sans-Serif" font-size="10.00" fill="#000000">BayesFilters/EstimatesExtraction.h</text>
</g>
<!-- Node0&#45;&gt;Node5 -->
<g id="edge5" class="edge">
<title>Node0&#45;&gt;Node5</title>
<path fill="none" stroke="#191970" d="M959.9053,-83.8598C851.2241,-74.2407 626.6091,-53.3258 437.2881,-29 428.1472,-27.8255 418.5241,-26.4739 409.0635,-25.0783"/>
<polygon fill="#191970" stroke="#191970" points="409.3006,-21.5748 398.8921,-23.5529 408.2624,-28.4973 409.3006,-21.5748"/>
</g>
<!-- Node6 -->
<g id="node7" class="node">
<title>Node6</title>
<polygon fill="#ffffff" stroke="#bfbfbf" points="446.189,-.5 446.189,-28.5 580.3872,-28.5 580.3872,-.5 446.189,-.5"/>
<text text-anchor="start" x="454.189" y="-16.5" font-family="Helvetica,sans-Serif" font-size="10.00" fill="#000000">BayesFilters/VisualParticle</text>
<text text-anchor="middle" x="513.2881" y="-6.5" font-family="Helvetica,sans-Serif" font-size="10.00" fill="#000000">Filter.h</text>
</g>
<!-- Node0&#45;&gt;Node6 -->
<g id="edge6" class="edge">
<title>Node0&#45;&gt;Node6</title>
<path fill="none" stroke="#191970" d="M960.1291,-81.5046C876.7622,-71.0412 727.685,-51.5458 590.265,-29.1137"/>
<polygon fill="#191970" stroke="#191970" points="590.8268,-25.6592 580.392,-27.4936 589.6933,-32.5668 590.8268,-25.6592"/>
</g>
<!-- Node7 -->
<g id="node8" class="node">
<title>Node7</title>
<polygon fill="#ffffff" stroke="#bfbfbf" points="598.6577,-5.5 598.6577,-23.5 671.9185,-23.5 671.9185,-5.5 598.6577,-5.5"/>
<text text-anchor="middle" x="635.2881" y="-11.5" font-family="Helvetica,sans-Serif" font-size="10.00" fill="#000000">Eigen/Dense</text>
</g>
<!-- Node0&#45;&gt;Node7 -->
<g id="edge7" class="edge">
<title>Node0&#45;&gt;Node7</title>
<path fill="none" stroke="#191970" d="M960.0909,-80.6396C890.5101,-70.5786 777.3028,-52.4684 681.2881,-29 678.1158,-28.2246 674.8425,-27.349 671.5726,-26.4216"/>
<polygon fill="#191970" stroke="#191970" points="672.4603,-23.0341 661.8772,-23.5328 670.4614,-29.7426 672.4603,-23.0341"/>
</g>
<!-- Node8 -->
<g id="node9" class="node">
<title>Node8</title>
<polygon fill="#ffffff" stroke="#bfbfbf" points="689.936,-5.5 689.936,-23.5 792.6401,-23.5 792.6401,-5.5 689.936,-5.5"/>
<text text-anchor="middle" x="741.2881" y="-11.5" font-family="Helvetica,sans-Serif" font-size="10.00" fill="#000000">iCub/iKin/iKinFwd.h</text>
</g>
<!-- Node0&#45;&gt;Node8 -->
<g id="edge8" class="edge">
<title>Node0&#45;&gt;Node8</title>
<path fill="none" stroke="#191970" d="M960.1327,-72.2935C906.5814,-58.1514 832.1644,-38.499 785.3794,-26.1438"/>
<polygon fill="#191970" stroke="#191970" points="786.1084,-22.7164 775.5462,-23.547 784.3211,-29.4844 786.1084,-22.7164"/>
</g>
<!-- Node9 -->
<g id="node10" class="node">
<title>Node9</title>
<polygon fill="#ffffff" stroke="#bfbfbf" points="811.1284,-5.5 811.1284,-23.5 949.4478,-23.5 949.4478,-5.5 811.1284,-5.5"/>
<text text-anchor="middle" x="880.2881" y="-11.5" font-family="Helvetica,sans-Serif" font-size="10.00" fill="#000000">opencv2/cudaobjdetect.hpp</text>
</g>
<!-- Node0&#45;&gt;Node9 -->
<g id="edge9" class="edge">
<title>Node0&#45;&gt;Node9</title>
<path fill="none" stroke="#191970" d="M978.611,-65.3567C954.9902,-53.139 927.1628,-38.7455 907.1519,-28.3951"/>
<polygon fill="#191970" stroke="#191970" points="908.4992,-25.1515 898.009,-23.666 905.2832,-31.369 908.4992,-25.1515"/>
</g>
<!-- Node10 -->
<g id="node11" class="node">
<title>Node10</title>
<polygon fill="#ffffff" stroke="#bfbfbf" points="967.9131,-.5 967.9131,-28.5 1082.6631,-28.5 1082.6631,-.5 967.9131,-.5"/>
<text text-anchor="start" x="975.9131" y="-16.5" font-family="Helvetica,sans-Serif" font-size="10.00" fill="#000000">thrift/VisualSISParticle</text>
<text text-anchor="middle" x="1025.2881" y="-6.5" font-family="Helvetica,sans-Serif" font-size="10.00" fill="#000000">FilterIDL.h</text>
</g>
<!-- Node0&#45;&gt;Node10 -->
<g id="edge10" class="edge">
<title>Node0&#45;&gt;Node10</title>
<path fill="none" stroke="#191970" d="M1025.2881,-65.3567C1025.2881,-56.8057 1025.2881,-47.1888 1025.2881,-38.6382"/>
<polygon fill="#191970" stroke="#191970" points="1028.7882,-38.5381 1025.2881,-28.5382 1021.7882,-38.5382 1028.7882,-38.5381"/>
</g>
<!-- Node11 -->
<g id="node12" class="node">
<title>Node11</title>
<polygon fill="#ffffff" stroke="#bfbfbf" points="1100.7661,-5.5 1100.7661,-23.5 1211.8101,-23.5 1211.8101,-5.5 1100.7661,-5.5"/>
<text text-anchor="middle" x="1156.2881" y="-11.5" font-family="Helvetica,sans-Serif" font-size="10.00" fill="#000000">yarp/dev/PolyDriver.h</text>
</g>
<!-- Node0&#45;&gt;Node11 -->
<g id="edge11" class="edge">
<title>Node0&#45;&gt;Node11</title>
<path fill="none" stroke="#191970" d="M1067.4584,-65.3567C1088.6046,-53.2501 1113.4825,-39.007 1131.5232,-28.6784"/>
<polygon fill="#191970" stroke="#191970" points="1133.3388,-31.672 1140.2782,-23.666 1129.8608,-25.5971 1133.3388,-31.672"/>
</g>
<!-- Node12 -->
<g id="node13" class="node">
<title>Node12</title>
<polygon fill="#ffffff" stroke="#bfbfbf" points="1230.0249,-5.5 1230.0249,-23.5 1360.5513,-23.5 1360.5513,-5.5 1230.0249,-5.5"/>
<text text-anchor="middle" x="1295.2881" y="-11.5" font-family="Helvetica,sans-Serif" font-size="10.00" fill="#000000">yarp/dev/IAnalogSensor.h</text>
</g>
<!-- Node0&#45;&gt;Node12 -->
<g id="edge12" class="edge">
<title>Node0&#45;&gt;Node12</title>
<path fill="none" stroke="#191970" d="M1090.3034,-71.4402C1140.8261,-57.4061 1209.4242,-38.3511 1253.0323,-26.2377"/>
<polygon fill="#191970" stroke="#191970" points="1254.0492,-29.5879 1262.7476,-23.539 1252.1756,-22.8432 1254.0492,-29.5879"/>
</g>
<!-- Node13 -->
<g id="node14" class="node">
<title>Node13</title>
<polygon fill="#ffffff" stroke="#bfbfbf" points="1378.5469,-5.5 1378.5469,-23.5 1464.0293,-23.5 1464.0293,-5.5 1378.5469,-5.5"/>
<text text-anchor="middle" x="1421.2881" y="-11.5" font-family="Helvetica,sans-Serif" font-size="10.00" fill="#000000">yarp/os/Bottle.h</text>
</g>
<!-- Node0&#45;&gt;Node13 -->
<g id="edge13" class="edge">
<title>Node0&#45;&gt;Node13</title>
<path fill="none" stroke="#191970" d="M1090.3353,-80.0031C1159.7909,-69.4106 1272.8946,-50.8608 1369.2881,-29 1373.1369,-28.1271 1377.1265,-27.1491 1381.1064,-26.1241"/>
<polygon fill="#191970" stroke="#191970" points="1382.1342,-29.4724 1390.8939,-23.5127 1380.3296,-22.709 1382.1342,-29.4724"/>
</g>
<!-- Node14 -->
<g id="node15" class="node">
<title>Node14</title>
<polygon fill="#ffffff" stroke="#bfbfbf" points="1482.3491,-5.5 1482.3491,-23.5 1598.2271,-23.5 1598.2271,-5.5 1482.3491,-5.5"/>
<text text-anchor="middle" x="1540.2881" y="-11.5" font-family="Helvetica,sans-Serif" font-size="10.00" fill="#000000">yarp/os/BufferedPort.h</text>
</g>
<!-- Node0&#45;&gt;Node14 -->
<g id="edge14" class="edge">
<title>Node0&#45;&gt;Node14</title>
<path fill="none" stroke="#191970" d="M1090.4534,-82.3336C1177.8742,-72.3473 1337.8145,-52.7688 1473.2881,-29 1479.0704,-27.9855 1485.112,-26.8236 1491.0982,-25.6088"/>
<polygon fill="#191970" stroke="#191970" points="1491.9896,-28.9983 1501.0648,-23.531 1490.561,-22.1456 1491.9896,-28.9983"/>
</g>
<!-- Node15 -->
<g id="node16" class="node">
<title>Node15</title>
<polygon fill="#ffffff" stroke="#bfbfbf" points="1616.2095,-5.5 1616.2095,-23.5 1728.3667,-23.5 1728.3667,-5.5 1616.2095,-5.5"/>
<text text-anchor="middle" x="1672.2881" y="-11.5" font-family="Helvetica,sans-Serif" font-size="10.00" fill="#000000">yarp/os/ConstString.h</text>
</g>
<!-- Node0&#45;&gt;Node15 -->
<g id="edge15" class="edge">
<title>Node0&#45;&gt;Node15</title>
<path fill="none" stroke="#191970" d="M1090.6408,-85.1888C1198.666,-77.5076 1421.0483,-59.348 1607.2881,-29 1613.1365,-28.047 1619.2484,-26.8944 1625.2838,-25.6604"/>
<polygon fill="#191970" stroke="#191970" points="1626.2561,-29.032 1635.3088,-23.5276 1624.7993,-22.1852 1626.2561,-29.032"/>
</g>
<!-- Node16 -->
<g id="node17" class="node">
<title>Node16</title>
<polygon fill="#ffffff" stroke="#bfbfbf" points="1746.1626,-5.5 1746.1626,-23.5 1824.4136,-23.5 1824.4136,-5.5 1746.1626,-5.5"/>
<text text-anchor="middle" x="1785.2881" y="-11.5" font-family="Helvetica,sans-Serif" font-size="10.00" fill="#000000">yarp/os/Port.h</text>
</g>
<!-- Node0&#45;&gt;Node16 -->
<g id="edge16" class="edge">
<title>Node0&#45;&gt;Node16</title>
<path fill="none" stroke="#191970" d="M1090.6997,-88.4871C1216.8613,-85.5347 1502.1256,-73.9991 1737.2881,-29 1741.169,-28.2574 1745.1828,-27.3222 1749.1602,-26.2862"/>
<polygon fill="#191970" stroke="#191970" points="1750.1961,-29.6307 1758.8759,-23.5553 1748.3019,-22.8919 1750.1961,-29.6307"/>
</g>
<!-- Node17 -->
<g id="node18" class="node">
<title>Node17</title>
<polygon fill="#ffffff" stroke="#bfbfbf" points="1842.3252,-5.5 1842.3252,-23.5 1932.251,-23.5 1932.251,-5.5 1842.3252,-5.5"/>
<text text-anchor="middle" x="1887.2881" y="-11.5" font-family="Helvetica,sans-Serif" font-size="10.00" fill="#000000">yarp/sig/Image.h</text>
</g>
<!-- Node0&#45;&gt;Node17 -->
<g id="edge17" class="edge">
<title>Node0&#45;&gt;Node17</title>
<path fill="none" stroke="#191970" d="M1090.4629,-88.7525C1228.4621,-86.2664 1559.9202,-75.5129 1833.2881,-29 1838.0041,-28.1976 1842.9055,-27.1668 1847.7462,-26.0252"/>
<polygon fill="#191970" stroke="#191970" points="1848.6759,-29.4005 1857.5183,-23.5642 1846.9663,-22.6124 1848.6759,-29.4005"/>
</g>
<!-- Node18 -->
<g id="node19" class="node">
<title>Node18</title>
<polygon fill="#ffffff" stroke="#bfbfbf" points="1950.6108,-5.5 1950.6108,-23.5 2039.9653,-23.5 2039.9653,-5.5 1950.6108,-5.5"/>
<text text-anchor="middle" x="1995.2881" y="-11.5" font-family="Helvetica,sans-Serif" font-size="10.00" fill="#000000">yarp/sig/Matrix.h</text>
</g>
<!-- Node0&#45;&gt;Node18 -->
<g id="edge18" class="edge">
<title>Node0&#45;&gt;Node18</title>
<path fill="none" stroke="#191970" d="M1090.2863,-86.8694C1271.0307,-79.2896 1777.0788,-56.1982 1941.2881,-29 1946.0644,-28.2089 1951.0293,-27.1757 1955.928,-26.0247"/>
<polygon fill="#191970" stroke="#191970" points="1956.966,-29.3726 1965.8086,-23.5366 1955.2567,-22.5845 1956.966,-29.3726"/>
</g>
<!-- Node19 -->
<g id="node20" class="node">
<title>Node19</title>
<polygon fill="#ffffff" stroke="#bfbfbf" points="2058.3179,-5.5 2058.3179,-23.5 2148.2583,-23.5 2148.2583,-5.5 2058.3179,-5.5"/>
<text text-anchor="middle" x="2103.2881" y="-11.5" font-family="Helvetica,sans-Serif" font-size="10.00" fill="#000000">yarp/sig/Vector.h</text>
</g>
<!-- Node0&#45;&gt;Node19 -->
<g id="edge19" class="edge">
<title>Node0&#45;&gt;Node19</title>
<path fill="none" stroke="#191970" d="M1090.5035,-87.3825C1285.7166,-80.7694 1863.3859,-59.129 2049.2881,-29 2054.0671,-28.2255 2059.0337,-27.2024 2063.9333,-26.0569"/>
<polygon fill="#191970" stroke="#191970" points="2064.969,-29.4056 2073.8148,-23.5744 2063.2634,-22.6165 2064.969,-29.4056"/>
</g>
</g>
</svg>
        <g id="navigator" transform="translate(0 0)" fill="#404254">
                <rect fill="#f2f5e9" fill-opacity="0.5" stroke="#606060" stroke-width=".5" x="0" y="0" width="60" height="60"/>
                <use id="zoomplus" xlink:href="#zoomPlus" x="17" y="9" onmousedown="handleZoom(evt,'in')"/>
                <use id="zoomminus" xlink:href="#zoomMin" x="42" y="9" onmousedown="handleZoom(evt,'out')"/>
                <use id="reset" xlink:href="#resetDef" x="30" y="36" onmousedown="handleReset()"/>
                <g id="arrowUp" xlink:href="#dirArrow" transform="translate(30 24)" onmousedown="handlePan(0,-1)">
                  <use xlink:href="#rim" fill="#404040">
                        <set attributeName="fill" to="#808080" begin="arrowUp.mouseover" end="arrowUp.mouseout"/>
                  </use>
                  <path fill="none" stroke="white" stroke-width="1.5" d="M0,-3.0v7 M-2.5,-0.5L0,-3.0L2.5,-0.5"/>
                </g>
                <g id="arrowRight" xlink:href="#dirArrow" transform="rotate(90) translate(36 -43)" onmousedown="handlePan(1,0)">
                  <use xlink:href="#rim" fill="#404040">
                        <set attributeName="fill" to="#808080" begin="arrowRight.mouseover" end="arrowRight.mouseout"/>
                  </use>
                  <path fill="none" stroke="white" stroke-width="1.5" d="M0,-3.0v7 M-2.5,-0.5L0,-3.0L2.5,-0.5"/>
                </g>
                <g id="arrowDown" xlink:href="#dirArrow" transform="rotate(180) translate(-30 -48)" onmousedown="handlePan(0,1)">
                  <use xlink:href="#rim" fill="#404040">
                        <set attributeName="fill" to="#808080" begin="arrowDown.mouseover" end="arrowDown.mouseout"/>
                  </use>
                  <path fill="none" stroke="white" stroke-width="1.5" d="M0,-3.0v7 M-2.5,-0.5L0,-3.0L2.5,-0.5"/>
                </g>
                <g id="arrowLeft" xlink:href="#dirArrow" transform="rotate(270) translate(-36 17)" onmousedown="handlePan(-1,0)">
                  <use xlink:href="#rim" fill="#404040">
                        <set attributeName="fill" to="#808080" begin="arrowLeft.mouseover" end="arrowLeft.mouseout"/>
                  </use>
                  <path fill="none" stroke="white" stroke-width="1.5" d="M0,-3.0v7 M-2.5,-0.5L0,-3.0L2.5,-0.5"/>
                </g>
        </g>
        <svg viewBox="0 0 15 15" width="100%" height="30px" preserveAspectRatio="xMaxYMin meet">
         <g id="arrow_out" transform="scale(0.3 0.3)">
          <a xlink:href="VisualSIS_8h__incl_org.svg" target="_base">
           <rect id="button" ry="5" rx="5" y="6" x="6" height="38" width="38"
                fill="#f2f5e9" fill-opacity="0.5" stroke="#606060" stroke-width="1.0"/>
           <path id="arrow"
             d="M 11.500037,31.436501 C 11.940474,20.09759 22.043105,11.32322 32.158766,21.979434 L 37.068811,17.246167 C 37.068811,17.246167 37.088388,32 37.088388,32 L 22.160133,31.978069 C 22.160133,31.978069 26.997745,27.140456 26.997745,27.140456 C 18.528582,18.264221 13.291696,25.230495 11.500037,31.436501 z"
             style="fill:#404040;"/>
          </a>
         </g>
        </svg>
</svg>
