<?xml version="1.0" encoding="UTF-8" standalone="no"?>
<!DOCTYPE svg PUBLIC "-//W3C//DTD SVG 1.1//EN"
 "http://www.w3.org/Graphics/SVG/1.1/DTD/svg11.dtd">
<!-- Generated by graphviz version 2.40.1 (20161225.0304)
 -->
<!-- Title: /Users/Claudio/GitHub/visual&#45;tracking&#45;control/src/visualservoing/visualservoingserver/src/VisualServoingServer.cpp Pages: 1 -->
<!--zoomable 167 -->
<svg id="main" version="1.1" xmlns="http://www.w3.org/2000/svg" xmlns:xlink="http://www.w3.org/1999/xlink" xml:space="preserve" onload="init(evt)">
<style type="text/css"><![CDATA[
.edge:hover path { stroke: red; }
.edge:hover polygon { stroke: red; fill: red; }
]]></style>
<script type="text/javascript"><![CDATA[
var edges = document.getElementsByTagName('g');
if (edges && edges.length) {
  for (var i=0;i<edges.length;i++) {
    if (edges[i].id.substr(0,4)=='edge') {
      edges[i].setAttribute('class','edge');
    }
  }
}
]]></script>
        <defs>
                <circle id="rim" cx="0" cy="0" r="7"/>
                <circle id="rim2" cx="0" cy="0" r="3.5"/>
                <g id="zoomPlus">
                        <use xlink:href="#rim" fill="#404040">
                                <set attributeName="fill" to="#808080" begin="zoomplus.mouseover" end="zoomplus.mouseout"/>
                        </use>
                        <path d="M-4,0h8M0,-4v8" fill="none" stroke="white" stroke-width="1.5" pointer-events="none"/>
                </g>
                <g id="zoomMin">
                        <use xlink:href="#rim" fill="#404040">
                                <set attributeName="fill" to="#808080" begin="zoomminus.mouseover" end="zoomminus.mouseout"/>
                        </use>
                        <path d="M-4,0h8" fill="none" stroke="white" stroke-width="1.5" pointer-events="none"/>
                </g>
                <g id="dirArrow">
                        <path fill="none" stroke="white" stroke-width="1.5" d="M0,-3.0v7 M-2.5,-0.5L0,-3.0L2.5,-0.5"/>
                </g>
               <g id="resetDef">
                       <use xlink:href="#rim2" fill="#404040">
                               <set attributeName="fill" to="#808080" begin="reset.mouseover" end="reset.mouseout"/>
                       </use>
               </g>
        </defs>

<script type="text/javascript">
var viewWidth = 2917;
var viewHeight = 167;
var sectionId = 'dynsection-0';
</script>
<script xlink:href="svgpan.js"/>
<svg id="graph" class="graph">
<g id="viewport">
<title>/Users/Claudio/GitHub/visual&#45;tracking&#45;control/src/visualservoing/visualservoingserver/src/VisualServoingServer.cpp</title>
<polygon fill="#ffffff" stroke="transparent" points="-4,4 -4,-163 2913.2114,-163 2913.2114,4 -4,4"/>
<!-- Node0 -->
<g id="node1" class="node">
<title>Node0</title>
<polygon fill="#bfbfbf" stroke="#000000" points="2299.2397,-110.5 2299.2397,-158.5 2491.4165,-158.5 2491.4165,-110.5 2299.2397,-110.5"/>
<text text-anchor="start" x="2307.2397" y="-146.5" font-family="Helvetica,sans-Serif" font-size="10.00" fill="#000000">/Users/Claudio/GitHub</text>
<text text-anchor="start" x="2307.2397" y="-136.5" font-family="Helvetica,sans-Serif" font-size="10.00" fill="#000000">/visual&#45;tracking&#45;control</text>
<text text-anchor="start" x="2307.2397" y="-126.5" font-family="Helvetica,sans-Serif" font-size="10.00" fill="#000000">/src/visualservoing/visualservoingserver</text>
<text text-anchor="middle" x="2395.3281" y="-116.5" font-family="Helvetica,sans-Serif" font-size="10.00" fill="#000000">/src/VisualServoingServer.cpp</text>
</g>
<!-- Node1 -->
<g id="node2" class="node">
<title>Node1</title>
<g id="a_node2"><a xlink:href="VisualServoingServer_8h.html" target="_top" xlink:title="VisualServoingServer.h">
<polygon fill="#ffffff" stroke="#000000" points="1281.4409,-55.5 1281.4409,-73.5 1401.2153,-73.5 1401.2153,-55.5 1281.4409,-55.5"/>
<text text-anchor="middle" x="1341.3281" y="-61.5" font-family="Helvetica,sans-Serif" font-size="10.00" fill="#000000">VisualServoingServer.h</text>
</a>
</g>
</g>
<!-- Node0&#45;&gt;Node1 -->
<g id="edge1" class="edge">
<title>Node0&#45;&gt;Node1</title>
<path fill="none" stroke="#191970" d="M2298.9985,-128.1024C2089.1459,-114.1653 1594.8431,-81.3369 1411.432,-69.1559"/>
<polygon fill="#191970" stroke="#191970" points="1411.5769,-65.6579 1401.367,-68.4874 1411.113,-72.6425 1411.5769,-65.6579"/>
</g>
<!-- Node14 -->
<g id="node15" class="node">
<title>Node14</title>
<polygon fill="#ffffff" stroke="#bfbfbf" points="2572.4219,-.5 2572.4219,-18.5 2666.2344,-18.5 2666.2344,-.5 2572.4219,-.5"/>
<text text-anchor="middle" x="2619.3281" y="-6.5" font-family="Helvetica,sans-Serif" font-size="10.00" fill="#000000">yarp/math/Math.h</text>
</g>
<!-- Node0&#45;&gt;Node14 -->
<g id="edge29" class="edge">
<title>Node0&#45;&gt;Node14</title>
<path fill="none" stroke="#191970" d="M2299.1747,-127.5653C2182.6268,-117.3204 2006.088,-94.9074 2043.3281,-55 2081.1822,-14.4346 2470.9715,-24.8415 2562.1143,-18.726"/>
<polygon fill="#191970" stroke="#191970" points="2562.6714,-22.1904 2572.3232,-17.8209 2562.0532,-15.2178 2562.6714,-22.1904"/>
</g>
<!-- Node26 -->
<g id="node27" class="node">
<title>Node26</title>
<polygon fill="#ffffff" stroke="#bfbfbf" points="2052.1533,-55.5 2052.1533,-73.5 2166.5029,-73.5 2166.5029,-55.5 2052.1533,-55.5"/>
<text text-anchor="middle" x="2109.3281" y="-61.5" font-family="Helvetica,sans-Serif" font-size="10.00" fill="#000000">iCub/ctrl/minJerkCtrl.h</text>
</g>
<!-- Node0&#45;&gt;Node26 -->
<g id="edge26" class="edge">
<title>Node0&#45;&gt;Node26</title>
<path fill="none" stroke="#191970" d="M2298.9003,-110.8988C2250.8175,-99.1303 2194.8488,-85.4316 2156.2531,-75.9851"/>
<polygon fill="#191970" stroke="#191970" points="2156.8858,-72.5368 2146.3404,-73.559 2155.2216,-79.3361 2156.8858,-72.5368"/>
</g>
<!-- Node27 -->
<g id="node28" class="node">
<title>Node27</title>
<polygon fill="#ffffff" stroke="#bfbfbf" points="2184.4614,-55.5 2184.4614,-73.5 2302.1948,-73.5 2302.1948,-55.5 2184.4614,-55.5"/>
<text text-anchor="middle" x="2243.3281" y="-61.5" font-family="Helvetica,sans-Serif" font-size="10.00" fill="#000000">opencv2/core/core.hpp</text>
</g>
<!-- Node0&#45;&gt;Node27 -->
<g id="edge27" class="edge">
<title>Node0&#45;&gt;Node27</title>
<path fill="none" stroke="#191970" d="M2343.0183,-110.41C2319.255,-99.4663 2292.0584,-86.9416 2272.0809,-77.7414"/>
<polygon fill="#191970" stroke="#191970" points="2273.4476,-74.5175 2262.9004,-73.5136 2270.5194,-80.8757 2273.4476,-74.5175"/>
</g>
<!-- Node28 -->
<g id="node29" class="node">
<title>Node28</title>
<polygon fill="#ffffff" stroke="#bfbfbf" points="2320.3481,-55.5 2320.3481,-73.5 2470.3081,-73.5 2470.3081,-55.5 2320.3481,-55.5"/>
<text text-anchor="middle" x="2395.3281" y="-61.5" font-family="Helvetica,sans-Serif" font-size="10.00" fill="#000000">opencv2/imgproc/imgproc.hpp</text>
</g>
<!-- Node0&#45;&gt;Node28 -->
<g id="edge28" class="edge">
<title>Node0&#45;&gt;Node28</title>
<path fill="none" stroke="#191970" d="M2395.3281,-110.41C2395.3281,-101.7094 2395.3281,-92.0095 2395.3281,-83.7754"/>
<polygon fill="#191970" stroke="#191970" points="2398.8282,-83.6872 2395.3281,-73.6872 2391.8282,-83.6873 2398.8282,-83.6872"/>
</g>
<!-- Node29 -->
<g id="node30" class="node">
<title>Node29</title>
<polygon fill="#ffffff" stroke="#bfbfbf" points="2488.2568,-55.5 2488.2568,-73.5 2580.3994,-73.5 2580.3994,-55.5 2488.2568,-55.5"/>
<text text-anchor="middle" x="2534.3281" y="-61.5" font-family="Helvetica,sans-Serif" font-size="10.00" fill="#000000">yarp/math/SVD.h</text>
</g>
<!-- Node0&#45;&gt;Node29 -->
<g id="edge30" class="edge">
<title>Node0&#45;&gt;Node29</title>
<path fill="none" stroke="#191970" d="M2443.164,-110.41C2464.4999,-99.6653 2488.8623,-87.3965 2507.0315,-78.2465"/>
<polygon fill="#191970" stroke="#191970" points="2509.0726,-81.1374 2516.4298,-73.5136 2505.9241,-74.8854 2509.0726,-81.1374"/>
</g>
<!-- Node30 -->
<g id="node31" class="node">
<title>Node30</title>
<polygon fill="#ffffff" stroke="#bfbfbf" points="2598.0352,-55.5 2598.0352,-73.5 2694.6211,-73.5 2694.6211,-55.5 2598.0352,-55.5"/>
<text text-anchor="middle" x="2646.3281" y="-61.5" font-family="Helvetica,sans-Serif" font-size="10.00" fill="#000000">yarp/os/Network.h</text>
</g>
<!-- Node0&#45;&gt;Node30 -->
<g id="edge31" class="edge">
<title>Node0&#45;&gt;Node30</title>
<path fill="none" stroke="#191970" d="M2481.7081,-110.41C2523.0892,-98.8694 2570.7753,-85.5705 2604.1371,-76.2664"/>
<polygon fill="#191970" stroke="#191970" points="2605.3159,-79.5713 2614.0081,-73.5136 2603.4354,-72.8286 2605.3159,-79.5713"/>
</g>
<!-- Node31 -->
<g id="node32" class="node">
<title>Node31</title>
<polygon fill="#ffffff" stroke="#bfbfbf" points="2712.8447,-55.5 2712.8447,-73.5 2809.8115,-73.5 2809.8115,-55.5 2712.8447,-55.5"/>
<text text-anchor="middle" x="2761.3281" y="-61.5" font-family="Helvetica,sans-Serif" font-size="10.00" fill="#000000">yarp/os/Property.h</text>
</g>
<!-- Node0&#45;&gt;Node31 -->
<g id="edge32" class="edge">
<title>Node0&#45;&gt;Node31</title>
<path fill="none" stroke="#191970" d="M2491.4903,-116.1083C2559.0226,-103.1923 2647.0942,-86.348 2703.9314,-75.4775"/>
<polygon fill="#191970" stroke="#191970" points="2704.6556,-78.9025 2713.8201,-73.5862 2703.3406,-72.0271 2704.6556,-78.9025"/>
</g>
<!-- Node32 -->
<g id="node33" class="node">
<title>Node32</title>
<polygon fill="#ffffff" stroke="#bfbfbf" points="2827.4448,-55.5 2827.4448,-73.5 2909.2114,-73.5 2909.2114,-55.5 2827.4448,-55.5"/>
<text text-anchor="middle" x="2868.3281" y="-61.5" font-family="Helvetica,sans-Serif" font-size="10.00" fill="#000000">yarp/os/Time.h</text>
</g>
<!-- Node0&#45;&gt;Node32 -->
<g id="edge33" class="edge">
<title>Node0&#45;&gt;Node32</title>
<path fill="none" stroke="#191970" d="M2491.7006,-121.9926C2575.2148,-110.8584 2699.5265,-93.5792 2817.4925,-74.0789"/>
<polygon fill="#191970" stroke="#191970" points="2818.134,-77.5204 2827.4254,-72.4291 2816.987,-70.615 2818.134,-77.5204"/>
</g>
<!-- Node2 -->
<g id="node3" class="node">
<title>Node2</title>
<polygon fill="#ffffff" stroke="#bfbfbf" points="0,-.5 0,-18.5 128.6563,-18.5 128.6563,-.5 0,-.5"/>
<text text-anchor="middle" x="64.3281" y="-6.5" font-family="Helvetica,sans-Serif" font-size="10.00" fill="#000000">thrift/VisualServoingIDL.h</text>
</g>
<!-- Node1&#45;&gt;Node2 -->
<g id="edge2" class="edge">
<title>Node1&#45;&gt;Node2</title>
<path fill="none" stroke="#191970" d="M1281.1294,-64.1344C1106.3674,-62.6649 583.7255,-55.386 139.026,-18.9704"/>
<polygon fill="#191970" stroke="#191970" points="139.1198,-15.4663 128.8658,-18.1321 138.5442,-22.4426 139.1198,-15.4663"/>
</g>
<!-- Node3 -->
<g id="node4" class="node">
<title>Node3</title>
<polygon fill="#ffffff" stroke="#bfbfbf" points="146.9365,-.5 146.9365,-18.5 185.7197,-18.5 185.7197,-.5 146.9365,-.5"/>
<text text-anchor="middle" x="166.3281" y="-6.5" font-family="Helvetica,sans-Serif" font-size="10.00" fill="#000000">array</text>
</g>
<!-- Node1&#45;&gt;Node3 -->
<g id="edge3" class="edge">
<title>Node1&#45;&gt;Node3</title>
<path fill="none" stroke="#191970" d="M1281.2144,-63.126C1066.0007,-58.0716 339.5037,-39.8002 196.0321,-18.6267"/>
<polygon fill="#191970" stroke="#191970" points="196.4634,-15.1505 186.0253,-16.9661 195.3174,-22.056 196.4634,-15.1505"/>
</g>
<!-- Node4 -->
<g id="node5" class="node">
<title>Node4</title>
<polygon fill="#ffffff" stroke="#bfbfbf" points="203.7124,-.5 203.7124,-18.5 246.9438,-18.5 246.9438,-.5 203.7124,-.5"/>
<text text-anchor="middle" x="225.3281" y="-6.5" font-family="Helvetica,sans-Serif" font-size="10.00" fill="#000000">cmath</text>
</g>
<!-- Node1&#45;&gt;Node4 -->
<g id="edge4" class="edge">
<title>Node1&#45;&gt;Node4</title>
<path fill="none" stroke="#191970" d="M1281.3685,-64.0733C1086.9402,-62.3677 474.4331,-54.3886 257.1603,-18.8476"/>
<polygon fill="#191970" stroke="#191970" points="257.5621,-15.3657 247.116,-17.1343 256.385,-22.266 257.5621,-15.3657"/>
</g>
<!-- Node5 -->
<g id="node6" class="node">
<title>Node5</title>
<polygon fill="#ffffff" stroke="#bfbfbf" points="264.7124,-.5 264.7124,-18.5 307.9438,-18.5 307.9438,-.5 264.7124,-.5"/>
<text text-anchor="middle" x="286.3281" y="-6.5" font-family="Helvetica,sans-Serif" font-size="10.00" fill="#000000">mutex</text>
</g>
<!-- Node1&#45;&gt;Node5 -->
<g id="edge5" class="edge">
<title>Node1&#45;&gt;Node5</title>
<path fill="none" stroke="#191970" d="M1281.1754,-63.821C1094.1759,-61.4017 523.7844,-51.6179 318.2699,-18.6351"/>
<polygon fill="#191970" stroke="#191970" points="318.6179,-15.1447 308.1771,-16.9447 317.4616,-22.0485 318.6179,-15.1447"/>
</g>
<!-- Node6 -->
<g id="node7" class="node">
<title>Node6</title>
<polygon fill="#ffffff" stroke="#bfbfbf" points="326.1509,-.5 326.1509,-18.5 370.5054,-18.5 370.5054,-.5 326.1509,-.5"/>
<text text-anchor="middle" x="348.3281" y="-6.5" font-family="Helvetica,sans-Serif" font-size="10.00" fill="#000000">thread</text>
</g>
<!-- Node1&#45;&gt;Node6 -->
<g id="edge6" class="edge">
<title>Node1&#45;&gt;Node6</title>
<path fill="none" stroke="#191970" d="M1281.3159,-63.6228C1102.2839,-60.7019 572.9892,-49.782 380.5209,-18.7143"/>
<polygon fill="#191970" stroke="#191970" points="380.9598,-15.239 370.517,-17.0272 379.7957,-22.1415 380.9598,-15.239"/>
</g>
<!-- Node7 -->
<g id="node8" class="node">
<title>Node7</title>
<polygon fill="#ffffff" stroke="#bfbfbf" points="388.7124,-.5 388.7124,-18.5 431.9438,-18.5 431.9438,-.5 388.7124,-.5"/>
<text text-anchor="middle" x="410.3281" y="-6.5" font-family="Helvetica,sans-Serif" font-size="10.00" fill="#000000">vector</text>
</g>
<!-- Node1&#45;&gt;Node7 -->
<g id="edge7" class="edge">
<title>Node1&#45;&gt;Node7</title>
<path fill="none" stroke="#191970" d="M1281.2017,-63.3933C1110.1221,-59.9438 621.9807,-47.9372 442.0504,-18.6096"/>
<polygon fill="#191970" stroke="#191970" points="442.6259,-15.1573 432.1801,-16.9276 441.45,-22.0579 442.6259,-15.1573"/>
</g>
<!-- Node8 -->
<g id="node9" class="node">
<title>Node8</title>
<polygon fill="#ffffff" stroke="#bfbfbf" points="450.0747,-.5 450.0747,-18.5 590.5815,-18.5 590.5815,-.5 450.0747,-.5"/>
<text text-anchor="middle" x="520.3281" y="-6.5" font-family="Helvetica,sans-Serif" font-size="10.00" fill="#000000">yarp/dev/CartesianControl.h</text>
</g>
<!-- Node1&#45;&gt;Node8 -->
<g id="edge8" class="edge">
<title>Node1&#45;&gt;Node8</title>
<path fill="none" stroke="#191970" d="M1281.1261,-62.0027C1156.2758,-56.5641 859.8693,-42.3075 600.9122,-19.0985"/>
<polygon fill="#191970" stroke="#191970" points="601.2159,-15.6118 590.9418,-18.1988 600.5867,-22.5835 601.2159,-15.6118"/>
</g>
<!-- Node9 -->
<g id="node10" class="node">
<title>Node9</title>
<polygon fill="#ffffff" stroke="#bfbfbf" points="608.5229,-.5 608.5229,-18.5 730.1333,-18.5 730.1333,-.5 608.5229,-.5"/>
<text text-anchor="middle" x="669.3281" y="-6.5" font-family="Helvetica,sans-Serif" font-size="10.00" fill="#000000">yarp/dev/GazeControl.h</text>
</g>
<!-- Node1&#45;&gt;Node9 -->
<g id="edge9" class="edge">
<title>Node1&#45;&gt;Node9</title>
<path fill="none" stroke="#191970" d="M1281.4101,-61.1549C1174.7969,-54.9437 944.9328,-40.3832 740.413,-19.0571"/>
<polygon fill="#191970" stroke="#191970" points="740.6966,-15.5677 730.3857,-18.0039 739.9653,-22.5295 740.6966,-15.5677"/>
</g>
<!-- Node10 -->
<g id="node11" class="node">
<title>Node10</title>
<polygon fill="#ffffff" stroke="#bfbfbf" points="748.2495,-.5 748.2495,-18.5 870.4067,-18.5 870.4067,-.5 748.2495,-.5"/>
<text text-anchor="middle" x="809.3281" y="-6.5" font-family="Helvetica,sans-Serif" font-size="10.00" fill="#000000">yarp/dev/DeviceDriver.h</text>
</g>
<!-- Node1&#45;&gt;Node10 -->
<g id="edge10" class="edge">
<title>Node1&#45;&gt;Node10</title>
<path fill="none" stroke="#191970" d="M1281.0799,-59.2778C1194.7978,-51.6413 1030.7952,-36.5415 881.0691,-19.1697"/>
<polygon fill="#191970" stroke="#191970" points="881.1102,-15.6508 870.7721,-17.9687 880.2992,-22.6037 881.1102,-15.6508"/>
</g>
<!-- Node11 -->
<g id="node12" class="node">
<title>Node11</title>
<polygon fill="#ffffff" stroke="#bfbfbf" points="888.0796,-.5 888.0796,-18.5 998.5767,-18.5 998.5767,-.5 888.0796,-.5"/>
<text text-anchor="middle" x="943.3281" y="-6.5" font-family="Helvetica,sans-Serif" font-size="10.00" fill="#000000">yarp/dev/IEncoders.h</text>
</g>
<!-- Node1&#45;&gt;Node11 -->
<g id="edge11" class="edge">
<title>Node1&#45;&gt;Node11</title>
<path fill="none" stroke="#191970" d="M1281.1474,-56.449C1216.5858,-47.7731 1110.7512,-33.4396 1008.8106,-19.0569"/>
<polygon fill="#191970" stroke="#191970" points="1009.0328,-15.5536 998.6414,-17.6201 1008.0534,-22.4847 1009.0328,-15.5536"/>
</g>
<!-- Node12 -->
<g id="node13" class="node">
<title>Node12</title>
<polygon fill="#ffffff" stroke="#bfbfbf" points="1016.9385,-.5 1016.9385,-18.5 1151.7178,-18.5 1151.7178,-.5 1016.9385,-.5"/>
<text text-anchor="middle" x="1084.3281" y="-6.5" font-family="Helvetica,sans-Serif" font-size="10.00" fill="#000000">yarp/dev/IVisualServoing.h</text>
</g>
<!-- Node1&#45;&gt;Node12 -->
<g id="edge12" class="edge">
<title>Node1&#45;&gt;Node12</title>
<path fill="none" stroke="#191970" d="M1299.1776,-55.4795C1254.6406,-45.9482 1184.3464,-30.9047 1136.3808,-20.6397"/>
<polygon fill="#191970" stroke="#191970" points="1137.0127,-17.1957 1126.5017,-18.5255 1135.5478,-24.0407 1137.0127,-17.1957"/>
</g>
<!-- Node13 -->
<g id="node14" class="node">
<title>Node13</title>
<polygon fill="#ffffff" stroke="#bfbfbf" points="1169.8062,-.5 1169.8062,-18.5 1280.8501,-18.5 1280.8501,-.5 1169.8062,-.5"/>
<text text-anchor="middle" x="1225.3281" y="-6.5" font-family="Helvetica,sans-Serif" font-size="10.00" fill="#000000">yarp/dev/PolyDriver.h</text>
</g>
<!-- Node1&#45;&gt;Node13 -->
<g id="edge13" class="edge">
<title>Node1&#45;&gt;Node13</title>
<path fill="none" stroke="#191970" d="M1322.1731,-55.4179C1303.5347,-46.5807 1274.9915,-33.0473 1253.7145,-22.9591"/>
<polygon fill="#191970" stroke="#191970" points="1255.0469,-19.7174 1244.5116,-18.5956 1252.0479,-26.0424 1255.0469,-19.7174"/>
</g>
<!-- Node1&#45;&gt;Node14 -->
<g id="edge14" class="edge">
<title>Node1&#45;&gt;Node14</title>
<path fill="none" stroke="#191970" d="M1401.4474,-63.3045C1611.7382,-58.9619 2314.4862,-43.0556 2562.2953,-18.9382"/>
<polygon fill="#191970" stroke="#191970" points="2562.7349,-22.4117 2572.3354,-17.9306 2562.0359,-15.4467 2562.7349,-22.4117"/>
</g>
<!-- Node15 -->
<g id="node16" class="node">
<title>Node15</title>
<polygon fill="#ffffff" stroke="#bfbfbf" points="1298.5869,-.5 1298.5869,-18.5 1384.0693,-18.5 1384.0693,-.5 1298.5869,-.5"/>
<text text-anchor="middle" x="1341.3281" y="-6.5" font-family="Helvetica,sans-Serif" font-size="10.00" fill="#000000">yarp/os/Bottle.h</text>
</g>
<!-- Node1&#45;&gt;Node15 -->
<g id="edge15" class="edge">
<title>Node1&#45;&gt;Node15</title>
<path fill="none" stroke="#191970" d="M1341.3281,-55.4179C1341.3281,-48.2164 1341.3281,-37.8962 1341.3281,-28.8632"/>
<polygon fill="#191970" stroke="#191970" points="1344.8282,-28.7794 1341.3281,-18.7795 1337.8282,-28.7795 1344.8282,-28.7794"/>
</g>
<!-- Node16 -->
<g id="node17" class="node">
<title>Node16</title>
<polygon fill="#ffffff" stroke="#bfbfbf" points="1402.3892,-.5 1402.3892,-18.5 1518.2671,-18.5 1518.2671,-.5 1402.3892,-.5"/>
<text text-anchor="middle" x="1460.3281" y="-6.5" font-family="Helvetica,sans-Serif" font-size="10.00" fill="#000000">yarp/os/BufferedPort.h</text>
</g>
<!-- Node1&#45;&gt;Node16 -->
<g id="edge16" class="edge">
<title>Node1&#45;&gt;Node16</title>
<path fill="none" stroke="#191970" d="M1360.9786,-55.4179C1380.1851,-46.5409 1409.6444,-32.9253 1431.5021,-22.823"/>
<polygon fill="#191970" stroke="#191970" points="1433.0395,-25.9682 1440.6485,-18.5956 1430.1027,-19.614 1433.0395,-25.9682"/>
</g>
<!-- Node17 -->
<g id="node18" class="node">
<title>Node17</title>
<polygon fill="#ffffff" stroke="#bfbfbf" points="1536.2495,-.5 1536.2495,-18.5 1648.4067,-18.5 1648.4067,-.5 1536.2495,-.5"/>
<text text-anchor="middle" x="1592.3281" y="-6.5" font-family="Helvetica,sans-Serif" font-size="10.00" fill="#000000">yarp/os/ConstString.h</text>
</g>
<!-- Node1&#45;&gt;Node17 -->
<g id="edge17" class="edge">
<title>Node1&#45;&gt;Node17</title>
<path fill="none" stroke="#191970" d="M1382.4946,-55.4795C1425.9008,-45.9681 1494.3577,-30.9676 1541.1964,-20.7042"/>
<polygon fill="#191970" stroke="#191970" points="1542.1201,-24.0849 1551.1392,-18.5255 1540.6217,-17.2471 1542.1201,-24.0849"/>
</g>
<!-- Node18 -->
<g id="node19" class="node">
<title>Node18</title>
<polygon fill="#ffffff" stroke="#bfbfbf" points="1665.9146,-.5 1665.9146,-18.5 1774.7417,-18.5 1774.7417,-.5 1665.9146,-.5"/>
<text text-anchor="middle" x="1720.3281" y="-6.5" font-family="Helvetica,sans-Serif" font-size="10.00" fill="#000000">yarp/os/LogStream.h</text>
</g>
<!-- Node1&#45;&gt;Node18 -->
<g id="edge18" class="edge">
<title>Node1&#45;&gt;Node18</title>
<path fill="none" stroke="#191970" d="M1401.3369,-55.9808C1462.7408,-47.2361 1561.2064,-33.1378 1655.6822,-19.2359"/>
<polygon fill="#191970" stroke="#191970" points="1656.3125,-22.6809 1665.6957,-17.761 1655.2924,-15.7557 1656.3125,-22.6809"/>
</g>
<!-- Node19 -->
<g id="node20" class="node">
<title>Node19</title>
<polygon fill="#ffffff" stroke="#bfbfbf" points="1793.2026,-.5 1793.2026,-18.5 1871.4536,-18.5 1871.4536,-.5 1793.2026,-.5"/>
<text text-anchor="middle" x="1832.3281" y="-6.5" font-family="Helvetica,sans-Serif" font-size="10.00" fill="#000000">yarp/os/Port.h</text>
</g>
<!-- Node1&#45;&gt;Node19 -->
<g id="edge19" class="edge">
<title>Node1&#45;&gt;Node19</title>
<path fill="none" stroke="#191970" d="M1401.2342,-60.0333C1484.4197,-53.4543 1639.8068,-39.8053 1782.7937,-18.9451"/>
<polygon fill="#191970" stroke="#191970" points="1783.6835,-22.3518 1793.0661,-17.4307 1782.6626,-15.4267 1783.6835,-22.3518"/>
</g>
<!-- Node20 -->
<g id="node21" class="node">
<title>Node20</title>
<polygon fill="#ffffff" stroke="#bfbfbf" points="1889.6978,-.5 1889.6978,-18.5 1992.9585,-18.5 1992.9585,-.5 1889.6978,-.5"/>
<text text-anchor="middle" x="1941.3281" y="-6.5" font-family="Helvetica,sans-Serif" font-size="10.00" fill="#000000">yarp/os/RpcClient.h</text>
</g>
<!-- Node1&#45;&gt;Node20 -->
<g id="edge20" class="edge">
<title>Node1&#45;&gt;Node20</title>
<path fill="none" stroke="#191970" d="M1401.2883,-60.8198C1499.1009,-54.5126 1699.2936,-40.3374 1879.2635,-19.0486"/>
<polygon fill="#191970" stroke="#191970" points="1879.9333,-22.4936 1889.4482,-17.8336 1879.104,-15.5429 1879.9333,-22.4936"/>
</g>
<!-- Node21 -->
<g id="node22" class="node">
<title>Node21</title>
<polygon fill="#ffffff" stroke="#bfbfbf" points="2010.5303,-.5 2010.5303,-18.5 2102.126,-18.5 2102.126,-.5 2010.5303,-.5"/>
<text text-anchor="middle" x="2056.3281" y="-6.5" font-family="Helvetica,sans-Serif" font-size="10.00" fill="#000000">yarp/os/Thread.h</text>
</g>
<!-- Node1&#45;&gt;Node21 -->
<g id="edge21" class="edge">
<title>Node1&#45;&gt;Node21</title>
<path fill="none" stroke="#191970" d="M1401.2296,-62.4926C1515.7826,-58.193 1773.9645,-46.2836 2000.3459,-19.1365"/>
<polygon fill="#191970" stroke="#191970" points="2000.9143,-22.5933 2010.4206,-17.9156 2000.0721,-15.6441 2000.9143,-22.5933"/>
</g>
<!-- Node22 -->
<g id="node23" class="node">
<title>Node22</title>
<polygon fill="#ffffff" stroke="#bfbfbf" points="2120.0771,-.5 2120.0771,-18.5 2230.5791,-18.5 2230.5791,-.5 2120.0771,-.5"/>
<text text-anchor="middle" x="2175.3281" y="-6.5" font-family="Helvetica,sans-Serif" font-size="10.00" fill="#000000">yarp/os/Searchable.h</text>
</g>
<!-- Node1&#45;&gt;Node22 -->
<g id="edge22" class="edge">
<title>Node1&#45;&gt;Node22</title>
<path fill="none" stroke="#191970" d="M1401.3786,-62.7576C1529.6185,-58.6452 1839.8929,-46.6113 2109.8728,-19.0676"/>
<polygon fill="#191970" stroke="#191970" points="2110.274,-22.5449 2119.863,-18.0393 2109.5572,-15.5816 2110.274,-22.5449"/>
</g>
<!-- Node23 -->
<g id="node24" class="node">
<title>Node23</title>
<polygon fill="#ffffff" stroke="#bfbfbf" points="2248.3652,-.5 2248.3652,-18.5 2338.291,-18.5 2338.291,-.5 2248.3652,-.5"/>
<text text-anchor="middle" x="2293.3281" y="-6.5" font-family="Helvetica,sans-Serif" font-size="10.00" fill="#000000">yarp/sig/Image.h</text>
</g>
<!-- Node1&#45;&gt;Node23 -->
<g id="edge23" class="edge">
<title>Node1&#45;&gt;Node23</title>
<path fill="none" stroke="#191970" d="M1401.4383,-64.0139C1544.6707,-62.3047 1917.4651,-54.6109 2238.351,-18.9658"/>
<polygon fill="#191970" stroke="#191970" points="2238.7597,-22.442 2248.3072,-17.8489 2237.9793,-15.4856 2238.7597,-22.442"/>
</g>
<!-- Node24 -->
<g id="node25" class="node">
<title>Node24</title>
<polygon fill="#ffffff" stroke="#bfbfbf" points="2356.6509,-.5 2356.6509,-18.5 2446.0054,-18.5 2446.0054,-.5 2356.6509,-.5"/>
<text text-anchor="middle" x="2401.3281" y="-6.5" font-family="Helvetica,sans-Serif" font-size="10.00" fill="#000000">yarp/sig/Matrix.h</text>
</g>
<!-- Node1&#45;&gt;Node24 -->
<g id="edge24" class="edge">
<title>Node1&#45;&gt;Node24</title>
<path fill="none" stroke="#191970" d="M1401.2766,-62.805C1585.6123,-57.4354 2143.3149,-39.9724 2346.6132,-18.8965"/>
<polygon fill="#191970" stroke="#191970" points="2347.0327,-22.3717 2356.6028,-17.826 2346.2868,-15.4115 2347.0327,-22.3717"/>
</g>
<!-- Node25 -->
<g id="node26" class="node">
<title>Node25</title>
<polygon fill="#ffffff" stroke="#bfbfbf" points="2464.3579,-.5 2464.3579,-18.5 2554.2983,-18.5 2554.2983,-.5 2464.3579,-.5"/>
<text text-anchor="middle" x="2509.3281" y="-6.5" font-family="Helvetica,sans-Serif" font-size="10.00" fill="#000000">yarp/sig/Vector.h</text>
</g>
<!-- Node1&#45;&gt;Node25 -->
<g id="edge25" class="edge">
<title>Node1&#45;&gt;Node25</title>
<path fill="none" stroke="#191970" d="M1401.2778,-63.1071C1598.7793,-58.3553 2228.7406,-41.8579 2454.2048,-18.9433"/>
<polygon fill="#191970" stroke="#191970" points="2454.731,-22.4074 2464.3109,-17.8822 2454,-15.4456 2454.731,-22.4074"/>
</g>
</g>
</svg>
        <g id="navigator" transform="translate(0 0)" fill="#404254">
                <rect fill="#f2f5e9" fill-opacity="0.5" stroke="#606060" stroke-width=".5" x="0" y="0" width="60" height="60"/>
                <use id="zoomplus" xlink:href="#zoomPlus" x="17" y="9" onmousedown="handleZoom(evt,'in')"/>
                <use id="zoomminus" xlink:href="#zoomMin" x="42" y="9" onmousedown="handleZoom(evt,'out')"/>
                <use id="reset" xlink:href="#resetDef" x="30" y="36" onmousedown="handleReset()"/>
                <g id="arrowUp" xlink:href="#dirArrow" transform="translate(30 24)" onmousedown="handlePan(0,-1)">
                  <use xlink:href="#rim" fill="#404040">
                        <set attributeName="fill" to="#808080" begin="arrowUp.mouseover" end="arrowUp.mouseout"/>
                  </use>
                  <path fill="none" stroke="white" stroke-width="1.5" d="M0,-3.0v7 M-2.5,-0.5L0,-3.0L2.5,-0.5"/>
                </g>
                <g id="arrowRight" xlink:href="#dirArrow" transform="rotate(90) translate(36 -43)" onmousedown="handlePan(1,0)">
                  <use xlink:href="#rim" fill="#404040">
                        <set attributeName="fill" to="#808080" begin="arrowRight.mouseover" end="arrowRight.mouseout"/>
                  </use>
                  <path fill="none" stroke="white" stroke-width="1.5" d="M0,-3.0v7 M-2.5,-0.5L0,-3.0L2.5,-0.5"/>
                </g>
                <g id="arrowDown" xlink:href="#dirArrow" transform="rotate(180) translate(-30 -48)" onmousedown="handlePan(0,1)">
                  <use xlink:href="#rim" fill="#404040">
                        <set attributeName="fill" to="#808080" begin="arrowDown.mouseover" end="arrowDown.mouseout"/>
                  </use>
                  <path fill="none" stroke="white" stroke-width="1.5" d="M0,-3.0v7 M-2.5,-0.5L0,-3.0L2.5,-0.5"/>
                </g>
                <g id="arrowLeft" xlink:href="#dirArrow" transform="rotate(270) translate(-36 17)" onmousedown="handlePan(-1,0)">
                  <use xlink:href="#rim" fill="#404040">
                        <set attributeName="fill" to="#808080" begin="arrowLeft.mouseover" end="arrowLeft.mouseout"/>
                  </use>
                  <path fill="none" stroke="white" stroke-width="1.5" d="M0,-3.0v7 M-2.5,-0.5L0,-3.0L2.5,-0.5"/>
                </g>
        </g>
        <svg viewBox="0 0 15 15" width="100%" height="30px" preserveAspectRatio="xMaxYMin meet">
         <g id="arrow_out" transform="scale(0.3 0.3)">
          <a xlink:href="VisualServoingServer_8cpp__incl_org.svg" target="_base">
           <rect id="button" ry="5" rx="5" y="6" x="6" height="38" width="38"
                fill="#f2f5e9" fill-opacity="0.5" stroke="#606060" stroke-width="1.0"/>
           <path id="arrow"
             d="M 11.500037,31.436501 C 11.940474,20.09759 22.043105,11.32322 32.158766,21.979434 L 37.068811,17.246167 C 37.068811,17.246167 37.088388,32 37.088388,32 L 22.160133,31.978069 C 22.160133,31.978069 26.997745,27.140456 26.997745,27.140456 C 18.528582,18.264221 13.291696,25.230495 11.500037,31.436501 z"
             style="fill:#404040;"/>
          </a>
         </g>
        </svg>
</svg>
