<?xml version="1.0" encoding="UTF-8" standalone="no"?>
<!DOCTYPE svg PUBLIC "-//W3C//DTD SVG 1.1//EN"
 "http://www.w3.org/Graphics/SVG/1.1/DTD/svg11.dtd">
<!-- Generated by graphviz version 2.40.1 (20161225.0304)
 -->
<!-- Title: idl_dox/VisualSISParticleFilterIDL.h Pages: 1 -->
<svg width="226pt" height="92pt"
 viewBox="0.00 0.00 226.20 92.00" xmlns="http://www.w3.org/2000/svg" xmlns:xlink="http://www.w3.org/1999/xlink">
<g id="graph0" class="graph" transform="scale(1 1) rotate(0) translate(4 88)">
<title>idl_dox/VisualSISParticleFilterIDL.h</title>
<polygon fill="#ffffff" stroke="transparent" points="-4,4 -4,-88 222.1968,-88 222.1968,4 -4,4"/>
<!-- Node0 -->
<g id="node1" class="node">
<title>Node0</title>
<polygon fill="#bfbfbf" stroke="#000000" points="35.7358,-55.5 35.7358,-83.5 162.7271,-83.5 162.7271,-55.5 35.7358,-55.5"/>
<text text-anchor="start" x="43.7358" y="-71.5" font-family="Helvetica,sans-Serif" font-size="10.00" fill="#000000">idl_dox/VisualSISParticle</text>
<text text-anchor="middle" x="99.2314" y="-61.5" font-family="Helvetica,sans-Serif" font-size="10.00" fill="#000000">FilterIDL.h</text>
</g>
<!-- Node1 -->
<g id="node2" class="node">
<title>Node1</title>
<polygon fill="#ffffff" stroke="#bfbfbf" points="0,-.5 0,-18.5 80.4629,-18.5 80.4629,-.5 0,-.5"/>
<text text-anchor="middle" x="40.2314" y="-6.5" font-family="Helvetica,sans-Serif" font-size="10.00" fill="#000000">yarp/os/Wire.h</text>
</g>
<!-- Node0&#45;&gt;Node1 -->
<g id="edge1" class="edge">
<title>Node0&#45;&gt;Node1</title>
<path fill="none" stroke="#191970" d="M85.2493,-55.2808C76.6045,-46.4896 65.4744,-35.1708 56.4441,-25.9875"/>
<polygon fill="#191970" stroke="#191970" points="58.6713,-23.2605 49.1642,-18.5842 53.6801,-28.1685 58.6713,-23.2605"/>
</g>
<!-- Node2 -->
<g id="node3" class="node">
<title>Node2</title>
<polygon fill="#ffffff" stroke="#bfbfbf" points="98.2661,-.5 98.2661,-18.5 218.1968,-18.5 218.1968,-.5 98.2661,-.5"/>
<text text-anchor="middle" x="158.2314" y="-6.5" font-family="Helvetica,sans-Serif" font-size="10.00" fill="#000000">yarp/os/idl/WireTypes.h</text>
</g>
<!-- Node0&#45;&gt;Node2 -->
<g id="edge2" class="edge">
<title>Node0&#45;&gt;Node2</title>
<path fill="none" stroke="#191970" d="M113.2136,-55.2808C121.8584,-46.4896 132.9885,-35.1708 142.0188,-25.9875"/>
<polygon fill="#191970" stroke="#191970" points="144.7828,-28.1685 149.2987,-18.5842 139.7916,-23.2605 144.7828,-28.1685"/>
</g>
</g>
</svg>
