<?xml version="1.0" encoding="UTF-8" standalone="no"?>
<!DOCTYPE svg PUBLIC "-//W3C//DTD SVG 1.1//EN"
 "http://www.w3.org/Graphics/SVG/1.1/DTD/svg11.dtd">
<!-- Generated by graphviz version 2.40.1 (20161225.0304)
 -->
<!-- Title: /Users/Claudio/GitHub/visual&#45;tracking&#45;control/src/hand&#45;tracking/include/VisualUpdateParticles.h Pages: 1 -->
<svg width="1813pt" height="177pt"
 viewBox="0.00 0.00 1813.23 177.00" xmlns="http://www.w3.org/2000/svg" xmlns:xlink="http://www.w3.org/1999/xlink">
<g id="graph0" class="graph" transform="scale(1 1) rotate(0) translate(4 173)">
<title>/Users/Claudio/GitHub/visual&#45;tracking&#45;control/src/hand&#45;tracking/include/VisualUpdateParticles.h</title>
<polygon fill="#ffffff" stroke="transparent" points="-4,4 -4,-173 1809.2261,-173 1809.2261,4 -4,4"/>
<!-- Node0 -->
<g id="node1" class="node">
<title>Node0</title>
<polygon fill="#bfbfbf" stroke="#000000" points="1122.2539,-120.5 1122.2539,-168.5 1252.1992,-168.5 1252.1992,-120.5 1122.2539,-120.5"/>
<text text-anchor="start" x="1130.2539" y="-156.5" font-family="Helvetica,sans-Serif" font-size="10.00" fill="#000000">/Users/Claudio/GitHub</text>
<text text-anchor="start" x="1130.2539" y="-146.5" font-family="Helvetica,sans-Serif" font-size="10.00" fill="#000000">/visual&#45;tracking&#45;control</text>
<text text-anchor="start" x="1130.2539" y="-136.5" font-family="Helvetica,sans-Serif" font-size="10.00" fill="#000000">/src/hand&#45;tracking/include</text>
<text text-anchor="middle" x="1187.2266" y="-126.5" font-family="Helvetica,sans-Serif" font-size="10.00" fill="#000000">/VisualUpdateParticles.h</text>
</g>
<!-- Node1 -->
<g id="node2" class="node">
<title>Node1</title>
<g id="a_node2"><a xlink:href="VisualProprioception_8h.html" target="_top" xlink:title="VisualProprioception.h">
<polygon fill="#ffffff" stroke="#000000" points="793.2852,-65.5 793.2852,-83.5 909.168,-83.5 909.168,-65.5 793.2852,-65.5"/>
<text text-anchor="middle" x="851.2266" y="-71.5" font-family="Helvetica,sans-Serif" font-size="10.00" fill="#000000">VisualProprioception.h</text>
</a>
</g>
</g>
<!-- Node0&#45;&gt;Node1 -->
<g id="edge1" class="edge">
<title>Node0&#45;&gt;Node1</title>
<path fill="none" stroke="#191970" d="M1122.044,-130.9203C1058.722,-117.7282 963.7354,-97.9393 904.7189,-85.6442"/>
<polygon fill="#191970" stroke="#191970" points="905.3542,-82.2015 894.8506,-83.5883 903.9265,-89.0544 905.3542,-82.2015"/>
</g>
<!-- Node15 -->
<g id="node16" class="node">
<title>Node15</title>
<polygon fill="#ffffff" stroke="#bfbfbf" points="926.9214,-65.5 926.9214,-83.5 1023.5317,-83.5 1023.5317,-65.5 926.9214,-65.5"/>
<text text-anchor="middle" x="975.2266" y="-71.5" font-family="Helvetica,sans-Serif" font-size="10.00" fill="#000000">condition_variable</text>
</g>
<!-- Node0&#45;&gt;Node15 -->
<g id="edge15" class="edge">
<title>Node0&#45;&gt;Node15</title>
<path fill="none" stroke="#191970" d="M1122.1788,-123.022C1086.0921,-111.1065 1042.5224,-96.7203 1012.2368,-86.7204"/>
<polygon fill="#191970" stroke="#191970" points="1013.0985,-83.3191 1002.5053,-83.5071 1010.9037,-89.9661 1013.0985,-83.3191"/>
</g>
<!-- Node16 -->
<g id="node17" class="node">
<title>Node16</title>
<polygon fill="#ffffff" stroke="#bfbfbf" points="1041.6108,-65.5 1041.6108,-83.5 1084.8423,-83.5 1084.8423,-65.5 1041.6108,-65.5"/>
<text text-anchor="middle" x="1063.2266" y="-71.5" font-family="Helvetica,sans-Serif" font-size="10.00" fill="#000000">mutex</text>
</g>
<!-- Node0&#45;&gt;Node16 -->
<g id="edge16" class="edge">
<title>Node0&#45;&gt;Node16</title>
<path fill="none" stroke="#191970" d="M1144.5528,-120.41C1125.6956,-109.7648 1104.1883,-97.6235 1088.0292,-88.5015"/>
<polygon fill="#191970" stroke="#191970" points="1089.6223,-85.3817 1079.1934,-83.5136 1086.1811,-91.4774 1089.6223,-85.3817"/>
</g>
<!-- Node17 -->
<g id="node18" class="node">
<title>Node17</title>
<polygon fill="#ffffff" stroke="#bfbfbf" points="1103.0493,-65.5 1103.0493,-83.5 1147.4038,-83.5 1147.4038,-65.5 1103.0493,-65.5"/>
<text text-anchor="middle" x="1125.2266" y="-71.5" font-family="Helvetica,sans-Serif" font-size="10.00" fill="#000000">thread</text>
</g>
<!-- Node0&#45;&gt;Node17 -->
<g id="edge17" class="edge">
<title>Node0&#45;&gt;Node17</title>
<path fill="none" stroke="#191970" d="M1165.8897,-120.41C1157.3954,-110.8196 1147.8255,-100.015 1140.1045,-91.2977"/>
<polygon fill="#191970" stroke="#191970" points="1142.6143,-88.8525 1133.3638,-83.6872 1137.3742,-93.4938 1142.6143,-88.8525"/>
</g>
<!-- Node18 -->
<g id="node19" class="node">
<title>Node18</title>
<polygon fill="#ffffff" stroke="#bfbfbf" points="1165.1768,-65.5 1165.1768,-83.5 1333.2764,-83.5 1333.2764,-65.5 1165.1768,-65.5"/>
<text text-anchor="middle" x="1249.2266" y="-71.5" font-family="Helvetica,sans-Serif" font-size="10.00" fill="#000000">BayesFilters/PFVisualCorrection.h</text>
</g>
<!-- Node0&#45;&gt;Node18 -->
<g id="edge18" class="edge">
<title>Node0&#45;&gt;Node18</title>
<path fill="none" stroke="#191970" d="M1208.5634,-120.41C1217.0578,-110.8196 1226.6276,-100.015 1234.3486,-91.2977"/>
<polygon fill="#191970" stroke="#191970" points="1237.079,-93.4938 1241.0893,-83.6872 1231.8388,-88.8525 1237.079,-93.4938"/>
</g>
<!-- Node19 -->
<g id="node20" class="node">
<title>Node19</title>
<polygon fill="#ffffff" stroke="#bfbfbf" points="1351.2441,-65.5 1351.2441,-83.5 1471.209,-83.5 1471.209,-65.5 1351.2441,-65.5"/>
<text text-anchor="middle" x="1411.2266" y="-71.5" font-family="Helvetica,sans-Serif" font-size="10.00" fill="#000000">opencv2/core/cuda.hpp</text>
</g>
<!-- Node0&#45;&gt;Node19 -->
<g id="edge19" class="edge">
<title>Node0&#45;&gt;Node19</title>
<path fill="none" stroke="#191970" d="M1252.3175,-124.1591C1291.2995,-111.9772 1339.5351,-96.9036 1372.5731,-86.5792"/>
<polygon fill="#191970" stroke="#191970" points="1373.8104,-89.8595 1382.3113,-83.536 1371.7225,-83.1782 1373.8104,-89.8595"/>
</g>
<!-- Node20 -->
<g id="node21" class="node">
<title>Node20</title>
<polygon fill="#ffffff" stroke="#bfbfbf" points="1489.0669,-65.5 1489.0669,-83.5 1627.3862,-83.5 1627.3862,-65.5 1489.0669,-65.5"/>
<text text-anchor="middle" x="1558.2266" y="-71.5" font-family="Helvetica,sans-Serif" font-size="10.00" fill="#000000">opencv2/cudaobjdetect.hpp</text>
</g>
<!-- Node0&#45;&gt;Node20 -->
<g id="edge20" class="edge">
<title>Node0&#45;&gt;Node20</title>
<path fill="none" stroke="#191970" d="M1252.2744,-132.2268C1322.4464,-118.9868 1433.1335,-98.1025 1500.3749,-85.4154"/>
<polygon fill="#191970" stroke="#191970" points="1501.1979,-88.822 1510.3756,-83.5285 1499.9,-81.9433 1501.1979,-88.822"/>
</g>
<!-- Node21 -->
<g id="node22" class="node">
<title>Node21</title>
<polygon fill="#ffffff" stroke="#bfbfbf" points="1645.2271,-65.5 1645.2271,-83.5 1805.2261,-83.5 1805.2261,-65.5 1645.2271,-65.5"/>
<text text-anchor="middle" x="1725.2266" y="-71.5" font-family="Helvetica,sans-Serif" font-size="10.00" fill="#000000">opencv2/objdetect/objdetect.hpp</text>
</g>
<!-- Node0&#45;&gt;Node21 -->
<g id="edge21" class="edge">
<title>Node0&#45;&gt;Node21</title>
<path fill="none" stroke="#191970" d="M1252.3898,-136.0215C1351.3098,-123.1509 1539.1166,-98.7151 1645.8579,-84.8268"/>
<polygon fill="#191970" stroke="#191970" points="1646.4642,-88.2775 1655.929,-83.5164 1645.561,-81.336 1646.4642,-88.2775"/>
</g>
<!-- Node2 -->
<g id="node3" class="node">
<title>Node2</title>
<polygon fill="#ffffff" stroke="#bfbfbf" points="0,-5.5 0,-23.5 40.4531,-23.5 40.4531,-5.5 0,-5.5"/>
<text text-anchor="middle" x="20.2266" y="-11.5" font-family="Helvetica,sans-Serif" font-size="10.00" fill="#000000">string</text>
</g>
<!-- Node1&#45;&gt;Node2 -->
<g id="edge2" class="edge">
<title>Node1&#45;&gt;Node2</title>
<path fill="none" stroke="#191970" d="M793.2485,-74.1429C633.7203,-72.6949 190.7928,-65.4146 50.2266,-29 48.5711,-28.5711 46.8979,-28.048 45.2331,-27.458"/>
<polygon fill="#191970" stroke="#191970" points="46.5466,-24.2134 35.9732,-23.5398 43.8188,-30.66 46.5466,-24.2134"/>
</g>
<!-- Node3 -->
<g id="node4" class="node">
<title>Node3</title>
<polygon fill="#ffffff" stroke="#bfbfbf" points="58.8418,-.5 58.8418,-28.5 213.6113,-28.5 213.6113,-.5 58.8418,-.5"/>
<text text-anchor="start" x="66.8418" y="-16.5" font-family="Helvetica,sans-Serif" font-size="10.00" fill="#000000">BayesFilters/VisualObservation</text>
<text text-anchor="middle" x="136.2266" y="-6.5" font-family="Helvetica,sans-Serif" font-size="10.00" fill="#000000">Model.h</text>
</g>
<!-- Node1&#45;&gt;Node3 -->
<g id="edge3" class="edge">
<title>Node1&#45;&gt;Node3</title>
<path fill="none" stroke="#191970" d="M793.0456,-72.0914C683.7116,-67.1715 439.946,-54.3365 224.2145,-29.0375"/>
<polygon fill="#191970" stroke="#191970" points="224.3057,-25.524 213.9635,-27.8234 223.4823,-32.4754 224.3057,-25.524"/>
</g>
<!-- Node4 -->
<g id="node5" class="node">
<title>Node4</title>
<polygon fill="#ffffff" stroke="#bfbfbf" points="231.8745,-5.5 231.8745,-23.5 334.5786,-23.5 334.5786,-5.5 231.8745,-5.5"/>
<text text-anchor="middle" x="283.2266" y="-11.5" font-family="Helvetica,sans-Serif" font-size="10.00" fill="#000000">iCub/iKin/iKinFwd.h</text>
</g>
<!-- Node1&#45;&gt;Node4 -->
<g id="edge4" class="edge">
<title>Node1&#45;&gt;Node4</title>
<path fill="none" stroke="#191970" d="M792.9744,-72.0845C698.1777,-67.5272 504.8621,-55.6197 343.2266,-29 337.8073,-28.1075 332.1532,-26.9912 326.5755,-25.7765"/>
<polygon fill="#191970" stroke="#191970" points="327.2143,-22.3323 316.6852,-23.5109 325.6512,-29.1555 327.2143,-22.3323"/>
</g>
<!-- Node5 -->
<g id="node6" class="node">
<title>Node5</title>
<polygon fill="#ffffff" stroke="#bfbfbf" points="352.3599,-5.5 352.3599,-23.5 470.0933,-23.5 470.0933,-5.5 352.3599,-5.5"/>
<text text-anchor="middle" x="411.2266" y="-11.5" font-family="Helvetica,sans-Serif" font-size="10.00" fill="#000000">opencv2/core/core.hpp</text>
</g>
<!-- Node1&#45;&gt;Node5 -->
<g id="edge5" class="edge">
<title>Node1&#45;&gt;Node5</title>
<path fill="none" stroke="#191970" d="M793.1607,-69.0837C719.5923,-61.8393 589.0291,-47.7073 478.2266,-29 472.3627,-28.01 466.2353,-26.854 460.1706,-25.6346"/>
<polygon fill="#191970" stroke="#191970" points="460.5838,-22.1458 450.0812,-23.5405 459.1612,-28.9997 460.5838,-22.1458"/>
</g>
<!-- Node6 -->
<g id="node7" class="node">
<title>Node6</title>
<polygon fill="#ffffff" stroke="#bfbfbf" points="487.6997,-5.5 487.6997,-23.5 628.7534,-23.5 628.7534,-5.5 487.6997,-5.5"/>
<text text-anchor="middle" x="558.2266" y="-11.5" font-family="Helvetica,sans-Serif" font-size="10.00" fill="#000000">SuperimposeMesh/SICAD.h</text>
</g>
<!-- Node1&#45;&gt;Node6 -->
<g id="edge6" class="edge">
<title>Node1&#45;&gt;Node6</title>
<path fill="none" stroke="#191970" d="M807.0443,-65.4524C754.9711,-54.789 668.45,-37.0714 612.3871,-25.5909"/>
<polygon fill="#191970" stroke="#191970" points="612.7874,-22.1003 602.2886,-23.5229 611.3831,-28.958 612.7874,-22.1003"/>
</g>
<!-- Node7 -->
<g id="node8" class="node">
<title>Node7</title>
<polygon fill="#ffffff" stroke="#bfbfbf" points="646.4214,-5.5 646.4214,-23.5 768.0317,-23.5 768.0317,-5.5 646.4214,-5.5"/>
<text text-anchor="middle" x="707.2266" y="-11.5" font-family="Helvetica,sans-Serif" font-size="10.00" fill="#000000">yarp/dev/GazeControl.h</text>
</g>
<!-- Node1&#45;&gt;Node7 -->
<g id="edge7" class="edge">
<title>Node1&#45;&gt;Node7</title>
<path fill="none" stroke="#191970" d="M829.3561,-65.3873C805.1107,-55.2851 765.8096,-38.9096 738.3586,-27.4717"/>
<polygon fill="#191970" stroke="#191970" points="739.408,-24.1173 728.8311,-23.5019 736.7157,-30.5789 739.408,-24.1173"/>
</g>
<!-- Node8 -->
<g id="node9" class="node">
<title>Node8</title>
<polygon fill="#ffffff" stroke="#bfbfbf" points="785.9634,-5.5 785.9634,-23.5 916.4897,-23.5 916.4897,-5.5 785.9634,-5.5"/>
<text text-anchor="middle" x="851.2266" y="-11.5" font-family="Helvetica,sans-Serif" font-size="10.00" fill="#000000">yarp/dev/IAnalogSensor.h</text>
</g>
<!-- Node1&#45;&gt;Node8 -->
<g id="edge8" class="edge">
<title>Node1&#45;&gt;Node8</title>
<path fill="none" stroke="#191970" d="M851.2266,-65.3873C851.2266,-57.0174 851.2266,-44.3414 851.2266,-33.735"/>
<polygon fill="#191970" stroke="#191970" points="854.7267,-33.6984 851.2266,-23.6985 847.7267,-33.6985 854.7267,-33.6984"/>
</g>
<!-- Node9 -->
<g id="node10" class="node">
<title>Node9</title>
<polygon fill="#ffffff" stroke="#bfbfbf" points="934.7046,-5.5 934.7046,-23.5 1045.7485,-23.5 1045.7485,-5.5 934.7046,-5.5"/>
<text text-anchor="middle" x="990.2266" y="-11.5" font-family="Helvetica,sans-Serif" font-size="10.00" fill="#000000">yarp/dev/PolyDriver.h</text>
</g>
<!-- Node1&#45;&gt;Node9 -->
<g id="edge9" class="edge">
<title>Node1&#45;&gt;Node9</title>
<path fill="none" stroke="#191970" d="M872.3377,-65.3873C895.7412,-55.2851 933.6777,-38.9096 960.1755,-27.4717"/>
<polygon fill="#191970" stroke="#191970" points="961.5781,-30.6784 969.3722,-23.5019 958.8039,-24.2516 961.5781,-30.6784"/>
</g>
<!-- Node10 -->
<g id="node11" class="node">
<title>Node10</title>
<polygon fill="#ffffff" stroke="#bfbfbf" points="1063.4854,-5.5 1063.4854,-23.5 1148.9678,-23.5 1148.9678,-5.5 1063.4854,-5.5"/>
<text text-anchor="middle" x="1106.2266" y="-11.5" font-family="Helvetica,sans-Serif" font-size="10.00" fill="#000000">yarp/os/Bottle.h</text>
</g>
<!-- Node1&#45;&gt;Node10 -->
<g id="edge10" class="edge">
<title>Node1&#45;&gt;Node10</title>
<path fill="none" stroke="#191970" d="M895.173,-65.4622C936.6045,-56.7612 1000.354,-42.9076 1055.2266,-29 1058.6312,-28.1371 1062.1539,-27.2093 1065.6839,-26.2551"/>
<polygon fill="#191970" stroke="#191970" points="1066.8516,-29.5637 1075.5592,-23.5281 1064.9883,-22.8162 1066.8516,-29.5637"/>
</g>
<!-- Node11 -->
<g id="node12" class="node">
<title>Node11</title>
<polygon fill="#ffffff" stroke="#bfbfbf" points="1167.2876,-5.5 1167.2876,-23.5 1283.1655,-23.5 1283.1655,-5.5 1167.2876,-5.5"/>
<text text-anchor="middle" x="1225.2266" y="-11.5" font-family="Helvetica,sans-Serif" font-size="10.00" fill="#000000">yarp/os/BufferedPort.h</text>
</g>
<!-- Node1&#45;&gt;Node11 -->
<g id="edge11" class="edge">
<title>Node1&#45;&gt;Node11</title>
<path fill="none" stroke="#191970" d="M909.3421,-66.0984C991.4968,-54.1891 1134.3063,-33.3561 1158.2266,-29 1163.9272,-27.9619 1169.8829,-26.7941 1175.7905,-25.5836"/>
<polygon fill="#191970" stroke="#191970" points="1176.5637,-28.9977 1185.6335,-23.5215 1175.1283,-22.1465 1176.5637,-28.9977"/>
</g>
<!-- Node12 -->
<g id="node13" class="node">
<title>Node12</title>
<polygon fill="#ffffff" stroke="#bfbfbf" points="1301.1479,-5.5 1301.1479,-23.5 1413.3052,-23.5 1413.3052,-5.5 1301.1479,-5.5"/>
<text text-anchor="middle" x="1357.2266" y="-11.5" font-family="Helvetica,sans-Serif" font-size="10.00" fill="#000000">yarp/os/ConstString.h</text>
</g>
<!-- Node1&#45;&gt;Node12 -->
<g id="edge12" class="edge">
<title>Node1&#45;&gt;Node12</title>
<path fill="none" stroke="#191970" d="M909.3104,-66.1016C912.3242,-65.7167 915.3101,-65.347 918.2266,-65 1084.0478,-45.2734 1127.3088,-55.229 1292.2266,-29 1298.1517,-28.0576 1304.3455,-26.9016 1310.4555,-25.6571"/>
<polygon fill="#191970" stroke="#191970" points="1311.5431,-29.0042 1320.5969,-23.5015 1310.0877,-22.1572 1311.5431,-29.0042"/>
</g>
<!-- Node13 -->
<g id="node14" class="node">
<title>Node13</title>
<polygon fill="#ffffff" stroke="#bfbfbf" points="1431.5493,-5.5 1431.5493,-23.5 1520.9038,-23.5 1520.9038,-5.5 1431.5493,-5.5"/>
<text text-anchor="middle" x="1476.2266" y="-11.5" font-family="Helvetica,sans-Serif" font-size="10.00" fill="#000000">yarp/sig/Matrix.h</text>
</g>
<!-- Node1&#45;&gt;Node13 -->
<g id="edge13" class="edge">
<title>Node1&#45;&gt;Node13</title>
<path fill="none" stroke="#191970" d="M909.3005,-66.0137C912.3169,-65.6518 915.306,-65.311 918.2266,-65 1141.5349,-41.2222 1200.7734,-66.2891 1422.2266,-29 1427.0008,-28.1961 1431.9644,-27.1551 1436.8623,-25.9998"/>
<polygon fill="#191970" stroke="#191970" points="1437.9021,-29.3472 1446.7422,-23.5075 1436.1899,-22.5599 1437.9021,-29.3472"/>
</g>
<!-- Node14 -->
<g id="node15" class="node">
<title>Node14</title>
<polygon fill="#ffffff" stroke="#bfbfbf" points="1539.2563,-5.5 1539.2563,-23.5 1629.1968,-23.5 1629.1968,-5.5 1539.2563,-5.5"/>
<text text-anchor="middle" x="1584.2266" y="-11.5" font-family="Helvetica,sans-Serif" font-size="10.00" fill="#000000">yarp/sig/Vector.h</text>
</g>
<!-- Node1&#45;&gt;Node14 -->
<g id="edge14" class="edge">
<title>Node1&#45;&gt;Node14</title>
<path fill="none" stroke="#191970" d="M909.2959,-65.9689C912.3135,-65.6187 915.3041,-65.2926 918.2266,-65 1189.3409,-37.8515 1261.2602,-72.5556 1530.2266,-29 1535.0626,-28.2169 1540.0906,-27.179 1545.0469,-26.0172"/>
<polygon fill="#191970" stroke="#191970" points="1546.1936,-29.3377 1555.0353,-23.5004 1544.4832,-22.5499 1546.1936,-29.3377"/>
</g>
</g>
</svg>
