<?xml version="1.0" encoding="UTF-8" standalone="no"?>
<!DOCTYPE svg PUBLIC "-//W3C//DTD SVG 1.1//EN"
 "http://www.w3.org/Graphics/SVG/1.1/DTD/svg11.dtd">
<!-- Generated by graphviz version 2.40.1 (20161225.0304)
 -->
<!-- Title: /Users/Claudio/GitHub/visual&#45;tracking&#45;control/src/hand&#45;tracking/src/VisualProprioception.cpp Pages: 1 -->
<!--zoomable 167 -->
<svg id="main" version="1.1" xmlns="http://www.w3.org/2000/svg" xmlns:xlink="http://www.w3.org/1999/xlink" xml:space="preserve" onload="init(evt)">
<style type="text/css"><![CDATA[
.edge:hover path { stroke: red; }
.edge:hover polygon { stroke: red; fill: red; }
]]></style>
<script type="text/javascript"><![CDATA[
var edges = document.getElementsByTagName('g');
if (edges && edges.length) {
  for (var i=0;i<edges.length;i++) {
    if (edges[i].id.substr(0,4)=='edge') {
      edges[i].setAttribute('class','edge');
    }
  }
}
]]></script>
        <defs>
                <circle id="rim" cx="0" cy="0" r="7"/>
                <circle id="rim2" cx="0" cy="0" r="3.5"/>
                <g id="zoomPlus">
                        <use xlink:href="#rim" fill="#404040">
                                <set attributeName="fill" to="#808080" begin="zoomplus.mouseover" end="zoomplus.mouseout"/>
                        </use>
                        <path d="M-4,0h8M0,-4v8" fill="none" stroke="white" stroke-width="1.5" pointer-events="none"/>
                </g>
                <g id="zoomMin">
                        <use xlink:href="#rim" fill="#404040">
                                <set attributeName="fill" to="#808080" begin="zoomminus.mouseover" end="zoomminus.mouseout"/>
                        </use>
                        <path d="M-4,0h8" fill="none" stroke="white" stroke-width="1.5" pointer-events="none"/>
                </g>
                <g id="dirArrow">
                        <path fill="none" stroke="white" stroke-width="1.5" d="M0,-3.0v7 M-2.5,-0.5L0,-3.0L2.5,-0.5"/>
                </g>
               <g id="resetDef">
                       <use xlink:href="#rim2" fill="#404040">
                               <set attributeName="fill" to="#808080" begin="reset.mouseover" end="reset.mouseout"/>
                       </use>
               </g>
        </defs>

<script type="text/javascript">
var viewWidth = 1791;
var viewHeight = 167;
var sectionId = 'dynsection-0';
</script>
<script xlink:href="svgpan.js"/>
<svg id="graph" class="graph">
<g id="viewport">
<title>/Users/Claudio/GitHub/visual&#45;tracking&#45;control/src/hand&#45;tracking/src/VisualProprioception.cpp</title>
<polygon fill="#ffffff" stroke="transparent" points="-4,4 -4,-163 1787.48,-163 1787.48,4 -4,4"/>
<!-- Node0 -->
<g id="node1" class="node">
<title>Node0</title>
<polygon fill="#bfbfbf" stroke="#000000" points="1085.8223,-120.5 1085.8223,-158.5 1310.6309,-158.5 1310.6309,-120.5 1085.8223,-120.5"/>
<text text-anchor="start" x="1093.8223" y="-146.5" font-family="Helvetica,sans-Serif" font-size="10.00" fill="#000000">/Users/Claudio/GitHub</text>
<text text-anchor="start" x="1093.8223" y="-136.5" font-family="Helvetica,sans-Serif" font-size="10.00" fill="#000000">/visual&#45;tracking&#45;control</text>
<text text-anchor="middle" x="1198.2266" y="-126.5" font-family="Helvetica,sans-Serif" font-size="10.00" fill="#000000">/src/hand&#45;tracking/src/VisualProprioception.cpp</text>
</g>
<!-- Node1 -->
<g id="node2" class="node">
<title>Node1</title>
<g id="a_node2"><a xlink:href="VisualProprioception_8h.html" target="_top" xlink:title="VisualProprioception.h">
<polygon fill="#ffffff" stroke="#000000" points="793.2852,-65.5 793.2852,-83.5 909.168,-83.5 909.168,-65.5 793.2852,-65.5"/>
<text text-anchor="middle" x="851.2266" y="-71.5" font-family="Helvetica,sans-Serif" font-size="10.00" fill="#000000">VisualProprioception.h</text>
</a>
</g>
</g>
<!-- Node0&#45;&gt;Node1 -->
<g id="edge1" class="edge">
<title>Node0&#45;&gt;Node1</title>
<path fill="none" stroke="#191970" d="M1096.4597,-120.437C1035.5283,-109.0234 960.2709,-94.9262 909.316,-85.3813"/>
<polygon fill="#191970" stroke="#191970" points="909.9339,-81.9363 899.4605,-83.5352 908.6451,-88.8166 909.9339,-81.9363"/>
</g>
<!-- Node15 -->
<g id="node16" class="node">
<title>Node15</title>
<polygon fill="#ffffff" stroke="#bfbfbf" points="927.6108,-65.5 927.6108,-83.5 970.8423,-83.5 970.8423,-65.5 927.6108,-65.5"/>
<text text-anchor="middle" x="949.2266" y="-71.5" font-family="Helvetica,sans-Serif" font-size="10.00" fill="#000000">cmath</text>
</g>
<!-- Node0&#45;&gt;Node15 -->
<g id="edge15" class="edge">
<title>Node0&#45;&gt;Node15</title>
<path fill="none" stroke="#191970" d="M1119.7877,-120.4985C1080.6262,-110.7822 1032.3386,-98.4585 980.5726,-84.0012"/>
<polygon fill="#191970" stroke="#191970" points="981.4415,-80.6099 970.8677,-81.2771 979.5497,-87.3494 981.4415,-80.6099"/>
</g>
<!-- Node16 -->
<g id="node17" class="node">
<title>Node16</title>
<polygon fill="#ffffff" stroke="#bfbfbf" points="988.8228,-65.5 988.8228,-83.5 1047.6304,-83.5 1047.6304,-65.5 988.8228,-65.5"/>
<text text-anchor="middle" x="1018.2266" y="-71.5" font-family="Helvetica,sans-Serif" font-size="10.00" fill="#000000">exception</text>
</g>
<!-- Node0&#45;&gt;Node16 -->
<g id="edge16" class="edge">
<title>Node0&#45;&gt;Node16</title>
<path fill="none" stroke="#191970" d="M1145.1942,-120.3494C1115.4009,-109.5907 1079.0658,-96.4697 1052.9112,-87.025"/>
<polygon fill="#191970" stroke="#191970" points="1054.0149,-83.7024 1043.4206,-83.5978 1051.6374,-90.2863 1054.0149,-83.7024"/>
</g>
<!-- Node17 -->
<g id="node18" class="node">
<title>Node17</title>
<polygon fill="#ffffff" stroke="#bfbfbf" points="1066.0542,-65.5 1066.0542,-83.5 1120.3989,-83.5 1120.3989,-65.5 1066.0542,-65.5"/>
<text text-anchor="middle" x="1093.2266" y="-71.5" font-family="Helvetica,sans-Serif" font-size="10.00" fill="#000000">iostream</text>
</g>
<!-- Node0&#45;&gt;Node17 -->
<g id="edge17" class="edge">
<title>Node0&#45;&gt;Node17</title>
<path fill="none" stroke="#191970" d="M1167.291,-120.3494C1151.06,-110.3016 1131.5006,-98.1934 1116.5587,-88.9437"/>
<polygon fill="#191970" stroke="#191970" points="1118.268,-85.8855 1107.9231,-83.5978 1114.5835,-91.8374 1118.268,-85.8855"/>
</g>
<!-- Node18 -->
<g id="node19" class="node">
<title>Node18</title>
<polygon fill="#ffffff" stroke="#bfbfbf" points="1138.835,-65.5 1138.835,-83.5 1177.6182,-83.5 1177.6182,-65.5 1138.835,-65.5"/>
<text text-anchor="middle" x="1158.2266" y="-71.5" font-family="Helvetica,sans-Serif" font-size="10.00" fill="#000000">utility</text>
</g>
<!-- Node0&#45;&gt;Node18 -->
<g id="edge18" class="edge">
<title>Node0&#45;&gt;Node18</title>
<path fill="none" stroke="#191970" d="M1186.4416,-120.3494C1180.9583,-111.4391 1174.478,-100.9085 1169.1114,-92.1879"/>
<polygon fill="#191970" stroke="#191970" points="1172.0471,-90.2801 1163.8252,-83.5978 1166.0854,-93.9488 1172.0471,-90.2801"/>
</g>
<!-- Node19 -->
<g id="node20" class="node">
<title>Node19</title>
<polygon fill="#ffffff" stroke="#bfbfbf" points="1195.2144,-65.5 1195.2144,-83.5 1281.2388,-83.5 1281.2388,-65.5 1195.2144,-65.5"/>
<text text-anchor="middle" x="1238.2266" y="-71.5" font-family="Helvetica,sans-Serif" font-size="10.00" fill="#000000">iCub/ctrl/math.h</text>
</g>
<!-- Node0&#45;&gt;Node19 -->
<g id="edge19" class="edge">
<title>Node0&#45;&gt;Node19</title>
<path fill="none" stroke="#191970" d="M1210.0115,-120.3494C1215.4948,-111.4391 1221.9752,-100.9085 1227.3417,-92.1879"/>
<polygon fill="#191970" stroke="#191970" points="1230.3677,-93.9488 1232.6279,-83.5978 1224.4061,-90.2801 1230.3677,-93.9488"/>
</g>
<!-- Node20 -->
<g id="node21" class="node">
<title>Node20</title>
<polygon fill="#ffffff" stroke="#bfbfbf" points="1299.3203,-65.5 1299.3203,-83.5 1393.1328,-83.5 1393.1328,-65.5 1299.3203,-65.5"/>
<text text-anchor="middle" x="1346.2266" y="-71.5" font-family="Helvetica,sans-Serif" font-size="10.00" fill="#000000">yarp/math/Math.h</text>
</g>
<!-- Node0&#45;&gt;Node20 -->
<g id="edge20" class="edge">
<title>Node0&#45;&gt;Node20</title>
<path fill="none" stroke="#191970" d="M1241.831,-120.3494C1265.7881,-109.8277 1294.8897,-97.0466 1316.275,-87.6544"/>
<polygon fill="#191970" stroke="#191970" points="1317.763,-90.8236 1325.5115,-83.5978 1314.9481,-84.4145 1317.763,-90.8236"/>
</g>
<!-- Node21 -->
<g id="node22" class="node">
<title>Node21</title>
<polygon fill="#ffffff" stroke="#bfbfbf" points="1410.813,-65.5 1410.813,-83.5 1519.6401,-83.5 1519.6401,-65.5 1410.813,-65.5"/>
<text text-anchor="middle" x="1465.2266" y="-71.5" font-family="Helvetica,sans-Serif" font-size="10.00" fill="#000000">yarp/os/LogStream.h</text>
</g>
<!-- Node0&#45;&gt;Node21 -->
<g id="edge21" class="edge">
<title>Node0&#45;&gt;Node21</title>
<path fill="none" stroke="#191970" d="M1276.5313,-120.437C1322.536,-109.2374 1379.1545,-95.4539 1418.3046,-85.923"/>
<polygon fill="#191970" stroke="#191970" points="1419.2246,-89.3013 1428.1129,-83.5352 1417.5687,-82.4999 1419.2246,-89.3013"/>
</g>
<!-- Node22 -->
<g id="node23" class="node">
<title>Node22</title>
<polygon fill="#ffffff" stroke="#bfbfbf" points="1537.7432,-65.5 1537.7432,-83.5 1634.71,-83.5 1634.71,-65.5 1537.7432,-65.5"/>
<text text-anchor="middle" x="1586.2266" y="-71.5" font-family="Helvetica,sans-Serif" font-size="10.00" fill="#000000">yarp/os/Property.h</text>
</g>
<!-- Node0&#45;&gt;Node22 -->
<g id="edge22" class="edge">
<title>Node0&#45;&gt;Node22</title>
<path fill="none" stroke="#191970" d="M1310.7128,-120.6557C1381.6437,-108.7729 1470.3441,-93.9133 1527.6276,-84.3168"/>
<polygon fill="#191970" stroke="#191970" points="1528.3111,-87.7512 1537.5954,-82.647 1527.1545,-80.8474 1528.3111,-87.7512"/>
</g>
<!-- Node23 -->
<g id="node24" class="node">
<title>Node23</title>
<polygon fill="#ffffff" stroke="#bfbfbf" points="1652.9731,-65.5 1652.9731,-83.5 1783.48,-83.5 1783.48,-65.5 1652.9731,-65.5"/>
<text text-anchor="middle" x="1718.2266" y="-71.5" font-family="Helvetica,sans-Serif" font-size="10.00" fill="#000000">yarp/os/ResourceFinder.h</text>
</g>
<!-- Node0&#45;&gt;Node23 -->
<g id="edge23" class="edge">
<title>Node0&#45;&gt;Node23</title>
<path fill="none" stroke="#191970" d="M1310.7107,-125.5316C1398.2227,-114.65 1523.0129,-99.1022 1642.7,-84.0642"/>
<polygon fill="#191970" stroke="#191970" points="1643.2955,-87.517 1652.781,-82.7973 1642.4226,-80.5716 1643.2955,-87.517"/>
</g>
<!-- Node2 -->
<g id="node3" class="node">
<title>Node2</title>
<polygon fill="#ffffff" stroke="#bfbfbf" points="0,-5.5 0,-23.5 40.4531,-23.5 40.4531,-5.5 0,-5.5"/>
<text text-anchor="middle" x="20.2266" y="-11.5" font-family="Helvetica,sans-Serif" font-size="10.00" fill="#000000">string</text>
</g>
<!-- Node1&#45;&gt;Node2 -->
<g id="edge2" class="edge">
<title>Node1&#45;&gt;Node2</title>
<path fill="none" stroke="#191970" d="M793.2485,-74.1429C633.7203,-72.6949 190.7928,-65.4146 50.2266,-29 48.5711,-28.5711 46.8979,-28.048 45.2331,-27.458"/>
<polygon fill="#191970" stroke="#191970" points="46.5466,-24.2134 35.9732,-23.5398 43.8188,-30.66 46.5466,-24.2134"/>
</g>
<!-- Node3 -->
<g id="node4" class="node">
<title>Node3</title>
<polygon fill="#ffffff" stroke="#bfbfbf" points="58.8418,-.5 58.8418,-28.5 213.6113,-28.5 213.6113,-.5 58.8418,-.5"/>
<text text-anchor="start" x="66.8418" y="-16.5" font-family="Helvetica,sans-Serif" font-size="10.00" fill="#000000">BayesFilters/VisualObservation</text>
<text text-anchor="middle" x="136.2266" y="-6.5" font-family="Helvetica,sans-Serif" font-size="10.00" fill="#000000">Model.h</text>
</g>
<!-- Node1&#45;&gt;Node3 -->
<g id="edge3" class="edge">
<title>Node1&#45;&gt;Node3</title>
<path fill="none" stroke="#191970" d="M793.0456,-72.0914C683.7116,-67.1715 439.946,-54.3365 224.2145,-29.0375"/>
<polygon fill="#191970" stroke="#191970" points="224.3057,-25.524 213.9635,-27.8234 223.4823,-32.4754 224.3057,-25.524"/>
</g>
<!-- Node4 -->
<g id="node5" class="node">
<title>Node4</title>
<polygon fill="#ffffff" stroke="#bfbfbf" points="231.8745,-5.5 231.8745,-23.5 334.5786,-23.5 334.5786,-5.5 231.8745,-5.5"/>
<text text-anchor="middle" x="283.2266" y="-11.5" font-family="Helvetica,sans-Serif" font-size="10.00" fill="#000000">iCub/iKin/iKinFwd.h</text>
</g>
<!-- Node1&#45;&gt;Node4 -->
<g id="edge4" class="edge">
<title>Node1&#45;&gt;Node4</title>
<path fill="none" stroke="#191970" d="M792.9744,-72.0845C698.1777,-67.5272 504.8621,-55.6197 343.2266,-29 337.8073,-28.1075 332.1532,-26.9912 326.5755,-25.7765"/>
<polygon fill="#191970" stroke="#191970" points="327.2143,-22.3323 316.6852,-23.5109 325.6512,-29.1555 327.2143,-22.3323"/>
</g>
<!-- Node5 -->
<g id="node6" class="node">
<title>Node5</title>
<polygon fill="#ffffff" stroke="#bfbfbf" points="352.3599,-5.5 352.3599,-23.5 470.0933,-23.5 470.0933,-5.5 352.3599,-5.5"/>
<text text-anchor="middle" x="411.2266" y="-11.5" font-family="Helvetica,sans-Serif" font-size="10.00" fill="#000000">opencv2/core/core.hpp</text>
</g>
<!-- Node1&#45;&gt;Node5 -->
<g id="edge5" class="edge">
<title>Node1&#45;&gt;Node5</title>
<path fill="none" stroke="#191970" d="M793.1607,-69.0837C719.5923,-61.8393 589.0291,-47.7073 478.2266,-29 472.3627,-28.01 466.2353,-26.854 460.1706,-25.6346"/>
<polygon fill="#191970" stroke="#191970" points="460.5838,-22.1458 450.0812,-23.5405 459.1612,-28.9997 460.5838,-22.1458"/>
</g>
<!-- Node6 -->
<g id="node7" class="node">
<title>Node6</title>
<polygon fill="#ffffff" stroke="#bfbfbf" points="487.6997,-5.5 487.6997,-23.5 628.7534,-23.5 628.7534,-5.5 487.6997,-5.5"/>
<text text-anchor="middle" x="558.2266" y="-11.5" font-family="Helvetica,sans-Serif" font-size="10.00" fill="#000000">SuperimposeMesh/SICAD.h</text>
</g>
<!-- Node1&#45;&gt;Node6 -->
<g id="edge6" class="edge">
<title>Node1&#45;&gt;Node6</title>
<path fill="none" stroke="#191970" d="M807.0443,-65.4524C754.9711,-54.789 668.45,-37.0714 612.3871,-25.5909"/>
<polygon fill="#191970" stroke="#191970" points="612.7874,-22.1003 602.2886,-23.5229 611.3831,-28.958 612.7874,-22.1003"/>
</g>
<!-- Node7 -->
<g id="node8" class="node">
<title>Node7</title>
<polygon fill="#ffffff" stroke="#bfbfbf" points="646.4214,-5.5 646.4214,-23.5 768.0317,-23.5 768.0317,-5.5 646.4214,-5.5"/>
<text text-anchor="middle" x="707.2266" y="-11.5" font-family="Helvetica,sans-Serif" font-size="10.00" fill="#000000">yarp/dev/GazeControl.h</text>
</g>
<!-- Node1&#45;&gt;Node7 -->
<g id="edge7" class="edge">
<title>Node1&#45;&gt;Node7</title>
<path fill="none" stroke="#191970" d="M829.3561,-65.3873C805.1107,-55.2851 765.8096,-38.9096 738.3586,-27.4717"/>
<polygon fill="#191970" stroke="#191970" points="739.408,-24.1173 728.8311,-23.5019 736.7157,-30.5789 739.408,-24.1173"/>
</g>
<!-- Node8 -->
<g id="node9" class="node">
<title>Node8</title>
<polygon fill="#ffffff" stroke="#bfbfbf" points="785.9634,-5.5 785.9634,-23.5 916.4897,-23.5 916.4897,-5.5 785.9634,-5.5"/>
<text text-anchor="middle" x="851.2266" y="-11.5" font-family="Helvetica,sans-Serif" font-size="10.00" fill="#000000">yarp/dev/IAnalogSensor.h</text>
</g>
<!-- Node1&#45;&gt;Node8 -->
<g id="edge8" class="edge">
<title>Node1&#45;&gt;Node8</title>
<path fill="none" stroke="#191970" d="M851.2266,-65.3873C851.2266,-57.0174 851.2266,-44.3414 851.2266,-33.735"/>
<polygon fill="#191970" stroke="#191970" points="854.7267,-33.6984 851.2266,-23.6985 847.7267,-33.6985 854.7267,-33.6984"/>
</g>
<!-- Node9 -->
<g id="node10" class="node">
<title>Node9</title>
<polygon fill="#ffffff" stroke="#bfbfbf" points="934.7046,-5.5 934.7046,-23.5 1045.7485,-23.5 1045.7485,-5.5 934.7046,-5.5"/>
<text text-anchor="middle" x="990.2266" y="-11.5" font-family="Helvetica,sans-Serif" font-size="10.00" fill="#000000">yarp/dev/PolyDriver.h</text>
</g>
<!-- Node1&#45;&gt;Node9 -->
<g id="edge9" class="edge">
<title>Node1&#45;&gt;Node9</title>
<path fill="none" stroke="#191970" d="M872.3377,-65.3873C895.7412,-55.2851 933.6777,-38.9096 960.1755,-27.4717"/>
<polygon fill="#191970" stroke="#191970" points="961.5781,-30.6784 969.3722,-23.5019 958.8039,-24.2516 961.5781,-30.6784"/>
</g>
<!-- Node10 -->
<g id="node11" class="node">
<title>Node10</title>
<polygon fill="#ffffff" stroke="#bfbfbf" points="1063.4854,-5.5 1063.4854,-23.5 1148.9678,-23.5 1148.9678,-5.5 1063.4854,-5.5"/>
<text text-anchor="middle" x="1106.2266" y="-11.5" font-family="Helvetica,sans-Serif" font-size="10.00" fill="#000000">yarp/os/Bottle.h</text>
</g>
<!-- Node1&#45;&gt;Node10 -->
<g id="edge10" class="edge">
<title>Node1&#45;&gt;Node10</title>
<path fill="none" stroke="#191970" d="M895.173,-65.4622C936.6045,-56.7612 1000.354,-42.9076 1055.2266,-29 1058.6312,-28.1371 1062.1539,-27.2093 1065.6839,-26.2551"/>
<polygon fill="#191970" stroke="#191970" points="1066.8516,-29.5637 1075.5592,-23.5281 1064.9883,-22.8162 1066.8516,-29.5637"/>
</g>
<!-- Node11 -->
<g id="node12" class="node">
<title>Node11</title>
<polygon fill="#ffffff" stroke="#bfbfbf" points="1167.2876,-5.5 1167.2876,-23.5 1283.1655,-23.5 1283.1655,-5.5 1167.2876,-5.5"/>
<text text-anchor="middle" x="1225.2266" y="-11.5" font-family="Helvetica,sans-Serif" font-size="10.00" fill="#000000">yarp/os/BufferedPort.h</text>
</g>
<!-- Node1&#45;&gt;Node11 -->
<g id="edge11" class="edge">
<title>Node1&#45;&gt;Node11</title>
<path fill="none" stroke="#191970" d="M909.3421,-66.0984C991.4968,-54.1891 1134.3063,-33.3561 1158.2266,-29 1163.9272,-27.9619 1169.8829,-26.7941 1175.7905,-25.5836"/>
<polygon fill="#191970" stroke="#191970" points="1176.5637,-28.9977 1185.6335,-23.5215 1175.1283,-22.1465 1176.5637,-28.9977"/>
</g>
<!-- Node12 -->
<g id="node13" class="node">
<title>Node12</title>
<polygon fill="#ffffff" stroke="#bfbfbf" points="1301.1479,-5.5 1301.1479,-23.5 1413.3052,-23.5 1413.3052,-5.5 1301.1479,-5.5"/>
<text text-anchor="middle" x="1357.2266" y="-11.5" font-family="Helvetica,sans-Serif" font-size="10.00" fill="#000000">yarp/os/ConstString.h</text>
</g>
<!-- Node1&#45;&gt;Node12 -->
<g id="edge12" class="edge">
<title>Node1&#45;&gt;Node12</title>
<path fill="none" stroke="#191970" d="M909.3104,-66.1016C912.3242,-65.7167 915.3101,-65.347 918.2266,-65 1084.0478,-45.2734 1127.3088,-55.229 1292.2266,-29 1298.1517,-28.0576 1304.3455,-26.9016 1310.4555,-25.6571"/>
<polygon fill="#191970" stroke="#191970" points="1311.5431,-29.0042 1320.5969,-23.5015 1310.0877,-22.1572 1311.5431,-29.0042"/>
</g>
<!-- Node13 -->
<g id="node14" class="node">
<title>Node13</title>
<polygon fill="#ffffff" stroke="#bfbfbf" points="1431.5493,-5.5 1431.5493,-23.5 1520.9038,-23.5 1520.9038,-5.5 1431.5493,-5.5"/>
<text text-anchor="middle" x="1476.2266" y="-11.5" font-family="Helvetica,sans-Serif" font-size="10.00" fill="#000000">yarp/sig/Matrix.h</text>
</g>
<!-- Node1&#45;&gt;Node13 -->
<g id="edge13" class="edge">
<title>Node1&#45;&gt;Node13</title>
<path fill="none" stroke="#191970" d="M909.3005,-66.0137C912.3169,-65.6518 915.306,-65.311 918.2266,-65 1141.5349,-41.2222 1200.7734,-66.2891 1422.2266,-29 1427.0008,-28.1961 1431.9644,-27.1551 1436.8623,-25.9998"/>
<polygon fill="#191970" stroke="#191970" points="1437.9021,-29.3472 1446.7422,-23.5075 1436.1899,-22.5599 1437.9021,-29.3472"/>
</g>
<!-- Node14 -->
<g id="node15" class="node">
<title>Node14</title>
<polygon fill="#ffffff" stroke="#bfbfbf" points="1539.2563,-5.5 1539.2563,-23.5 1629.1968,-23.5 1629.1968,-5.5 1539.2563,-5.5"/>
<text text-anchor="middle" x="1584.2266" y="-11.5" font-family="Helvetica,sans-Serif" font-size="10.00" fill="#000000">yarp/sig/Vector.h</text>
</g>
<!-- Node1&#45;&gt;Node14 -->
<g id="edge14" class="edge">
<title>Node1&#45;&gt;Node14</title>
<path fill="none" stroke="#191970" d="M909.2959,-65.9689C912.3135,-65.6187 915.3041,-65.2926 918.2266,-65 1189.3409,-37.8515 1261.2602,-72.5556 1530.2266,-29 1535.0626,-28.2169 1540.0906,-27.179 1545.0469,-26.0172"/>
<polygon fill="#191970" stroke="#191970" points="1546.1936,-29.3377 1555.0353,-23.5004 1544.4832,-22.5499 1546.1936,-29.3377"/>
</g>
</g>
</svg>
        <g id="navigator" transform="translate(0 0)" fill="#404254">
                <rect fill="#f2f5e9" fill-opacity="0.5" stroke="#606060" stroke-width=".5" x="0" y="0" width="60" height="60"/>
                <use id="zoomplus" xlink:href="#zoomPlus" x="17" y="9" onmousedown="handleZoom(evt,'in')"/>
                <use id="zoomminus" xlink:href="#zoomMin" x="42" y="9" onmousedown="handleZoom(evt,'out')"/>
                <use id="reset" xlink:href="#resetDef" x="30" y="36" onmousedown="handleReset()"/>
                <g id="arrowUp" xlink:href="#dirArrow" transform="translate(30 24)" onmousedown="handlePan(0,-1)">
                  <use xlink:href="#rim" fill="#404040">
                        <set attributeName="fill" to="#808080" begin="arrowUp.mouseover" end="arrowUp.mouseout"/>
                  </use>
                  <path fill="none" stroke="white" stroke-width="1.5" d="M0,-3.0v7 M-2.5,-0.5L0,-3.0L2.5,-0.5"/>
                </g>
                <g id="arrowRight" xlink:href="#dirArrow" transform="rotate(90) translate(36 -43)" onmousedown="handlePan(1,0)">
                  <use xlink:href="#rim" fill="#404040">
                        <set attributeName="fill" to="#808080" begin="arrowRight.mouseover" end="arrowRight.mouseout"/>
                  </use>
                  <path fill="none" stroke="white" stroke-width="1.5" d="M0,-3.0v7 M-2.5,-0.5L0,-3.0L2.5,-0.5"/>
                </g>
                <g id="arrowDown" xlink:href="#dirArrow" transform="rotate(180) translate(-30 -48)" onmousedown="handlePan(0,1)">
                  <use xlink:href="#rim" fill="#404040">
                        <set attributeName="fill" to="#808080" begin="arrowDown.mouseover" end="arrowDown.mouseout"/>
                  </use>
                  <path fill="none" stroke="white" stroke-width="1.5" d="M0,-3.0v7 M-2.5,-0.5L0,-3.0L2.5,-0.5"/>
                </g>
                <g id="arrowLeft" xlink:href="#dirArrow" transform="rotate(270) translate(-36 17)" onmousedown="handlePan(-1,0)">
                  <use xlink:href="#rim" fill="#404040">
                        <set attributeName="fill" to="#808080" begin="arrowLeft.mouseover" end="arrowLeft.mouseout"/>
                  </use>
                  <path fill="none" stroke="white" stroke-width="1.5" d="M0,-3.0v7 M-2.5,-0.5L0,-3.0L2.5,-0.5"/>
                </g>
        </g>
        <svg viewBox="0 0 15 15" width="100%" height="30px" preserveAspectRatio="xMaxYMin meet">
         <g id="arrow_out" transform="scale(0.3 0.3)">
          <a xlink:href="VisualProprioception_8cpp__incl_org.svg" target="_base">
           <rect id="button" ry="5" rx="5" y="6" x="6" height="38" width="38"
                fill="#f2f5e9" fill-opacity="0.5" stroke="#606060" stroke-width="1.0"/>
           <path id="arrow"
             d="M 11.500037,31.436501 C 11.940474,20.09759 22.043105,11.32322 32.158766,21.979434 L 37.068811,17.246167 C 37.068811,17.246167 37.088388,32 37.088388,32 L 22.160133,31.978069 C 22.160133,31.978069 26.997745,27.140456 26.997745,27.140456 C 18.528582,18.264221 13.291696,25.230495 11.500037,31.436501 z"
             style="fill:#404040;"/>
          </a>
         </g>
        </svg>
</svg>
