<?xml version="1.0" encoding="UTF-8" standalone="no"?>
<!DOCTYPE svg PUBLIC "-//W3C//DTD SVG 1.1//EN"
 "http://www.w3.org/Graphics/SVG/1.1/DTD/svg11.dtd">
<!-- Generated by graphviz version 2.40.1 (20161225.0304)
 -->
<!-- Title: /Users/Claudio/GitHub/visual&#45;tracking&#45;control/src/hand&#45;tracking/include/VisualSIS.h Pages: 1 -->
<svg width="358pt" height="132pt"
 viewBox="0.00 0.00 357.69 132.00" xmlns="http://www.w3.org/2000/svg" xmlns:xlink="http://www.w3.org/1999/xlink">
<g id="graph0" class="graph" transform="scale(1 1) rotate(0) translate(4 128)">
<title>/Users/Claudio/GitHub/visual&#45;tracking&#45;control/src/hand&#45;tracking/include/VisualSIS.h</title>
<polygon fill="#ffffff" stroke="transparent" points="-4,4 -4,-128 353.6924,-128 353.6924,4 -4,4"/>
<!-- Node20 -->
<g id="node1" class="node">
<title>Node20</title>
<polygon fill="#bfbfbf" stroke="#000000" points="104.4976,-75.5 104.4976,-123.5 234.4429,-123.5 234.4429,-75.5 104.4976,-75.5"/>
<text text-anchor="start" x="112.4976" y="-111.5" font-family="Helvetica,sans-Serif" font-size="10.00" fill="#000000">/Users/Claudio/GitHub</text>
<text text-anchor="start" x="112.4976" y="-101.5" font-family="Helvetica,sans-Serif" font-size="10.00" fill="#000000">/visual&#45;tracking&#45;control</text>
<text text-anchor="start" x="112.4976" y="-91.5" font-family="Helvetica,sans-Serif" font-size="10.00" fill="#000000">/src/hand&#45;tracking/include</text>
<text text-anchor="middle" x="169.4702" y="-81.5" font-family="Helvetica,sans-Serif" font-size="10.00" fill="#000000">/VisualSIS.h</text>
</g>
<!-- Node21 -->
<g id="node2" class="node">
<title>Node21</title>
<g id="a_node2"><a xlink:href="hand-tracking_2src_2main_8cpp.html" target="_top" xlink:title="/Users/Claudio/GitHub\l/visual&#45;tracking&#45;control\l/src/hand&#45;tracking/src/main.cpp">
<polygon fill="#ffffff" stroke="#000000" points="0,-.5 0,-38.5 154.9404,-38.5 154.9404,-.5 0,-.5"/>
<text text-anchor="start" x="8" y="-26.5" font-family="Helvetica,sans-Serif" font-size="10.00" fill="#000000">/Users/Claudio/GitHub</text>
<text text-anchor="start" x="8" y="-16.5" font-family="Helvetica,sans-Serif" font-size="10.00" fill="#000000">/visual&#45;tracking&#45;control</text>
<text text-anchor="middle" x="77.4702" y="-6.5" font-family="Helvetica,sans-Serif" font-size="10.00" fill="#000000">/src/hand&#45;tracking/src/main.cpp</text>
</a>
</g>
</g>
<!-- Node20&#45;&gt;Node21 -->
<g id="edge1" class="edge">
<title>Node20&#45;&gt;Node21</title>
<path fill="none" stroke="#191970" d="M134.0158,-68.67C122.3995,-58.5689 109.8349,-47.6432 99.5065,-38.662"/>
<polygon fill="#191970" stroke="#191970" points="132.0245,-71.5767 141.8672,-75.4974 136.6177,-66.2944 132.0245,-71.5767"/>
</g>
<!-- Node22 -->
<g id="node3" class="node">
<title>Node22</title>
<g id="a_node3"><a xlink:href="VisualSIS_8cpp.html" target="_top" xlink:title="/Users/Claudio/GitHub\l/visual&#45;tracking&#45;control\l/src/hand&#45;tracking/src/VisualSIS.cpp">
<polygon fill="#ffffff" stroke="#000000" points="173.248,-.5 173.248,-38.5 349.6924,-38.5 349.6924,-.5 173.248,-.5"/>
<text text-anchor="start" x="181.248" y="-26.5" font-family="Helvetica,sans-Serif" font-size="10.00" fill="#000000">/Users/Claudio/GitHub</text>
<text text-anchor="start" x="181.248" y="-16.5" font-family="Helvetica,sans-Serif" font-size="10.00" fill="#000000">/visual&#45;tracking&#45;control</text>
<text text-anchor="middle" x="261.4702" y="-6.5" font-family="Helvetica,sans-Serif" font-size="10.00" fill="#000000">/src/hand&#45;tracking/src/VisualSIS.cpp</text>
</a>
</g>
</g>
<!-- Node20&#45;&gt;Node22 -->
<g id="edge2" class="edge">
<title>Node20&#45;&gt;Node22</title>
<path fill="none" stroke="#191970" d="M204.9247,-68.67C216.541,-58.5689 229.1055,-47.6432 239.4339,-38.662"/>
<polygon fill="#191970" stroke="#191970" points="202.3227,-66.2944 197.0732,-75.4974 206.916,-71.5767 202.3227,-66.2944"/>
</g>
</g>
</svg>
