<?xml version="1.0" encoding="UTF-8" standalone="no"?>
<!DOCTYPE svg PUBLIC "-//W3C//DTD SVG 1.1//EN"
 "http://www.w3.org/Graphics/SVG/1.1/DTD/svg11.dtd">
<!-- Generated by graphviz version 2.40.1 (20161225.0304)
 -->
<!-- Title: /Users/Claudio/GitHub/visual&#45;tracking&#45;control/src/hand&#45;tracking/src/VisualUpdateParticles.cpp Pages: 1 -->
<svg width="2652pt" height="232pt"
 viewBox="0.00 0.00 2652.21 232.00" xmlns="http://www.w3.org/2000/svg" xmlns:xlink="http://www.w3.org/1999/xlink">
<g id="graph0" class="graph" transform="scale(1 1) rotate(0) translate(4 228)">
<title>/Users/Claudio/GitHub/visual&#45;tracking&#45;control/src/hand&#45;tracking/src/VisualUpdateParticles.cpp</title>
<polygon fill="#ffffff" stroke="transparent" points="-4,4 -4,-228 2648.2065,-228 2648.2065,4 -4,4"/>
<!-- Node0 -->
<g id="node1" class="node">
<title>Node0</title>
<polygon fill="#bfbfbf" stroke="#000000" points="1913.3911,-175.5 1913.3911,-223.5 2087.062,-223.5 2087.062,-175.5 1913.3911,-175.5"/>
<text text-anchor="start" x="1921.3911" y="-211.5" font-family="Helvetica,sans-Serif" font-size="10.00" fill="#000000">/Users/Claudio/GitHub</text>
<text text-anchor="start" x="1921.3911" y="-201.5" font-family="Helvetica,sans-Serif" font-size="10.00" fill="#000000">/visual&#45;tracking&#45;control</text>
<text text-anchor="start" x="1921.3911" y="-191.5" font-family="Helvetica,sans-Serif" font-size="10.00" fill="#000000">/src/hand&#45;tracking/src/VisualUpdate</text>
<text text-anchor="middle" x="2000.2266" y="-181.5" font-family="Helvetica,sans-Serif" font-size="10.00" fill="#000000">Particles.cpp</text>
</g>
<!-- Node1 -->
<g id="node2" class="node">
<title>Node1</title>
<g id="a_node2"><a xlink:href="VisualUpdateParticles_8h.html" target="_top" xlink:title="VisualUpdateParticles.h">
<polygon fill="#ffffff" stroke="#000000" points="1122.231,-120.5 1122.231,-138.5 1244.2222,-138.5 1244.2222,-120.5 1122.231,-120.5"/>
<text text-anchor="middle" x="1183.2266" y="-126.5" font-family="Helvetica,sans-Serif" font-size="10.00" fill="#000000">VisualUpdateParticles.h</text>
</a>
</g>
</g>
<!-- Node0&#45;&gt;Node1 -->
<g id="edge1" class="edge">
<title>Node0&#45;&gt;Node1</title>
<path fill="none" stroke="#191970" d="M1913.1803,-192.0419C1750.601,-178.1123 1403.7675,-148.3958 1254.2452,-135.5848"/>
<polygon fill="#191970" stroke="#191970" points="1254.5179,-132.0955 1244.2556,-134.7289 1253.9203,-139.0699 1254.5179,-132.0955"/>
</g>
<!-- Node6 -->
<g id="node7" class="node">
<title>Node6</title>
<polygon fill="#ffffff" stroke="#bfbfbf" points="1610.3599,-5.5 1610.3599,-23.5 1728.0933,-23.5 1728.0933,-5.5 1610.3599,-5.5"/>
<text text-anchor="middle" x="1669.2266" y="-11.5" font-family="Helvetica,sans-Serif" font-size="10.00" fill="#000000">opencv2/core/core.hpp</text>
</g>
<!-- Node0&#45;&gt;Node6 -->
<g id="edge29" class="edge">
<title>Node0&#45;&gt;Node6</title>
<path fill="none" stroke="#191970" d="M1913.2522,-182.2844C1863.0794,-170.9574 1806.0942,-155.2629 1786.2266,-139 1757.6173,-115.5815 1773.1073,-92.3471 1748.2266,-65 1734.2158,-49.6004 1714.486,-36.9833 1698.2488,-28.212"/>
<polygon fill="#191970" stroke="#191970" points="1699.6505,-24.9963 1689.1618,-23.5002 1696.4282,-31.2106 1699.6505,-24.9963"/>
</g>
<!-- Node20 -->
<g id="node21" class="node">
<title>Node20</title>
<polygon fill="#ffffff" stroke="#bfbfbf" points="1619.2441,-65.5 1619.2441,-83.5 1739.209,-83.5 1739.209,-65.5 1619.2441,-65.5"/>
<text text-anchor="middle" x="1679.2266" y="-71.5" font-family="Helvetica,sans-Serif" font-size="10.00" fill="#000000">opencv2/core/cuda.hpp</text>
</g>
<!-- Node0&#45;&gt;Node20 -->
<g id="edge30" class="edge">
<title>Node0&#45;&gt;Node20</title>
<path fill="none" stroke="#191970" d="M1913.1931,-188.5646C1864.1753,-179.9117 1802.9975,-164.8204 1753.2266,-139 1729.7406,-126.8158 1707.5251,-105.6882 1693.6767,-90.9456"/>
<polygon fill="#191970" stroke="#191970" points="1696.2158,-88.5356 1686.8891,-83.5095 1691.0458,-93.2548 1696.2158,-88.5356"/>
</g>
<!-- Node23 -->
<g id="node24" class="node">
<title>Node23</title>
<polygon fill="#ffffff" stroke="#bfbfbf" points="1795.6108,-120.5 1795.6108,-138.5 1838.8423,-138.5 1838.8423,-120.5 1795.6108,-120.5"/>
<text text-anchor="middle" x="1817.2266" y="-126.5" font-family="Helvetica,sans-Serif" font-size="10.00" fill="#000000">cmath</text>
</g>
<!-- Node0&#45;&gt;Node23 -->
<g id="edge23" class="edge">
<title>Node0&#45;&gt;Node23</title>
<path fill="none" stroke="#191970" d="M1937.2483,-175.41C1907.2614,-163.9395 1872.7333,-150.7321 1848.4319,-141.4365"/>
<polygon fill="#191970" stroke="#191970" points="1849.5989,-138.1356 1839.0084,-137.8318 1847.098,-144.6736 1849.5989,-138.1356"/>
</g>
<!-- Node24 -->
<g id="node25" class="node">
<title>Node24</title>
<polygon fill="#ffffff" stroke="#bfbfbf" points="1856.8228,-120.5 1856.8228,-138.5 1915.6304,-138.5 1915.6304,-120.5 1856.8228,-120.5"/>
<text text-anchor="middle" x="1886.2266" y="-126.5" font-family="Helvetica,sans-Serif" font-size="10.00" fill="#000000">exception</text>
</g>
<!-- Node0&#45;&gt;Node24 -->
<g id="edge24" class="edge">
<title>Node0&#45;&gt;Node24</title>
<path fill="none" stroke="#191970" d="M1960.9942,-175.41C1943.8198,-164.8643 1924.2543,-152.8504 1909.4468,-143.758"/>
<polygon fill="#191970" stroke="#191970" points="1911.2589,-140.7636 1900.9058,-138.5136 1907.5961,-146.7288 1911.2589,-140.7636"/>
</g>
<!-- Node25 -->
<g id="node26" class="node">
<title>Node25</title>
<polygon fill="#ffffff" stroke="#bfbfbf" points="1933.8228,-120.5 1933.8228,-138.5 1992.6304,-138.5 1992.6304,-120.5 1933.8228,-120.5"/>
<text text-anchor="middle" x="1963.2266" y="-126.5" font-family="Helvetica,sans-Serif" font-size="10.00" fill="#000000">functional</text>
</g>
<!-- Node0&#45;&gt;Node25 -->
<g id="edge25" class="edge">
<title>Node0&#45;&gt;Node25</title>
<path fill="none" stroke="#191970" d="M1987.4933,-175.41C1982.6854,-166.314 1977.3001,-156.1256 1972.8264,-147.6619"/>
<polygon fill="#191970" stroke="#191970" points="1975.8501,-145.8926 1968.0827,-138.6872 1969.6615,-149.1638 1975.8501,-145.8926"/>
</g>
<!-- Node26 -->
<g id="node27" class="node">
<title>Node26</title>
<polygon fill="#ffffff" stroke="#bfbfbf" points="2011.0542,-120.5 2011.0542,-138.5 2065.3989,-138.5 2065.3989,-120.5 2011.0542,-120.5"/>
<text text-anchor="middle" x="2038.2266" y="-126.5" font-family="Helvetica,sans-Serif" font-size="10.00" fill="#000000">iostream</text>
</g>
<!-- Node0&#45;&gt;Node26 -->
<g id="edge26" class="edge">
<title>Node0&#45;&gt;Node26</title>
<path fill="none" stroke="#191970" d="M2013.304,-175.41C2018.2418,-166.314 2023.7726,-156.1256 2028.3672,-147.6619"/>
<polygon fill="#191970" stroke="#191970" points="2031.5442,-149.1456 2033.2392,-138.6872 2025.3922,-145.8059 2031.5442,-149.1456"/>
</g>
<!-- Node27 -->
<g id="node28" class="node">
<title>Node27</title>
<polygon fill="#ffffff" stroke="#bfbfbf" points="2083.835,-120.5 2083.835,-138.5 2122.6182,-138.5 2122.6182,-120.5 2083.835,-120.5"/>
<text text-anchor="middle" x="2103.2266" y="-126.5" font-family="Helvetica,sans-Serif" font-size="10.00" fill="#000000">utility</text>
</g>
<!-- Node0&#45;&gt;Node27 -->
<g id="edge27" class="edge">
<title>Node0&#45;&gt;Node27</title>
<path fill="none" stroke="#191970" d="M2035.6733,-175.41C2050.8978,-165.0633 2068.2019,-153.3032 2081.4851,-144.2758"/>
<polygon fill="#191970" stroke="#191970" points="2083.6603,-147.0293 2089.9638,-138.5136 2079.7257,-141.2397 2083.6603,-147.0293"/>
</g>
<!-- Node28 -->
<g id="node29" class="node">
<title>Node28</title>
<polygon fill="#ffffff" stroke="#bfbfbf" points="2140.6108,-120.5 2140.6108,-138.5 2183.8423,-138.5 2183.8423,-120.5 2140.6108,-120.5"/>
<text text-anchor="middle" x="2162.2266" y="-126.5" font-family="Helvetica,sans-Serif" font-size="10.00" fill="#000000">vector</text>
</g>
<!-- Node0&#45;&gt;Node28 -->
<g id="edge28" class="edge">
<title>Node0&#45;&gt;Node28</title>
<path fill="none" stroke="#191970" d="M2055.9778,-175.41C2081.5347,-164.3669 2110.8177,-151.7137 2132.1609,-142.4913"/>
<polygon fill="#191970" stroke="#191970" points="2133.5752,-145.693 2141.3666,-138.5136 2130.7986,-139.2673 2133.5752,-145.693"/>
</g>
<!-- Node29 -->
<g id="node30" class="node">
<title>Node29</title>
<polygon fill="#ffffff" stroke="#bfbfbf" points="2201.8525,-120.5 2201.8525,-138.5 2324.6006,-138.5 2324.6006,-120.5 2201.8525,-120.5"/>
<text text-anchor="middle" x="2263.2266" y="-126.5" font-family="Helvetica,sans-Serif" font-size="10.00" fill="#000000">opencv2/core/eigen.hpp</text>
</g>
<!-- Node0&#45;&gt;Node29 -->
<g id="edge31" class="edge">
<title>Node0&#45;&gt;Node29</title>
<path fill="none" stroke="#191970" d="M2087.0715,-176.3854C2131.5195,-164.5551 2183.6913,-150.6691 2219.6605,-141.0955"/>
<polygon fill="#191970" stroke="#191970" points="2220.5928,-144.4693 2229.3561,-138.5149 2218.7923,-137.7048 2220.5928,-144.4693"/>
</g>
<!-- Node30 -->
<g id="node31" class="node">
<title>Node30</title>
<polygon fill="#ffffff" stroke="#bfbfbf" points="2342.5767,-120.5 2342.5767,-138.5 2475.8765,-138.5 2475.8765,-120.5 2342.5767,-120.5"/>
<text text-anchor="middle" x="2409.2266" y="-126.5" font-family="Helvetica,sans-Serif" font-size="10.00" fill="#000000">opencv2/cudaimgproc.hpp</text>
</g>
<!-- Node0&#45;&gt;Node30 -->
<g id="edge32" class="edge">
<title>Node0&#45;&gt;Node30</title>
<path fill="none" stroke="#191970" d="M2087.2152,-184.612C2165.0119,-171.2971 2277.1527,-152.1043 2346.4898,-140.2373"/>
<polygon fill="#191970" stroke="#191970" points="2347.1339,-143.6781 2356.4001,-138.5412 2345.953,-136.7784 2347.1339,-143.6781"/>
</g>
<!-- Node31 -->
<g id="node32" class="node">
<title>Node31</title>
<polygon fill="#ffffff" stroke="#bfbfbf" points="2494.2466,-120.5 2494.2466,-138.5 2644.2065,-138.5 2644.2065,-120.5 2494.2466,-120.5"/>
<text text-anchor="middle" x="2569.2266" y="-126.5" font-family="Helvetica,sans-Serif" font-size="10.00" fill="#000000">opencv2/imgproc/imgproc.hpp</text>
</g>
<!-- Node0&#45;&gt;Node31 -->
<g id="edge33" class="edge">
<title>Node0&#45;&gt;Node31</title>
<path fill="none" stroke="#191970" d="M2087.2648,-188.7923C2195.5347,-175.4726 2379.0922,-152.8909 2485.7025,-139.7754"/>
<polygon fill="#191970" stroke="#191970" points="2486.2765,-143.2312 2495.7743,-138.5363 2485.4217,-136.2836 2486.2765,-143.2312"/>
</g>
<!-- Node2 -->
<g id="node3" class="node">
<title>Node2</title>
<g id="a_node3"><a xlink:href="VisualProprioception_8h.html" target="_top" xlink:title="VisualProprioception.h">
<polygon fill="#ffffff" stroke="#000000" points="727.2852,-65.5 727.2852,-83.5 843.168,-83.5 843.168,-65.5 727.2852,-65.5"/>
<text text-anchor="middle" x="785.2266" y="-71.5" font-family="Helvetica,sans-Serif" font-size="10.00" fill="#000000">VisualProprioception.h</text>
</a>
</g>
</g>
<!-- Node1&#45;&gt;Node2 -->
<g id="edge2" class="edge">
<title>Node1&#45;&gt;Node2</title>
<path fill="none" stroke="#191970" d="M1122.2098,-121.1915C1057.927,-112.4204 953.4449,-98.1139 853.3158,-84.1477"/>
<polygon fill="#191970" stroke="#191970" points="853.7169,-80.6698 843.3291,-82.7538 852.7493,-87.6026 853.7169,-80.6698"/>
</g>
<!-- Node16 -->
<g id="node17" class="node">
<title>Node16</title>
<polygon fill="#ffffff" stroke="#bfbfbf" points="860.9214,-65.5 860.9214,-83.5 957.5317,-83.5 957.5317,-65.5 860.9214,-65.5"/>
<text text-anchor="middle" x="909.2266" y="-71.5" font-family="Helvetica,sans-Serif" font-size="10.00" fill="#000000">condition_variable</text>
</g>
<!-- Node1&#45;&gt;Node16 -->
<g id="edge16" class="edge">
<title>Node1&#45;&gt;Node16</title>
<path fill="none" stroke="#191970" d="M1138.2879,-120.4795C1090.6061,-110.9083 1015.2332,-95.7787 964.0818,-85.5111"/>
<polygon fill="#191970" stroke="#191970" points="964.6831,-82.062 954.1898,-83.5255 963.3054,-88.9251 964.6831,-82.062"/>
</g>
<!-- Node17 -->
<g id="node18" class="node">
<title>Node17</title>
<polygon fill="#ffffff" stroke="#bfbfbf" points="975.6108,-65.5 975.6108,-83.5 1018.8423,-83.5 1018.8423,-65.5 975.6108,-65.5"/>
<text text-anchor="middle" x="997.2266" y="-71.5" font-family="Helvetica,sans-Serif" font-size="10.00" fill="#000000">mutex</text>
</g>
<!-- Node1&#45;&gt;Node17 -->
<g id="edge17" class="edge">
<title>Node1&#45;&gt;Node17</title>
<path fill="none" stroke="#191970" d="M1152.0217,-120.4575C1122.655,-111.9217 1077.2039,-98.6446 1028.646,-84.1012"/>
<polygon fill="#191970" stroke="#191970" points="1029.4808,-80.6976 1018.8968,-81.1766 1027.4695,-87.4024 1029.4808,-80.6976"/>
</g>
<!-- Node18 -->
<g id="node19" class="node">
<title>Node18</title>
<polygon fill="#ffffff" stroke="#bfbfbf" points="1037.0493,-65.5 1037.0493,-83.5 1081.4038,-83.5 1081.4038,-65.5 1037.0493,-65.5"/>
<text text-anchor="middle" x="1059.2266" y="-71.5" font-family="Helvetica,sans-Serif" font-size="10.00" fill="#000000">thread</text>
</g>
<!-- Node1&#45;&gt;Node18 -->
<g id="edge18" class="edge">
<title>Node1&#45;&gt;Node18</title>
<path fill="none" stroke="#191970" d="M1162.7505,-120.4179C1142.6472,-111.5011 1111.7643,-97.803 1088.9578,-87.6873"/>
<polygon fill="#191970" stroke="#191970" points="1090.2933,-84.4508 1079.7331,-83.5956 1087.4551,-90.8496 1090.2933,-84.4508"/>
</g>
<!-- Node19 -->
<g id="node20" class="node">
<title>Node19</title>
<polygon fill="#ffffff" stroke="#bfbfbf" points="1099.1768,-65.5 1099.1768,-83.5 1267.2764,-83.5 1267.2764,-65.5 1099.1768,-65.5"/>
<text text-anchor="middle" x="1183.2266" y="-71.5" font-family="Helvetica,sans-Serif" font-size="10.00" fill="#000000">BayesFilters/PFVisualCorrection.h</text>
</g>
<!-- Node1&#45;&gt;Node19 -->
<g id="edge19" class="edge">
<title>Node1&#45;&gt;Node19</title>
<path fill="none" stroke="#191970" d="M1183.2266,-120.4179C1183.2266,-113.2164 1183.2266,-102.8962 1183.2266,-93.8632"/>
<polygon fill="#191970" stroke="#191970" points="1186.7267,-93.7794 1183.2266,-83.7795 1179.7267,-93.7795 1186.7267,-93.7794"/>
</g>
<!-- Node1&#45;&gt;Node20 -->
<g id="edge20" class="edge">
<title>Node1&#45;&gt;Node20</title>
<path fill="none" stroke="#191970" d="M1244.4585,-123.5708C1325.4088,-115.5996 1472.7517,-100.6324 1608.8358,-84.1396"/>
<polygon fill="#191970" stroke="#191970" points="1609.5262,-87.5815 1619.0299,-82.8986 1608.6802,-80.6328 1609.5262,-87.5815"/>
</g>
<!-- Node21 -->
<g id="node22" class="node">
<title>Node21</title>
<polygon fill="#ffffff" stroke="#bfbfbf" points="1285.0669,-65.5 1285.0669,-83.5 1423.3862,-83.5 1423.3862,-65.5 1285.0669,-65.5"/>
<text text-anchor="middle" x="1354.2266" y="-71.5" font-family="Helvetica,sans-Serif" font-size="10.00" fill="#000000">opencv2/cudaobjdetect.hpp</text>
</g>
<!-- Node1&#45;&gt;Node21 -->
<g id="edge21" class="edge">
<title>Node1&#45;&gt;Node21</title>
<path fill="none" stroke="#191970" d="M1211.4637,-120.4179C1240.1388,-111.1949 1284.7176,-96.8567 1316.4256,-86.6582"/>
<polygon fill="#191970" stroke="#191970" points="1317.7836,-89.8981 1326.2317,-83.5042 1315.6403,-83.2343 1317.7836,-89.8981"/>
</g>
<!-- Node22 -->
<g id="node23" class="node">
<title>Node22</title>
<polygon fill="#ffffff" stroke="#bfbfbf" points="1441.2271,-65.5 1441.2271,-83.5 1601.2261,-83.5 1601.2261,-65.5 1441.2271,-65.5"/>
<text text-anchor="middle" x="1521.2266" y="-71.5" font-family="Helvetica,sans-Serif" font-size="10.00" fill="#000000">opencv2/objdetect/objdetect.hpp</text>
</g>
<!-- Node1&#45;&gt;Node22 -->
<g id="edge22" class="edge">
<title>Node1&#45;&gt;Node22</title>
<path fill="none" stroke="#191970" d="M1238.6619,-120.4795C1298.0937,-110.8086 1392.4,-95.4629 1455.5205,-85.1918"/>
<polygon fill="#191970" stroke="#191970" points="1456.4529,-88.5862 1465.7609,-83.5255 1455.3286,-81.6771 1456.4529,-88.5862"/>
</g>
<!-- Node3 -->
<g id="node4" class="node">
<title>Node3</title>
<polygon fill="#ffffff" stroke="#bfbfbf" points="0,-5.5 0,-23.5 40.4531,-23.5 40.4531,-5.5 0,-5.5"/>
<text text-anchor="middle" x="20.2266" y="-11.5" font-family="Helvetica,sans-Serif" font-size="10.00" fill="#000000">string</text>
</g>
<!-- Node2&#45;&gt;Node3 -->
<g id="edge3" class="edge">
<title>Node2&#45;&gt;Node3</title>
<path fill="none" stroke="#191970" d="M727.1913,-73.7956C576.8847,-71.5107 177.7727,-62.3878 50.2266,-29 48.5722,-28.5669 46.8998,-28.0405 45.2357,-27.4481"/>
<polygon fill="#191970" stroke="#191970" points="46.5504,-24.204 35.9774,-23.5236 43.8184,-30.6489 46.5504,-24.204"/>
</g>
<!-- Node4 -->
<g id="node5" class="node">
<title>Node4</title>
<polygon fill="#ffffff" stroke="#bfbfbf" points="58.8418,-.5 58.8418,-28.5 213.6113,-28.5 213.6113,-.5 58.8418,-.5"/>
<text text-anchor="start" x="66.8418" y="-16.5" font-family="Helvetica,sans-Serif" font-size="10.00" fill="#000000">BayesFilters/VisualObservation</text>
<text text-anchor="middle" x="136.2266" y="-6.5" font-family="Helvetica,sans-Serif" font-size="10.00" fill="#000000">Model.h</text>
</g>
<!-- Node2&#45;&gt;Node4 -->
<g id="edge4" class="edge">
<title>Node2&#45;&gt;Node4</title>
<path fill="none" stroke="#191970" d="M727.2163,-71.4218C626.8761,-65.743 414.2415,-52.1516 224.1488,-29.0403"/>
<polygon fill="#191970" stroke="#191970" points="224.3194,-25.5351 213.9674,-27.7906 223.4665,-32.4829 224.3194,-25.5351"/>
</g>
<!-- Node5 -->
<g id="node6" class="node">
<title>Node5</title>
<polygon fill="#ffffff" stroke="#bfbfbf" points="231.8745,-5.5 231.8745,-23.5 334.5786,-23.5 334.5786,-5.5 231.8745,-5.5"/>
<text text-anchor="middle" x="283.2266" y="-11.5" font-family="Helvetica,sans-Serif" font-size="10.00" fill="#000000">iCub/iKin/iKinFwd.h</text>
</g>
<!-- Node2&#45;&gt;Node5 -->
<g id="edge5" class="edge">
<title>Node2&#45;&gt;Node5</title>
<path fill="none" stroke="#191970" d="M726.9679,-71.0095C642.0985,-65.3585 479.7032,-52.4061 343.2266,-29 337.8794,-28.0829 332.3007,-26.9615 326.7911,-25.7525"/>
<polygon fill="#191970" stroke="#191970" points="327.5432,-22.3342 317.0135,-23.5067 325.9762,-29.1565 327.5432,-22.3342"/>
</g>
<!-- Node2&#45;&gt;Node6 -->
<g id="edge6" class="edge">
<title>Node2&#45;&gt;Node6</title>
<path fill="none" stroke="#191970" d="M843.2946,-65.9564C846.3126,-65.6095 849.3036,-65.2875 852.2266,-65 1140.6102,-36.6337 1214.1851,-49.6105 1503.2266,-29 1534.976,-26.7361 1570.098,-23.7397 1599.8287,-21.0587"/>
<polygon fill="#191970" stroke="#191970" points="1600.4632,-24.5156 1610.1056,-20.1253 1599.83,-17.5443 1600.4632,-24.5156"/>
</g>
<!-- Node7 -->
<g id="node8" class="node">
<title>Node7</title>
<polygon fill="#ffffff" stroke="#bfbfbf" points="352.6997,-5.5 352.6997,-23.5 493.7534,-23.5 493.7534,-5.5 352.6997,-5.5"/>
<text text-anchor="middle" x="423.2266" y="-11.5" font-family="Helvetica,sans-Serif" font-size="10.00" fill="#000000">SuperimposeMesh/SICAD.h</text>
</g>
<!-- Node2&#45;&gt;Node7 -->
<g id="edge7" class="edge">
<title>Node2&#45;&gt;Node7</title>
<path fill="none" stroke="#191970" d="M727.1701,-65.5502C669.9195,-56.634 579.9575,-42.3805 502.2266,-29 495.5787,-27.8556 488.6224,-26.626 481.7116,-25.3842"/>
<polygon fill="#191970" stroke="#191970" points="482.1237,-21.902 471.6601,-23.5646 480.8767,-28.79 482.1237,-21.902"/>
</g>
<!-- Node8 -->
<g id="node9" class="node">
<title>Node8</title>
<polygon fill="#ffffff" stroke="#bfbfbf" points="511.4214,-5.5 511.4214,-23.5 633.0317,-23.5 633.0317,-5.5 511.4214,-5.5"/>
<text text-anchor="middle" x="572.2266" y="-11.5" font-family="Helvetica,sans-Serif" font-size="10.00" fill="#000000">yarp/dev/GazeControl.h</text>
</g>
<!-- Node2&#45;&gt;Node8 -->
<g id="edge8" class="edge">
<title>Node2&#45;&gt;Node8</title>
<path fill="none" stroke="#191970" d="M752.8764,-65.3873C715.6765,-54.9084 654.5152,-37.6799 613.8099,-26.2136"/>
<polygon fill="#191970" stroke="#191970" points="614.7576,-22.8444 604.1832,-23.5019 612.8596,-29.5822 614.7576,-22.8444"/>
</g>
<!-- Node9 -->
<g id="node10" class="node">
<title>Node9</title>
<polygon fill="#ffffff" stroke="#bfbfbf" points="650.9634,-5.5 650.9634,-23.5 781.4897,-23.5 781.4897,-5.5 650.9634,-5.5"/>
<text text-anchor="middle" x="716.2266" y="-11.5" font-family="Helvetica,sans-Serif" font-size="10.00" fill="#000000">yarp/dev/IAnalogSensor.h</text>
</g>
<!-- Node2&#45;&gt;Node9 -->
<g id="edge9" class="edge">
<title>Node2&#45;&gt;Node9</title>
<path fill="none" stroke="#191970" d="M774.7469,-65.3873C764.1084,-56.1364 747.4203,-41.625 734.5827,-30.4618"/>
<polygon fill="#191970" stroke="#191970" points="736.6475,-27.6192 726.8048,-23.6985 732.0542,-32.9014 736.6475,-27.6192"/>
</g>
<!-- Node10 -->
<g id="node11" class="node">
<title>Node10</title>
<polygon fill="#ffffff" stroke="#bfbfbf" points="799.7046,-5.5 799.7046,-23.5 910.7485,-23.5 910.7485,-5.5 799.7046,-5.5"/>
<text text-anchor="middle" x="855.2266" y="-11.5" font-family="Helvetica,sans-Serif" font-size="10.00" fill="#000000">yarp/dev/PolyDriver.h</text>
</g>
<!-- Node2&#45;&gt;Node10 -->
<g id="edge10" class="edge">
<title>Node2&#45;&gt;Node10</title>
<path fill="none" stroke="#191970" d="M795.8581,-65.3873C806.6508,-56.1364 823.5807,-41.625 836.6044,-30.4618"/>
<polygon fill="#191970" stroke="#191970" points="839.1802,-32.8638 844.495,-23.6985 834.6246,-27.549 839.1802,-32.8638"/>
</g>
<!-- Node11 -->
<g id="node12" class="node">
<title>Node11</title>
<polygon fill="#ffffff" stroke="#bfbfbf" points="928.4854,-5.5 928.4854,-23.5 1013.9678,-23.5 1013.9678,-5.5 928.4854,-5.5"/>
<text text-anchor="middle" x="971.2266" y="-11.5" font-family="Helvetica,sans-Serif" font-size="10.00" fill="#000000">yarp/os/Bottle.h</text>
</g>
<!-- Node2&#45;&gt;Node11 -->
<g id="edge11" class="edge">
<title>Node2&#45;&gt;Node11</title>
<path fill="none" stroke="#191970" d="M813.476,-65.3873C845.617,-55.0192 898.2421,-38.0434 933.7812,-26.5791"/>
<polygon fill="#191970" stroke="#191970" points="934.8782,-29.903 943.3208,-23.5019 932.7291,-23.241 934.8782,-29.903"/>
</g>
<!-- Node12 -->
<g id="node13" class="node">
<title>Node12</title>
<polygon fill="#ffffff" stroke="#bfbfbf" points="1032.2876,-5.5 1032.2876,-23.5 1148.1655,-23.5 1148.1655,-5.5 1032.2876,-5.5"/>
<text text-anchor="middle" x="1090.2266" y="-11.5" font-family="Helvetica,sans-Serif" font-size="10.00" fill="#000000">yarp/os/BufferedPort.h</text>
</g>
<!-- Node2&#45;&gt;Node12 -->
<g id="edge12" class="edge">
<title>Node2&#45;&gt;Node12</title>
<path fill="none" stroke="#191970" d="M834.5237,-65.436C882.7033,-56.4925 958.0979,-42.271 1023.2266,-29 1028.3431,-27.9574 1033.6738,-26.8463 1038.995,-25.7208"/>
<polygon fill="#191970" stroke="#191970" points="1040.1079,-29.0622 1049.1575,-23.5527 1038.6473,-22.2162 1040.1079,-29.0622"/>
</g>
<!-- Node13 -->
<g id="node14" class="node">
<title>Node13</title>
<polygon fill="#ffffff" stroke="#bfbfbf" points="1166.1479,-5.5 1166.1479,-23.5 1278.3052,-23.5 1278.3052,-5.5 1166.1479,-5.5"/>
<text text-anchor="middle" x="1222.2266" y="-11.5" font-family="Helvetica,sans-Serif" font-size="10.00" fill="#000000">yarp/os/ConstString.h</text>
</g>
<!-- Node2&#45;&gt;Node13 -->
<g id="edge13" class="edge">
<title>Node2&#45;&gt;Node13</title>
<path fill="none" stroke="#191970" d="M843.3199,-66.1782C846.3313,-65.7734 849.314,-65.3783 852.2266,-65 987.586,-47.4176 1022.6628,-51.8891 1157.2266,-29 1162.9952,-28.0188 1169.0234,-26.8588 1174.983,-25.6291"/>
<polygon fill="#191970" stroke="#191970" points="1175.8417,-29.0247 1184.89,-23.5131 1174.3795,-22.1791 1175.8417,-29.0247"/>
</g>
<!-- Node14 -->
<g id="node15" class="node">
<title>Node14</title>
<polygon fill="#ffffff" stroke="#bfbfbf" points="1296.5493,-5.5 1296.5493,-23.5 1385.9038,-23.5 1385.9038,-5.5 1296.5493,-5.5"/>
<text text-anchor="middle" x="1341.2266" y="-11.5" font-family="Helvetica,sans-Serif" font-size="10.00" fill="#000000">yarp/sig/Matrix.h</text>
</g>
<!-- Node2&#45;&gt;Node14 -->
<g id="edge14" class="edge">
<title>Node2&#45;&gt;Node14</title>
<path fill="none" stroke="#191970" d="M843.3049,-66.0539C846.3201,-65.6815 849.3078,-65.3274 852.2266,-65 1045.0116,-43.3737 1096.1098,-62.2888 1287.2266,-29 1291.9394,-28.1791 1296.8389,-27.1369 1301.6785,-25.9891"/>
<polygon fill="#191970" stroke="#191970" points="1302.6108,-29.3636 1311.4494,-23.5216 1300.8968,-22.5767 1302.6108,-29.3636"/>
</g>
<!-- Node15 -->
<g id="node16" class="node">
<title>Node15</title>
<polygon fill="#ffffff" stroke="#bfbfbf" points="1404.2563,-5.5 1404.2563,-23.5 1494.1968,-23.5 1494.1968,-5.5 1404.2563,-5.5"/>
<text text-anchor="middle" x="1449.2266" y="-11.5" font-family="Helvetica,sans-Serif" font-size="10.00" fill="#000000">yarp/sig/Vector.h</text>
</g>
<!-- Node2&#45;&gt;Node15 -->
<g id="edge15" class="edge">
<title>Node2&#45;&gt;Node15</title>
<path fill="none" stroke="#191970" d="M843.2986,-65.9955C846.3155,-65.6384 849.3052,-65.3035 852.2266,-65 1092.7947,-40.0054 1156.6192,-68.5515 1395.2266,-29 1400.0028,-28.2083 1404.9676,-27.1747 1409.8663,-26.0235"/>
<polygon fill="#191970" stroke="#191970" points="1410.9044,-29.3715 1419.7469,-23.5353 1409.1949,-22.5834 1410.9044,-29.3715"/>
</g>
</g>
</svg>
