<?xml version="1.0" encoding="UTF-8" standalone="no"?>
<!DOCTYPE svg PUBLIC "-//W3C//DTD SVG 1.1//EN"
 "http://www.w3.org/Graphics/SVG/1.1/DTD/svg11.dtd">
<!-- Generated by graphviz version 2.40.1 (20161225.0304)
 -->
<!-- Title: /Users/Claudio/GitHub/visual&#45;tracking&#45;control/src/visualservoing/visualservoingclient&#45;app/src/main.cpp Pages: 1 -->
<!--zoomable 112 -->
<svg id="main" version="1.1" xmlns="http://www.w3.org/2000/svg" xmlns:xlink="http://www.w3.org/1999/xlink" xml:space="preserve" onload="init(evt)">
<style type="text/css"><![CDATA[
.edge:hover path { stroke: red; }
.edge:hover polygon { stroke: red; fill: red; }
]]></style>
<script type="text/javascript"><![CDATA[
var edges = document.getElementsByTagName('g');
if (edges && edges.length) {
  for (var i=0;i<edges.length;i++) {
    if (edges[i].id.substr(0,4)=='edge') {
      edges[i].setAttribute('class','edge');
    }
  }
}
]]></script>
        <defs>
                <circle id="rim" cx="0" cy="0" r="7"/>
                <circle id="rim2" cx="0" cy="0" r="3.5"/>
                <g id="zoomPlus">
                        <use xlink:href="#rim" fill="#404040">
                                <set attributeName="fill" to="#808080" begin="zoomplus.mouseover" end="zoomplus.mouseout"/>
                        </use>
                        <path d="M-4,0h8M0,-4v8" fill="none" stroke="white" stroke-width="1.5" pointer-events="none"/>
                </g>
                <g id="zoomMin">
                        <use xlink:href="#rim" fill="#404040">
                                <set attributeName="fill" to="#808080" begin="zoomminus.mouseover" end="zoomminus.mouseout"/>
                        </use>
                        <path d="M-4,0h8" fill="none" stroke="white" stroke-width="1.5" pointer-events="none"/>
                </g>
                <g id="dirArrow">
                        <path fill="none" stroke="white" stroke-width="1.5" d="M0,-3.0v7 M-2.5,-0.5L0,-3.0L2.5,-0.5"/>
                </g>
               <g id="resetDef">
                       <use xlink:href="#rim2" fill="#404040">
                               <set attributeName="fill" to="#808080" begin="reset.mouseover" end="reset.mouseout"/>
                       </use>
               </g>
        </defs>

<script type="text/javascript">
var viewWidth = 740;
var viewHeight = 112;
var sectionId = 'dynsection-0';
</script>
<script xlink:href="svgpan.js"/>
<svg id="graph" class="graph">
<g id="viewport">
<title>/Users/Claudio/GitHub/visual&#45;tracking&#45;control/src/visualservoing/visualservoingclient&#45;app/src/main.cpp</title>
<polygon fill="#ffffff" stroke="transparent" points="-4,4 -4,-108 736.3198,-108 736.3198,4 -4,4"/>
<!-- Node0 -->
<g id="node1" class="node">
<title>Node0</title>
<polygon fill="#bfbfbf" stroke="#000000" points="263.5444,-55.5 263.5444,-103.5 451.2827,-103.5 451.2827,-55.5 263.5444,-55.5"/>
<text text-anchor="start" x="271.5444" y="-91.5" font-family="Helvetica,sans-Serif" font-size="10.00" fill="#000000">/Users/Claudio/GitHub</text>
<text text-anchor="start" x="271.5444" y="-81.5" font-family="Helvetica,sans-Serif" font-size="10.00" fill="#000000">/visual&#45;tracking&#45;control</text>
<text text-anchor="start" x="271.5444" y="-71.5" font-family="Helvetica,sans-Serif" font-size="10.00" fill="#000000">/src/visualservoing/visualservoingclient</text>
<text text-anchor="middle" x="357.4136" y="-61.5" font-family="Helvetica,sans-Serif" font-size="10.00" fill="#000000">&#45;app/src/main.cpp</text>
</g>
<!-- Node1 -->
<g id="node2" class="node">
<title>Node1</title>
<polygon fill="#ffffff" stroke="#bfbfbf" points="0,-.5 0,-18.5 108.8271,-18.5 108.8271,-.5 0,-.5"/>
<text text-anchor="middle" x="54.4136" y="-6.5" font-family="Helvetica,sans-Serif" font-size="10.00" fill="#000000">yarp/os/LogStream.h</text>
</g>
<!-- Node0&#45;&gt;Node1 -->
<g id="edge1" class="edge">
<title>Node0&#45;&gt;Node1</title>
<path fill="none" stroke="#191970" d="M263.2034,-57.7353C210.2904,-45.5111 146.4432,-30.761 103.3964,-20.8162"/>
<polygon fill="#191970" stroke="#191970" points="103.992,-17.3617 93.4608,-18.5208 102.4163,-24.182 103.992,-17.3617"/>
</g>
<!-- Node2 -->
<g id="node3" class="node">
<title>Node2</title>
<polygon fill="#ffffff" stroke="#bfbfbf" points="126.9302,-.5 126.9302,-18.5 223.897,-18.5 223.897,-.5 126.9302,-.5"/>
<text text-anchor="middle" x="175.4136" y="-6.5" font-family="Helvetica,sans-Serif" font-size="10.00" fill="#000000">yarp/os/Property.h</text>
</g>
<!-- Node0&#45;&gt;Node2 -->
<g id="edge2" class="edge">
<title>Node0&#45;&gt;Node2</title>
<path fill="none" stroke="#191970" d="M294.7795,-55.41C265.6794,-44.2176 232.2793,-31.3714 208.2239,-22.1193"/>
<polygon fill="#191970" stroke="#191970" points="209.4387,-18.8367 198.8488,-18.5136 206.9258,-25.3701 209.4387,-18.8367"/>
</g>
<!-- Node3 -->
<g id="node4" class="node">
<title>Node3</title>
<polygon fill="#ffffff" stroke="#bfbfbf" points="241.8447,-.5 241.8447,-18.5 338.9824,-18.5 338.9824,-.5 241.8447,-.5"/>
<text text-anchor="middle" x="290.4136" y="-6.5" font-family="Helvetica,sans-Serif" font-size="10.00" fill="#000000">yarp/dev/Drivers.h</text>
</g>
<!-- Node0&#45;&gt;Node3 -->
<g id="edge3" class="edge">
<title>Node0&#45;&gt;Node3</title>
<path fill="none" stroke="#191970" d="M334.356,-55.41C325.082,-45.7207 314.6217,-34.7921 306.234,-26.0288"/>
<polygon fill="#191970" stroke="#191970" points="308.6501,-23.4913 299.2071,-18.6872 303.5932,-28.3316 308.6501,-23.4913"/>
</g>
<!-- Node4 -->
<g id="node5" class="node">
<title>Node4</title>
<polygon fill="#ffffff" stroke="#bfbfbf" points="357.0239,-.5 357.0239,-18.5 491.8032,-18.5 491.8032,-.5 357.0239,-.5"/>
<text text-anchor="middle" x="424.4136" y="-6.5" font-family="Helvetica,sans-Serif" font-size="10.00" fill="#000000">yarp/dev/IVisualServoing.h</text>
</g>
<!-- Node0&#45;&gt;Node4 -->
<g id="edge4" class="edge">
<title>Node0&#45;&gt;Node4</title>
<path fill="none" stroke="#191970" d="M380.4712,-55.41C389.7451,-45.7207 400.2054,-34.7921 408.5932,-26.0288"/>
<polygon fill="#191970" stroke="#191970" points="411.2339,-28.3316 415.6201,-18.6872 406.177,-23.4913 411.2339,-28.3316"/>
</g>
<!-- Node5 -->
<g id="node6" class="node">
<title>Node5</title>
<polygon fill="#ffffff" stroke="#bfbfbf" points="509.8916,-.5 509.8916,-18.5 620.9355,-18.5 620.9355,-.5 509.8916,-.5"/>
<text text-anchor="middle" x="565.4136" y="-6.5" font-family="Helvetica,sans-Serif" font-size="10.00" fill="#000000">yarp/dev/PolyDriver.h</text>
</g>
<!-- Node0&#45;&gt;Node5 -->
<g id="edge5" class="edge">
<title>Node0&#45;&gt;Node5</title>
<path fill="none" stroke="#191970" d="M428.9954,-55.41C462.6961,-44.0684 501.443,-31.0286 529.01,-21.7512"/>
<polygon fill="#191970" stroke="#191970" points="530.2691,-25.0204 538.6304,-18.5136 528.0364,-18.386 530.2691,-25.0204"/>
</g>
<!-- Node6 -->
<g id="node7" class="node">
<title>Node6</title>
<polygon fill="#ffffff" stroke="#bfbfbf" points="638.5073,-.5 638.5073,-18.5 732.3198,-18.5 732.3198,-.5 638.5073,-.5"/>
<text text-anchor="middle" x="685.4136" y="-6.5" font-family="Helvetica,sans-Serif" font-size="10.00" fill="#000000">yarp/math/Math.h</text>
</g>
<!-- Node0&#45;&gt;Node6 -->
<g id="edge6" class="edge">
<title>Node0&#45;&gt;Node6</title>
<path fill="none" stroke="#191970" d="M451.4052,-59.4408C510.4339,-46.8432 584.3589,-31.0665 633.1415,-20.6556"/>
<polygon fill="#191970" stroke="#191970" points="634.1059,-24.0287 643.1551,-18.5186 632.6448,-17.1829 634.1059,-24.0287"/>
</g>
</g>
</svg>
        <g id="navigator" transform="translate(0 0)" fill="#404254">
                <rect fill="#f2f5e9" fill-opacity="0.5" stroke="#606060" stroke-width=".5" x="0" y="0" width="60" height="60"/>
                <use id="zoomplus" xlink:href="#zoomPlus" x="17" y="9" onmousedown="handleZoom(evt,'in')"/>
                <use id="zoomminus" xlink:href="#zoomMin" x="42" y="9" onmousedown="handleZoom(evt,'out')"/>
                <use id="reset" xlink:href="#resetDef" x="30" y="36" onmousedown="handleReset()"/>
                <g id="arrowUp" xlink:href="#dirArrow" transform="translate(30 24)" onmousedown="handlePan(0,-1)">
                  <use xlink:href="#rim" fill="#404040">
                        <set attributeName="fill" to="#808080" begin="arrowUp.mouseover" end="arrowUp.mouseout"/>
                  </use>
                  <path fill="none" stroke="white" stroke-width="1.5" d="M0,-3.0v7 M-2.5,-0.5L0,-3.0L2.5,-0.5"/>
                </g>
                <g id="arrowRight" xlink:href="#dirArrow" transform="rotate(90) translate(36 -43)" onmousedown="handlePan(1,0)">
                  <use xlink:href="#rim" fill="#404040">
                        <set attributeName="fill" to="#808080" begin="arrowRight.mouseover" end="arrowRight.mouseout"/>
                  </use>
                  <path fill="none" stroke="white" stroke-width="1.5" d="M0,-3.0v7 M-2.5,-0.5L0,-3.0L2.5,-0.5"/>
                </g>
                <g id="arrowDown" xlink:href="#dirArrow" transform="rotate(180) translate(-30 -48)" onmousedown="handlePan(0,1)">
                  <use xlink:href="#rim" fill="#404040">
                        <set attributeName="fill" to="#808080" begin="arrowDown.mouseover" end="arrowDown.mouseout"/>
                  </use>
                  <path fill="none" stroke="white" stroke-width="1.5" d="M0,-3.0v7 M-2.5,-0.5L0,-3.0L2.5,-0.5"/>
                </g>
                <g id="arrowLeft" xlink:href="#dirArrow" transform="rotate(270) translate(-36 17)" onmousedown="handlePan(-1,0)">
                  <use xlink:href="#rim" fill="#404040">
                        <set attributeName="fill" to="#808080" begin="arrowLeft.mouseover" end="arrowLeft.mouseout"/>
                  </use>
                  <path fill="none" stroke="white" stroke-width="1.5" d="M0,-3.0v7 M-2.5,-0.5L0,-3.0L2.5,-0.5"/>
                </g>
        </g>
        <svg viewBox="0 0 15 15" width="100%" height="30px" preserveAspectRatio="xMaxYMin meet">
         <g id="arrow_out" transform="scale(0.3 0.3)">
          <a xlink:href="visualservoing_2visualservoingclient-app_2src_2main_8cpp__incl_org.svg" target="_base">
           <rect id="button" ry="5" rx="5" y="6" x="6" height="38" width="38"
                fill="#f2f5e9" fill-opacity="0.5" stroke="#606060" stroke-width="1.0"/>
           <path id="arrow"
             d="M 11.500037,31.436501 C 11.940474,20.09759 22.043105,11.32322 32.158766,21.979434 L 37.068811,17.246167 C 37.068811,17.246167 37.088388,32 37.088388,32 L 22.160133,31.978069 C 22.160133,31.978069 26.997745,27.140456 26.997745,27.140456 C 18.528582,18.264221 13.291696,25.230495 11.500037,31.436501 z"
             style="fill:#404040;"/>
          </a>
         </g>
        </svg>
</svg>
