<?xml version="1.0" encoding="UTF-8" standalone="no"?>
<!DOCTYPE svg PUBLIC "-//W3C//DTD SVG 1.1//EN"
 "http://www.w3.org/Graphics/SVG/1.1/DTD/svg11.dtd">
<!-- Generated by graphviz version 2.40.1 (20161225.0304)
 -->
<!-- Title: /Users/Claudio/GitHub/visual&#45;tracking&#45;control/src/hand&#45;tracking/src/VisualSIS.cpp Pages: 1 -->
<svg width="2518pt" height="167pt"
 viewBox="0.00 0.00 2517.51 167.00" xmlns="http://www.w3.org/2000/svg" xmlns:xlink="http://www.w3.org/1999/xlink">
<g id="graph0" class="graph" transform="scale(1 1) rotate(0) translate(4 163)">
<title>/Users/Claudio/GitHub/visual&#45;tracking&#45;control/src/hand&#45;tracking/src/VisualSIS.cpp</title>
<polygon fill="#ffffff" stroke="transparent" points="-4,4 -4,-163 2513.5137,-163 2513.5137,4 -4,4"/>
<!-- Node0 -->
<g id="node1" class="node">
<title>Node0</title>
<polygon fill="#bfbfbf" stroke="#000000" points="1421.4082,-120.5 1421.4082,-158.5 1597.8525,-158.5 1597.8525,-120.5 1421.4082,-120.5"/>
<text text-anchor="start" x="1429.4082" y="-146.5" font-family="Helvetica,sans-Serif" font-size="10.00" fill="#000000">/Users/Claudio/GitHub</text>
<text text-anchor="start" x="1429.4082" y="-136.5" font-family="Helvetica,sans-Serif" font-size="10.00" fill="#000000">/visual&#45;tracking&#45;control</text>
<text text-anchor="middle" x="1509.6304" y="-126.5" font-family="Helvetica,sans-Serif" font-size="10.00" fill="#000000">/src/hand&#45;tracking/src/VisualSIS.cpp</text>
</g>
<!-- Node1 -->
<g id="node2" class="node">
<title>Node1</title>
<g id="a_node2"><a xlink:href="VisualSIS_8h.html" target="_top" xlink:title="VisualSIS.h">
<polygon fill="#ffffff" stroke="#000000" points="917.8711,-65.5 917.8711,-83.5 985.3896,-83.5 985.3896,-65.5 917.8711,-65.5"/>
<text text-anchor="middle" x="951.6304" y="-71.5" font-family="Helvetica,sans-Serif" font-size="10.00" fill="#000000">VisualSIS.h</text>
</a>
</g>
</g>
<!-- Node0&#45;&gt;Node1 -->
<g id="edge1" class="edge">
<title>Node0&#45;&gt;Node1</title>
<path fill="none" stroke="#191970" d="M1421.2961,-132.9563C1320.6112,-124.8253 1150.9809,-109.0851 996.0173,-84.0732"/>
<polygon fill="#191970" stroke="#191970" points="996.2652,-80.5675 985.8322,-82.4123 995.1385,-87.4762 996.2652,-80.5675"/>
</g>
<!-- Node8 -->
<g id="node9" class="node">
<title>Node8</title>
<polygon fill="#ffffff" stroke="#bfbfbf" points="0,-5.5 0,-23.5 73.2607,-23.5 73.2607,-5.5 0,-5.5"/>
<text text-anchor="middle" x="36.6304" y="-11.5" font-family="Helvetica,sans-Serif" font-size="10.00" fill="#000000">Eigen/Dense</text>
</g>
<!-- Node0&#45;&gt;Node8 -->
<g id="edge24" class="edge">
<title>Node0&#45;&gt;Node8</title>
<path fill="none" stroke="#191970" d="M1421.0507,-135.2914C1151.0979,-122.0474 341.3708,-79.1151 82.6304,-29 78.9619,-28.2895 75.1746,-27.386 71.4214,-26.3786"/>
<polygon fill="#191970" stroke="#191970" points="72.2513,-22.9748 61.671,-23.5297 70.2881,-29.6939 72.2513,-22.9748"/>
</g>
<!-- Node21 -->
<g id="node22" class="node">
<title>Node21</title>
<polygon fill="#ffffff" stroke="#bfbfbf" points="1003.2266,-65.5 1003.2266,-83.5 1062.0342,-83.5 1062.0342,-65.5 1003.2266,-65.5"/>
<text text-anchor="middle" x="1032.6304" y="-71.5" font-family="Helvetica,sans-Serif" font-size="10.00" fill="#000000">exception</text>
</g>
<!-- Node0&#45;&gt;Node21 -->
<g id="edge21" class="edge">
<title>Node0&#45;&gt;Node21</title>
<path fill="none" stroke="#191970" d="M1421.0903,-131.2446C1334.5503,-122.499 1198.955,-106.9989 1072.25,-83.9283"/>
<polygon fill="#191970" stroke="#191970" points="1072.8347,-80.4771 1062.3664,-82.1097 1071.5679,-87.3616 1072.8347,-80.4771"/>
</g>
<!-- Node22 -->
<g id="node23" class="node">
<title>Node22</title>
<polygon fill="#ffffff" stroke="#bfbfbf" points="1080.458,-65.5 1080.458,-83.5 1134.8027,-83.5 1134.8027,-65.5 1080.458,-65.5"/>
<text text-anchor="middle" x="1107.6304" y="-71.5" font-family="Helvetica,sans-Serif" font-size="10.00" fill="#000000">iostream</text>
</g>
<!-- Node0&#45;&gt;Node22 -->
<g id="edge22" class="edge">
<title>Node0&#45;&gt;Node22</title>
<path fill="none" stroke="#191970" d="M1421.0567,-128.5655C1349.2582,-119.1163 1245.3238,-104.1151 1145.0429,-83.9006"/>
<polygon fill="#191970" stroke="#191970" points="1145.5356,-80.4292 1135.0384,-81.8639 1144.1391,-87.2885 1145.5356,-80.4292"/>
</g>
<!-- Node23 -->
<g id="node24" class="node">
<title>Node23</title>
<polygon fill="#ffffff" stroke="#bfbfbf" points="1153.2388,-65.5 1153.2388,-83.5 1192.022,-83.5 1192.022,-65.5 1153.2388,-65.5"/>
<text text-anchor="middle" x="1172.6304" y="-71.5" font-family="Helvetica,sans-Serif" font-size="10.00" fill="#000000">utility</text>
</g>
<!-- Node0&#45;&gt;Node23 -->
<g id="edge23" class="edge">
<title>Node0&#45;&gt;Node23</title>
<path fill="none" stroke="#191970" d="M1421.3027,-127.2257C1361.641,-118.0998 1281.0543,-104.1558 1202.2059,-84.1243"/>
<polygon fill="#191970" stroke="#191970" points="1202.6572,-80.6264 1192.1002,-81.5206 1200.9106,-87.405 1202.6572,-80.6264"/>
</g>
<!-- Node24 -->
<g id="node25" class="node">
<title>Node24</title>
<polygon fill="#ffffff" stroke="#bfbfbf" points="1209.6182,-65.5 1209.6182,-83.5 1295.6426,-83.5 1295.6426,-65.5 1209.6182,-65.5"/>
<text text-anchor="middle" x="1252.6304" y="-71.5" font-family="Helvetica,sans-Serif" font-size="10.00" fill="#000000">iCub/ctrl/math.h</text>
</g>
<!-- Node0&#45;&gt;Node24 -->
<g id="edge25" class="edge">
<title>Node0&#45;&gt;Node24</title>
<path fill="none" stroke="#191970" d="M1434.2584,-120.437C1390.2587,-109.3087 1336.1726,-95.6294 1298.5171,-86.1056"/>
<polygon fill="#191970" stroke="#191970" points="1298.907,-82.5941 1288.354,-83.5352 1297.1906,-89.3804 1298.907,-82.5941"/>
</g>
<!-- Node25 -->
<g id="node26" class="node">
<title>Node25</title>
<polygon fill="#ffffff" stroke="#bfbfbf" points="1313.7637,-65.5 1313.7637,-83.5 1431.4971,-83.5 1431.4971,-65.5 1313.7637,-65.5"/>
<text text-anchor="middle" x="1372.6304" y="-71.5" font-family="Helvetica,sans-Serif" font-size="10.00" fill="#000000">opencv2/core/core.hpp</text>
</g>
<!-- Node0&#45;&gt;Node25 -->
<g id="edge26" class="edge">
<title>Node0&#45;&gt;Node25</title>
<path fill="none" stroke="#191970" d="M1469.2668,-120.3494C1447.2901,-109.9225 1420.6366,-97.2767 1400.8926,-87.9091"/>
<polygon fill="#191970" stroke="#191970" points="1402.3408,-84.7223 1391.8058,-83.5978 1399.3402,-91.0466 1402.3408,-84.7223"/>
</g>
<!-- Node26 -->
<g id="node27" class="node">
<title>Node26</title>
<polygon fill="#ffffff" stroke="#bfbfbf" points="1449.6479,-65.5 1449.6479,-83.5 1569.6128,-83.5 1569.6128,-65.5 1449.6479,-65.5"/>
<text text-anchor="middle" x="1509.6304" y="-71.5" font-family="Helvetica,sans-Serif" font-size="10.00" fill="#000000">opencv2/core/cuda.hpp</text>
</g>
<!-- Node0&#45;&gt;Node26 -->
<g id="edge27" class="edge">
<title>Node0&#45;&gt;Node26</title>
<path fill="none" stroke="#191970" d="M1509.6304,-120.3494C1509.6304,-112.0079 1509.6304,-102.2463 1509.6304,-93.879"/>
<polygon fill="#191970" stroke="#191970" points="1513.1305,-93.5978 1509.6304,-83.5978 1506.1305,-93.5979 1513.1305,-93.5978"/>
</g>
<!-- Node27 -->
<g id="node28" class="node">
<title>Node27</title>
<polygon fill="#ffffff" stroke="#bfbfbf" points="1587.2563,-65.5 1587.2563,-83.5 1710.0044,-83.5 1710.0044,-65.5 1587.2563,-65.5"/>
<text text-anchor="middle" x="1648.6304" y="-71.5" font-family="Helvetica,sans-Serif" font-size="10.00" fill="#000000">opencv2/core/eigen.hpp</text>
</g>
<!-- Node0&#45;&gt;Node27 -->
<g id="edge28" class="edge">
<title>Node0&#45;&gt;Node27</title>
<path fill="none" stroke="#191970" d="M1550.5832,-120.3494C1572.8808,-109.9225 1599.9233,-97.2767 1619.9556,-87.9091"/>
<polygon fill="#191970" stroke="#191970" points="1621.5991,-91.0044 1629.175,-83.5978 1618.6339,-84.6634 1621.5991,-91.0044"/>
</g>
<!-- Node28 -->
<g id="node29" class="node">
<title>Node28</title>
<polygon fill="#ffffff" stroke="#bfbfbf" points="1727.6504,-65.5 1727.6504,-83.5 1877.6104,-83.5 1877.6104,-65.5 1727.6504,-65.5"/>
<text text-anchor="middle" x="1802.6304" y="-71.5" font-family="Helvetica,sans-Serif" font-size="10.00" fill="#000000">opencv2/imgproc/imgproc.hpp</text>
</g>
<!-- Node0&#45;&gt;Node28 -->
<g id="edge29" class="edge">
<title>Node0&#45;&gt;Node28</title>
<path fill="none" stroke="#191970" d="M1595.5603,-120.437C1646.3664,-109.1661 1708.9687,-95.2782 1751.9578,-85.7414"/>
<polygon fill="#191970" stroke="#191970" points="1752.898,-89.118 1761.9026,-83.5352 1751.3819,-82.2841 1752.898,-89.118"/>
</g>
<!-- Node29 -->
<g id="node30" class="node">
<title>Node29</title>
<polygon fill="#ffffff" stroke="#bfbfbf" points="1895.9805,-65.5 1895.9805,-83.5 2029.2803,-83.5 2029.2803,-65.5 1895.9805,-65.5"/>
<text text-anchor="middle" x="1962.6304" y="-71.5" font-family="Helvetica,sans-Serif" font-size="10.00" fill="#000000">opencv2/cudaimgproc.hpp</text>
</g>
<!-- Node0&#45;&gt;Node29 -->
<g id="edge30" class="edge">
<title>Node0&#45;&gt;Node29</title>
<path fill="none" stroke="#191970" d="M1598.0487,-126.813C1683.1134,-114.6073 1810.196,-96.3725 1889.6552,-84.9711"/>
<polygon fill="#191970" stroke="#191970" points="1890.1807,-88.4316 1899.5822,-83.5466 1889.1864,-81.5025 1890.1807,-88.4316"/>
</g>
<!-- Node30 -->
<g id="node31" class="node">
<title>Node30</title>
<polygon fill="#ffffff" stroke="#bfbfbf" points="2047.2539,-65.5 2047.2539,-83.5 2180.0068,-83.5 2180.0068,-65.5 2047.2539,-65.5"/>
<text text-anchor="middle" x="2113.6304" y="-71.5" font-family="Helvetica,sans-Serif" font-size="10.00" fill="#000000">opencv2/cudawarping.hpp</text>
</g>
<!-- Node0&#45;&gt;Node30 -->
<g id="edge31" class="edge">
<title>Node0&#45;&gt;Node30</title>
<path fill="none" stroke="#191970" d="M1598.1456,-130.7994C1701.0989,-120.5468 1876.4585,-102.6737 2036.9244,-84.1797"/>
<polygon fill="#191970" stroke="#191970" points="2037.451,-87.6423 2046.9831,-83.0174 2036.6474,-80.6885 2037.451,-87.6423"/>
</g>
<!-- Node31 -->
<g id="node32" class="node">
<title>Node31</title>
<polygon fill="#ffffff" stroke="#bfbfbf" points="2197.9336,-65.5 2197.9336,-83.5 2297.3271,-83.5 2297.3271,-65.5 2197.9336,-65.5"/>
<text text-anchor="middle" x="2247.6304" y="-71.5" font-family="Helvetica,sans-Serif" font-size="10.00" fill="#000000">yarp/eigen/Eigen.h</text>
</g>
<!-- Node0&#45;&gt;Node31 -->
<g id="edge32" class="edge">
<title>Node0&#45;&gt;Node31</title>
<path fill="none" stroke="#191970" d="M1598.0177,-134.4858C1725.8372,-126.7416 1969.8988,-110.1089 2187.7501,-84.0178"/>
<polygon fill="#191970" stroke="#191970" points="2188.267,-87.4809 2197.7757,-82.808 2187.4284,-80.5313 2188.267,-87.4809"/>
</g>
<!-- Node32 -->
<g id="node33" class="node">
<title>Node32</title>
<polygon fill="#ffffff" stroke="#bfbfbf" points="2315.7241,-65.5 2315.7241,-83.5 2409.5366,-83.5 2409.5366,-65.5 2315.7241,-65.5"/>
<text text-anchor="middle" x="2362.6304" y="-71.5" font-family="Helvetica,sans-Serif" font-size="10.00" fill="#000000">yarp/math/Math.h</text>
</g>
<!-- Node0&#45;&gt;Node32 -->
<g id="edge33" class="edge">
<title>Node0&#45;&gt;Node32</title>
<path fill="none" stroke="#191970" d="M1598.0554,-136.1904C1743.5266,-130.1164 2042.5723,-114.9839 2305.501,-84.0218"/>
<polygon fill="#191970" stroke="#191970" points="2306.1078,-87.4744 2315.6253,-82.8195 2305.2823,-80.5232 2306.1078,-87.4744"/>
</g>
<!-- Node33 -->
<g id="node34" class="node">
<title>Node33</title>
<polygon fill="#ffffff" stroke="#bfbfbf" points="2427.7471,-65.5 2427.7471,-83.5 2509.5137,-83.5 2509.5137,-65.5 2427.7471,-65.5"/>
<text text-anchor="middle" x="2468.6304" y="-71.5" font-family="Helvetica,sans-Serif" font-size="10.00" fill="#000000">yarp/os/Time.h</text>
</g>
<!-- Node0&#45;&gt;Node33 -->
<g id="edge34" class="edge">
<title>Node0&#45;&gt;Node33</title>
<path fill="none" stroke="#191970" d="M1598.0427,-137.8205C1759.1833,-133.9435 2111.5018,-121.7035 2417.542,-83.9816"/>
<polygon fill="#191970" stroke="#191970" points="2418.0035,-87.4513 2427.4951,-82.7437 2417.1395,-80.5048 2418.0035,-87.4513"/>
</g>
<!-- Node2 -->
<g id="node3" class="node">
<title>Node2</title>
<polygon fill="#ffffff" stroke="#bfbfbf" points="91.3423,-5.5 91.3423,-23.5 137.9185,-23.5 137.9185,-5.5 91.3423,-5.5"/>
<text text-anchor="middle" x="114.6304" y="-11.5" font-family="Helvetica,sans-Serif" font-size="10.00" fill="#000000">chrono</text>
</g>
<!-- Node1&#45;&gt;Node2 -->
<g id="edge2" class="edge">
<title>Node1&#45;&gt;Node2</title>
<path fill="none" stroke="#191970" d="M917.6766,-74.238C784.3059,-72.9534 296.3299,-65.7856 146.6304,-29 144.7202,-28.5306 142.7834,-27.9494 140.8571,-27.2919"/>
<polygon fill="#191970" stroke="#191970" points="142.0682,-24.0067 131.4839,-23.5344 139.4635,-30.5041 142.0682,-24.0067"/>
</g>
<!-- Node3 -->
<g id="node4" class="node">
<title>Node3</title>
<polygon fill="#ffffff" stroke="#bfbfbf" points="155.7266,-5.5 155.7266,-23.5 199.5342,-23.5 199.5342,-5.5 155.7266,-5.5"/>
<text text-anchor="middle" x="177.6304" y="-11.5" font-family="Helvetica,sans-Serif" font-size="10.00" fill="#000000">deque</text>
</g>
<!-- Node1&#45;&gt;Node3 -->
<g id="edge3" class="edge">
<title>Node1&#45;&gt;Node3</title>
<path fill="none" stroke="#191970" d="M917.7154,-74.1058C791.0001,-72.3727 345.6098,-63.8797 208.6304,-29 206.9282,-28.5666 205.2058,-28.0399 203.4905,-27.4473"/>
<polygon fill="#191970" stroke="#191970" points="204.5146,-24.0842 193.9346,-23.5222 201.8549,-30.5593 204.5146,-24.0842"/>
</g>
<!-- Node4 -->
<g id="node5" class="node">
<title>Node4</title>
<polygon fill="#ffffff" stroke="#bfbfbf" points="217.5737,-5.5 217.5737,-23.5 269.687,-23.5 269.687,-5.5 217.5737,-5.5"/>
<text text-anchor="middle" x="243.6304" y="-11.5" font-family="Helvetica,sans-Serif" font-size="10.00" fill="#000000">memory</text>
</g>
<!-- Node1&#45;&gt;Node4 -->
<g id="edge4" class="edge">
<title>Node1&#45;&gt;Node4</title>
<path fill="none" stroke="#191970" d="M917.7349,-73.6609C798.9727,-70.4947 402.1991,-57.9501 278.6304,-29 276.4451,-28.488 274.2205,-27.8549 272.0058,-27.142"/>
<polygon fill="#191970" stroke="#191970" points="273.1069,-23.8176 262.5136,-23.6343 270.6805,-30.3836 273.1069,-23.8176"/>
</g>
<!-- Node5 -->
<g id="node6" class="node">
<title>Node5</title>
<polygon fill="#ffffff" stroke="#bfbfbf" points="288.0146,-5.5 288.0146,-23.5 331.2461,-23.5 331.2461,-5.5 288.0146,-5.5"/>
<text text-anchor="middle" x="309.6304" y="-11.5" font-family="Helvetica,sans-Serif" font-size="10.00" fill="#000000">vector</text>
</g>
<!-- Node1&#45;&gt;Node5 -->
<g id="edge5" class="edge">
<title>Node1&#45;&gt;Node5</title>
<path fill="none" stroke="#191970" d="M917.7577,-73.5886C806.1987,-70.3356 451.1254,-57.9119 340.6304,-29 338.9706,-28.5657 337.2909,-28.0449 335.6168,-27.4627"/>
<polygon fill="#191970" stroke="#191970" points="336.8492,-24.1852 326.2689,-23.6301 334.1937,-30.662 336.8492,-24.1852"/>
</g>
<!-- Node6 -->
<g id="node7" class="node">
<title>Node6</title>
<polygon fill="#ffffff" stroke="#bfbfbf" points="349.3818,-5.5 349.3818,-23.5 519.8789,-23.5 519.8789,-5.5 349.3818,-5.5"/>
<text text-anchor="middle" x="434.6304" y="-11.5" font-family="Helvetica,sans-Serif" font-size="10.00" fill="#000000">BayesFilters/EstimatesExtraction.h</text>
</g>
<!-- Node1&#45;&gt;Node6 -->
<g id="edge6" class="edge">
<title>Node1&#45;&gt;Node6</title>
<path fill="none" stroke="#191970" d="M917.8463,-71.3973C846.0628,-64.6879 673.0902,-47.9011 528.6304,-29 519.4922,-27.8044 509.8707,-26.4409 500.4108,-25.0395"/>
<polygon fill="#191970" stroke="#191970" points="500.6492,-21.5361 490.2399,-23.5102 499.6083,-28.4583 500.6492,-21.5361"/>
</g>
<!-- Node7 -->
<g id="node8" class="node">
<title>Node7</title>
<polygon fill="#ffffff" stroke="#bfbfbf" points="537.5313,-.5 537.5313,-28.5 671.7295,-28.5 671.7295,-.5 537.5313,-.5"/>
<text text-anchor="start" x="545.5313" y="-16.5" font-family="Helvetica,sans-Serif" font-size="10.00" fill="#000000">BayesFilters/VisualParticle</text>
<text text-anchor="middle" x="604.6304" y="-6.5" font-family="Helvetica,sans-Serif" font-size="10.00" fill="#000000">Filter.h</text>
</g>
<!-- Node1&#45;&gt;Node7 -->
<g id="edge7" class="edge">
<title>Node1&#45;&gt;Node7</title>
<path fill="none" stroke="#191970" d="M917.7897,-69.0656C868.2615,-61.0581 772.8717,-45.4321 681.6992,-29.1696"/>
<polygon fill="#191970" stroke="#191970" points="682.2123,-25.7059 671.7522,-27.3897 680.9793,-32.5965 682.2123,-25.7059"/>
</g>
<!-- Node1&#45;&gt;Node8 -->
<g id="edge8" class="edge">
<title>Node1&#45;&gt;Node8</title>
<path fill="none" stroke="#191970" d="M917.5074,-73.8653C777.5678,-71.0846 247.2772,-58.7626 82.6304,-29 78.9533,-28.3353 75.1604,-27.4618 71.4038,-26.4723"/>
<polygon fill="#191970" stroke="#191970" points="72.2281,-23.0673 61.6491,-23.6466 70.2804,-29.7909 72.2281,-23.0673"/>
</g>
<!-- Node9 -->
<g id="node10" class="node">
<title>Node9</title>
<polygon fill="#ffffff" stroke="#bfbfbf" points="689.2783,-5.5 689.2783,-23.5 791.9824,-23.5 791.9824,-5.5 689.2783,-5.5"/>
<text text-anchor="middle" x="740.6304" y="-11.5" font-family="Helvetica,sans-Serif" font-size="10.00" fill="#000000">iCub/iKin/iKinFwd.h</text>
</g>
<!-- Node1&#45;&gt;Node9 -->
<g id="edge9" class="edge">
<title>Node1&#45;&gt;Node9</title>
<path fill="none" stroke="#191970" d="M919.584,-65.3873C882.8113,-54.9306 822.4024,-37.7527 782.0792,-26.2864"/>
<polygon fill="#191970" stroke="#191970" points="782.863,-22.8706 772.287,-23.5019 780.9483,-29.6036 782.863,-22.8706"/>
</g>
<!-- Node10 -->
<g id="node11" class="node">
<title>Node10</title>
<polygon fill="#ffffff" stroke="#bfbfbf" points="810.4707,-5.5 810.4707,-23.5 948.79,-23.5 948.79,-5.5 810.4707,-5.5"/>
<text text-anchor="middle" x="879.6304" y="-11.5" font-family="Helvetica,sans-Serif" font-size="10.00" fill="#000000">opencv2/cudaobjdetect.hpp</text>
</g>
<!-- Node1&#45;&gt;Node10 -->
<g id="edge10" class="edge">
<title>Node1&#45;&gt;Node10</title>
<path fill="none" stroke="#191970" d="M940.6951,-65.3873C929.4883,-56.0483 911.8481,-41.3481 898.4029,-30.1438"/>
<polygon fill="#191970" stroke="#191970" points="900.5914,-27.4116 890.6685,-23.6985 896.1101,-32.7891 900.5914,-27.4116"/>
</g>
<!-- Node11 -->
<g id="node12" class="node">
<title>Node11</title>
<polygon fill="#ffffff" stroke="#bfbfbf" points="967.2554,-.5 967.2554,-28.5 1082.0054,-28.5 1082.0054,-.5 967.2554,-.5"/>
<text text-anchor="start" x="975.2554" y="-16.5" font-family="Helvetica,sans-Serif" font-size="10.00" fill="#000000">thrift/VisualSISParticle</text>
<text text-anchor="middle" x="1024.6304" y="-6.5" font-family="Helvetica,sans-Serif" font-size="10.00" fill="#000000">FilterIDL.h</text>
</g>
<!-- Node1&#45;&gt;Node11 -->
<g id="edge11" class="edge">
<title>Node1&#45;&gt;Node11</title>
<path fill="none" stroke="#191970" d="M962.7175,-65.3873C972.4677,-57.3734 987.0209,-45.4119 999.5681,-35.0991"/>
<polygon fill="#191970" stroke="#191970" points="1001.9501,-37.6719 1007.4531,-28.6183 997.5053,-32.2641 1001.9501,-37.6719"/>
</g>
<!-- Node12 -->
<g id="node13" class="node">
<title>Node12</title>
<polygon fill="#ffffff" stroke="#bfbfbf" points="1100.1084,-5.5 1100.1084,-23.5 1211.1523,-23.5 1211.1523,-5.5 1100.1084,-5.5"/>
<text text-anchor="middle" x="1155.6304" y="-11.5" font-family="Helvetica,sans-Serif" font-size="10.00" fill="#000000">yarp/dev/PolyDriver.h</text>
</g>
<!-- Node1&#45;&gt;Node12 -->
<g id="edge12" class="edge">
<title>Node1&#45;&gt;Node12</title>
<path fill="none" stroke="#191970" d="M982.6136,-65.3873C1018.0157,-54.9749 1076.0766,-37.8982 1115.06,-26.4325"/>
<polygon fill="#191970" stroke="#191970" points="1116.4179,-29.6814 1125.024,-23.5019 1114.4427,-22.9658 1116.4179,-29.6814"/>
</g>
<!-- Node13 -->
<g id="node14" class="node">
<title>Node13</title>
<polygon fill="#ffffff" stroke="#bfbfbf" points="1229.3672,-5.5 1229.3672,-23.5 1359.8936,-23.5 1359.8936,-5.5 1229.3672,-5.5"/>
<text text-anchor="middle" x="1294.6304" y="-11.5" font-family="Helvetica,sans-Serif" font-size="10.00" fill="#000000">yarp/dev/IAnalogSensor.h</text>
</g>
<!-- Node1&#45;&gt;Node13 -->
<g id="edge13" class="edge">
<title>Node1&#45;&gt;Node13</title>
<path fill="none" stroke="#191970" d="M985.3924,-66.8421C988.5106,-66.1949 991.626,-65.5706 994.6304,-65 1094.5547,-46.0207 1120.486,-46.7818 1220.6304,-29 1226.8054,-27.9035 1233.2608,-26.7097 1239.6753,-25.4933"/>
<polygon fill="#191970" stroke="#191970" points="1240.5144,-28.8962 1249.6754,-23.5739 1239.1949,-22.0217 1240.5144,-28.8962"/>
</g>
<!-- Node14 -->
<g id="node15" class="node">
<title>Node14</title>
<polygon fill="#ffffff" stroke="#bfbfbf" points="1377.8892,-5.5 1377.8892,-23.5 1463.3716,-23.5 1463.3716,-5.5 1377.8892,-5.5"/>
<text text-anchor="middle" x="1420.6304" y="-11.5" font-family="Helvetica,sans-Serif" font-size="10.00" fill="#000000">yarp/os/Bottle.h</text>
</g>
<!-- Node1&#45;&gt;Node14 -->
<g id="edge14" class="edge">
<title>Node1&#45;&gt;Node14</title>
<path fill="none" stroke="#191970" d="M985.8265,-66.5521C988.7956,-65.9815 991.7608,-65.4534 994.6304,-65 1159.5749,-38.9397 1204.4572,-59.5449 1368.6304,-29 1372.8804,-28.2093 1377.287,-27.2328 1381.6557,-26.1631"/>
<polygon fill="#191970" stroke="#191970" points="1382.899,-29.4559 1391.6895,-23.5417 1381.1295,-22.6832 1382.899,-29.4559"/>
</g>
<!-- Node15 -->
<g id="node16" class="node">
<title>Node15</title>
<polygon fill="#ffffff" stroke="#bfbfbf" points="1481.6914,-5.5 1481.6914,-23.5 1597.5693,-23.5 1597.5693,-5.5 1481.6914,-5.5"/>
<text text-anchor="middle" x="1539.6304" y="-11.5" font-family="Helvetica,sans-Serif" font-size="10.00" fill="#000000">yarp/os/BufferedPort.h</text>
</g>
<!-- Node1&#45;&gt;Node15 -->
<g id="edge15" class="edge">
<title>Node1&#45;&gt;Node15</title>
<path fill="none" stroke="#191970" d="M985.8166,-66.4872C988.7878,-65.9306 991.7562,-65.4235 994.6304,-65 1205.4004,-33.9414 1261.7939,-59.6047 1472.6304,-29 1478.9683,-28.08 1485.6022,-26.9061 1492.1275,-25.6256"/>
<polygon fill="#191970" stroke="#191970" points="1493.1443,-28.9899 1502.2342,-23.547 1491.7341,-22.1334 1493.1443,-28.9899"/>
</g>
<!-- Node16 -->
<g id="node17" class="node">
<title>Node16</title>
<polygon fill="#ffffff" stroke="#bfbfbf" points="1615.5518,-5.5 1615.5518,-23.5 1727.709,-23.5 1727.709,-5.5 1615.5518,-5.5"/>
<text text-anchor="middle" x="1671.6304" y="-11.5" font-family="Helvetica,sans-Serif" font-size="10.00" fill="#000000">yarp/os/ConstString.h</text>
</g>
<!-- Node1&#45;&gt;Node16 -->
<g id="edge16" class="edge">
<title>Node1&#45;&gt;Node16</title>
<path fill="none" stroke="#191970" d="M985.8092,-66.4358C988.7821,-65.8904 991.7528,-65.3999 994.6304,-65 1264.5066,-27.4923 1336.7927,-66.7838 1606.6304,-29 1612.9424,-28.1162 1619.55,-26.9406 1626.0331,-25.64"/>
<polygon fill="#191970" stroke="#191970" points="1627.0002,-29.0129 1636.0582,-23.5171 1625.5501,-22.1648 1627.0002,-29.0129"/>
</g>
<!-- Node17 -->
<g id="node18" class="node">
<title>Node17</title>
<polygon fill="#ffffff" stroke="#bfbfbf" points="1745.5049,-5.5 1745.5049,-23.5 1823.7559,-23.5 1823.7559,-5.5 1745.5049,-5.5"/>
<text text-anchor="middle" x="1784.6304" y="-11.5" font-family="Helvetica,sans-Serif" font-size="10.00" fill="#000000">yarp/os/Port.h</text>
</g>
<!-- Node1&#45;&gt;Node17 -->
<g id="edge17" class="edge">
<title>Node1&#45;&gt;Node17</title>
<path fill="none" stroke="#191970" d="M985.8049,-66.4037C988.7787,-65.8653 991.7508,-65.3851 994.6304,-65 1321.882,-21.2309 1411.2758,-85.1586 1736.6304,-29 1740.7802,-28.2837 1745.0756,-27.3204 1749.3135,-26.2289"/>
<polygon fill="#191970" stroke="#191970" points="1750.3219,-29.5812 1759.0017,-23.5057 1748.4276,-22.8423 1750.3219,-29.5812"/>
</g>
<!-- Node18 -->
<g id="node19" class="node">
<title>Node18</title>
<polygon fill="#ffffff" stroke="#bfbfbf" points="1841.6675,-5.5 1841.6675,-23.5 1931.5933,-23.5 1931.5933,-5.5 1841.6675,-5.5"/>
<text text-anchor="middle" x="1886.6304" y="-11.5" font-family="Helvetica,sans-Serif" font-size="10.00" fill="#000000">yarp/sig/Image.h</text>
</g>
<!-- Node1&#45;&gt;Node18 -->
<g id="edge18" class="edge">
<title>Node1&#45;&gt;Node18</title>
<path fill="none" stroke="#191970" d="M985.8026,-66.3863C988.7769,-65.8517 991.7497,-65.3771 994.6304,-65 1364.2638,-16.6055 1464.1763,-85.6786 1832.6304,-29 1837.6584,-28.2266 1842.8907,-27.1621 1848.0331,-25.9583"/>
<polygon fill="#191970" stroke="#191970" points="1848.8937,-29.3509 1857.7339,-23.5112 1847.1815,-22.5635 1848.8937,-29.3509"/>
</g>
<!-- Node19 -->
<g id="node20" class="node">
<title>Node19</title>
<polygon fill="#ffffff" stroke="#bfbfbf" points="1949.9531,-5.5 1949.9531,-23.5 2039.3076,-23.5 2039.3076,-5.5 1949.9531,-5.5"/>
<text text-anchor="middle" x="1994.6304" y="-11.5" font-family="Helvetica,sans-Serif" font-size="10.00" fill="#000000">yarp/sig/Matrix.h</text>
</g>
<!-- Node1&#45;&gt;Node19 -->
<g id="edge19" class="edge">
<title>Node1&#45;&gt;Node19</title>
<path fill="none" stroke="#191970" d="M985.8006,-66.371C988.7753,-65.8396 991.7488,-65.3701 994.6304,-65 1411.9512,-11.4008 1524.6177,-91.9523 1940.6304,-29 1945.6602,-28.2389 1950.8937,-27.1817 1956.0367,-25.9816"/>
<polygon fill="#191970" stroke="#191970" points="1956.8958,-29.3746 1965.7379,-23.5379 1955.1859,-22.5867 1956.8958,-29.3746"/>
</g>
<!-- Node20 -->
<g id="node21" class="node">
<title>Node20</title>
<polygon fill="#ffffff" stroke="#bfbfbf" points="2057.6602,-5.5 2057.6602,-23.5 2147.6006,-23.5 2147.6006,-5.5 2057.6602,-5.5"/>
<text text-anchor="middle" x="2102.6304" y="-11.5" font-family="Helvetica,sans-Serif" font-size="10.00" fill="#000000">yarp/sig/Vector.h</text>
</g>
<!-- Node1&#45;&gt;Node20 -->
<g id="edge20" class="edge">
<title>Node1&#45;&gt;Node20</title>
<path fill="none" stroke="#191970" d="M985.799,-66.3587C988.7741,-65.8301 991.7481,-65.3645 994.6304,-65 1459.6446,-6.1954 1585.0531,-98.2268 2048.6304,-29 2053.6617,-28.2487 2058.8961,-27.1973 2064.0395,-26.0002"/>
<polygon fill="#191970" stroke="#191970" points="2064.8974,-29.3935 2073.7411,-23.5592 2063.1893,-22.6051 2064.8974,-29.3935"/>
</g>
</g>
</svg>
