<?xml version="1.0" encoding="UTF-8" standalone="no"?>
<!DOCTYPE svg PUBLIC "-//W3C//DTD SVG 1.1//EN"
 "http://www.w3.org/Graphics/SVG/1.1/DTD/svg11.dtd">
<!-- Generated by graphviz version 2.40.1 (20161225.0304)
 -->
<!-- Title: /Users/Claudio/GitHub/visual&#45;tracking&#45;control/src/visualservoing/visualservoingclient/src/VisualServoingClient.cpp Pages: 1 -->
<svg width="1837pt" height="167pt"
 viewBox="0.00 0.00 1837.21 167.00" xmlns="http://www.w3.org/2000/svg" xmlns:xlink="http://www.w3.org/1999/xlink">
<g id="graph0" class="graph" transform="scale(1 1) rotate(0) translate(4 163)">
<title>/Users/Claudio/GitHub/visual&#45;tracking&#45;control/src/visualservoing/visualservoingclient/src/VisualServoingClient.cpp</title>
<polygon fill="#ffffff" stroke="transparent" points="-4,4 -4,-163 1833.2114,-163 1833.2114,4 -4,4"/>
<!-- Node0 -->
<g id="node1" class="node">
<title>Node0</title>
<polygon fill="#bfbfbf" stroke="#000000" points="1182.459,-110.5 1182.459,-158.5 1370.1973,-158.5 1370.1973,-110.5 1182.459,-110.5"/>
<text text-anchor="start" x="1190.459" y="-146.5" font-family="Helvetica,sans-Serif" font-size="10.00" fill="#000000">/Users/Claudio/GitHub</text>
<text text-anchor="start" x="1190.459" y="-136.5" font-family="Helvetica,sans-Serif" font-size="10.00" fill="#000000">/visual&#45;tracking&#45;control</text>
<text text-anchor="start" x="1190.459" y="-126.5" font-family="Helvetica,sans-Serif" font-size="10.00" fill="#000000">/src/visualservoing/visualservoingclient</text>
<text text-anchor="middle" x="1276.3281" y="-116.5" font-family="Helvetica,sans-Serif" font-size="10.00" fill="#000000">/src/VisualServoingClient.cpp</text>
</g>
<!-- Node1 -->
<g id="node2" class="node">
<title>Node1</title>
<g id="a_node2"><a xlink:href="VisualServoingClient_8h.html" target="_top" xlink:title="VisualServoingClient.h">
<polygon fill="#ffffff" stroke="#000000" points="604.1108,-55.5 604.1108,-73.5 720.5454,-73.5 720.5454,-55.5 604.1108,-55.5"/>
<text text-anchor="middle" x="662.3281" y="-61.5" font-family="Helvetica,sans-Serif" font-size="10.00" fill="#000000">VisualServoingClient.h</text>
</a>
</g>
</g>
<!-- Node0&#45;&gt;Node1 -->
<g id="edge1" class="edge">
<title>Node0&#45;&gt;Node1</title>
<path fill="none" stroke="#191970" d="M1182.337,-124.9903C1075.5179,-113.9814 895.6693,-94.8377 731.0957,-74.1941"/>
<polygon fill="#191970" stroke="#191970" points="731.1383,-70.672 720.7795,-72.8956 730.264,-77.6172 731.1383,-70.672"/>
</g>
<!-- Node13 -->
<g id="node14" class="node">
<title>Node13</title>
<polygon fill="#ffffff" stroke="#bfbfbf" points="738.1533,-55.5 738.1533,-73.5 852.5029,-73.5 852.5029,-55.5 738.1533,-55.5"/>
<text text-anchor="middle" x="795.3281" y="-61.5" font-family="Helvetica,sans-Serif" font-size="10.00" fill="#000000">iCub/ctrl/minJerkCtrl.h</text>
</g>
<!-- Node0&#45;&gt;Node13 -->
<g id="edge13" class="edge">
<title>Node0&#45;&gt;Node13</title>
<path fill="none" stroke="#191970" d="M1182.4446,-120.8371C1088.487,-107.1635 946.2509,-86.4638 862.8793,-74.3307"/>
<polygon fill="#191970" stroke="#191970" points="863.162,-70.8351 852.7622,-72.8584 862.1539,-77.7621 863.162,-70.8351"/>
</g>
<!-- Node14 -->
<g id="node15" class="node">
<title>Node14</title>
<polygon fill="#ffffff" stroke="#bfbfbf" points="870.4614,-55.5 870.4614,-73.5 988.1948,-73.5 988.1948,-55.5 870.4614,-55.5"/>
<text text-anchor="middle" x="929.3281" y="-61.5" font-family="Helvetica,sans-Serif" font-size="10.00" fill="#000000">opencv2/core/core.hpp</text>
</g>
<!-- Node0&#45;&gt;Node14 -->
<g id="edge14" class="edge">
<title>Node0&#45;&gt;Node14</title>
<path fill="none" stroke="#191970" d="M1182.4249,-115.557C1118.8798,-102.7381 1037.1475,-86.2503 984.0171,-75.5324"/>
<polygon fill="#191970" stroke="#191970" points="984.6081,-72.0811 974.1134,-73.5345 983.2238,-78.9429 984.6081,-72.0811"/>
</g>
<!-- Node15 -->
<g id="node16" class="node">
<title>Node15</title>
<polygon fill="#ffffff" stroke="#bfbfbf" points="1006.3481,-55.5 1006.3481,-73.5 1156.3081,-73.5 1156.3081,-55.5 1006.3481,-55.5"/>
<text text-anchor="middle" x="1081.3281" y="-61.5" font-family="Helvetica,sans-Serif" font-size="10.00" fill="#000000">opencv2/imgproc/imgproc.hpp</text>
</g>
<!-- Node0&#45;&gt;Node15 -->
<g id="edge15" class="edge">
<title>Node0&#45;&gt;Node15</title>
<path fill="none" stroke="#191970" d="M1209.2202,-110.41C1177.9029,-99.1679 1141.9375,-86.2572 1116.139,-76.9962"/>
<polygon fill="#191970" stroke="#191970" points="1117.0318,-73.5981 1106.4373,-73.5136 1114.6667,-80.1864 1117.0318,-73.5981"/>
</g>
<!-- Node16 -->
<g id="node17" class="node">
<title>Node16</title>
<polygon fill="#ffffff" stroke="#bfbfbf" points="1174.4219,-55.5 1174.4219,-73.5 1268.2344,-73.5 1268.2344,-55.5 1174.4219,-55.5"/>
<text text-anchor="middle" x="1221.3281" y="-61.5" font-family="Helvetica,sans-Serif" font-size="10.00" fill="#000000">yarp/math/Math.h</text>
</g>
<!-- Node0&#45;&gt;Node16 -->
<g id="edge16" class="edge">
<title>Node0&#45;&gt;Node16</title>
<path fill="none" stroke="#191970" d="M1257.4002,-110.41C1249.9426,-100.9185 1241.5505,-90.2376 1234.7387,-81.568"/>
<polygon fill="#191970" stroke="#191970" points="1237.477,-79.3881 1228.5467,-73.6872 1231.9728,-83.7128 1237.477,-79.3881"/>
</g>
<!-- Node17 -->
<g id="node18" class="node">
<title>Node17</title>
<polygon fill="#ffffff" stroke="#bfbfbf" points="1286.2568,-55.5 1286.2568,-73.5 1378.3994,-73.5 1378.3994,-55.5 1286.2568,-55.5"/>
<text text-anchor="middle" x="1332.3281" y="-61.5" font-family="Helvetica,sans-Serif" font-size="10.00" fill="#000000">yarp/math/SVD.h</text>
</g>
<!-- Node0&#45;&gt;Node17 -->
<g id="edge17" class="edge">
<title>Node0&#45;&gt;Node17</title>
<path fill="none" stroke="#191970" d="M1295.6001,-110.41C1303.1933,-100.9185 1311.738,-90.2376 1318.6738,-81.568"/>
<polygon fill="#191970" stroke="#191970" points="1321.4644,-83.6824 1324.9783,-73.6872 1315.9983,-79.3095 1321.4644,-83.6824"/>
</g>
<!-- Node18 -->
<g id="node19" class="node">
<title>Node18</title>
<polygon fill="#ffffff" stroke="#bfbfbf" points="1396.0352,-55.5 1396.0352,-73.5 1492.6211,-73.5 1492.6211,-55.5 1396.0352,-55.5"/>
<text text-anchor="middle" x="1444.3281" y="-61.5" font-family="Helvetica,sans-Serif" font-size="10.00" fill="#000000">yarp/os/Network.h</text>
</g>
<!-- Node0&#45;&gt;Node18 -->
<g id="edge18" class="edge">
<title>Node0&#45;&gt;Node18</title>
<path fill="none" stroke="#191970" d="M1334.1442,-110.41C1360.7671,-99.3171 1391.2889,-86.5997 1413.4475,-77.3669"/>
<polygon fill="#191970" stroke="#191970" points="1414.811,-80.5905 1422.6956,-73.5136 1412.1186,-74.129 1414.811,-80.5905"/>
</g>
<!-- Node19 -->
<g id="node20" class="node">
<title>Node19</title>
<polygon fill="#ffffff" stroke="#bfbfbf" points="1510.8447,-55.5 1510.8447,-73.5 1607.8115,-73.5 1607.8115,-55.5 1510.8447,-55.5"/>
<text text-anchor="middle" x="1559.3281" y="-61.5" font-family="Helvetica,sans-Serif" font-size="10.00" fill="#000000">yarp/os/Property.h</text>
</g>
<!-- Node0&#45;&gt;Node19 -->
<g id="edge19" class="edge">
<title>Node0&#45;&gt;Node19</title>
<path fill="none" stroke="#191970" d="M1370.563,-111.191C1418.3857,-99.3621 1474.3461,-85.5203 1512.8521,-75.9958"/>
<polygon fill="#191970" stroke="#191970" points="1513.8715,-79.3492 1522.7386,-73.5504 1512.1907,-72.554 1513.8715,-79.3492"/>
</g>
<!-- Node20 -->
<g id="node21" class="node">
<title>Node20</title>
<polygon fill="#ffffff" stroke="#bfbfbf" points="1625.6978,-55.5 1625.6978,-73.5 1728.9585,-73.5 1728.9585,-55.5 1625.6978,-55.5"/>
<text text-anchor="middle" x="1677.3281" y="-61.5" font-family="Helvetica,sans-Serif" font-size="10.00" fill="#000000">yarp/os/RpcClient.h</text>
</g>
<!-- Node0&#45;&gt;Node20 -->
<g id="edge20" class="edge">
<title>Node0&#45;&gt;Node20</title>
<path fill="none" stroke="#191970" d="M1370.3448,-118.0881C1445.9339,-104.893 1549.9685,-86.7324 1615.4213,-75.3067"/>
<polygon fill="#191970" stroke="#191970" points="1616.3354,-78.7001 1625.5846,-73.5325 1615.1316,-71.8044 1616.3354,-78.7001"/>
</g>
<!-- Node21 -->
<g id="node22" class="node">
<title>Node21</title>
<polygon fill="#ffffff" stroke="#bfbfbf" points="1747.4448,-55.5 1747.4448,-73.5 1829.2114,-73.5 1829.2114,-55.5 1747.4448,-55.5"/>
<text text-anchor="middle" x="1788.3281" y="-61.5" font-family="Helvetica,sans-Serif" font-size="10.00" fill="#000000">yarp/os/Time.h</text>
</g>
<!-- Node0&#45;&gt;Node21 -->
<g id="edge21" class="edge">
<title>Node0&#45;&gt;Node21</title>
<path fill="none" stroke="#191970" d="M1370.3516,-123.7949C1461.5844,-113.0387 1604.162,-95.2572 1737.4441,-74.0661"/>
<polygon fill="#191970" stroke="#191970" points="1738.11,-77.5041 1747.4318,-72.4688 1737.0046,-70.592 1738.11,-77.5041"/>
</g>
<!-- Node2 -->
<g id="node3" class="node">
<title>Node2</title>
<polygon fill="#ffffff" stroke="#bfbfbf" points="0,-.5 0,-18.5 128.6563,-18.5 128.6563,-.5 0,-.5"/>
<text text-anchor="middle" x="64.3281" y="-6.5" font-family="Helvetica,sans-Serif" font-size="10.00" fill="#000000">thrift/VisualServoingIDL.h</text>
</g>
<!-- Node1&#45;&gt;Node2 -->
<g id="edge2" class="edge">
<title>Node1&#45;&gt;Node2</title>
<path fill="none" stroke="#191970" d="M603.982,-60.2662C508.8374,-53.1812 314.1029,-37.9259 138.973,-19.1404"/>
<polygon fill="#191970" stroke="#191970" points="139.1146,-15.6354 128.7968,-18.0424 138.3636,-22.595 139.1146,-15.6354"/>
</g>
<!-- Node3 -->
<g id="node4" class="node">
<title>Node3</title>
<polygon fill="#ffffff" stroke="#bfbfbf" points="146.7124,-.5 146.7124,-18.5 189.9438,-18.5 189.9438,-.5 146.7124,-.5"/>
<text text-anchor="middle" x="168.3281" y="-6.5" font-family="Helvetica,sans-Serif" font-size="10.00" fill="#000000">vector</text>
</g>
<!-- Node1&#45;&gt;Node3 -->
<g id="edge3" class="edge">
<title>Node1&#45;&gt;Node3</title>
<path fill="none" stroke="#191970" d="M604.0364,-62.4968C517.6187,-58.7097 350.4494,-48.2506 200.0839,-18.7651"/>
<polygon fill="#191970" stroke="#191970" points="200.6963,-15.3184 190.2049,-16.7953 199.3275,-22.1832 200.6963,-15.3184"/>
</g>
<!-- Node4 -->
<g id="node5" class="node">
<title>Node4</title>
<polygon fill="#ffffff" stroke="#bfbfbf" points="208.2495,-.5 208.2495,-18.5 330.4067,-18.5 330.4067,-.5 208.2495,-.5"/>
<text text-anchor="middle" x="269.3281" y="-6.5" font-family="Helvetica,sans-Serif" font-size="10.00" fill="#000000">yarp/dev/DeviceDriver.h</text>
</g>
<!-- Node1&#45;&gt;Node4 -->
<g id="edge4" class="edge">
<title>Node1&#45;&gt;Node4</title>
<path fill="none" stroke="#191970" d="M603.9164,-56.3253C533.8696,-46.5223 416.485,-30.0945 341.0144,-19.5324"/>
<polygon fill="#191970" stroke="#191970" points="341.0412,-16.0022 330.6526,-18.0823 340.071,-22.9346 341.0412,-16.0022"/>
</g>
<!-- Node5 -->
<g id="node6" class="node">
<title>Node5</title>
<polygon fill="#ffffff" stroke="#bfbfbf" points="347.9385,-.5 347.9385,-18.5 482.7178,-18.5 482.7178,-.5 347.9385,-.5"/>
<text text-anchor="middle" x="415.3281" y="-6.5" font-family="Helvetica,sans-Serif" font-size="10.00" fill="#000000">yarp/dev/IVisualServoing.h</text>
</g>
<!-- Node1&#45;&gt;Node5 -->
<g id="edge5" class="edge">
<title>Node1&#45;&gt;Node5</title>
<path fill="none" stroke="#191970" d="M621.8177,-55.4795C579.1032,-45.9681 511.7372,-30.9676 465.645,-20.7042"/>
<polygon fill="#191970" stroke="#191970" points="466.3824,-17.2827 455.8607,-18.5255 464.8609,-24.1154 466.3824,-17.2827"/>
</g>
<!-- Node6 -->
<g id="node7" class="node">
<title>Node6</title>
<polygon fill="#ffffff" stroke="#bfbfbf" points="500.5869,-.5 500.5869,-18.5 586.0693,-18.5 586.0693,-.5 500.5869,-.5"/>
<text text-anchor="middle" x="543.3281" y="-6.5" font-family="Helvetica,sans-Serif" font-size="10.00" fill="#000000">yarp/os/Bottle.h</text>
</g>
<!-- Node1&#45;&gt;Node6 -->
<g id="edge6" class="edge">
<title>Node1&#45;&gt;Node6</title>
<path fill="none" stroke="#191970" d="M642.6777,-55.4179C623.4711,-46.5409 594.0119,-32.9253 572.1541,-22.823"/>
<polygon fill="#191970" stroke="#191970" points="573.5535,-19.614 563.0077,-18.5956 570.6167,-25.9682 573.5535,-19.614"/>
</g>
<!-- Node7 -->
<g id="node8" class="node">
<title>Node7</title>
<polygon fill="#ffffff" stroke="#bfbfbf" points="604.3892,-.5 604.3892,-18.5 720.2671,-18.5 720.2671,-.5 604.3892,-.5"/>
<text text-anchor="middle" x="662.3281" y="-6.5" font-family="Helvetica,sans-Serif" font-size="10.00" fill="#000000">yarp/os/BufferedPort.h</text>
</g>
<!-- Node1&#45;&gt;Node7 -->
<g id="edge7" class="edge">
<title>Node1&#45;&gt;Node7</title>
<path fill="none" stroke="#191970" d="M662.3281,-55.4179C662.3281,-48.2164 662.3281,-37.8962 662.3281,-28.8632"/>
<polygon fill="#191970" stroke="#191970" points="665.8282,-28.7794 662.3281,-18.7795 658.8282,-28.7795 665.8282,-28.7794"/>
</g>
<!-- Node8 -->
<g id="node9" class="node">
<title>Node8</title>
<polygon fill="#ffffff" stroke="#bfbfbf" points="738.2495,-.5 738.2495,-18.5 850.4067,-18.5 850.4067,-.5 738.2495,-.5"/>
<text text-anchor="middle" x="794.3281" y="-6.5" font-family="Helvetica,sans-Serif" font-size="10.00" fill="#000000">yarp/os/ConstString.h</text>
</g>
<!-- Node1&#45;&gt;Node8 -->
<g id="edge8" class="edge">
<title>Node1&#45;&gt;Node8</title>
<path fill="none" stroke="#191970" d="M684.1252,-55.4179C705.6211,-46.4613 738.6946,-32.6806 763.0033,-22.552"/>
<polygon fill="#191970" stroke="#191970" points="764.614,-25.6726 772.4986,-18.5956 761.9217,-19.2111 764.614,-25.6726"/>
</g>
<!-- Node9 -->
<g id="node10" class="node">
<title>Node9</title>
<polygon fill="#ffffff" stroke="#bfbfbf" points="867.9146,-.5 867.9146,-18.5 976.7417,-18.5 976.7417,-.5 867.9146,-.5"/>
<text text-anchor="middle" x="922.3281" y="-6.5" font-family="Helvetica,sans-Serif" font-size="10.00" fill="#000000">yarp/os/LogStream.h</text>
</g>
<!-- Node1&#45;&gt;Node9 -->
<g id="edge9" class="edge">
<title>Node1&#45;&gt;Node9</title>
<path fill="none" stroke="#191970" d="M704.9707,-55.4795C750.0276,-45.9482 821.1423,-30.9047 869.6678,-20.6397"/>
<polygon fill="#191970" stroke="#191970" points="870.6032,-24.0194 879.6623,-18.5255 869.1544,-17.1709 870.6032,-24.0194"/>
</g>
<!-- Node10 -->
<g id="node11" class="node">
<title>Node10</title>
<polygon fill="#ffffff" stroke="#bfbfbf" points="995.2026,-.5 995.2026,-18.5 1073.4536,-18.5 1073.4536,-.5 995.2026,-.5"/>
<text text-anchor="middle" x="1034.3281" y="-6.5" font-family="Helvetica,sans-Serif" font-size="10.00" fill="#000000">yarp/os/Port.h</text>
</g>
<!-- Node1&#45;&gt;Node10 -->
<g id="edge10" class="edge">
<title>Node1&#45;&gt;Node10</title>
<path fill="none" stroke="#191970" d="M720.7931,-56.2062C723.679,-55.7981 726.5362,-55.3942 729.3281,-55 839.9859,-39.3742 870.3585,-38.0064 985.1599,-18.9513"/>
<polygon fill="#191970" stroke="#191970" points="985.7583,-22.4 995.0458,-17.3016 984.606,-15.4954 985.7583,-22.4"/>
</g>
<!-- Node11 -->
<g id="node12" class="node">
<title>Node11</title>
<polygon fill="#ffffff" stroke="#bfbfbf" points="1091.0771,-.5 1091.0771,-18.5 1201.5791,-18.5 1201.5791,-.5 1091.0771,-.5"/>
<text text-anchor="middle" x="1146.3281" y="-6.5" font-family="Helvetica,sans-Serif" font-size="10.00" fill="#000000">yarp/os/Searchable.h</text>
</g>
<!-- Node1&#45;&gt;Node11 -->
<g id="edge11" class="edge">
<title>Node1&#45;&gt;Node11</title>
<path fill="none" stroke="#191970" d="M720.7758,-56.075C723.6663,-55.7016 726.5292,-55.341 729.3281,-55 882.6627,-36.3178 924.1575,-38.483 1080.8507,-19.1379"/>
<polygon fill="#191970" stroke="#191970" points="1081.3552,-22.6022 1090.8464,-17.8941 1080.4907,-15.6558 1081.3552,-22.6022"/>
</g>
<!-- Node12 -->
<g id="node13" class="node">
<title>Node12</title>
<polygon fill="#ffffff" stroke="#bfbfbf" points="1219.3579,-.5 1219.3579,-18.5 1309.2983,-18.5 1309.2983,-.5 1219.3579,-.5"/>
<text text-anchor="middle" x="1264.3281" y="-6.5" font-family="Helvetica,sans-Serif" font-size="10.00" fill="#000000">yarp/sig/Vector.h</text>
</g>
<!-- Node1&#45;&gt;Node12 -->
<g id="edge12" class="edge">
<title>Node1&#45;&gt;Node12</title>
<path fill="none" stroke="#191970" d="M720.7652,-55.9821C723.6584,-55.6332 726.5249,-55.3033 729.3281,-55 939.2338,-32.2887 995.9039,-45.1995 1209.3439,-19.003"/>
<polygon fill="#191970" stroke="#191970" points="1209.8049,-22.4727 1219.2975,-17.7671 1208.9424,-15.5261 1209.8049,-22.4727"/>
</g>
</g>
</svg>
