####
#
# OBJ File Generated by Meshlab
#
####
# Object r_tl0.obj
#
# Vertices: 108
# Faces: 416
#
####
vn 0.000000 -12.566381 0.000000
v 0.000000 -0.005000 0.000500
vn 0.000000 12.566381 0.000000
v 0.000000 0.005000 0.000500
vn 0.000000 0.000000 0.000000
v 0.003000 -0.005000 0.000500
vn 0.000000 0.000000 0.000000
v 0.003000 0.005000 0.000500
vn 3.135650 -3.018553 0.193149
v 0.003000 -0.005000 0.000500
vn 3.135650 3.018553 0.193149
v 0.003000 0.005000 0.000500
vn 6.223718 -6.036511 0.770591
v 0.002977 -0.005000 0.000869
vn 6.223719 6.036511 0.770592
v 0.002977 0.005000 0.000869
vn 6.081754 -6.036752 1.530047
v 0.002909 -0.005000 0.001232
vn 6.081755 6.036752 1.530047
v 0.002909 0.005000 0.001232
vn 5.847755 -6.036996 2.265578
v 0.002797 -0.005000 0.001584
vn 5.847751 6.036996 2.265576
v 0.002797 0.005000 0.001584
vn 5.525055 -6.036668 2.966883
v 0.002643 -0.005000 0.001919
vn 5.525061 6.036668 2.966885
v 0.002643 0.005000 0.001919
vn 5.118568 -6.036864 3.623424
v 0.002449 -0.005000 0.002233
vn 5.118565 6.036864 3.623422
v 0.002449 0.005000 0.002233
vn 4.634533 -6.036753 4.224910
v 0.002217 -0.005000 0.002521
vn 4.634532 6.036753 4.224909
v 0.002217 0.005000 0.002521
vn 4.080415 -6.036978 4.762271
v 0.001952 -0.005000 0.002778
vn 4.080416 6.036978 4.762272
v 0.001952 0.005000 0.002778
vn 3.464018 -6.036431 5.227709
v 0.001657 -0.005000 0.003001
vn 3.464019 6.036431 5.227710
v 0.001657 0.005000 0.003001
vn 2.795464 -6.037206 5.613794
v 0.001337 -0.005000 0.003185
vn 2.795464 6.037206 5.613794
v 0.001337 0.005000 0.003185
vn 2.084709 -6.036584 5.914604
v 0.000997 -0.005000 0.003329
vn 2.084710 6.036584 5.914604
v 0.000997 0.005000 0.003329
vn 1.341420 -6.036561 6.126101
v 0.000642 -0.005000 0.003431
vn 1.341420 6.036561 6.126103
v 0.000642 0.005000 0.003431
vn 0.578449 -6.037022 6.244557
v 0.000277 -0.005000 0.003487
vn 0.578448 6.037022 6.244557
v 0.000277 0.005000 0.003487
vn -0.193149 -6.036658 6.268281
v -0.000092 -0.005000 0.003499
vn -0.193149 6.036658 6.268281
v -0.000092 0.005000 0.003499
vn -0.962207 -6.036771 6.197011
v -0.000460 -0.005000 0.003464
vn -0.962207 6.036771 6.197010
v -0.000460 0.005000 0.003464
vn -1.716180 -6.036986 6.031896
v -0.000821 -0.005000 0.003385
vn -1.716180 6.036986 6.031896
v -0.000821 0.005000 0.003385
vn -2.444252 -6.036695 5.775320
v -0.001169 -0.005000 0.003263
vn -2.444251 6.036695 5.775318
v -0.001169 0.005000 0.003263
vn -3.135560 -6.036795 5.431119
v -0.001500 -0.005000 0.003098
vn -3.135560 6.036795 5.431119
v -0.001500 0.005000 0.003098
vn -3.779285 -6.036717 5.004567
v -0.001808 -0.005000 0.002894
vn -3.779286 6.036717 5.004568
v -0.001808 0.005000 0.002894
vn -4.365739 -6.036774 4.502122
v -0.002088 -0.005000 0.002654
vn -4.365738 6.036774 4.502121
v -0.002088 0.005000 0.002654
vn -4.885992 -6.036705 3.931383
v -0.002337 -0.005000 0.002381
vn -4.885995 6.036705 3.931385
v -0.002337 0.005000 0.002381
vn -5.331937 -6.037081 3.301461
v -0.002551 -0.005000 0.002079
vn -5.331933 6.037081 3.301458
v -0.002551 0.005000 0.002079
vn -5.697069 -6.036684 2.621461
v -0.002725 -0.005000 0.001754
vn -5.697073 6.036684 2.621463
v -0.002725 0.005000 0.001754
vn -5.976160 -6.036623 1.901093
v -0.002859 -0.005000 0.001409
vn -5.976158 6.036623 1.901092
v -0.002859 0.005000 0.001409
vn -6.164498 -6.037034 1.152422
v -0.002949 -0.005000 0.001051
vn -6.164497 6.037034 1.152421
v -0.002949 0.005000 0.001051
vn -6.259345 -6.036638 0.386296
v -0.002994 -0.005000 0.000685
vn -6.259346 6.036638 0.386296
v -0.002994 0.005000 0.000685
vn -6.259346 -6.036639 -0.386294
v -0.002994 -0.005000 0.000315
vn -6.259345 6.036639 -0.386294
v -0.002994 0.005000 0.000315
vn -6.164520 -6.037093 -1.152328
v -0.002949 -0.005000 -0.000051
vn -6.164522 6.037093 -1.152329
v -0.002949 0.005000 -0.000051
vn -5.976147 -6.036500 -1.901093
v -0.002859 -0.005000 -0.000409
vn -5.976143 6.036500 -1.901091
v -0.002859 0.005000 -0.000409
vn -5.697029 -6.036741 -2.621560
v -0.002725 -0.005000 -0.000754
vn -5.697030 6.036741 -2.621560
v -0.002725 0.005000 -0.000754
vn -5.331930 -6.037086 -3.301466
v -0.002551 -0.005000 -0.001079
vn -5.331933 6.037086 -3.301468
v -0.002551 0.005000 -0.001079
vn -4.885995 -6.036705 -3.931385
v -0.002337 -0.005000 -0.001381
vn -4.885992 6.036705 -3.931383
v -0.002337 0.005000 -0.001381
vn -4.365449 -6.036531 -4.502370
v -0.002088 -0.005000 -0.001654
vn -4.365450 6.036531 -4.502371
v -0.002088 0.005000 -0.001654
vn -3.778992 -6.036955 -5.004821
v -0.001808 -0.005000 -0.001894
vn -3.778991 6.036955 -5.004819
v -0.001808 0.005000 -0.001894
vn -3.135964 -6.037090 -5.430919
v -0.001500 -0.005000 -0.002098
vn -3.135965 6.037090 -5.430920
v -0.001500 0.005000 -0.002098
vn -2.444661 -6.036404 -5.775115
v -0.001169 -0.005000 -0.002263
vn -2.444662 6.036404 -5.775116
v -0.001169 0.005000 -0.002263
vn -1.716180 -6.036986 -6.031896
v -0.000821 -0.005000 -0.002385
vn -1.716180 6.036986 -6.031896
v -0.000821 0.005000 -0.002385
vn -0.962207 -6.036770 -6.197010
v -0.000460 -0.005000 -0.002464
vn -0.962207 6.036770 -6.197011
v -0.000460 0.005000 -0.002464
vn -0.193147 -6.036657 -6.268281
v -0.000092 -0.005000 -0.002499
vn -0.193147 6.036657 -6.268281
v -0.000092 0.005000 -0.002499
vn 0.578949 -6.036701 -6.244480
v 0.000277 -0.005000 -0.002487
vn 0.578949 6.036701 -6.244479
v 0.000277 0.005000 -0.002487
vn 1.341910 -6.036889 -6.126027
v 0.000642 -0.005000 -0.002430
vn 1.341910 6.036889 -6.126027
v 0.000642 0.005000 -0.002430
vn 2.084282 -6.036867 -5.914784
v 0.000997 -0.005000 -0.002329
vn 2.084283 6.036867 -5.914785
v 0.000997 0.005000 -0.002329
vn 2.795415 -6.036646 -5.613760
v 0.001337 -0.005000 -0.002185
vn 2.795413 6.036646 -5.613757
v 0.001337 0.005000 -0.002185
vn 3.464067 -6.036956 -5.227736
v 0.001657 -0.005000 -0.002001
vn 3.464068 6.036956 -5.227737
v 0.001657 0.005000 -0.002001
vn 4.080102 -6.036719 -4.762508
v 0.001952 -0.005000 -0.001778
vn 4.080101 6.036719 -4.762507
v 0.001952 0.005000 -0.001778
vn 4.634532 -6.036760 -4.224909
v 0.002217 -0.005000 -0.001521
vn 4.634533 6.036760 -4.224910
v 0.002217 0.005000 -0.001521
vn 5.118564 -6.036858 -3.623422
v 0.002449 -0.005000 -0.001233
vn 5.118567 6.036858 -3.623424
v 0.002449 0.005000 -0.001233
vn 5.525036 -6.036713 -2.966939
v 0.002643 -0.005000 -0.000919
vn 5.525034 6.036713 -2.966938
v 0.002643 0.005000 -0.000919
vn 5.847741 -6.036925 -2.265591
v 0.002797 -0.005000 -0.000584
vn 5.847739 6.036925 -2.265591
v 0.002797 0.005000 -0.000584
vn 6.081770 -6.036770 -1.529984
v 0.002909 -0.005000 -0.000232
vn 6.081770 6.036770 -1.529984
v 0.002909 0.005000 -0.000232
vn 6.223721 -6.036524 -0.770573
v 0.002977 -0.005000 0.000131
vn 6.223722 6.036524 -0.770573
v 0.002977 0.005000 0.000131
vn 3.135650 -3.018553 -0.193149
v 0.003000 -0.005000 0.000500
vn 3.135650 3.018553 -0.193149
v 0.003000 0.005000 0.000500
# 108 vertices, 0 vertices normals

f 1//1 3//3 5//5
f 2//2 6//6 4//4
f 3//3 4//4 5//5
f 5//5 4//4 6//6
f 1//1 5//5 7//7
f 2//2 8//8 6//6
f 5//5 6//6 7//7
f 7//7 6//6 8//8
f 1//1 7//7 9//9
f 2//2 10//10 8//8
f 7//7 8//8 9//9
f 9//9 8//8 10//10
f 1//1 9//9 11//11
f 2//2 12//12 10//10
f 9//9 10//10 11//11
f 11//11 10//10 12//12
f 1//1 11//11 13//13
f 2//2 14//14 12//12
f 11//11 12//12 13//13
f 13//13 12//12 14//14
f 1//1 13//13 15//15
f 2//2 16//16 14//14
f 13//13 14//14 15//15
f 15//15 14//14 16//16
f 1//1 15//15 17//17
f 2//2 18//18 16//16
f 15//15 16//16 17//17
f 17//17 16//16 18//18
f 1//1 17//17 19//19
f 2//2 20//20 18//18
f 17//17 18//18 19//19
f 19//19 18//18 20//20
f 1//1 19//19 21//21
f 2//2 22//22 20//20
f 19//19 20//20 21//21
f 21//21 20//20 22//22
f 1//1 21//21 23//23
f 2//2 24//24 22//22
f 21//21 22//22 23//23
f 23//23 22//22 24//24
f 1//1 23//23 25//25
f 2//2 26//26 24//24
f 23//23 24//24 25//25
f 25//25 24//24 26//26
f 1//1 25//25 27//27
f 2//2 28//28 26//26
f 25//25 26//26 27//27
f 27//27 26//26 28//28
f 1//1 27//27 29//29
f 2//2 30//30 28//28
f 27//27 28//28 29//29
f 29//29 28//28 30//30
f 1//1 29//29 31//31
f 2//2 32//32 30//30
f 29//29 30//30 31//31
f 31//31 30//30 32//32
f 1//1 31//31 33//33
f 2//2 34//34 32//32
f 31//31 32//32 33//33
f 33//33 32//32 34//34
f 1//1 33//33 35//35
f 2//2 36//36 34//34
f 33//33 34//34 35//35
f 35//35 34//34 36//36
f 1//1 35//35 37//37
f 2//2 38//38 36//36
f 35//35 36//36 37//37
f 37//37 36//36 38//38
f 1//1 37//37 39//39
f 2//2 40//40 38//38
f 37//37 38//38 39//39
f 39//39 38//38 40//40
f 1//1 39//39 41//41
f 2//2 42//42 40//40
f 39//39 40//40 41//41
f 41//41 40//40 42//42
f 1//1 41//41 43//43
f 2//2 44//44 42//42
f 41//41 42//42 43//43
f 43//43 42//42 44//44
f 1//1 43//43 45//45
f 2//2 46//46 44//44
f 43//43 44//44 45//45
f 45//45 44//44 46//46
f 1//1 45//45 47//47
f 2//2 48//48 46//46
f 45//45 46//46 47//47
f 47//47 46//46 48//48
f 1//1 47//47 49//49
f 2//2 50//50 48//48
f 47//47 48//48 49//49
f 49//49 48//48 50//50
f 1//1 49//49 51//51
f 2//2 52//52 50//50
f 49//49 50//50 51//51
f 51//51 50//50 52//52
f 1//1 51//51 53//53
f 2//2 54//54 52//52
f 51//51 52//52 53//53
f 53//53 52//52 54//54
f 1//1 53//53 55//55
f 2//2 56//56 54//54
f 53//53 54//54 55//55
f 55//55 54//54 56//56
f 1//1 55//55 57//57
f 2//2 58//58 56//56
f 55//55 56//56 57//57
f 57//57 56//56 58//58
f 1//1 57//57 59//59
f 2//2 60//60 58//58
f 57//57 58//58 59//59
f 59//59 58//58 60//60
f 1//1 59//59 61//61
f 2//2 62//62 60//60
f 59//59 60//60 61//61
f 61//61 60//60 62//62
f 1//1 61//61 63//63
f 2//2 64//64 62//62
f 61//61 62//62 63//63
f 63//63 62//62 64//64
f 1//1 63//63 65//65
f 2//2 66//66 64//64
f 63//63 64//64 65//65
f 65//65 64//64 66//66
f 1//1 65//65 67//67
f 2//2 68//68 66//66
f 65//65 66//66 67//67
f 67//67 66//66 68//68
f 1//1 67//67 69//69
f 2//2 70//70 68//68
f 67//67 68//68 69//69
f 69//69 68//68 70//70
f 1//1 69//69 71//71
f 2//2 72//72 70//70
f 69//69 70//70 71//71
f 71//71 70//70 72//72
f 1//1 71//71 73//73
f 2//2 74//74 72//72
f 71//71 72//72 73//73
f 73//73 72//72 74//74
f 1//1 73//73 75//75
f 2//2 76//76 74//74
f 73//73 74//74 75//75
f 75//75 74//74 76//76
f 1//1 75//75 77//77
f 2//2 78//78 76//76
f 75//75 76//76 77//77
f 77//77 76//76 78//78
f 1//1 77//77 79//79
f 2//2 80//80 78//78
f 77//77 78//78 79//79
f 79//79 78//78 80//80
f 1//1 79//79 81//81
f 2//2 82//82 80//80
f 79//79 80//80 81//81
f 81//81 80//80 82//82
f 1//1 81//81 83//83
f 2//2 84//84 82//82
f 81//81 82//82 83//83
f 83//83 82//82 84//84
f 1//1 83//83 85//85
f 2//2 86//86 84//84
f 83//83 84//84 85//85
f 85//85 84//84 86//86
f 1//1 85//85 87//87
f 2//2 88//88 86//86
f 85//85 86//86 87//87
f 87//87 86//86 88//88
f 1//1 87//87 89//89
f 2//2 90//90 88//88
f 87//87 88//88 89//89
f 89//89 88//88 90//90
f 1//1 89//89 91//91
f 2//2 92//92 90//90
f 89//89 90//90 91//91
f 91//91 90//90 92//92
f 1//1 91//91 93//93
f 2//2 94//94 92//92
f 91//91 92//92 93//93
f 93//93 92//92 94//94
f 1//1 93//93 95//95
f 2//2 96//96 94//94
f 93//93 94//94 95//95
f 95//95 94//94 96//96
f 1//1 95//95 97//97
f 2//2 98//98 96//96
f 95//95 96//96 97//97
f 97//97 96//96 98//98
f 1//1 97//97 99//99
f 2//2 100//100 98//98
f 97//97 98//98 99//99
f 99//99 98//98 100//100
f 1//1 99//99 101//101
f 2//2 102//102 100//100
f 99//99 100//100 101//101
f 101//101 100//100 102//102
f 1//1 101//101 103//103
f 2//2 104//104 102//102
f 101//101 102//102 103//103
f 103//103 102//102 104//104
f 1//1 103//103 105//105
f 2//2 106//106 104//104
f 103//103 104//104 105//105
f 105//105 104//104 106//106
f 1//1 105//105 107//107
f 2//2 108//108 106//106
f 105//105 106//106 107//107
f 107//107 106//106 108//108
f 1//1 3//3 5//5
f 2//2 6//6 4//4
f 3//3 4//4 5//5
f 5//5 4//4 6//6
f 1//1 5//5 7//7
f 2//2 8//8 6//6
f 5//5 6//6 7//7
f 7//7 6//6 8//8
f 1//1 7//7 9//9
f 2//2 10//10 8//8
f 7//7 8//8 9//9
f 9//9 8//8 10//10
f 1//1 9//9 11//11
f 2//2 12//12 10//10
f 9//9 10//10 11//11
f 11//11 10//10 12//12
f 1//1 11//11 13//13
f 2//2 14//14 12//12
f 11//11 12//12 13//13
f 13//13 12//12 14//14
f 1//1 13//13 15//15
f 2//2 16//16 14//14
f 13//13 14//14 15//15
f 15//15 14//14 16//16
f 1//1 15//15 17//17
f 2//2 18//18 16//16
f 15//15 16//16 17//17
f 17//17 16//16 18//18
f 1//1 17//17 19//19
f 2//2 20//20 18//18
f 17//17 18//18 19//19
f 19//19 18//18 20//20
f 1//1 19//19 21//21
f 2//2 22//22 20//20
f 19//19 20//20 21//21
f 21//21 20//20 22//22
f 1//1 21//21 23//23
f 2//2 24//24 22//22
f 21//21 22//22 23//23
f 23//23 22//22 24//24
f 1//1 23//23 25//25
f 2//2 26//26 24//24
f 23//23 24//24 25//25
f 25//25 24//24 26//26
f 1//1 25//25 27//27
f 2//2 28//28 26//26
f 25//25 26//26 27//27
f 27//27 26//26 28//28
f 1//1 27//27 29//29
f 2//2 30//30 28//28
f 27//27 28//28 29//29
f 29//29 28//28 30//30
f 1//1 29//29 31//31
f 2//2 32//32 30//30
f 29//29 30//30 31//31
f 31//31 30//30 32//32
f 1//1 31//31 33//33
f 2//2 34//34 32//32
f 31//31 32//32 33//33
f 33//33 32//32 34//34
f 1//1 33//33 35//35
f 2//2 36//36 34//34
f 33//33 34//34 35//35
f 35//35 34//34 36//36
f 1//1 35//35 37//37
f 2//2 38//38 36//36
f 35//35 36//36 37//37
f 37//37 36//36 38//38
f 1//1 37//37 39//39
f 2//2 40//40 38//38
f 37//37 38//38 39//39
f 39//39 38//38 40//40
f 1//1 39//39 41//41
f 2//2 42//42 40//40
f 39//39 40//40 41//41
f 41//41 40//40 42//42
f 1//1 41//41 43//43
f 2//2 44//44 42//42
f 41//41 42//42 43//43
f 43//43 42//42 44//44
f 1//1 43//43 45//45
f 2//2 46//46 44//44
f 43//43 44//44 45//45
f 45//45 44//44 46//46
f 1//1 45//45 47//47
f 2//2 48//48 46//46
f 45//45 46//46 47//47
f 47//47 46//46 48//48
f 1//1 47//47 49//49
f 2//2 50//50 48//48
f 47//47 48//48 49//49
f 49//49 48//48 50//50
f 1//1 49//49 51//51
f 2//2 52//52 50//50
f 49//49 50//50 51//51
f 51//51 50//50 52//52
f 1//1 51//51 53//53
f 2//2 54//54 52//52
f 51//51 52//52 53//53
f 53//53 52//52 54//54
f 1//1 53//53 55//55
f 2//2 56//56 54//54
f 53//53 54//54 55//55
f 55//55 54//54 56//56
f 1//1 55//55 57//57
f 2//2 58//58 56//56
f 55//55 56//56 57//57
f 57//57 56//56 58//58
f 1//1 57//57 59//59
f 2//2 60//60 58//58
f 57//57 58//58 59//59
f 59//59 58//58 60//60
f 1//1 59//59 61//61
f 2//2 62//62 60//60
f 59//59 60//60 61//61
f 61//61 60//60 62//62
f 1//1 61//61 63//63
f 2//2 64//64 62//62
f 61//61 62//62 63//63
f 63//63 62//62 64//64
f 1//1 63//63 65//65
f 2//2 66//66 64//64
f 63//63 64//64 65//65
f 65//65 64//64 66//66
f 1//1 65//65 67//67
f 2//2 68//68 66//66
f 65//65 66//66 67//67
f 67//67 66//66 68//68
f 1//1 67//67 69//69
f 2//2 70//70 68//68
f 67//67 68//68 69//69
f 69//69 68//68 70//70
f 1//1 69//69 71//71
f 2//2 72//72 70//70
f 69//69 70//70 71//71
f 71//71 70//70 72//72
f 1//1 71//71 73//73
f 2//2 74//74 72//72
f 71//71 72//72 73//73
f 73//73 72//72 74//74
f 1//1 73//73 75//75
f 2//2 76//76 74//74
f 73//73 74//74 75//75
f 75//75 74//74 76//76
f 1//1 75//75 77//77
f 2//2 78//78 76//76
f 75//75 76//76 77//77
f 77//77 76//76 78//78
f 1//1 77//77 79//79
f 2//2 80//80 78//78
f 77//77 78//78 79//79
f 79//79 78//78 80//80
f 1//1 79//79 81//81
f 2//2 82//82 80//80
f 79//79 80//80 81//81
f 81//81 80//80 82//82
f 1//1 81//81 83//83
f 2//2 84//84 82//82
f 81//81 82//82 83//83
f 83//83 82//82 84//84
f 1//1 83//83 85//85
f 2//2 86//86 84//84
f 83//83 84//84 85//85
f 85//85 84//84 86//86
f 1//1 85//85 87//87
f 2//2 88//88 86//86
f 85//85 86//86 87//87
f 87//87 86//86 88//88
f 1//1 87//87 89//89
f 2//2 90//90 88//88
f 87//87 88//88 89//89
f 89//89 88//88 90//90
f 1//1 89//89 91//91
f 2//2 92//92 90//90
f 89//89 90//90 91//91
f 91//91 90//90 92//92
f 1//1 91//91 93//93
f 2//2 94//94 92//92
f 91//91 92//92 93//93
f 93//93 92//92 94//94
f 1//1 93//93 95//95
f 2//2 96//96 94//94
f 93//93 94//94 95//95
f 95//95 94//94 96//96
f 1//1 95//95 97//97
f 2//2 98//98 96//96
f 95//95 96//96 97//97
f 97//97 96//96 98//98
f 1//1 97//97 99//99
f 2//2 100//100 98//98
f 97//97 98//98 99//99
f 99//99 98//98 100//100
f 1//1 99//99 101//101
f 2//2 102//102 100//100
f 99//99 100//100 101//101
f 101//101 100//100 102//102
f 1//1 101//101 103//103
f 2//2 104//104 102//102
f 101//101 102//102 103//103
f 103//103 102//102 104//104
f 1//1 103//103 105//105
f 2//2 106//106 104//104
f 103//103 104//104 105//105
f 105//105 104//104 106//106
f 1//1 105//105 107//107
f 2//2 108//108 106//106
f 105//105 106//106 107//107
f 107//107 106//106 108//108
# 416 faces, 0 coords texture

# End of File
